M48
; DRILL file {KiCad (5.1.8-0-10_14)} date Sunday, September 26, 2021 at 01:45:01 AM
; FORMAT={-:-/ absolute / metric / decimal}
; #@! TF.CreationDate,2021-09-26T01:45:01+09:00
; #@! TF.GenerationSoftware,Kicad,Pcbnew,(5.1.8-0-10_14)
; #@! TF.FileFunction,NonPlated,1,2,NPTH
FMAT,2
METRIC
T1C1.750
T2C3.048
T3C3.988
%
G90
G05
T1
X113.983Y-35.719
X124.142Y-35.719
X66.358Y-54.769
X76.517Y-54.769
X266.382Y-92.869
X276.542Y-92.869
X99.695Y-92.869
X109.855Y-92.869
X285.433Y-73.819
X295.592Y-73.819
X247.333Y-92.869
X257.493Y-92.869
X256.858Y-35.719
X267.017Y-35.719
X171.132Y-35.719
X181.292Y-35.719
X285.433Y-35.719
X295.592Y-35.719
X47.307Y-54.769
X57.467Y-54.769
X209.232Y-35.719
X219.392Y-35.719
X183.039Y-111.919
X193.199Y-111.919
X80.645Y-92.869
X90.805Y-92.869
X133.032Y-35.719
X143.192Y-35.719
X209.233Y-92.869
X219.393Y-92.869
X254.476Y-73.819
X264.636Y-73.819
X240.19Y-92.869
X250.35Y-92.869
X97.314Y-111.919
X107.474Y-111.919
X90.17Y-73.819
X100.33Y-73.819
X247.332Y-111.919
X257.493Y-111.919
X128.27Y-73.819
X138.43Y-73.819
X113.983Y-92.869
X124.143Y-92.869
X4.445Y-54.769
X14.605Y-54.769
X156.845Y-92.869
X167.005Y-92.869
X266.382Y-35.719
X276.542Y-35.719
X56.833Y-92.869
X66.993Y-92.869
X223.52Y-73.819
X233.68Y-73.819
X52.07Y-73.819
X62.23Y-73.819
X171.133Y-92.869
X181.293Y-92.869
X75.882Y-35.719
X86.042Y-35.719
X199.707Y-54.769
X209.867Y-54.769
X71.12Y-73.819
X81.28Y-73.819
X266.382Y-111.919
X276.542Y-111.919
X152.082Y-35.719
X162.243Y-35.719
X264.001Y-64.294
X274.161Y-64.294
X-0.318Y-35.719
X9.842Y-35.719
X37.782Y-35.719
X47.942Y-35.719
X42.545Y-92.869
X52.705Y-92.869
X218.757Y-54.769
X228.917Y-54.769
X206.851Y-111.919
X217.011Y-111.919
X28.258Y-54.769
X38.417Y-54.769
X104.457Y-54.769
X114.617Y-54.769
X11.589Y-92.869
X21.749Y-92.869
X228.283Y-92.869
X238.443Y-92.869
X140.177Y-111.919
X150.337Y-111.919
X9.208Y-92.869
X19.368Y-92.869
X194.945Y-92.869
X205.105Y-92.869
X94.932Y-35.719
X105.093Y-35.719
X147.32Y-73.819
X157.48Y-73.819
X209.232Y-111.919
X219.392Y-111.919
X285.433Y-54.769
X295.592Y-54.769
X180.657Y-54.769
X190.817Y-54.769
X213.995Y-92.869
X224.155Y-92.869
X47.308Y-111.919
X57.468Y-111.919
X75.883Y-92.869
X86.043Y-92.869
X228.282Y-111.919
X238.442Y-111.919
X161.607Y-54.769
X171.767Y-54.769
X137.795Y-92.869
X147.955Y-92.869
X175.895Y-92.869
X186.055Y-92.869
X66.358Y-111.919
X76.517Y-111.919
X121.126Y-111.919
X131.286Y-111.919
X61.595Y-92.869
X71.755Y-92.869
X285.433Y-92.869
X295.592Y-92.869
X92.552Y-111.919
X102.712Y-111.919
X133.033Y-92.869
X143.193Y-92.869
X49.689Y-111.919
X59.849Y-111.919
X261.62Y-54.769
X271.78Y-54.769
X204.47Y-73.819
X214.63Y-73.819
X242.57Y-73.819
X252.73Y-73.819
X247.332Y-35.719
X257.493Y-35.719
X6.826Y-73.819
X16.986Y-73.819
X90.17Y-111.919
X100.33Y-111.919
X33.02Y-73.819
X43.18Y-73.819
X187.801Y-111.919
X197.961Y-111.919
X56.832Y-35.719
X66.992Y-35.719
X144.939Y-111.919
X155.099Y-111.919
X190.183Y-92.869
X200.343Y-92.869
X228.282Y-35.719
X238.442Y-35.719
X25.876Y-111.919
X36.036Y-111.919
X52.07Y-111.919
X62.23Y-111.919
X118.745Y-92.869
X128.905Y-92.869
X94.933Y-92.869
X105.093Y-92.869
X2.064Y-111.919
X12.224Y-111.919
X18.732Y-35.719
X28.892Y-35.719
X123.507Y-54.769
X133.667Y-54.769
X166.37Y-73.819
X176.53Y-73.819
X109.22Y-73.819
X119.38Y-73.819
X142.558Y-54.769
X152.718Y-54.769
X37.783Y-92.869
X47.943Y-92.869
X237.718Y-54.769
X247.878Y-54.769
X147.32Y-111.919
X157.48Y-111.919
X171.132Y-111.919
X181.292Y-111.919
X190.183Y-111.919
X200.343Y-111.919
X85.407Y-54.769
X95.567Y-54.769
X285.433Y-111.919
X295.592Y-111.919
X152.083Y-92.869
X162.243Y-92.869
X190.183Y-35.719
X200.343Y-35.719
X185.42Y-73.819
X195.58Y-73.819
T2
X133.351Y-118.904
X157.163Y-118.904
X2.381Y-85.884
X26.194Y-85.884
X76.206Y-118.904
X176.206Y-118.904
X85.725Y-118.904
X109.538Y-118.904
X76.2Y-118.904
X114.3Y-118.904
X138.113Y-118.904
X161.926Y-118.904
X133.35Y-118.904
X171.45Y-118.904
X250.031Y-28.734
X273.844Y-28.734
X247.65Y-66.834
X271.462Y-66.834
X90.488Y-118.904
X114.3Y-118.904
X276.066Y-52.356
X276.066Y-76.232
X4.763Y-85.884
X28.575Y-85.884
T3
X204.787Y-54.769
X76.2Y-73.819
X271.462Y-111.919
X157.162Y-35.719
X260.826Y-52.356
X260.826Y-76.232
X269.081Y-64.294
X4.763Y-35.719
X42.862Y-35.719
X47.625Y-92.869
X223.837Y-54.769
X211.931Y-111.919
X33.337Y-54.769
X109.537Y-54.769
X4.763Y-101.124
X16.669Y-92.869
X28.575Y-101.124
X233.363Y-92.869
X133.351Y-103.664
X145.257Y-111.919
X157.163Y-103.664
X2.381Y-101.124
X14.288Y-92.869
X26.194Y-101.124
X200.025Y-92.869
X100.012Y-35.719
X152.4Y-73.819
X214.312Y-111.919
X290.512Y-54.769
X185.737Y-54.769
X219.075Y-92.869
X52.388Y-111.919
X80.963Y-92.869
X233.362Y-111.919
X166.688Y-54.769
X142.875Y-92.869
X180.975Y-92.869
X71.438Y-111.919
X76.206Y-103.664
X126.206Y-111.919
X176.206Y-103.664
X66.675Y-92.869
X290.512Y-92.869
X85.725Y-103.664
X97.632Y-111.919
X109.538Y-103.664
X138.113Y-92.869
X54.769Y-111.919
X266.7Y-54.769
X209.55Y-73.819
X247.65Y-73.819
X252.412Y-35.719
X11.906Y-73.819
X76.2Y-103.664
X95.25Y-111.919
X114.3Y-103.664
X38.1Y-73.819
X192.881Y-111.919
X61.912Y-35.719
X138.113Y-103.664
X150.019Y-111.919
X161.926Y-103.664
X195.263Y-92.869
X233.362Y-35.719
X30.956Y-111.919
X57.15Y-111.919
X123.825Y-92.869
X100.013Y-92.869
X7.144Y-111.919
X23.812Y-35.719
X128.588Y-54.769
X171.45Y-73.819
X114.3Y-73.819
X147.637Y-54.769
X42.863Y-92.869
X242.798Y-54.769
X133.35Y-103.664
X152.4Y-111.919
X171.45Y-103.664
X176.213Y-111.919
X195.263Y-111.919
X90.487Y-54.769
X290.512Y-111.919
X157.163Y-92.869
X195.262Y-35.719
X190.5Y-73.819
X119.062Y-35.719
X71.438Y-54.769
X271.462Y-92.869
X104.775Y-92.869
X290.512Y-73.819
X252.413Y-92.869
X250.031Y-43.974
X261.938Y-35.719
X273.844Y-43.974
X176.213Y-35.719
X290.512Y-35.719
X52.387Y-54.769
X214.312Y-35.719
X188.119Y-111.919
X85.725Y-92.869
X138.112Y-35.719
X214.313Y-92.869
X247.65Y-82.074
X259.556Y-73.819
X271.462Y-82.074
X245.27Y-92.869
X90.488Y-103.664
X102.394Y-111.919
X114.3Y-103.664
X95.25Y-73.819
X252.412Y-111.919
X133.35Y-73.819
X119.063Y-92.869
X9.525Y-54.769
X161.925Y-92.869
X271.462Y-35.719
X61.913Y-92.869
X228.6Y-73.819
X57.15Y-73.819
X176.213Y-92.869
X80.962Y-35.719
T0
M30
