G04 #@! TF.GenerationSoftware,KiCad,Pcbnew,(5.1.8-0-10_14)*
G04 #@! TF.CreationDate,2021-09-26T01:44:44+09:00*
G04 #@! TF.ProjectId,ts69v3,74733639-7633-42e6-9b69-6361645f7063,rev?*
G04 #@! TF.SameCoordinates,Original*
G04 #@! TF.FileFunction,Paste,Bot*
G04 #@! TF.FilePolarity,Positive*
%FSLAX46Y46*%
G04 Gerber Fmt 4.6, Leading zero omitted, Abs format (unit mm)*
G04 Created by KiCad (PCBNEW (5.1.8-0-10_14)) date 2021-09-26 01:44:44*
%MOMM*%
%LPD*%
G01*
G04 APERTURE LIST*
%ADD10R,1.200000X0.900000*%
%ADD11R,1.500000X1.000000*%
%ADD12R,0.900000X1.200000*%
G04 APERTURE END LIST*
G36*
G01*
X46133029Y-38422744D02*
X46473029Y-38422744D01*
G75*
G02*
X46613029Y-38562744I0J-140000D01*
G01*
X46613029Y-38842744D01*
G75*
G02*
X46473029Y-38982744I-140000J0D01*
G01*
X46133029Y-38982744D01*
G75*
G02*
X45993029Y-38842744I0J140000D01*
G01*
X45993029Y-38562744D01*
G75*
G02*
X46133029Y-38422744I140000J0D01*
G01*
G37*
G36*
G01*
X46133029Y-39382744D02*
X46473029Y-39382744D01*
G75*
G02*
X46613029Y-39522744I0J-140000D01*
G01*
X46613029Y-39802744D01*
G75*
G02*
X46473029Y-39942744I-140000J0D01*
G01*
X46133029Y-39942744D01*
G75*
G02*
X45993029Y-39802744I0J140000D01*
G01*
X45993029Y-39522744D01*
G75*
G02*
X46133029Y-39382744I140000J0D01*
G01*
G37*
D10*
X88106324Y-31279711D03*
X88106324Y-27979711D03*
X142875120Y-75876629D03*
X142875120Y-79176629D03*
D11*
X226287688Y-97221958D03*
X226287688Y-100421958D03*
X221387688Y-97221958D03*
X221387688Y-100421958D03*
X121375520Y-100421958D03*
X121375520Y-97221958D03*
X126275520Y-100421958D03*
X126275520Y-97221958D03*
D10*
X110728218Y-112190722D03*
X110728218Y-115490722D03*
X43457849Y-111595409D03*
X43457849Y-114895409D03*
X225028314Y-80367255D03*
X225028314Y-83667255D03*
D11*
X39885971Y-42862536D03*
X39885971Y-39662536D03*
X44785971Y-42862536D03*
X44785971Y-39662536D03*
D10*
X280987736Y-114300096D03*
X280987736Y-111000096D03*
D12*
X280392423Y-78581316D03*
X283692423Y-78581316D03*
X280392423Y-49410979D03*
X283692423Y-49410979D03*
X279201797Y-31551589D03*
X282501797Y-31551589D03*
D10*
X263128346Y-111000096D03*
X263128346Y-114300096D03*
X261937720Y-83803194D03*
X261937720Y-80503194D03*
X267890850Y-71114125D03*
X267890850Y-74414125D03*
X257175216Y-56231250D03*
X257175216Y-59531250D03*
D12*
X261665842Y-27979711D03*
X258365842Y-27979711D03*
D10*
X260746875Y-114300096D03*
X260746875Y-111000096D03*
X244078330Y-27979711D03*
X244078330Y-31279711D03*
X242887500Y-111000000D03*
X242887500Y-114300000D03*
X236934574Y-75876629D03*
X236934574Y-79176629D03*
X252412500Y-56231300D03*
X252412500Y-59531300D03*
X240506452Y-31279711D03*
X240506452Y-27979711D03*
X223837500Y-114300096D03*
X223837500Y-111000096D03*
X233362696Y-59531300D03*
X233362696Y-56231300D03*
X221456436Y-27979711D03*
X221456436Y-31279711D03*
X202406420Y-112786035D03*
X202406420Y-116086035D03*
X206573611Y-83667255D03*
X206573611Y-80367255D03*
X217884558Y-75876629D03*
X217884558Y-79176629D03*
X214312500Y-56231250D03*
X214312500Y-59531250D03*
X202406420Y-31279711D03*
X202406420Y-27979711D03*
X187523595Y-80367255D03*
X187523595Y-83667255D03*
X200025168Y-79176629D03*
X200025168Y-75876629D03*
X195262664Y-59531300D03*
X195262664Y-56231300D03*
X183356404Y-27979711D03*
X183356404Y-31279711D03*
X162520449Y-112190722D03*
X162520449Y-115490722D03*
X169068892Y-83667255D03*
X169068892Y-80367255D03*
X180975000Y-75876629D03*
X180975000Y-79176629D03*
X176212500Y-56231250D03*
X176212500Y-59531250D03*
X164306388Y-27979711D03*
X164306388Y-31279711D03*
X148828250Y-80367255D03*
X148828250Y-83667255D03*
X161925136Y-79176629D03*
X161925136Y-75876629D03*
X157162632Y-59531300D03*
X157162632Y-56231300D03*
X145256372Y-27979711D03*
X145256372Y-31279711D03*
X130968860Y-83667255D03*
X130968860Y-80367255D03*
X138112616Y-56231300D03*
X138112616Y-59531300D03*
X126206356Y-31279711D03*
X126206356Y-27979711D03*
X110728218Y-80367255D03*
X110728218Y-83667255D03*
X123825104Y-79176629D03*
X123825104Y-75876629D03*
X119062500Y-59531300D03*
X119062500Y-56231300D03*
X107156340Y-27979711D03*
X107156340Y-31279711D03*
X92868828Y-83667255D03*
X92868828Y-80367255D03*
X104775000Y-75876629D03*
X104775000Y-79176629D03*
X100012500Y-56231250D03*
X100012500Y-59531250D03*
X72032873Y-80367255D03*
X72032873Y-83667255D03*
X85725072Y-79176629D03*
X85725072Y-75876629D03*
X80962568Y-59531300D03*
X80962568Y-56231300D03*
X69056308Y-27979711D03*
X69056308Y-31279711D03*
X54768796Y-83667255D03*
X54768796Y-80367255D03*
X66675056Y-75876629D03*
X66675056Y-79176629D03*
X61912500Y-56231250D03*
X61912500Y-59531250D03*
X50006292Y-31279711D03*
X50006292Y-27979711D03*
X39885971Y-114895409D03*
X39885971Y-111595409D03*
X47625040Y-79176629D03*
X47625040Y-75876629D03*
X40481284Y-59531300D03*
X40481284Y-56231300D03*
D12*
X32470337Y-28575024D03*
X29170337Y-28575024D03*
D10*
X16668750Y-111595409D03*
X16668750Y-114895409D03*
D12*
X18726581Y-60721926D03*
X22026581Y-60721926D03*
X18726581Y-58340674D03*
X22026581Y-58340674D03*
X18726581Y-55959422D03*
X22026581Y-55959422D03*
X9796886Y-31551589D03*
X13096886Y-31551589D03*
D10*
X80367255Y-115354783D03*
X80367255Y-112054783D03*
X166092327Y-112190722D03*
X166092327Y-115490722D03*
D11*
X101203210Y-39885971D03*
X101203210Y-43085971D03*
X96303210Y-39885971D03*
X96303210Y-43085971D03*
X161261075Y-42676597D03*
X161261075Y-39476597D03*
X166161075Y-42676597D03*
X166161075Y-39476597D03*
X226288440Y-38881420D03*
X226288440Y-42081420D03*
X221388440Y-38881420D03*
X221388440Y-42081420D03*
X277415858Y-42267223D03*
X277415858Y-39067223D03*
X282315858Y-42267223D03*
X282315858Y-39067223D03*
X277347110Y-101203210D03*
X277347110Y-98003210D03*
X282247110Y-101203210D03*
X282247110Y-98003210D03*
X171381396Y-99826645D03*
X171381396Y-96626645D03*
X176281396Y-99826645D03*
X176281396Y-96626645D03*
X69125056Y-97221958D03*
X69125056Y-100421958D03*
X64225056Y-97221958D03*
X64225056Y-100421958D03*
X15340710Y-102207897D03*
X15340710Y-99007897D03*
X20240710Y-102207897D03*
X20240710Y-99007897D03*
D12*
X283692423Y-68460995D03*
X280392423Y-68460995D03*
D10*
X241697078Y-83667255D03*
X241697078Y-80367255D03*
X133945425Y-115490722D03*
X133945425Y-112190722D03*
G36*
G01*
X103002285Y-41130030D02*
X102662285Y-41130030D01*
G75*
G02*
X102522285Y-40990030I0J140000D01*
G01*
X102522285Y-40710030D01*
G75*
G02*
X102662285Y-40570030I140000J0D01*
G01*
X103002285Y-40570030D01*
G75*
G02*
X103142285Y-40710030I0J-140000D01*
G01*
X103142285Y-40990030D01*
G75*
G02*
X103002285Y-41130030I-140000J0D01*
G01*
G37*
G36*
G01*
X103002285Y-40170030D02*
X102662285Y-40170030D01*
G75*
G02*
X102522285Y-40030030I0J140000D01*
G01*
X102522285Y-39750030D01*
G75*
G02*
X102662285Y-39610030I140000J0D01*
G01*
X103002285Y-39610030D01*
G75*
G02*
X103142285Y-39750030I0J-140000D01*
G01*
X103142285Y-40030030D01*
G75*
G02*
X103002285Y-40170030I-140000J0D01*
G01*
G37*
G36*
G01*
X284134301Y-40050658D02*
X283794301Y-40050658D01*
G75*
G02*
X283654301Y-39910658I0J140000D01*
G01*
X283654301Y-39630658D01*
G75*
G02*
X283794301Y-39490658I140000J0D01*
G01*
X284134301Y-39490658D01*
G75*
G02*
X284274301Y-39630658I0J-140000D01*
G01*
X284274301Y-39910658D01*
G75*
G02*
X284134301Y-40050658I-140000J0D01*
G01*
G37*
G36*
G01*
X284134301Y-39090658D02*
X283794301Y-39090658D01*
G75*
G02*
X283654301Y-38950658I0J140000D01*
G01*
X283654301Y-38670658D01*
G75*
G02*
X283794301Y-38530658I140000J0D01*
G01*
X284134301Y-38530658D01*
G75*
G02*
X284274301Y-38670658I0J-140000D01*
G01*
X284274301Y-38950658D01*
G75*
G02*
X284134301Y-39090658I-140000J0D01*
G01*
G37*
G36*
G01*
X275799919Y-102443210D02*
X275459919Y-102443210D01*
G75*
G02*
X275319919Y-102303210I0J140000D01*
G01*
X275319919Y-102023210D01*
G75*
G02*
X275459919Y-101883210I140000J0D01*
G01*
X275799919Y-101883210D01*
G75*
G02*
X275939919Y-102023210I0J-140000D01*
G01*
X275939919Y-102303210D01*
G75*
G02*
X275799919Y-102443210I-140000J0D01*
G01*
G37*
G36*
G01*
X275799919Y-101483210D02*
X275459919Y-101483210D01*
G75*
G02*
X275319919Y-101343210I0J140000D01*
G01*
X275319919Y-101063210D01*
G75*
G02*
X275459919Y-100923210I140000J0D01*
G01*
X275799919Y-100923210D01*
G75*
G02*
X275939919Y-101063210I0J-140000D01*
G01*
X275939919Y-101343210D01*
G75*
G02*
X275799919Y-101483210I-140000J0D01*
G01*
G37*
G36*
G01*
X219840497Y-101847897D02*
X219500497Y-101847897D01*
G75*
G02*
X219360497Y-101707897I0J140000D01*
G01*
X219360497Y-101427897D01*
G75*
G02*
X219500497Y-101287897I140000J0D01*
G01*
X219840497Y-101287897D01*
G75*
G02*
X219980497Y-101427897I0J-140000D01*
G01*
X219980497Y-101707897D01*
G75*
G02*
X219840497Y-101847897I-140000J0D01*
G01*
G37*
G36*
G01*
X219840497Y-100887897D02*
X219500497Y-100887897D01*
G75*
G02*
X219360497Y-100747897I0J140000D01*
G01*
X219360497Y-100467897D01*
G75*
G02*
X219500497Y-100327897I140000J0D01*
G01*
X219840497Y-100327897D01*
G75*
G02*
X219980497Y-100467897I0J-140000D01*
G01*
X219980497Y-100747897D01*
G75*
G02*
X219840497Y-100887897I-140000J0D01*
G01*
G37*
G36*
G01*
X169238892Y-100292584D02*
X168898892Y-100292584D01*
G75*
G02*
X168758892Y-100152584I0J140000D01*
G01*
X168758892Y-99872584D01*
G75*
G02*
X168898892Y-99732584I140000J0D01*
G01*
X169238892Y-99732584D01*
G75*
G02*
X169378892Y-99872584I0J-140000D01*
G01*
X169378892Y-100152584D01*
G75*
G02*
X169238892Y-100292584I-140000J0D01*
G01*
G37*
G36*
G01*
X169238892Y-101252584D02*
X168898892Y-101252584D01*
G75*
G02*
X168758892Y-101112584I0J140000D01*
G01*
X168758892Y-100832584D01*
G75*
G02*
X168898892Y-100692584I140000J0D01*
G01*
X169238892Y-100692584D01*
G75*
G02*
X169378892Y-100832584I0J-140000D01*
G01*
X169378892Y-101112584D01*
G75*
G02*
X169238892Y-101252584I-140000J0D01*
G01*
G37*
G36*
G01*
X119827913Y-100887897D02*
X119487913Y-100887897D01*
G75*
G02*
X119347913Y-100747897I0J140000D01*
G01*
X119347913Y-100467897D01*
G75*
G02*
X119487913Y-100327897I140000J0D01*
G01*
X119827913Y-100327897D01*
G75*
G02*
X119967913Y-100467897I0J-140000D01*
G01*
X119967913Y-100747897D01*
G75*
G02*
X119827913Y-100887897I-140000J0D01*
G01*
G37*
G36*
G01*
X119827913Y-101847897D02*
X119487913Y-101847897D01*
G75*
G02*
X119347913Y-101707897I0J140000D01*
G01*
X119347913Y-101427897D01*
G75*
G02*
X119487913Y-101287897I140000J0D01*
G01*
X119827913Y-101287897D01*
G75*
G02*
X119967913Y-101427897I0J-140000D01*
G01*
X119967913Y-101707897D01*
G75*
G02*
X119827913Y-101847897I-140000J0D01*
G01*
G37*
G36*
G01*
X62677865Y-101252584D02*
X62337865Y-101252584D01*
G75*
G02*
X62197865Y-101112584I0J140000D01*
G01*
X62197865Y-100832584D01*
G75*
G02*
X62337865Y-100692584I140000J0D01*
G01*
X62677865Y-100692584D01*
G75*
G02*
X62817865Y-100832584I0J-140000D01*
G01*
X62817865Y-101112584D01*
G75*
G02*
X62677865Y-101252584I-140000J0D01*
G01*
G37*
G36*
G01*
X62677865Y-100292584D02*
X62337865Y-100292584D01*
G75*
G02*
X62197865Y-100152584I0J140000D01*
G01*
X62197865Y-99872584D01*
G75*
G02*
X62337865Y-99732584I140000J0D01*
G01*
X62677865Y-99732584D01*
G75*
G02*
X62817865Y-99872584I0J-140000D01*
G01*
X62817865Y-100152584D01*
G75*
G02*
X62677865Y-100292584I-140000J0D01*
G01*
G37*
G36*
G01*
X15648138Y-104575088D02*
X15308138Y-104575088D01*
G75*
G02*
X15168138Y-104435088I0J140000D01*
G01*
X15168138Y-104155088D01*
G75*
G02*
X15308138Y-104015088I140000J0D01*
G01*
X15648138Y-104015088D01*
G75*
G02*
X15788138Y-104155088I0J-140000D01*
G01*
X15788138Y-104435088D01*
G75*
G02*
X15648138Y-104575088I-140000J0D01*
G01*
G37*
G36*
G01*
X15648138Y-105535088D02*
X15308138Y-105535088D01*
G75*
G02*
X15168138Y-105395088I0J140000D01*
G01*
X15168138Y-105115088D01*
G75*
G02*
X15308138Y-104975088I140000J0D01*
G01*
X15648138Y-104975088D01*
G75*
G02*
X15788138Y-105115088I0J-140000D01*
G01*
X15788138Y-105395088D01*
G75*
G02*
X15648138Y-105535088I-140000J0D01*
G01*
G37*
G36*
G01*
X167917195Y-39756261D02*
X167577195Y-39756261D01*
G75*
G02*
X167437195Y-39616261I0J140000D01*
G01*
X167437195Y-39336261D01*
G75*
G02*
X167577195Y-39196261I140000J0D01*
G01*
X167917195Y-39196261D01*
G75*
G02*
X168057195Y-39336261I0J-140000D01*
G01*
X168057195Y-39616261D01*
G75*
G02*
X167917195Y-39756261I-140000J0D01*
G01*
G37*
G36*
G01*
X167917195Y-40716261D02*
X167577195Y-40716261D01*
G75*
G02*
X167437195Y-40576261I0J140000D01*
G01*
X167437195Y-40296261D01*
G75*
G02*
X167577195Y-40156261I140000J0D01*
G01*
X167917195Y-40156261D01*
G75*
G02*
X168057195Y-40296261I0J-140000D01*
G01*
X168057195Y-40576261D01*
G75*
G02*
X167917195Y-40716261I-140000J0D01*
G01*
G37*
G36*
G01*
X228174879Y-39205971D02*
X227834879Y-39205971D01*
G75*
G02*
X227694879Y-39065971I0J140000D01*
G01*
X227694879Y-38785971D01*
G75*
G02*
X227834879Y-38645971I140000J0D01*
G01*
X228174879Y-38645971D01*
G75*
G02*
X228314879Y-38785971I0J-140000D01*
G01*
X228314879Y-39065971D01*
G75*
G02*
X228174879Y-39205971I-140000J0D01*
G01*
G37*
G36*
G01*
X228174879Y-40165971D02*
X227834879Y-40165971D01*
G75*
G02*
X227694879Y-40025971I0J140000D01*
G01*
X227694879Y-39745971D01*
G75*
G02*
X227834879Y-39605971I140000J0D01*
G01*
X228174879Y-39605971D01*
G75*
G02*
X228314879Y-39745971I0J-140000D01*
G01*
X228314879Y-40025971D01*
G75*
G02*
X228174879Y-40165971I-140000J0D01*
G01*
G37*
X230981444Y-80367255D03*
X230981444Y-83667255D03*
X239315826Y-79176629D03*
X239315826Y-75876629D03*
M02*
