G04 #@! TF.GenerationSoftware,KiCad,Pcbnew,(5.1.8-0-10_14)*
G04 #@! TF.CreationDate,2021-09-26T01:44:44+09:00*
G04 #@! TF.ProjectId,ts69v3,74733639-7633-42e6-9b69-6361645f7063,rev?*
G04 #@! TF.SameCoordinates,Original*
G04 #@! TF.FileFunction,Soldermask,Bot*
G04 #@! TF.FilePolarity,Negative*
%FSLAX46Y46*%
G04 Gerber Fmt 4.6, Leading zero omitted, Abs format (unit mm)*
G04 Created by KiCad (PCBNEW (5.1.8-0-10_14)) date 2021-09-26 01:44:44*
%MOMM*%
%LPD*%
G01*
G04 APERTURE LIST*
%ADD10C,2.250000*%
%ADD11C,3.987800*%
%ADD12C,1.750000*%
%ADD13R,1.200000X0.900000*%
%ADD14C,3.048000*%
%ADD15R,1.500000X1.000000*%
%ADD16R,0.900000X1.200000*%
%ADD17R,1.350000X1.350000*%
%ADD18O,1.350000X1.350000*%
%ADD19C,2.082800*%
G04 APERTURE END LIST*
D10*
X159702500Y-30638750D03*
D11*
X157162500Y-35718750D03*
D10*
X153352500Y-33178750D03*
D12*
X152082500Y-35718750D03*
X162242500Y-35718750D03*
G36*
G01*
X46133029Y-38422744D02*
X46473029Y-38422744D01*
G75*
G02*
X46613029Y-38562744I0J-140000D01*
G01*
X46613029Y-38842744D01*
G75*
G02*
X46473029Y-38982744I-140000J0D01*
G01*
X46133029Y-38982744D01*
G75*
G02*
X45993029Y-38842744I0J140000D01*
G01*
X45993029Y-38562744D01*
G75*
G02*
X46133029Y-38422744I140000J0D01*
G01*
G37*
G36*
G01*
X46133029Y-39382744D02*
X46473029Y-39382744D01*
G75*
G02*
X46613029Y-39522744I0J-140000D01*
G01*
X46613029Y-39802744D01*
G75*
G02*
X46473029Y-39942744I-140000J0D01*
G01*
X46133029Y-39942744D01*
G75*
G02*
X45993029Y-39802744I0J140000D01*
G01*
X45993029Y-39522744D01*
G75*
G02*
X46133029Y-39382744I140000J0D01*
G01*
G37*
D10*
X45402500Y-30638750D03*
D11*
X42862500Y-35718750D03*
D10*
X39052500Y-33178750D03*
D12*
X37782500Y-35718750D03*
X47942500Y-35718750D03*
X133667500Y-54768750D03*
X123507500Y-54768750D03*
D10*
X124777500Y-52228750D03*
D11*
X128587500Y-54768750D03*
D10*
X131127500Y-49688750D03*
D12*
X9842500Y-35718750D03*
X-317500Y-35718750D03*
D10*
X952500Y-33178750D03*
D11*
X4762500Y-35718750D03*
D10*
X7302500Y-30638750D03*
X9683750Y-106838750D03*
D11*
X7143750Y-111918750D03*
D10*
X3333750Y-109378750D03*
D12*
X2063750Y-111918750D03*
X12223750Y-111918750D03*
D10*
X26352500Y-30638750D03*
D11*
X23812500Y-35718750D03*
D10*
X20002500Y-33178750D03*
D12*
X18732500Y-35718750D03*
X28892500Y-35718750D03*
D10*
X12065000Y-49688750D03*
D11*
X9525000Y-54768750D03*
D10*
X5715000Y-52228750D03*
D12*
X4445000Y-54768750D03*
X14605000Y-54768750D03*
X16986250Y-73818750D03*
X6826250Y-73818750D03*
D10*
X8096250Y-71278750D03*
D11*
X11906250Y-73818750D03*
D10*
X14446250Y-68738750D03*
X178752500Y-30638750D03*
D11*
X176212500Y-35718750D03*
D10*
X172402500Y-33178750D03*
D12*
X171132500Y-35718750D03*
X181292500Y-35718750D03*
D10*
X121602500Y-30638750D03*
D11*
X119062500Y-35718750D03*
D10*
X115252500Y-33178750D03*
D12*
X113982500Y-35718750D03*
X124142500Y-35718750D03*
D13*
X88106324Y-31279711D03*
X88106324Y-27979711D03*
X142875120Y-75876629D03*
X142875120Y-79176629D03*
D12*
X100330000Y-73818750D03*
X90170000Y-73818750D03*
D10*
X91440000Y-71278750D03*
D11*
X95250000Y-73818750D03*
D10*
X97790000Y-68738750D03*
X16827512Y-87788828D03*
D11*
X14287512Y-92868828D03*
D10*
X10477512Y-90328828D03*
D12*
X9207512Y-92868828D03*
X19367512Y-92868828D03*
D14*
X2381262Y-85883828D03*
X26193762Y-85883828D03*
D11*
X2381262Y-101123828D03*
X26193762Y-101123828D03*
D15*
X226287688Y-97221958D03*
X226287688Y-100421958D03*
X221387688Y-97221958D03*
X221387688Y-100421958D03*
X121375520Y-100421958D03*
X121375520Y-97221958D03*
X126275520Y-100421958D03*
X126275520Y-97221958D03*
D12*
X152717500Y-54768750D03*
X142557500Y-54768750D03*
D10*
X143827500Y-52228750D03*
D11*
X147637500Y-54768750D03*
D10*
X150177500Y-49688750D03*
D12*
X38417500Y-54768750D03*
X28257500Y-54768750D03*
D10*
X29527500Y-52228750D03*
D11*
X33337500Y-54768750D03*
D10*
X35877500Y-49688750D03*
X212090000Y-68738750D03*
D11*
X209550000Y-73818750D03*
D10*
X205740000Y-71278750D03*
D12*
X204470000Y-73818750D03*
X214630000Y-73818750D03*
D10*
X126365000Y-87788750D03*
D11*
X123825000Y-92868750D03*
D10*
X120015000Y-90328750D03*
D12*
X118745000Y-92868750D03*
X128905000Y-92868750D03*
X257492500Y-111918750D03*
X247332500Y-111918750D03*
D10*
X248602500Y-109378750D03*
D11*
X252412500Y-111918750D03*
D10*
X254952500Y-106838750D03*
D12*
X295592500Y-54768750D03*
X285432500Y-54768750D03*
D10*
X286702500Y-52228750D03*
D11*
X290512500Y-54768750D03*
D10*
X293052500Y-49688750D03*
D12*
X36036250Y-111918750D03*
X25876250Y-111918750D03*
D10*
X27146250Y-109378750D03*
D11*
X30956250Y-111918750D03*
D10*
X33496250Y-106838750D03*
D11*
X271462500Y-82073750D03*
X247650000Y-82073750D03*
D14*
X271462500Y-66833750D03*
X247650000Y-66833750D03*
D12*
X264636250Y-73818750D03*
X254476250Y-73818750D03*
D10*
X255746250Y-71278750D03*
D11*
X259556250Y-73818750D03*
D10*
X262096250Y-68738750D03*
X102552500Y-30638750D03*
D11*
X100012500Y-35718750D03*
D10*
X96202500Y-33178750D03*
D12*
X94932500Y-35718750D03*
X105092500Y-35718750D03*
D10*
X64452500Y-30638750D03*
D11*
X61912500Y-35718750D03*
D10*
X58102500Y-33178750D03*
D12*
X56832500Y-35718750D03*
X66992500Y-35718750D03*
D10*
X140652500Y-30638750D03*
D11*
X138112500Y-35718750D03*
D10*
X134302500Y-33178750D03*
D12*
X133032500Y-35718750D03*
X143192500Y-35718750D03*
D13*
X110728218Y-112190722D03*
X110728218Y-115490722D03*
X43457849Y-111595409D03*
X43457849Y-114895409D03*
X225028314Y-80367255D03*
X225028314Y-83667255D03*
D10*
X97790000Y-106838750D03*
X91440000Y-109378750D03*
D11*
X95250000Y-111918750D03*
D12*
X90170000Y-111918750D03*
X100330000Y-111918750D03*
D14*
X76200000Y-118903750D03*
X114300000Y-118903750D03*
D11*
X76200000Y-103663750D03*
X114300000Y-103663750D03*
D15*
X39885971Y-42862536D03*
X39885971Y-39662536D03*
X44785971Y-42862536D03*
X44785971Y-39662536D03*
D10*
X293052500Y-30638750D03*
D11*
X290512500Y-35718750D03*
D10*
X286702500Y-33178750D03*
D12*
X285432500Y-35718750D03*
X295592500Y-35718750D03*
X238442500Y-111918750D03*
X228282500Y-111918750D03*
D10*
X229552500Y-109378750D03*
D11*
X233362500Y-111918750D03*
D10*
X235902500Y-106838750D03*
D13*
X280987736Y-114300096D03*
X280987736Y-111000096D03*
D16*
X280392423Y-78581316D03*
X283692423Y-78581316D03*
X280392423Y-49410979D03*
X283692423Y-49410979D03*
X279201797Y-31551589D03*
X282501797Y-31551589D03*
D13*
X263128346Y-111000096D03*
X263128346Y-114300096D03*
X261937720Y-83803194D03*
X261937720Y-80503194D03*
X267890850Y-71114125D03*
X267890850Y-74414125D03*
X257175216Y-56231250D03*
X257175216Y-59531250D03*
D16*
X261665842Y-27979711D03*
X258365842Y-27979711D03*
D13*
X260746875Y-114300096D03*
X260746875Y-111000096D03*
X244078330Y-27979711D03*
X244078330Y-31279711D03*
X242887500Y-111000000D03*
X242887500Y-114300000D03*
X236934574Y-75876629D03*
X236934574Y-79176629D03*
X252412500Y-56231300D03*
X252412500Y-59531300D03*
X240506452Y-31279711D03*
X240506452Y-27979711D03*
X223837500Y-114300096D03*
X223837500Y-111000096D03*
X233362696Y-59531300D03*
X233362696Y-56231300D03*
X221456436Y-27979711D03*
X221456436Y-31279711D03*
X202406420Y-112786035D03*
X202406420Y-116086035D03*
X206573611Y-83667255D03*
X206573611Y-80367255D03*
X217884558Y-75876629D03*
X217884558Y-79176629D03*
X214312500Y-56231250D03*
X214312500Y-59531250D03*
X202406420Y-31279711D03*
X202406420Y-27979711D03*
X187523595Y-80367255D03*
X187523595Y-83667255D03*
X200025168Y-79176629D03*
X200025168Y-75876629D03*
X195262664Y-59531300D03*
X195262664Y-56231300D03*
X183356404Y-27979711D03*
X183356404Y-31279711D03*
X162520449Y-112190722D03*
X162520449Y-115490722D03*
X169068892Y-83667255D03*
X169068892Y-80367255D03*
X180975000Y-75876629D03*
X180975000Y-79176629D03*
X176212500Y-56231250D03*
X176212500Y-59531250D03*
X164306388Y-27979711D03*
X164306388Y-31279711D03*
X148828250Y-80367255D03*
X148828250Y-83667255D03*
X161925136Y-79176629D03*
X161925136Y-75876629D03*
X157162632Y-59531300D03*
X157162632Y-56231300D03*
X145256372Y-27979711D03*
X145256372Y-31279711D03*
X130968860Y-83667255D03*
X130968860Y-80367255D03*
X138112616Y-56231300D03*
X138112616Y-59531300D03*
X126206356Y-31279711D03*
X126206356Y-27979711D03*
X110728218Y-80367255D03*
X110728218Y-83667255D03*
X123825104Y-79176629D03*
X123825104Y-75876629D03*
X119062500Y-59531300D03*
X119062500Y-56231300D03*
X107156340Y-27979711D03*
X107156340Y-31279711D03*
X92868828Y-83667255D03*
X92868828Y-80367255D03*
X104775000Y-75876629D03*
X104775000Y-79176629D03*
X100012500Y-56231250D03*
X100012500Y-59531250D03*
X72032873Y-80367255D03*
X72032873Y-83667255D03*
X85725072Y-79176629D03*
X85725072Y-75876629D03*
X80962568Y-59531300D03*
X80962568Y-56231300D03*
X69056308Y-27979711D03*
X69056308Y-31279711D03*
X54768796Y-83667255D03*
X54768796Y-80367255D03*
X66675056Y-75876629D03*
X66675056Y-79176629D03*
X61912500Y-56231250D03*
X61912500Y-59531250D03*
X50006292Y-31279711D03*
X50006292Y-27979711D03*
X39885971Y-114895409D03*
X39885971Y-111595409D03*
X47625040Y-79176629D03*
X47625040Y-75876629D03*
X40481284Y-59531300D03*
X40481284Y-56231300D03*
D16*
X32470337Y-28575024D03*
X29170337Y-28575024D03*
D13*
X16668750Y-111595409D03*
X16668750Y-114895409D03*
D16*
X18726581Y-60721926D03*
X22026581Y-60721926D03*
X18726581Y-58340674D03*
X22026581Y-58340674D03*
X18726581Y-55959422D03*
X22026581Y-55959422D03*
X9796886Y-31551589D03*
X13096886Y-31551589D03*
D10*
X197802500Y-30638750D03*
D11*
X195262500Y-35718750D03*
D10*
X191452500Y-33178750D03*
D12*
X190182500Y-35718750D03*
X200342500Y-35718750D03*
D10*
X83502500Y-30638750D03*
D11*
X80962500Y-35718750D03*
D10*
X77152500Y-33178750D03*
D12*
X75882500Y-35718750D03*
X86042500Y-35718750D03*
X186055000Y-92868750D03*
X175895000Y-92868750D03*
D10*
X177165000Y-90328750D03*
D11*
X180975000Y-92868750D03*
D10*
X183515000Y-87788750D03*
X154940000Y-106838750D03*
X148590000Y-109378750D03*
D11*
X152400000Y-111918750D03*
D12*
X147320000Y-111918750D03*
X157480000Y-111918750D03*
D14*
X133350000Y-118903750D03*
X171450000Y-118903750D03*
D11*
X133350000Y-103663750D03*
X171450000Y-103663750D03*
D12*
X62230000Y-73818750D03*
X52070000Y-73818750D03*
D10*
X53340000Y-71278750D03*
D11*
X57150000Y-73818750D03*
D10*
X59690000Y-68738750D03*
D11*
X28575000Y-101123750D03*
X4762500Y-101123750D03*
D14*
X28575000Y-85883750D03*
X4762500Y-85883750D03*
D12*
X21748750Y-92868750D03*
X11588750Y-92868750D03*
D10*
X12858750Y-90328750D03*
D11*
X16668750Y-92868750D03*
D10*
X19208750Y-87788750D03*
X40640000Y-68738750D03*
D11*
X38100000Y-73818750D03*
D10*
X34290000Y-71278750D03*
D12*
X33020000Y-73818750D03*
X43180000Y-73818750D03*
X57467500Y-54768750D03*
X47307500Y-54768750D03*
D10*
X48577500Y-52228750D03*
D11*
X52387500Y-54768750D03*
D10*
X54927500Y-49688750D03*
X50165000Y-87788750D03*
D11*
X47625000Y-92868750D03*
D10*
X43815000Y-90328750D03*
D12*
X42545000Y-92868750D03*
X52705000Y-92868750D03*
X59848750Y-111918750D03*
X49688750Y-111918750D03*
D10*
X50958750Y-109378750D03*
D11*
X54768750Y-111918750D03*
D10*
X57308750Y-106838750D03*
D12*
X76517500Y-54768750D03*
X66357500Y-54768750D03*
D10*
X67627500Y-52228750D03*
D11*
X71437500Y-54768750D03*
D10*
X73977500Y-49688750D03*
D12*
X81280000Y-73818750D03*
X71120000Y-73818750D03*
D10*
X72390000Y-71278750D03*
D11*
X76200000Y-73818750D03*
D10*
X78740000Y-68738750D03*
X69215000Y-87788750D03*
D11*
X66675000Y-92868750D03*
D10*
X62865000Y-90328750D03*
D12*
X61595000Y-92868750D03*
X71755000Y-92868750D03*
X95567500Y-54768750D03*
X85407500Y-54768750D03*
D10*
X86677500Y-52228750D03*
D11*
X90487500Y-54768750D03*
D10*
X93027500Y-49688750D03*
X88265000Y-87788750D03*
D11*
X85725000Y-92868750D03*
D10*
X81915000Y-90328750D03*
D12*
X80645000Y-92868750D03*
X90805000Y-92868750D03*
X114617500Y-54768750D03*
X104457500Y-54768750D03*
D10*
X105727500Y-52228750D03*
D11*
X109537500Y-54768750D03*
D10*
X112077500Y-49688750D03*
D12*
X119380000Y-73818750D03*
X109220000Y-73818750D03*
D10*
X110490000Y-71278750D03*
D11*
X114300000Y-73818750D03*
D10*
X116840000Y-68738750D03*
X107315000Y-87788750D03*
D11*
X104775000Y-92868750D03*
D10*
X100965000Y-90328750D03*
D12*
X99695000Y-92868750D03*
X109855000Y-92868750D03*
X138430000Y-73818750D03*
X128270000Y-73818750D03*
D10*
X129540000Y-71278750D03*
D11*
X133350000Y-73818750D03*
D10*
X135890000Y-68738750D03*
D12*
X157480000Y-73818750D03*
X147320000Y-73818750D03*
D10*
X148590000Y-71278750D03*
D11*
X152400000Y-73818750D03*
D10*
X154940000Y-68738750D03*
X145415000Y-87788750D03*
D11*
X142875000Y-92868750D03*
D10*
X139065000Y-90328750D03*
D12*
X137795000Y-92868750D03*
X147955000Y-92868750D03*
X171767500Y-54768750D03*
X161607500Y-54768750D03*
D10*
X162877500Y-52228750D03*
D11*
X166687500Y-54768750D03*
D10*
X169227500Y-49688750D03*
D12*
X176530000Y-73818750D03*
X166370000Y-73818750D03*
D10*
X167640000Y-71278750D03*
D11*
X171450000Y-73818750D03*
D10*
X173990000Y-68738750D03*
X164465000Y-87788750D03*
D11*
X161925000Y-92868750D03*
D10*
X158115000Y-90328750D03*
D12*
X156845000Y-92868750D03*
X167005000Y-92868750D03*
X190817500Y-54768750D03*
X180657500Y-54768750D03*
D10*
X181927500Y-52228750D03*
D11*
X185737500Y-54768750D03*
D10*
X188277500Y-49688750D03*
X193040000Y-68738750D03*
D11*
X190500000Y-73818750D03*
D10*
X186690000Y-71278750D03*
D12*
X185420000Y-73818750D03*
X195580000Y-73818750D03*
X209867500Y-54768750D03*
X199707500Y-54768750D03*
D10*
X200977500Y-52228750D03*
D11*
X204787500Y-54768750D03*
D10*
X207327500Y-49688750D03*
D12*
X205105000Y-92868750D03*
X194945000Y-92868750D03*
D10*
X196215000Y-90328750D03*
D11*
X200025000Y-92868750D03*
D10*
X202565000Y-87788750D03*
X195421250Y-106838750D03*
D11*
X192881250Y-111918750D03*
D10*
X189071250Y-109378750D03*
D12*
X187801250Y-111918750D03*
X197961250Y-111918750D03*
D10*
X216852500Y-30638750D03*
D11*
X214312500Y-35718750D03*
D10*
X210502500Y-33178750D03*
D12*
X209232500Y-35718750D03*
X219392500Y-35718750D03*
X228917500Y-54768750D03*
X218757500Y-54768750D03*
D10*
X220027500Y-52228750D03*
D11*
X223837500Y-54768750D03*
D10*
X226377500Y-49688750D03*
X221615000Y-87788750D03*
D11*
X219075000Y-92868750D03*
D10*
X215265000Y-90328750D03*
D12*
X213995000Y-92868750D03*
X224155000Y-92868750D03*
X219392500Y-111918750D03*
X209232500Y-111918750D03*
D10*
X210502500Y-109378750D03*
D11*
X214312500Y-111918750D03*
D10*
X216852500Y-106838750D03*
X235902500Y-30638750D03*
D11*
X233362500Y-35718750D03*
D10*
X229552500Y-33178750D03*
D12*
X228282500Y-35718750D03*
X238442500Y-35718750D03*
X247877501Y-54768750D03*
X237717501Y-54768750D03*
D10*
X238987501Y-52228750D03*
D11*
X242797501Y-54768750D03*
D10*
X245337501Y-49688750D03*
X231140000Y-68738750D03*
D11*
X228600000Y-73818750D03*
D10*
X224790000Y-71278750D03*
D12*
X223520000Y-73818750D03*
X233680000Y-73818750D03*
D10*
X254952500Y-30638750D03*
D11*
X252412500Y-35718750D03*
D10*
X248602500Y-33178750D03*
D12*
X247332500Y-35718750D03*
X257492500Y-35718750D03*
D11*
X273843750Y-43973750D03*
X250031250Y-43973750D03*
D14*
X273843750Y-28733750D03*
X250031250Y-28733750D03*
D12*
X267017500Y-35718750D03*
X256857500Y-35718750D03*
D10*
X258127500Y-33178750D03*
D11*
X261937500Y-35718750D03*
D10*
X264477500Y-30638750D03*
X274002500Y-30638750D03*
D11*
X271462500Y-35718750D03*
D10*
X267652500Y-33178750D03*
D12*
X266382500Y-35718750D03*
X276542500Y-35718750D03*
X271780000Y-54768750D03*
X261620000Y-54768750D03*
D10*
X262890000Y-52228750D03*
D11*
X266700000Y-54768750D03*
D10*
X269240000Y-49688750D03*
D12*
X276542500Y-92868750D03*
X266382500Y-92868750D03*
D10*
X267652500Y-90328750D03*
D11*
X271462500Y-92868750D03*
D10*
X274002500Y-87788750D03*
D12*
X276542500Y-111918750D03*
X266382500Y-111918750D03*
D10*
X267652500Y-109378750D03*
D11*
X271462500Y-111918750D03*
D10*
X274002500Y-106838750D03*
X293052500Y-87788750D03*
D11*
X290512500Y-92868750D03*
D10*
X286702500Y-90328750D03*
D12*
X285432500Y-92868750D03*
X295592500Y-92868750D03*
X295592500Y-111918750D03*
X285432500Y-111918750D03*
D10*
X286702500Y-109378750D03*
D11*
X290512500Y-111918750D03*
D10*
X293052500Y-106838750D03*
D13*
X80367255Y-115354783D03*
X80367255Y-112054783D03*
X166092327Y-112190722D03*
X166092327Y-115490722D03*
D15*
X101203210Y-39885971D03*
X101203210Y-43085971D03*
X96303210Y-39885971D03*
X96303210Y-43085971D03*
X161261075Y-42676597D03*
X161261075Y-39476597D03*
X166161075Y-42676597D03*
X166161075Y-39476597D03*
X226288440Y-38881420D03*
X226288440Y-42081420D03*
X221388440Y-38881420D03*
X221388440Y-42081420D03*
X277415858Y-42267223D03*
X277415858Y-39067223D03*
X282315858Y-42267223D03*
X282315858Y-39067223D03*
X277347110Y-101203210D03*
X277347110Y-98003210D03*
X282247110Y-101203210D03*
X282247110Y-98003210D03*
X171381396Y-99826645D03*
X171381396Y-96626645D03*
X176281396Y-99826645D03*
X176281396Y-96626645D03*
X69125056Y-97221958D03*
X69125056Y-100421958D03*
X64225056Y-97221958D03*
X64225056Y-100421958D03*
X15340710Y-102207897D03*
X15340710Y-99007897D03*
X20240710Y-102207897D03*
X20240710Y-99007897D03*
D17*
X-1785939Y-101965714D03*
D18*
X-1785939Y-103965714D03*
X-1785939Y-105965714D03*
D17*
X-1190626Y-70842247D03*
D18*
X-1190626Y-68842247D03*
X-1190626Y-66842247D03*
X-1190626Y-64842247D03*
X-1190626Y-62842247D03*
X-1190626Y-60842247D03*
D12*
X76517500Y-111918750D03*
X66357500Y-111918750D03*
D10*
X67627500Y-109378750D03*
D11*
X71437500Y-111918750D03*
D10*
X73977500Y-106838750D03*
X178752500Y-106838750D03*
D11*
X176212500Y-111918750D03*
D10*
X172402500Y-109378750D03*
D12*
X171132500Y-111918750D03*
X181292500Y-111918750D03*
D16*
X283692423Y-68460995D03*
X280392423Y-68460995D03*
D12*
X295592500Y-73818750D03*
X285432500Y-73818750D03*
D10*
X286702500Y-71278750D03*
D11*
X290512500Y-73818750D03*
D10*
X293052500Y-68738750D03*
D13*
X241697078Y-83667255D03*
X241697078Y-80367255D03*
D12*
X250349780Y-92869140D03*
X240189780Y-92869140D03*
D10*
X241459780Y-90329140D03*
D11*
X245269780Y-92869140D03*
D10*
X247809780Y-87789140D03*
X147796860Y-106839220D03*
D11*
X145256860Y-111919220D03*
D10*
X141446860Y-109379220D03*
D12*
X140176860Y-111919220D03*
X150336860Y-111919220D03*
D14*
X133350610Y-118904220D03*
X157163110Y-118904220D03*
D11*
X133350610Y-103664220D03*
X157163110Y-103664220D03*
D10*
X152559380Y-106839220D03*
D11*
X150019380Y-111919220D03*
D10*
X146209380Y-109379220D03*
D12*
X144939380Y-111919220D03*
X155099380Y-111919220D03*
D14*
X138113130Y-118904220D03*
X161925630Y-118904220D03*
D11*
X138113130Y-103664220D03*
X161925630Y-103664220D03*
X114300430Y-103664220D03*
X90487930Y-103664220D03*
D14*
X114300430Y-118904220D03*
X90487930Y-118904220D03*
D12*
X107474180Y-111919220D03*
X97314180Y-111919220D03*
D10*
X98584180Y-109379220D03*
D11*
X102394180Y-111919220D03*
D10*
X104934180Y-106839220D03*
D11*
X109537910Y-103664220D03*
X85725410Y-103664220D03*
D14*
X109537910Y-118904220D03*
X85725410Y-118904220D03*
D12*
X102711660Y-111919220D03*
X92551660Y-111919220D03*
D10*
X93821660Y-109379220D03*
D11*
X97631660Y-111919220D03*
D10*
X100171660Y-106839220D03*
D12*
X62230048Y-111918844D03*
X52070048Y-111918844D03*
D10*
X53340048Y-109378844D03*
D11*
X57150048Y-111918844D03*
D10*
X59690048Y-106838844D03*
D12*
X200342664Y-111918844D03*
X190182664Y-111918844D03*
D10*
X191452664Y-109378844D03*
D11*
X195262664Y-111918844D03*
D10*
X197802664Y-106838844D03*
X190658908Y-106838844D03*
D11*
X188118908Y-111918844D03*
D10*
X184308908Y-109378844D03*
D12*
X183038908Y-111918844D03*
X193198908Y-111918844D03*
X217011428Y-111918844D03*
X206851428Y-111918844D03*
D10*
X208121428Y-109378844D03*
D11*
X211931428Y-111918844D03*
D10*
X214471428Y-106838844D03*
D12*
X57467544Y-111918844D03*
X47307544Y-111918844D03*
D10*
X48577544Y-109378844D03*
D11*
X52387544Y-111918844D03*
D10*
X54927544Y-106838844D03*
D13*
X133945425Y-115490722D03*
X133945425Y-112190722D03*
D11*
X176206256Y-103663844D03*
X76206456Y-103663844D03*
D14*
X176206256Y-118903844D03*
X76206456Y-118903844D03*
D12*
X131286356Y-111918844D03*
X121126356Y-111918844D03*
D10*
X122396356Y-109378844D03*
D11*
X126206356Y-111918844D03*
D10*
X128746356Y-106838844D03*
G36*
G01*
X103002285Y-41130030D02*
X102662285Y-41130030D01*
G75*
G02*
X102522285Y-40990030I0J140000D01*
G01*
X102522285Y-40710030D01*
G75*
G02*
X102662285Y-40570030I140000J0D01*
G01*
X103002285Y-40570030D01*
G75*
G02*
X103142285Y-40710030I0J-140000D01*
G01*
X103142285Y-40990030D01*
G75*
G02*
X103002285Y-41130030I-140000J0D01*
G01*
G37*
G36*
G01*
X103002285Y-40170030D02*
X102662285Y-40170030D01*
G75*
G02*
X102522285Y-40030030I0J140000D01*
G01*
X102522285Y-39750030D01*
G75*
G02*
X102662285Y-39610030I140000J0D01*
G01*
X103002285Y-39610030D01*
G75*
G02*
X103142285Y-39750030I0J-140000D01*
G01*
X103142285Y-40030030D01*
G75*
G02*
X103002285Y-40170030I-140000J0D01*
G01*
G37*
G36*
G01*
X284134301Y-40050658D02*
X283794301Y-40050658D01*
G75*
G02*
X283654301Y-39910658I0J140000D01*
G01*
X283654301Y-39630658D01*
G75*
G02*
X283794301Y-39490658I140000J0D01*
G01*
X284134301Y-39490658D01*
G75*
G02*
X284274301Y-39630658I0J-140000D01*
G01*
X284274301Y-39910658D01*
G75*
G02*
X284134301Y-40050658I-140000J0D01*
G01*
G37*
G36*
G01*
X284134301Y-39090658D02*
X283794301Y-39090658D01*
G75*
G02*
X283654301Y-38950658I0J140000D01*
G01*
X283654301Y-38670658D01*
G75*
G02*
X283794301Y-38530658I140000J0D01*
G01*
X284134301Y-38530658D01*
G75*
G02*
X284274301Y-38670658I0J-140000D01*
G01*
X284274301Y-38950658D01*
G75*
G02*
X284134301Y-39090658I-140000J0D01*
G01*
G37*
G36*
G01*
X275799919Y-102443210D02*
X275459919Y-102443210D01*
G75*
G02*
X275319919Y-102303210I0J140000D01*
G01*
X275319919Y-102023210D01*
G75*
G02*
X275459919Y-101883210I140000J0D01*
G01*
X275799919Y-101883210D01*
G75*
G02*
X275939919Y-102023210I0J-140000D01*
G01*
X275939919Y-102303210D01*
G75*
G02*
X275799919Y-102443210I-140000J0D01*
G01*
G37*
G36*
G01*
X275799919Y-101483210D02*
X275459919Y-101483210D01*
G75*
G02*
X275319919Y-101343210I0J140000D01*
G01*
X275319919Y-101063210D01*
G75*
G02*
X275459919Y-100923210I140000J0D01*
G01*
X275799919Y-100923210D01*
G75*
G02*
X275939919Y-101063210I0J-140000D01*
G01*
X275939919Y-101343210D01*
G75*
G02*
X275799919Y-101483210I-140000J0D01*
G01*
G37*
G36*
G01*
X219840497Y-101847897D02*
X219500497Y-101847897D01*
G75*
G02*
X219360497Y-101707897I0J140000D01*
G01*
X219360497Y-101427897D01*
G75*
G02*
X219500497Y-101287897I140000J0D01*
G01*
X219840497Y-101287897D01*
G75*
G02*
X219980497Y-101427897I0J-140000D01*
G01*
X219980497Y-101707897D01*
G75*
G02*
X219840497Y-101847897I-140000J0D01*
G01*
G37*
G36*
G01*
X219840497Y-100887897D02*
X219500497Y-100887897D01*
G75*
G02*
X219360497Y-100747897I0J140000D01*
G01*
X219360497Y-100467897D01*
G75*
G02*
X219500497Y-100327897I140000J0D01*
G01*
X219840497Y-100327897D01*
G75*
G02*
X219980497Y-100467897I0J-140000D01*
G01*
X219980497Y-100747897D01*
G75*
G02*
X219840497Y-100887897I-140000J0D01*
G01*
G37*
G36*
G01*
X169238892Y-100292584D02*
X168898892Y-100292584D01*
G75*
G02*
X168758892Y-100152584I0J140000D01*
G01*
X168758892Y-99872584D01*
G75*
G02*
X168898892Y-99732584I140000J0D01*
G01*
X169238892Y-99732584D01*
G75*
G02*
X169378892Y-99872584I0J-140000D01*
G01*
X169378892Y-100152584D01*
G75*
G02*
X169238892Y-100292584I-140000J0D01*
G01*
G37*
G36*
G01*
X169238892Y-101252584D02*
X168898892Y-101252584D01*
G75*
G02*
X168758892Y-101112584I0J140000D01*
G01*
X168758892Y-100832584D01*
G75*
G02*
X168898892Y-100692584I140000J0D01*
G01*
X169238892Y-100692584D01*
G75*
G02*
X169378892Y-100832584I0J-140000D01*
G01*
X169378892Y-101112584D01*
G75*
G02*
X169238892Y-101252584I-140000J0D01*
G01*
G37*
G36*
G01*
X119827913Y-100887897D02*
X119487913Y-100887897D01*
G75*
G02*
X119347913Y-100747897I0J140000D01*
G01*
X119347913Y-100467897D01*
G75*
G02*
X119487913Y-100327897I140000J0D01*
G01*
X119827913Y-100327897D01*
G75*
G02*
X119967913Y-100467897I0J-140000D01*
G01*
X119967913Y-100747897D01*
G75*
G02*
X119827913Y-100887897I-140000J0D01*
G01*
G37*
G36*
G01*
X119827913Y-101847897D02*
X119487913Y-101847897D01*
G75*
G02*
X119347913Y-101707897I0J140000D01*
G01*
X119347913Y-101427897D01*
G75*
G02*
X119487913Y-101287897I140000J0D01*
G01*
X119827913Y-101287897D01*
G75*
G02*
X119967913Y-101427897I0J-140000D01*
G01*
X119967913Y-101707897D01*
G75*
G02*
X119827913Y-101847897I-140000J0D01*
G01*
G37*
G36*
G01*
X62677865Y-101252584D02*
X62337865Y-101252584D01*
G75*
G02*
X62197865Y-101112584I0J140000D01*
G01*
X62197865Y-100832584D01*
G75*
G02*
X62337865Y-100692584I140000J0D01*
G01*
X62677865Y-100692584D01*
G75*
G02*
X62817865Y-100832584I0J-140000D01*
G01*
X62817865Y-101112584D01*
G75*
G02*
X62677865Y-101252584I-140000J0D01*
G01*
G37*
G36*
G01*
X62677865Y-100292584D02*
X62337865Y-100292584D01*
G75*
G02*
X62197865Y-100152584I0J140000D01*
G01*
X62197865Y-99872584D01*
G75*
G02*
X62337865Y-99732584I140000J0D01*
G01*
X62677865Y-99732584D01*
G75*
G02*
X62817865Y-99872584I0J-140000D01*
G01*
X62817865Y-100152584D01*
G75*
G02*
X62677865Y-100292584I-140000J0D01*
G01*
G37*
G36*
G01*
X15648138Y-104575088D02*
X15308138Y-104575088D01*
G75*
G02*
X15168138Y-104435088I0J140000D01*
G01*
X15168138Y-104155088D01*
G75*
G02*
X15308138Y-104015088I140000J0D01*
G01*
X15648138Y-104015088D01*
G75*
G02*
X15788138Y-104155088I0J-140000D01*
G01*
X15788138Y-104435088D01*
G75*
G02*
X15648138Y-104575088I-140000J0D01*
G01*
G37*
G36*
G01*
X15648138Y-105535088D02*
X15308138Y-105535088D01*
G75*
G02*
X15168138Y-105395088I0J140000D01*
G01*
X15168138Y-105115088D01*
G75*
G02*
X15308138Y-104975088I140000J0D01*
G01*
X15648138Y-104975088D01*
G75*
G02*
X15788138Y-105115088I0J-140000D01*
G01*
X15788138Y-105395088D01*
G75*
G02*
X15648138Y-105535088I-140000J0D01*
G01*
G37*
G36*
G01*
X167917195Y-39756261D02*
X167577195Y-39756261D01*
G75*
G02*
X167437195Y-39616261I0J140000D01*
G01*
X167437195Y-39336261D01*
G75*
G02*
X167577195Y-39196261I140000J0D01*
G01*
X167917195Y-39196261D01*
G75*
G02*
X168057195Y-39336261I0J-140000D01*
G01*
X168057195Y-39616261D01*
G75*
G02*
X167917195Y-39756261I-140000J0D01*
G01*
G37*
G36*
G01*
X167917195Y-40716261D02*
X167577195Y-40716261D01*
G75*
G02*
X167437195Y-40576261I0J140000D01*
G01*
X167437195Y-40296261D01*
G75*
G02*
X167577195Y-40156261I140000J0D01*
G01*
X167917195Y-40156261D01*
G75*
G02*
X168057195Y-40296261I0J-140000D01*
G01*
X168057195Y-40576261D01*
G75*
G02*
X167917195Y-40716261I-140000J0D01*
G01*
G37*
G36*
G01*
X228174879Y-39205971D02*
X227834879Y-39205971D01*
G75*
G02*
X227694879Y-39065971I0J140000D01*
G01*
X227694879Y-38785971D01*
G75*
G02*
X227834879Y-38645971I140000J0D01*
G01*
X228174879Y-38645971D01*
G75*
G02*
X228314879Y-38785971I0J-140000D01*
G01*
X228314879Y-39065971D01*
G75*
G02*
X228174879Y-39205971I-140000J0D01*
G01*
G37*
G36*
G01*
X228174879Y-40165971D02*
X227834879Y-40165971D01*
G75*
G02*
X227694879Y-40025971I0J140000D01*
G01*
X227694879Y-39745971D01*
G75*
G02*
X227834879Y-39605971I140000J0D01*
G01*
X228174879Y-39605971D01*
G75*
G02*
X228314879Y-39745971I0J-140000D01*
G01*
X228314879Y-40025971D01*
G75*
G02*
X228174879Y-40165971I-140000J0D01*
G01*
G37*
D19*
X-2381252Y-28098780D03*
X158748Y-28098780D03*
X2698748Y-28098780D03*
X5238748Y-28098780D03*
X7778748Y-28098780D03*
X10318748Y-28098780D03*
X12858748Y-28098780D03*
X15398748Y-28098780D03*
X17938748Y-28098780D03*
X20478748Y-28098780D03*
X23018748Y-28098780D03*
X25558748Y-28098780D03*
X25558748Y-43338780D03*
X23018748Y-43338780D03*
X20478748Y-43338780D03*
X17938748Y-43338780D03*
X15398748Y-43338780D03*
X12858748Y-43338780D03*
X10318748Y-43338780D03*
X7778748Y-43338780D03*
X5238748Y-43338780D03*
X2698748Y-43338780D03*
X158748Y-43338780D03*
X-2381252Y-43338780D03*
D13*
X230981444Y-80367255D03*
X230981444Y-83667255D03*
X239315826Y-79176629D03*
X239315826Y-75876629D03*
D12*
X47942536Y-92868828D03*
X37782536Y-92868828D03*
D10*
X39052536Y-90328828D03*
D11*
X42862536Y-92868828D03*
D10*
X45402536Y-87788828D03*
X64452552Y-87788828D03*
D11*
X61912552Y-92868828D03*
D10*
X58102552Y-90328828D03*
D12*
X56832552Y-92868828D03*
X66992552Y-92868828D03*
X86042568Y-92868828D03*
X75882568Y-92868828D03*
D10*
X77152568Y-90328828D03*
D11*
X80962568Y-92868828D03*
D10*
X83502568Y-87788828D03*
X102552584Y-87788828D03*
D11*
X100012584Y-92868828D03*
D10*
X96202584Y-90328828D03*
D12*
X94932584Y-92868828D03*
X105092584Y-92868828D03*
X124142600Y-92868828D03*
X113982600Y-92868828D03*
D10*
X115252600Y-90328828D03*
D11*
X119062600Y-92868828D03*
D10*
X121602600Y-87788828D03*
X140652616Y-87788828D03*
D11*
X138112616Y-92868828D03*
D10*
X134302616Y-90328828D03*
D12*
X133032616Y-92868828D03*
X143192616Y-92868828D03*
X162242632Y-92868828D03*
X152082632Y-92868828D03*
D10*
X153352632Y-90328828D03*
D11*
X157162632Y-92868828D03*
D10*
X159702632Y-87788828D03*
X178752648Y-87788828D03*
D11*
X176212648Y-92868828D03*
D10*
X172402648Y-90328828D03*
D12*
X171132648Y-92868828D03*
X181292648Y-92868828D03*
X200342664Y-92868828D03*
X190182664Y-92868828D03*
D10*
X191452664Y-90328828D03*
D11*
X195262664Y-92868828D03*
D10*
X197802664Y-87788828D03*
X216852680Y-87788828D03*
D11*
X214312680Y-92868828D03*
D10*
X210502680Y-90328828D03*
D12*
X209232680Y-92868828D03*
X219392680Y-92868828D03*
D10*
X235902696Y-87788828D03*
D11*
X233362696Y-92868828D03*
D10*
X229552696Y-90328828D03*
D12*
X228282696Y-92868828D03*
X238442696Y-92868828D03*
X252730208Y-73818812D03*
X242570208Y-73818812D03*
D10*
X243840208Y-71278812D03*
D11*
X247650208Y-73818812D03*
D10*
X250190208Y-68738812D03*
D12*
X257492712Y-92868828D03*
X247332712Y-92868828D03*
D10*
X248602712Y-90328828D03*
D11*
X252412712Y-92868828D03*
D10*
X254952712Y-87788828D03*
D14*
X276066476Y-76231804D03*
D12*
X264001476Y-64293804D03*
D14*
X276066476Y-52355804D03*
D11*
X260826476Y-52355804D03*
D10*
X265271476Y-61753804D03*
D11*
X260826476Y-76231804D03*
X269081476Y-64293804D03*
D12*
X274161476Y-64293804D03*
D10*
X271621476Y-59213804D03*
M02*
