  0
SECTION
  2
HEADER
  9
$ACADVER
  1
AC1014
  9
$HANDSEED
  5
FFFF
  9
$MEASUREMENT
 70
     1
  0
ENDSEC
  0
SECTION
  2
TABLES
  0
TABLE
  2
VPORT
  5
8
330
0
100
AcDbSymbolTable
 70
     4
  0
VPORT
  5
2E
330
8
100
AcDbSymbolTableRecord
100
AcDbViewportTableRecord
  2
*ACTIVE
 70
     0
 10
0.0
 20
0.0
 11
1.0
 21
1.0
 12
210.0
 22
148.5
 13
0.0
 23
0.0
 14
10.0
 24
10.0
 15
10.0
 25
10.0
 16
0.0
 26
0.0
 36
1.0
 17
0.0
 27
0.0
 37
0.0
 40
341.0
 41
1.24
 42
50.0
 43
0.0
 44
0.0
 50
0.0
 51
0.0
 71
     0
 72
   100
 73
     1
 74
     3
 75
     0
 76
     0
 77
     0
 78
     0
  0
ENDTAB
  0
TABLE
  2
LTYPE
  5
5
330
0
100
AcDbSymbolTable
 70
     1
  0
LTYPE
  5
14
330
5
100
AcDbSymbolTableRecord
100
AcDbLinetypeTableRecord
  2
BYBLOCK
 70
     0
  3

 72
    65
 73
     0
 40
0.0
  0
LTYPE
  5
15
330
5
100
AcDbSymbolTableRecord
100
AcDbLinetypeTableRecord
  2
BYLAYER
 70
     0
  3

 72
    65
 73
     0
 40
0.0
  0
LTYPE
  5
16
330
5
100
AcDbSymbolTableRecord
100
AcDbLinetypeTableRecord
  2
CONTINUOUS
 70
     0
  3
Solid line
 72
    65
 73
     0
 40
0.0
  0
ENDTAB
  0
TABLE
  2
LAYER
  5
2
100
AcDbSymbolTable
 70
1
  0
LAYER
  5
50
100
AcDbSymbolTableRecord
100
AcDbLayerTableRecord
  2
0
 70
0
  6
CONTINUOUS
  0
ENDTAB
  0
TABLE
  2
STYLE
  5
3
330
0
100
AcDbSymbolTable
 70
     1
  0
STYLE
  5
11
330
3
100
AcDbSymbolTableRecord
100
AcDbTextStyleTableRecord
  2
STANDARD
 70
     0
 40
0.0
 41
1.0
 50
0.0
 71
     0
 42
2.5
  3
txt
  4

  0
ENDTAB
  0
TABLE
  2
VIEW
  5
6
330
0
100
AcDbSymbolTable
 70
     0
  0
ENDTAB
  0
TABLE
  2
UCS
  5
7
330
0
100
AcDbSymbolTable
 70
     0
  0
ENDTAB
  0
TABLE
  2
APPID
  5
9
330
0
100
AcDbSymbolTable
 70
     2
  0
APPID
  5
12
330
9
100
AcDbSymbolTableRecord
100
AcDbRegAppTableRecord
  2
ACAD
 70
     0
  0
ENDTAB
  0
TABLE
  2
DIMSTYLE
  5
A
330
0
100
AcDbSymbolTable
 70
     1
  0
DIMSTYLE
105
27
330
A
100
AcDbSymbolTableRecord
100
AcDbDimStyleTableRecord
  2
ISO-25
 70
     0
  3

  4

  5

  6

  7

 40
1.0
 41
2.5
 42
0.625
 43
3.75
 44
1.25
 45
0.0
 46
0.0
 47
0.0
 48
0.0
140
2.5
141
2.5
142
0.0
143
0.03937007874016
144
1.0
145
0.0
146
1.0
147
0.625
 71
     0
 72
     0
 73
     0
 74
     0
 75
     0
 76
     0
 77
     1
 78
     8
170
     0
171
     3
172
     1
173
     0
174
     0
175
     0
176
     0
177
     0
178
     0
270
     2
271
     2
272
     2
273
     2
274
     3
340
11
275
     0
280
     0
281
     0
282
     0
283
     0
284
     8
285
     0
286
     0
287
     3
288
     0
  0
ENDTAB
  0
TABLE
  2
BLOCK_RECORD
  5
1
330
0
100
AcDbSymbolTable
 70
     1
  0
BLOCK_RECORD
  5
1F
330
1
100
AcDbSymbolTableRecord
100
AcDbBlockTableRecord
  2
*MODEL_SPACE
  0
BLOCK_RECORD
  5
1B
330
1
100
AcDbSymbolTableRecord
100
AcDbBlockTableRecord
  2
*PAPER_SPACE
  0
ENDTAB
  0
ENDSEC
  0
SECTION
  2
BLOCKS
  0
BLOCK
  5
20
330
1F
100
AcDbEntity
  8
0
100
AcDbBlockBegin
  2
*MODEL_SPACE
 70
     0
 10
0.0
 20
0.0
 30
0.0
  3
*MODEL_SPACE
  1

  0
ENDBLK
  5
21
330
1F
100
AcDbEntity
  8
0
100
AcDbBlockEnd
  0
BLOCK
  5
1C
330
1B
100
AcDbEntity
 67
     1
  8
0
100
AcDbBlockBegin
  2
*PAPER_SPACE
  1

  0
ENDBLK
  5
1D
330
1B
100
AcDbEntity
 67
     1
  8
0
100
AcDbBlockEnd
  0
ENDSEC
  0
SECTION
  2
ENTITIES
  0
LWPOLYLINE
  5
100
100
AcDbEntity
  8
0
 62
7
100
AcDbPolyline
 90
195
 70
1
 10
151.156998
 20
159.618000
 30
0.0
 10
151.250000
 20
159.029633
 30
0.0
 10
151.250000
 20
158.998001
 30
0.0
 10
151.250000
 20
157.000000
 30
0.0
 10
155.998001
 20
157.000000
 30
0.0
 10
156.035568
 20
157.000000
 30
0.0
 10
156.617996
 20
156.907001
 30
0.0
 10
157.177002
 20
156.622002
 30
0.0
 10
157.621994
 20
156.178001
 30
0.0
 10
157.906998
 20
155.618000
 30
0.0
 10
158.000000
 20
155.029633
 30
0.0
 10
158.000000
 20
154.998001
 30
0.0
 10
158.000000
 20
64.002998
 30
0.0
 10
158.000000
 20
63.971367
 30
0.0
 10
157.906998
 20
63.382999
 30
0.0
 10
157.621994
 20
62.823002
 30
0.0
 10
157.177002
 20
62.379002
 30
0.0
 10
156.617996
 20
62.094002
 30
0.0
 10
156.029312
 20
62.000000
 30
0.0
 10
155.998001
 20
62.000000
 30
0.0
 10
155.878006
 20
62.000000
 30
0.0
 10
151.250000
 20
62.000000
 30
0.0
 10
151.250000
 20
60.001999
 30
0.0
 10
151.250000
 20
59.970367
 30
0.0
 10
151.245834
 20
59.944000
 30
0.0
 10
151.156998
 20
59.382000
 30
0.0
 10
150.871994
 20
58.823002
 30
0.0
 10
150.427002
 20
58.377998
 30
0.0
 10
149.867996
 20
58.092999
 30
0.0
 10
149.279633
 20
58.000000
 30
0.0
 10
149.248001
 20
58.000000
 30
0.0
 10
89.252998
 20
58.000000
 30
0.0
 10
89.221313
 20
58.000000
 30
0.0
 10
88.632004
 20
58.092999
 30
0.0
 10
88.072998
 20
58.377998
 30
0.0
 10
87.627998
 20
58.823002
 30
0.0
 10
87.343002
 20
59.382000
 30
0.0
 10
87.254166
 20
59.944000
 30
0.0
 10
87.250000
 20
59.970367
 30
0.0
 10
87.250000
 20
60.001999
 30
0.0
 10
87.250000
 20
62.000000
 30
0.0
 10
84.723000
 20
62.000000
 30
0.0
 10
84.440002
 20
62.000000
 30
0.0
 10
79.678001
 20
62.000000
 30
0.0
 10
75.750000
 20
62.000000
 30
0.0
 10
75.750000
 20
60.001999
 30
0.0
 10
75.750000
 20
59.970367
 30
0.0
 10
75.745834
 20
59.944000
 30
0.0
 10
75.656998
 20
59.382000
 30
0.0
 10
75.372002
 20
58.823002
 30
0.0
 10
74.927002
 20
58.377998
 30
0.0
 10
74.367996
 20
58.092999
 30
0.0
 10
73.779633
 20
58.000000
 30
0.0
 10
73.748001
 20
58.000000
 30
0.0
 10
13.753000
 20
58.000000
 30
0.0
 10
13.721316
 20
58.000000
 30
0.0
 10
13.132000
 20
58.092999
 30
0.0
 10
12.573000
 20
58.377998
 30
0.0
 10
12.128000
 20
58.823002
 30
0.0
 10
11.843000
 20
59.382000
 30
0.0
 10
11.754168
 20
59.944000
 30
0.0
 10
11.750000
 20
59.970367
 30
0.0
 10
11.750000
 20
60.001999
 30
0.0
 10
11.750000
 20
62.000000
 30
0.0
 10
8.240000
 20
62.000000
 30
0.0
 10
3.761000
 20
62.000000
 30
0.0
 10
1.380000
 20
62.000000
 30
0.0
 10
0.250000
 20
62.000000
 30
0.0
 10
0.250000
 20
60.001999
 30
0.0
 10
0.250000
 20
59.970367
 30
0.0
 10
0.245832
 20
59.944000
 30
0.0
 10
0.157000
 20
59.382000
 30
0.0
 10
-0.128000
 20
58.823002
 30
0.0
 10
-0.573000
 20
58.377998
 30
0.0
 10
-1.132000
 20
58.092999
 30
0.0
 10
-1.721316
 20
58.000000
 30
0.0
 10
-1.753000
 20
58.000000
 30
0.0
 10
-61.748001
 20
58.000000
 30
0.0
 10
-61.779633
 20
58.000000
 30
0.0
 10
-62.368000
 20
58.092999
 30
0.0
 10
-62.926998
 20
58.377998
 30
0.0
 10
-63.372002
 20
58.823002
 30
0.0
 10
-63.657001
 20
59.382000
 30
0.0
 10
-63.745831
 20
59.944000
 30
0.0
 10
-63.750000
 20
59.970367
 30
0.0
 10
-63.750000
 20
60.001999
 30
0.0
 10
-63.750000
 20
62.000000
 30
0.0
 10
-67.959999
 20
62.000000
 30
0.0
 10
-68.816002
 20
62.000000
 30
0.0
 10
-75.250000
 20
62.000000
 30
0.0
 10
-75.250000
 20
60.001999
 30
0.0
 10
-75.250000
 20
59.970367
 30
0.0
 10
-75.254166
 20
59.944000
 30
0.0
 10
-75.343002
 20
59.382000
 30
0.0
 10
-75.627998
 20
58.823002
 30
0.0
 10
-76.072998
 20
58.377998
 30
0.0
 10
-76.632004
 20
58.092999
 30
0.0
 10
-77.221313
 20
58.000000
 30
0.0
 10
-77.252998
 20
58.000000
 30
0.0
 10
-137.248001
 20
58.000000
 30
0.0
 10
-137.279633
 20
58.000000
 30
0.0
 10
-137.867996
 20
58.092999
 30
0.0
 10
-138.427002
 20
58.377998
 30
0.0
 10
-138.871994
 20
58.823002
 30
0.0
 10
-139.156998
 20
59.382000
 30
0.0
 10
-139.245834
 20
59.944000
 30
0.0
 10
-139.250000
 20
59.970367
 30
0.0
 10
-139.250000
 20
60.001999
 30
0.0
 10
-139.250000
 20
62.000000
 30
0.0
 10
-141.496002
 20
62.000000
 30
0.0
 10
-143.876999
 20
62.000000
 30
0.0
 10
-143.998001
 20
62.000000
 30
0.0
 10
-144.029007
 20
62.000000
 30
0.0
 10
-144.617996
 20
62.095001
 30
0.0
 10
-145.177002
 20
62.382999
 30
0.0
 10
-145.621994
 20
62.831001
 30
0.0
 10
-145.906998
 20
63.396000
 30
0.0
 10
-146.000000
 20
63.990063
 30
0.0
 10
-146.000000
 20
64.021999
 30
0.0
 10
-146.000000
 20
154.998001
 30
0.0
 10
-146.000000
 20
155.029633
 30
0.0
 10
-145.906998
 20
155.618000
 30
0.0
 10
-145.621994
 20
156.178001
 30
0.0
 10
-145.177002
 20
156.622002
 30
0.0
 10
-144.617996
 20
156.907001
 30
0.0
 10
-144.035568
 20
157.000000
 30
0.0
 10
-143.998001
 20
157.000000
 30
0.0
 10
-139.250000
 20
157.000000
 30
0.0
 10
-139.250000
 20
158.998001
 30
0.0
 10
-139.250000
 20
159.029633
 30
0.0
 10
-139.156998
 20
159.618000
 30
0.0
 10
-138.871994
 20
160.176998
 30
0.0
 10
-138.427002
 20
160.622002
 30
0.0
 10
-137.867996
 20
160.907001
 30
0.0
 10
-137.279633
 20
161.000000
 30
0.0
 10
-137.248001
 20
161.000000
 30
0.0
 10
-77.252998
 20
161.000000
 30
0.0
 10
-77.221313
 20
161.000000
 30
0.0
 10
-76.632004
 20
160.907001
 30
0.0
 10
-76.072998
 20
160.622002
 30
0.0
 10
-75.627998
 20
160.176998
 30
0.0
 10
-75.343002
 20
159.618000
 30
0.0
 10
-75.250000
 20
159.029633
 30
0.0
 10
-75.250000
 20
158.998001
 30
0.0
 10
-75.250000
 20
157.000000
 30
0.0
 10
-63.750000
 20
157.000000
 30
0.0
 10
-63.750000
 20
158.998001
 30
0.0
 10
-63.750000
 20
159.029633
 30
0.0
 10
-63.657001
 20
159.618000
 30
0.0
 10
-63.372002
 20
160.176998
 30
0.0
 10
-62.926998
 20
160.622002
 30
0.0
 10
-62.368000
 20
160.907001
 30
0.0
 10
-61.779633
 20
161.000000
 30
0.0
 10
-61.748001
 20
161.000000
 30
0.0
 10
-1.753000
 20
161.000000
 30
0.0
 10
-1.721316
 20
161.000000
 30
0.0
 10
-1.132000
 20
160.907001
 30
0.0
 10
-0.573000
 20
160.622002
 30
0.0
 10
-0.128000
 20
160.176998
 30
0.0
 10
0.157000
 20
159.618000
 30
0.0
 10
0.250000
 20
159.029633
 30
0.0
 10
0.250000
 20
158.998001
 30
0.0
 10
0.250000
 20
157.000000
 30
0.0
 10
11.750000
 20
157.000000
 30
0.0
 10
11.750000
 20
158.998001
 30
0.0
 10
11.750000
 20
159.029633
 30
0.0
 10
11.843000
 20
159.618000
 30
0.0
 10
12.128000
 20
160.176998
 30
0.0
 10
12.573000
 20
160.622002
 30
0.0
 10
13.132000
 20
160.907001
 30
0.0
 10
13.721316
 20
161.000000
 30
0.0
 10
13.753000
 20
161.000000
 30
0.0
 10
73.748001
 20
161.000000
 30
0.0
 10
73.779633
 20
161.000000
 30
0.0
 10
74.367996
 20
160.907001
 30
0.0
 10
74.927002
 20
160.622002
 30
0.0
 10
75.372002
 20
160.176998
 30
0.0
 10
75.656998
 20
159.618000
 30
0.0
 10
75.750000
 20
159.029633
 30
0.0
 10
75.750000
 20
158.998001
 30
0.0
 10
75.750000
 20
157.000000
 30
0.0
 10
87.250000
 20
157.000000
 30
0.0
 10
87.250000
 20
158.998001
 30
0.0
 10
87.250000
 20
159.029633
 30
0.0
 10
87.343002
 20
159.618000
 30
0.0
 10
87.627998
 20
160.176998
 30
0.0
 10
88.072998
 20
160.622002
 30
0.0
 10
88.632004
 20
160.907001
 30
0.0
 10
89.221313
 20
161.000000
 30
0.0
 10
89.252998
 20
161.000000
 30
0.0
 10
149.248001
 20
161.000000
 30
0.0
 10
149.279633
 20
161.000000
 30
0.0
 10
149.867996
 20
160.907001
 30
0.0
 10
150.427002
 20
160.622002
 30
0.0
 10
150.871994
 20
160.176998
 30
0.0
  0
LWPOLYLINE
  5
101
100
AcDbEntity
  8
0
 62
7
100
AcDbPolyline
 90
55
 70
1
 10
124.919998
 20
107.199000
 30
0.0
 10
126.445000
 20
107.199000
 30
0.0
 10
126.445000
 20
102.728000
 30
0.0
 10
128.169998
 20
102.728000
 30
0.0
 10
128.169998
 20
101.527000
 30
0.0
 10
131.470993
 20
101.527000
 30
0.0
 10
131.470993
 20
102.728000
 30
0.0
 10
133.195999
 20
102.728000
 30
0.0
 10
133.195999
 20
109.015000
 30
0.0
 10
134.020996
 20
109.015000
 30
0.0
 10
134.020996
 20
111.801000
 30
0.0
 10
133.852005
 20
111.801000
 30
0.0
 10
133.195999
 20
111.801000
 30
0.0
 10
133.195999
 20
115.032000
 30
0.0
 10
132.065002
 20
115.032000
 30
0.0
 10
131.470993
 20
115.032000
 30
0.0
 10
128.169998
 20
115.032000
 30
0.0
 10
126.445000
 20
115.032000
 30
0.0
 10
126.445000
 20
111.801000
 30
0.0
 10
124.919998
 20
111.801000
 30
0.0
 10
124.919998
 20
116.502000
 30
0.0
 10
122.822998
 20
116.502000
 30
0.0
 10
118.059998
 20
116.502000
 30
0.0
 10
117.778000
 20
116.502000
 30
0.0
 10
113.299004
 20
116.502000
 30
0.0
 10
111.774002
 20
116.502000
 30
0.0
 10
110.917999
 20
116.502000
 30
0.0
 10
110.917999
 20
111.801000
 30
0.0
 10
110.634003
 20
111.801000
 30
0.0
 10
110.047997
 20
111.801000
 30
0.0
 10
109.391998
 20
111.801000
 30
0.0
 10
109.391998
 20
115.032000
 30
0.0
 10
108.252998
 20
115.032000
 30
0.0
 10
107.667000
 20
115.032000
 30
0.0
 10
104.366997
 20
115.032000
 30
0.0
 10
103.773003
 20
115.032000
 30
0.0
 10
102.640999
 20
115.032000
 30
0.0
 10
102.640999
 20
111.801000
 30
0.0
 10
101.816002
 20
111.801000
 30
0.0
 10
101.816002
 20
109.015000
 30
0.0
 10
102.640999
 20
109.015000
 30
0.0
 10
102.640999
 20
102.728000
 30
0.0
 10
103.773003
 20
102.728000
 30
0.0
 10
104.366997
 20
102.728000
 30
0.0
 10
104.366997
 20
101.527000
 30
0.0
 10
107.667000
 20
101.527000
 30
0.0
 10
107.667000
 20
102.728000
 30
0.0
 10
109.391998
 20
102.728000
 30
0.0
 10
109.391998
 20
107.199000
 30
0.0
 10
110.634003
 20
107.199000
 30
0.0
 10
110.917999
 20
107.199000
 30
0.0
 10
110.917999
 20
102.498000
 30
0.0
 10
117.778000
 20
102.498000
 30
0.0
 10
122.822998
 20
102.498000
 30
0.0
 10
124.919998
 20
102.498000
 30
0.0
  0
LWPOLYLINE
  5
102
100
AcDbEntity
  8
0
 62
7
100
AcDbPolyline
 90
72
 70
1
 10
127.301003
 20
145.299000
 30
0.0
 10
128.169998
 20
145.299000
 30
0.0
 10
128.826004
 20
145.299000
 30
0.0
 10
128.826004
 20
140.827999
 30
0.0
 10
130.552002
 20
140.827999
 30
0.0
 10
130.552002
 20
139.626999
 30
0.0
 10
131.470993
 20
139.626999
 30
0.0
 10
132.065002
 20
139.626999
 30
0.0
 10
133.195999
 20
139.626999
 30
0.0
 10
133.852005
 20
139.626999
 30
0.0
 10
133.852005
 20
140.827999
 30
0.0
 10
134.020996
 20
140.827999
 30
0.0
 10
135.576996
 20
140.827999
 30
0.0
 10
135.576996
 20
147.115002
 30
0.0
 10
136.403000
 20
147.115002
 30
0.0
 10
136.403000
 20
149.901001
 30
0.0
 10
135.576996
 20
149.901001
 30
0.0
 10
135.576996
 20
153.132000
 30
0.0
 10
134.020996
 20
153.132000
 30
0.0
 10
133.852005
 20
153.132000
 30
0.0
 10
133.195999
 20
153.132000
 30
0.0
 10
132.065002
 20
153.132000
 30
0.0
 10
131.470993
 20
153.132000
 30
0.0
 10
130.552002
 20
153.132000
 30
0.0
 10
128.826004
 20
153.132000
 30
0.0
 10
128.826004
 20
149.901001
 30
0.0
 10
128.169998
 20
149.901001
 30
0.0
 10
127.301003
 20
149.901001
 30
0.0
 10
127.301003
 20
154.602001
 30
0.0
 10
126.445000
 20
154.602001
 30
0.0
 10
124.919998
 20
154.602001
 30
0.0
 10
122.822998
 20
154.602001
 30
0.0
 10
118.059998
 20
154.602001
 30
0.0
 10
117.778000
 20
154.602001
 30
0.0
 10
113.299004
 20
154.602001
 30
0.0
 10
113.299004
 20
149.901001
 30
0.0
 10
111.774002
 20
149.901001
 30
0.0
 10
111.774002
 20
153.132000
 30
0.0
 10
110.917999
 20
153.132000
 30
0.0
 10
110.634003
 20
153.132000
 30
0.0
 10
110.047997
 20
153.132000
 30
0.0
 10
109.391998
 20
153.132000
 30
0.0
 10
108.252998
 20
153.132000
 30
0.0
 10
107.667000
 20
153.132000
 30
0.0
 10
106.748001
 20
153.132000
 30
0.0
 10
105.023003
 20
153.132000
 30
0.0
 10
105.023003
 20
149.901001
 30
0.0
 10
104.366997
 20
149.901001
 30
0.0
 10
104.197998
 20
149.901001
 30
0.0
 10
104.197998
 20
147.115002
 30
0.0
 10
104.366997
 20
147.115002
 30
0.0
 10
105.023003
 20
147.115002
 30
0.0
 10
105.023003
 20
140.827999
 30
0.0
 10
106.748001
 20
140.827999
 30
0.0
 10
106.748001
 20
139.626999
 30
0.0
 10
107.667000
 20
139.626999
 30
0.0
 10
108.252998
 20
139.626999
 30
0.0
 10
109.391998
 20
139.626999
 30
0.0
 10
110.047997
 20
139.626999
 30
0.0
 10
110.047997
 20
140.827999
 30
0.0
 10
110.634003
 20
140.827999
 30
0.0
 10
110.917999
 20
140.827999
 30
0.0
 10
111.774002
 20
140.827999
 30
0.0
 10
111.774002
 20
145.299000
 30
0.0
 10
113.299004
 20
145.299000
 30
0.0
 10
113.299004
 20
140.598000
 30
0.0
 10
117.778000
 20
140.598000
 30
0.0
 10
118.059998
 20
140.598000
 30
0.0
 10
122.822998
 20
140.598000
 30
0.0
 10
124.919998
 20
140.598000
 30
0.0
 10
126.445000
 20
140.598000
 30
0.0
 10
127.301003
 20
140.598000
 30
0.0
  0
LWPOLYLINE
  5
103
100
AcDbEntity
  8
0
 62
7
100
AcDbPolyline
 90
33
 70
1
 10
-11.665000
 20
80.402000
 30
0.0
 10
-11.666000
 20
80.402000
 30
0.0
 10
-11.666000
 20
65.397999
 30
0.0
 10
-10.810000
 20
65.397999
 30
0.0
 10
-5.765000
 20
65.397999
 30
0.0
 10
-4.915000
 20
65.397999
 30
0.0
 10
-3.382000
 20
65.397999
 30
0.0
 10
-3.382000
 20
64.397999
 30
0.0
 10
-0.151000
 20
64.397999
 30
0.0
 10
1.380000
 20
64.397999
 30
0.0
 10
3.761000
 20
64.397999
 30
0.0
 10
3.761000
 20
64.396999
 30
0.0
 10
8.240000
 20
64.396999
 30
0.0
 10
13.285000
 20
64.396999
 30
0.0
 10
17.761999
 20
64.396999
 30
0.0
 10
17.761999
 20
65.397999
 30
0.0
 10
23.665001
 20
65.397999
 30
0.0
 10
23.665001
 20
80.403000
 30
0.0
 10
17.761999
 20
80.403000
 30
0.0
 10
16.914000
 20
80.403000
 30
0.0
 10
13.285000
 20
80.403000
 30
0.0
 10
12.151000
 20
80.403000
 30
0.0
 10
12.151000
 20
78.402000
 30
0.0
 10
8.240000
 20
78.402000
 30
0.0
 10
3.761000
 20
78.402000
 30
0.0
 10
1.380000
 20
78.402000
 30
0.0
 10
-0.151000
 20
78.402000
 30
0.0
 10
-0.151000
 20
80.403000
 30
0.0
 10
-4.915000
 20
80.403000
 30
0.0
 10
-5.765000
 20
80.403000
 30
0.0
 10
-6.903000
 20
80.403000
 30
0.0
 10
-10.810000
 20
80.403000
 30
0.0
 10
-11.665000
 20
80.403000
 30
0.0
  0
LWPOLYLINE
  5
104
100
AcDbEntity
  8
0
 62
7
100
AcDbPolyline
 90
31
 70
1
 10
-35.474998
 20
78.402000
 30
0.0
 10
-37.006001
 20
78.402000
 30
0.0
 10
-43.865002
 20
78.402000
 30
0.0
 10
-47.777000
 20
78.402000
 30
0.0
 10
-47.777000
 20
80.403000
 30
0.0
 10
-48.910000
 20
80.403000
 30
0.0
 10
-51.007999
 20
80.403000
 30
0.0
 10
-52.540001
 20
80.403000
 30
0.0
 10
-59.291000
 20
80.403000
 30
0.0
 10
-59.291000
 20
65.397999
 30
0.0
 10
-53.389000
 20
65.397999
 30
0.0
 10
-53.389000
 20
64.396999
 30
0.0
 10
-52.540001
 20
64.396999
 30
0.0
 10
-51.007999
 20
64.396999
 30
0.0
 10
-48.910000
 20
64.396999
 30
0.0
 10
-43.865002
 20
64.396999
 30
0.0
 10
-39.388000
 20
64.396999
 30
0.0
 10
-39.388000
 20
64.397999
 30
0.0
 10
-37.006001
 20
64.397999
 30
0.0
 10
-35.474998
 20
64.397999
 30
0.0
 10
-32.243999
 20
64.397999
 30
0.0
 10
-32.243999
 20
65.397999
 30
0.0
 10
-29.860001
 20
65.397999
 30
0.0
 10
-28.723000
 20
65.397999
 30
0.0
 10
-24.815001
 20
65.397999
 30
0.0
 10
-23.961000
 20
65.397999
 30
0.0
 10
-23.961000
 20
80.403000
 30
0.0
 10
-24.815001
 20
80.403000
 30
0.0
 10
-28.723000
 20
80.403000
 30
0.0
 10
-29.860001
 20
80.403000
 30
0.0
 10
-35.474998
 20
80.403000
 30
0.0
  0
LWPOLYLINE
  5
105
100
AcDbEntity
  8
0
 62
7
100
AcDbPolyline
 90
23
 70
1
 10
-68.816002
 20
78.402000
 30
0.0
 10
-77.485001
 20
78.402000
 30
0.0
 10
-79.865997
 20
78.402000
 30
0.0
 10
-81.964996
 20
78.402000
 30
0.0
 10
-87.010002
 20
78.402000
 30
0.0
 10
-93.872002
 20
78.402000
 30
0.0
 10
-96.252998
 20
78.402000
 30
0.0
 10
-96.252998
 20
64.396999
 30
0.0
 10
-93.872002
 20
64.396999
 30
0.0
 10
-87.010002
 20
64.396999
 30
0.0
 10
-81.964996
 20
64.396999
 30
0.0
 10
-79.865997
 20
64.396999
 30
0.0
 10
-77.485001
 20
64.396999
 30
0.0
 10
-68.816002
 20
64.396999
 30
0.0
 10
-67.959999
 20
64.396999
 30
0.0
 10
-63.198002
 20
64.396999
 30
0.0
 10
-63.198002
 20
65.397999
 30
0.0
 10
-62.915001
 20
65.397999
 30
0.0
 10
-62.064999
 20
65.397999
 30
0.0
 10
-62.064999
 20
80.402000
 30
0.0
 10
-62.915001
 20
80.402000
 30
0.0
 10
-67.959999
 20
80.402000
 30
0.0
 10
-68.816002
 20
80.402000
 30
0.0
  0
LWPOLYLINE
  5
106
100
AcDbEntity
  8
0
 62
7
100
AcDbPolyline
 90
52
 70
1
 10
-109.691002
 20
89.965000
 30
0.0
 10
-108.865997
 20
89.965000
 30
0.0
 10
-108.865997
 20
92.751000
 30
0.0
 10
-109.691002
 20
92.751000
 30
0.0
 10
-109.691002
 20
95.982000
 30
0.0
 10
-110.540001
 20
95.982000
 30
0.0
 10
-111.417000
 20
95.982000
 30
0.0
 10
-114.717003
 20
95.982000
 30
0.0
 10
-115.302002
 20
95.982000
 30
0.0
 10
-116.442001
 20
95.982000
 30
0.0
 10
-116.442001
 20
92.751000
 30
0.0
 10
-117.683998
 20
92.751000
 30
0.0
 10
-117.968002
 20
92.751000
 30
0.0
 10
-117.968002
 20
97.452000
 30
0.0
 10
-122.727997
 20
97.452000
 30
0.0
 10
-127.490997
 20
97.452000
 30
0.0
 10
-131.970001
 20
97.452000
 30
0.0
 10
-131.970001
 20
92.751000
 30
0.0
 10
-133.494995
 20
92.751000
 30
0.0
 10
-133.494995
 20
95.982000
 30
0.0
 10
-135.220001
 20
95.982000
 30
0.0
 10
-136.733002
 20
95.982000
 30
0.0
 10
-138.520996
 20
95.982000
 30
0.0
 10
-139.115005
 20
95.982000
 30
0.0
 10
-140.246002
 20
95.982000
 30
0.0
 10
-140.246002
 20
92.751000
 30
0.0
 10
-141.070999
 20
92.751000
 30
0.0
 10
-141.070999
 20
89.965000
 30
0.0
 10
-140.246002
 20
89.965000
 30
0.0
 10
-140.246002
 20
83.677999
 30
0.0
 10
-138.520996
 20
83.677999
 30
0.0
 10
-138.520996
 20
82.476999
 30
0.0
 10
-136.733002
 20
82.476999
 30
0.0
 10
-135.220001
 20
82.476999
 30
0.0
 10
-135.220001
 20
83.677999
 30
0.0
 10
-133.494995
 20
83.677999
 30
0.0
 10
-133.494995
 20
88.149000
 30
0.0
 10
-131.970001
 20
88.149000
 30
0.0
 10
-131.970001
 20
83.448000
 30
0.0
 10
-127.490997
 20
83.448000
 30
0.0
 10
-122.727997
 20
83.448000
 30
0.0
 10
-117.968002
 20
83.448000
 30
0.0
 10
-117.968002
 20
88.149000
 30
0.0
 10
-117.683998
 20
88.149000
 30
0.0
 10
-116.442001
 20
88.149000
 30
0.0
 10
-116.442001
 20
83.677999
 30
0.0
 10
-114.717003
 20
83.677999
 30
0.0
 10
-114.717003
 20
82.476999
 30
0.0
 10
-111.417000
 20
82.476999
 30
0.0
 10
-111.417000
 20
83.677999
 30
0.0
 10
-110.540001
 20
83.677999
 30
0.0
 10
-109.691002
 20
83.677999
 30
0.0
  0
LWPOLYLINE
  5
107
100
AcDbEntity
  8
0
 62
7
100
AcDbPolyline
 90
12
 70
1
 10
70.153000
 20
154.602001
 30
0.0
 10
65.672997
 20
154.602001
 30
0.0
 10
65.672997
 20
140.597000
 30
0.0
 10
70.153000
 20
140.597000
 30
0.0
 10
70.434998
 20
140.597000
 30
0.0
 10
74.915001
 20
140.597000
 30
0.0
 10
75.197998
 20
140.597000
 30
0.0
 10
79.678001
 20
140.597000
 30
0.0
 10
79.678001
 20
154.602001
 30
0.0
 10
75.197998
 20
154.602001
 30
0.0
 10
74.915001
 20
154.602001
 30
0.0
 10
70.434998
 20
154.602001
 30
0.0
  0
LWPOLYLINE
  5
108
100
AcDbEntity
  8
0
 62
7
100
AcDbPolyline
 90
12
 70
1
 10
55.865002
 20
154.602001
 30
0.0
 10
51.384998
 20
154.602001
 30
0.0
 10
51.103001
 20
154.602001
 30
0.0
 10
46.623001
 20
154.602001
 30
0.0
 10
46.623001
 20
140.597000
 30
0.0
 10
51.103001
 20
140.597000
 30
0.0
 10
51.384998
 20
140.597000
 30
0.0
 10
55.865002
 20
140.597000
 30
0.0
 10
56.147999
 20
140.597000
 30
0.0
 10
60.627998
 20
140.597000
 30
0.0
 10
60.627998
 20
154.602001
 30
0.0
 10
56.147999
 20
154.602001
 30
0.0
  0
LWPOLYLINE
  5
109
100
AcDbEntity
  8
0
 62
7
100
AcDbPolyline
 90
10
 70
1
 10
51.384998
 20
102.497000
 30
0.0
 10
55.865002
 20
102.497000
 30
0.0
 10
55.865002
 20
116.502000
 30
0.0
 10
51.384998
 20
116.502000
 30
0.0
 10
51.103001
 20
116.502000
 30
0.0
 10
46.340000
 20
116.502000
 30
0.0
 10
41.860001
 20
116.502000
 30
0.0
 10
41.860001
 20
102.497000
 30
0.0
 10
46.340000
 20
102.497000
 30
0.0
 10
46.622002
 20
102.497000
 30
0.0
  0
LWPOLYLINE
  5
10a
100
AcDbEntity
  8
0
 62
7
100
AcDbPolyline
 90
24
 70
1
 10
58.245998
 20
64.398998
 30
0.0
 10
60.626999
 20
64.398998
 30
0.0
 10
60.626999
 20
78.403999
 30
0.0
 10
58.245998
 20
78.403999
 30
0.0
 10
51.384998
 20
78.403999
 30
0.0
 10
46.622002
 20
78.403999
 30
0.0
 10
46.340000
 20
78.403999
 30
0.0
 10
44.241001
 20
78.403999
 30
0.0
 10
33.188999
 20
78.403999
 30
0.0
 10
33.188999
 20
80.402000
 30
0.0
 10
32.334999
 20
80.402000
 30
0.0
 10
27.290001
 20
80.402000
 30
0.0
 10
26.438000
 20
80.402000
 30
0.0
 10
26.438000
 20
65.397999
 30
0.0
 10
27.290001
 20
65.397999
 30
0.0
 10
27.572001
 20
65.397999
 30
0.0
 10
27.572001
 20
64.398998
 30
0.0
 10
32.334999
 20
64.398998
 30
0.0
 10
33.188999
 20
64.398998
 30
0.0
 10
44.241001
 20
64.398998
 30
0.0
 10
44.241001
 20
64.396999
 30
0.0
 10
46.340000
 20
64.396999
 30
0.0
 10
51.384998
 20
64.396999
 30
0.0
 10
58.245998
 20
64.396999
 30
0.0
  0
LWPOLYLINE
  5
10b
100
AcDbEntity
  8
0
 62
7
100
AcDbPolyline
 90
12
 70
1
 10
36.814999
 20
154.602001
 30
0.0
 10
32.334999
 20
154.602001
 30
0.0
 10
32.053001
 20
154.602001
 30
0.0
 10
27.573000
 20
154.602001
 30
0.0
 10
27.573000
 20
140.597000
 30
0.0
 10
32.053001
 20
140.597000
 30
0.0
 10
32.334999
 20
140.597000
 30
0.0
 10
36.814999
 20
140.597000
 30
0.0
 10
37.098000
 20
140.597000
 30
0.0
 10
41.577999
 20
140.597000
 30
0.0
 10
41.577999
 20
154.602001
 30
0.0
 10
37.098000
 20
154.602001
 30
0.0
  0
LWPOLYLINE
  5
10c
100
AcDbEntity
  8
0
 62
7
100
AcDbPolyline
 90
12
 70
1
 10
17.764999
 20
154.602001
 30
0.0
 10
13.285000
 20
154.602001
 30
0.0
 10
13.003000
 20
154.602001
 30
0.0
 10
8.523000
 20
154.602001
 30
0.0
 10
8.523000
 20
140.597000
 30
0.0
 10
13.003000
 20
140.597000
 30
0.0
 10
13.285000
 20
140.597000
 30
0.0
 10
17.764999
 20
140.597000
 30
0.0
 10
18.048000
 20
140.597000
 30
0.0
 10
22.528000
 20
140.597000
 30
0.0
 10
22.528000
 20
154.602001
 30
0.0
 10
18.048000
 20
154.602001
 30
0.0
  0
LWPOLYLINE
  5
10d
100
AcDbEntity
  8
0
 62
7
100
AcDbPolyline
 90
10
 70
1
 10
13.285000
 20
102.497000
 30
0.0
 10
17.764999
 20
102.497000
 30
0.0
 10
17.764999
 20
116.502000
 30
0.0
 10
13.285000
 20
116.502000
 30
0.0
 10
13.003000
 20
116.502000
 30
0.0
 10
8.240000
 20
116.502000
 30
0.0
 10
3.760000
 20
116.502000
 30
0.0
 10
3.760000
 20
102.497000
 30
0.0
 10
8.240000
 20
102.497000
 30
0.0
 10
12.151000
 20
102.497000
 30
0.0
  0
LWPOLYLINE
  5
10e
100
AcDbEntity
  8
0
 62
7
100
AcDbPolyline
 90
11
 70
1
 10
17.761999
 20
83.447001
 30
0.0
 10
23.665001
 20
83.447001
 30
0.0
 10
26.438000
 20
83.447001
 30
0.0
 10
27.290001
 20
83.447001
 30
0.0
 10
27.290001
 20
97.452000
 30
0.0
 10
22.809999
 20
97.452000
 30
0.0
 10
18.048000
 20
97.452000
 30
0.0
 10
17.764999
 20
97.452000
 30
0.0
 10
13.285000
 20
97.452000
 30
0.0
 10
13.285000
 20
83.447001
 30
0.0
 10
16.914000
 20
83.447001
 30
0.0
  0
LWPOLYLINE
  5
10f
100
AcDbEntity
  8
0
 62
7
100
AcDbPolyline
 90
12
 70
1
 10
-1.285000
 20
154.602001
 30
0.0
 10
-5.765000
 20
154.602001
 30
0.0
 10
-6.047000
 20
154.602001
 30
0.0
 10
-10.527000
 20
154.602001
 30
0.0
 10
-10.527000
 20
140.597000
 30
0.0
 10
-6.047000
 20
140.597000
 30
0.0
 10
-5.765000
 20
140.597000
 30
0.0
 10
-1.285000
 20
140.597000
 30
0.0
 10
-1.002000
 20
140.597000
 30
0.0
 10
3.478000
 20
140.597000
 30
0.0
 10
3.478000
 20
154.602001
 30
0.0
 10
-1.002000
 20
154.602001
 30
0.0
  0
LWPOLYLINE
  5
110
100
AcDbEntity
  8
0
 62
7
100
AcDbPolyline
 90
10
 70
1
 10
-5.765000
 20
102.497000
 30
0.0
 10
-1.285000
 20
102.497000
 30
0.0
 10
-1.285000
 20
116.502000
 30
0.0
 10
-5.765000
 20
116.502000
 30
0.0
 10
-6.047000
 20
116.502000
 30
0.0
 10
-10.810000
 20
116.502000
 30
0.0
 10
-15.290000
 20
116.502000
 30
0.0
 10
-15.290000
 20
102.497000
 30
0.0
 10
-10.810000
 20
102.497000
 30
0.0
 10
-6.903000
 20
102.497000
 30
0.0
  0
LWPOLYLINE
  5
111
100
AcDbEntity
  8
0
 62
7
100
AcDbPolyline
 90
12
 70
1
 10
-20.334999
 20
154.602001
 30
0.0
 10
-24.815001
 20
154.602001
 30
0.0
 10
-25.097000
 20
154.602001
 30
0.0
 10
-29.577000
 20
154.602001
 30
0.0
 10
-29.577000
 20
140.597000
 30
0.0
 10
-25.097000
 20
140.597000
 30
0.0
 10
-24.815001
 20
140.597000
 30
0.0
 10
-20.334999
 20
140.597000
 30
0.0
 10
-20.052000
 20
140.597000
 30
0.0
 10
-15.572000
 20
140.597000
 30
0.0
 10
-15.572000
 20
154.602001
 30
0.0
 10
-20.052000
 20
154.602001
 30
0.0
  0
LWPOLYLINE
  5
112
100
AcDbEntity
  8
0
 62
7
100
AcDbPolyline
 90
10
 70
1
 10
-10.810000
 20
83.447001
 30
0.0
 10
-10.810000
 20
97.452000
 30
0.0
 10
-15.290000
 20
97.452000
 30
0.0
 10
-20.052000
 20
97.452000
 30
0.0
 10
-20.334999
 20
97.452000
 30
0.0
 10
-24.815001
 20
97.452000
 30
0.0
 10
-24.815001
 20
83.447001
 30
0.0
 10
-23.961000
 20
83.447001
 30
0.0
 10
-11.666000
 20
83.447001
 30
0.0
 10
-11.665000
 20
83.447001
 30
0.0
  0
LWPOLYLINE
  5
113
100
AcDbEntity
  8
0
 62
7
100
AcDbPolyline
 90
12
 70
1
 10
-39.384998
 20
154.602001
 30
0.0
 10
-43.865002
 20
154.602001
 30
0.0
 10
-44.146999
 20
154.602001
 30
0.0
 10
-48.626999
 20
154.602001
 30
0.0
 10
-48.626999
 20
140.597000
 30
0.0
 10
-44.146999
 20
140.597000
 30
0.0
 10
-43.865002
 20
140.597000
 30
0.0
 10
-39.384998
 20
140.597000
 30
0.0
 10
-39.102001
 20
140.597000
 30
0.0
 10
-34.622002
 20
140.597000
 30
0.0
 10
-34.622002
 20
154.602001
 30
0.0
 10
-39.102001
 20
154.602001
 30
0.0
  0
LWPOLYLINE
  5
114
100
AcDbEntity
  8
0
 62
7
100
AcDbPolyline
 90
10
 70
1
 10
-43.865002
 20
102.497000
 30
0.0
 10
-39.384998
 20
102.497000
 30
0.0
 10
-39.384998
 20
116.502000
 30
0.0
 10
-43.865002
 20
116.502000
 30
0.0
 10
-44.146999
 20
116.502000
 30
0.0
 10
-48.910000
 20
116.502000
 30
0.0
 10
-53.389999
 20
116.502000
 30
0.0
 10
-53.389999
 20
102.497000
 30
0.0
 10
-48.910000
 20
102.497000
 30
0.0
 10
-47.777000
 20
102.497000
 30
0.0
  0
LWPOLYLINE
  5
115
100
AcDbEntity
  8
0
 62
7
100
AcDbPolyline
 90
12
 70
1
 10
-58.435001
 20
154.602001
 30
0.0
 10
-62.915001
 20
154.602001
 30
0.0
 10
-63.196999
 20
154.602001
 30
0.0
 10
-67.677002
 20
154.602001
 30
0.0
 10
-67.677002
 20
140.597000
 30
0.0
 10
-63.196999
 20
140.597000
 30
0.0
 10
-62.915001
 20
140.597000
 30
0.0
 10
-58.435001
 20
140.597000
 30
0.0
 10
-58.152000
 20
140.597000
 30
0.0
 10
-53.672001
 20
140.597000
 30
0.0
 10
-53.672001
 20
154.602001
 30
0.0
 10
-58.152000
 20
154.602001
 30
0.0
  0
LWPOLYLINE
  5
116
100
AcDbEntity
  8
0
 62
7
100
AcDbPolyline
 90
12
 70
1
 10
-77.485001
 20
154.602001
 30
0.0
 10
-81.964996
 20
154.602001
 30
0.0
 10
-82.248001
 20
154.602001
 30
0.0
 10
-86.726997
 20
154.602001
 30
0.0
 10
-86.726997
 20
140.597000
 30
0.0
 10
-82.248001
 20
140.597000
 30
0.0
 10
-81.964996
 20
140.597000
 30
0.0
 10
-77.485001
 20
140.597000
 30
0.0
 10
-77.202003
 20
140.597000
 30
0.0
 10
-72.722000
 20
140.597000
 30
0.0
 10
-72.722000
 20
154.602001
 30
0.0
 10
-77.202003
 20
154.602001
 30
0.0
  0
LWPOLYLINE
  5
117
100
AcDbEntity
  8
0
 62
7
100
AcDbPolyline
 90
12
 70
1
 10
-96.535004
 20
154.602001
 30
0.0
 10
-101.014999
 20
154.602001
 30
0.0
 10
-101.296997
 20
154.602001
 30
0.0
 10
-105.778000
 20
154.602001
 30
0.0
 10
-105.778000
 20
140.597000
 30
0.0
 10
-101.296997
 20
140.597000
 30
0.0
 10
-101.014999
 20
140.597000
 30
0.0
 10
-96.535004
 20
140.597000
 30
0.0
 10
-96.251999
 20
140.597000
 30
0.0
 10
-91.772003
 20
140.597000
 30
0.0
 10
-91.772003
 20
154.602001
 30
0.0
 10
-96.251999
 20
154.602001
 30
0.0
  0
LWPOLYLINE
  5
118
100
AcDbEntity
  8
0
 62
7
100
AcDbPolyline
 90
18
 70
1
 10
-116.442001
 20
154.602001
 30
0.0
 10
-117.683998
 20
154.602001
 30
0.0
 10
-117.968002
 20
154.602001
 30
0.0
 10
-122.727997
 20
154.602001
 30
0.0
 10
-124.827003
 20
154.602001
 30
0.0
 10
-124.827003
 20
140.597000
 30
0.0
 10
-122.727997
 20
140.597000
 30
0.0
 10
-117.968002
 20
140.597000
 30
0.0
 10
-117.683998
 20
140.597000
 30
0.0
 10
-116.442001
 20
140.597000
 30
0.0
 10
-115.302002
 20
140.597000
 30
0.0
 10
-114.717003
 20
140.597000
 30
0.0
 10
-111.417000
 20
140.597000
 30
0.0
 10
-110.821999
 20
140.597000
 30
0.0
 10
-110.821999
 20
154.602001
 30
0.0
 10
-111.417000
 20
154.602001
 30
0.0
 10
-114.717003
 20
154.602001
 30
0.0
 10
-115.302002
 20
154.602001
 30
0.0
  0
LWPOLYLINE
  5
119
100
AcDbEntity
  8
0
 62
7
100
AcDbPolyline
 90
11
 70
1
 10
-136.733002
 20
78.402000
 30
0.0
 10
-138.520996
 20
78.402000
 30
0.0
 10
-140.246002
 20
78.402000
 30
0.0
 10
-141.070999
 20
78.402000
 30
0.0
 10
-141.496002
 20
78.402000
 30
0.0
 10
-141.496002
 20
64.396999
 30
0.0
 10
-127.490997
 20
64.396999
 30
0.0
 10
-127.490997
 20
78.402000
 30
0.0
 10
-131.970001
 20
78.402000
 30
0.0
 10
-133.494995
 20
78.402000
 30
0.0
 10
-135.220001
 20
78.402000
 30
0.0
  0
LWPOLYLINE
  5
11a
100
AcDbEntity
  8
0
 62
7
100
AcDbPolyline
 90
16
 70
1
 10
-141.070999
 20
154.602001
 30
0.0
 10
-141.496002
 20
154.602001
 30
0.0
 10
-143.876999
 20
154.602001
 30
0.0
 10
-143.876999
 20
140.597000
 30
0.0
 10
-141.496002
 20
140.597000
 30
0.0
 10
-141.070999
 20
140.597000
 30
0.0
 10
-140.246002
 20
140.597000
 30
0.0
 10
-139.115005
 20
140.597000
 30
0.0
 10
-138.520996
 20
140.597000
 30
0.0
 10
-136.733002
 20
140.597000
 30
0.0
 10
-129.873001
 20
140.597000
 30
0.0
 10
-129.873001
 20
154.602001
 30
0.0
 10
-136.733002
 20
154.602001
 30
0.0
 10
-138.520996
 20
154.602001
 30
0.0
 10
-139.115005
 20
154.602001
 30
0.0
 10
-140.246002
 20
154.602001
 30
0.0
  0
LWPOLYLINE
  5
11b
100
AcDbEntity
  8
0
 62
7
100
AcDbPolyline
 90
11
 70
1
 10
-125.110001
 20
135.552000
 30
0.0
 10
-127.490997
 20
135.552000
 30
0.0
 10
-129.873001
 20
135.552000
 30
0.0
 10
-136.733002
 20
135.552000
 30
0.0
 10
-138.520996
 20
135.552000
 30
0.0
 10
-139.115005
 20
135.552000
 30
0.0
 10
-139.115005
 20
121.547001
 30
0.0
 10
-138.520996
 20
121.547001
 30
0.0
 10
-136.733002
 20
121.547001
 30
0.0
 10
-127.490997
 20
121.547001
 30
0.0
 10
-125.110001
 20
121.547001
 30
0.0
  0
LWPOLYLINE
  5
11c
100
AcDbEntity
  8
0
 62
7
100
AcDbPolyline
 90
12
 70
1
 10
89.203003
 20
154.602001
 30
0.0
 10
84.723000
 20
154.602001
 30
0.0
 10
84.723000
 20
140.597000
 30
0.0
 10
89.203003
 20
140.597000
 30
0.0
 10
93.964996
 20
140.597000
 30
0.0
 10
94.248001
 20
140.597000
 30
0.0
 10
96.628998
 20
140.597000
 30
0.0
 10
98.727997
 20
140.597000
 30
0.0
 10
98.727997
 20
154.602001
 30
0.0
 10
96.628998
 20
154.602001
 30
0.0
 10
94.248001
 20
154.602001
 30
0.0
 10
93.964996
 20
154.602001
 30
0.0
  0
LWPOLYLINE
  5
11d
100
AcDbEntity
  8
0
 62
7
100
AcDbPolyline
 90
12
 70
1
 10
79.959999
 20
135.552000
 30
0.0
 10
79.678001
 20
135.552000
 30
0.0
 10
75.197998
 20
135.552000
 30
0.0
 10
75.197998
 20
121.547001
 30
0.0
 10
79.678001
 20
121.547001
 30
0.0
 10
79.959999
 20
121.547001
 30
0.0
 10
84.440002
 20
121.547001
 30
0.0
 10
84.723000
 20
121.547001
 30
0.0
 10
89.203003
 20
121.547001
 30
0.0
 10
89.203003
 20
135.552000
 30
0.0
 10
84.723000
 20
135.552000
 30
0.0
 10
84.440002
 20
135.552000
 30
0.0
  0
LWPOLYLINE
  5
11e
100
AcDbEntity
  8
0
 62
7
100
AcDbPolyline
 90
21
 70
1
 10
101.816002
 20
135.552000
 30
0.0
 10
98.727997
 20
135.552000
 30
0.0
 10
96.628998
 20
135.552000
 30
0.0
 10
94.248001
 20
135.552000
 30
0.0
 10
94.248001
 20
121.547001
 30
0.0
 10
96.628998
 20
121.547001
 30
0.0
 10
98.727997
 20
121.547001
 30
0.0
 10
101.816002
 20
121.547001
 30
0.0
 10
102.640999
 20
121.547001
 30
0.0
 10
103.773003
 20
121.547001
 30
0.0
 10
104.366997
 20
121.547001
 30
0.0
 10
107.667000
 20
121.547001
 30
0.0
 10
108.252998
 20
121.547001
 30
0.0
 10
108.252998
 20
135.552000
 30
0.0
 10
107.667000
 20
135.552000
 30
0.0
 10
106.748001
 20
135.552000
 30
0.0
 10
105.023003
 20
135.552000
 30
0.0
 10
104.366997
 20
135.552000
 30
0.0
 10
104.197998
 20
135.552000
 30
0.0
 10
103.773003
 20
135.552000
 30
0.0
 10
102.640999
 20
135.552000
 30
0.0
  0
LWPOLYLINE
  5
11f
100
AcDbEntity
  8
0
 62
7
100
AcDbPolyline
 90
17
 70
1
 10
122.822998
 20
135.552000
 30
0.0
 10
118.059998
 20
135.552000
 30
0.0
 10
118.059998
 20
121.547001
 30
0.0
 10
122.822998
 20
121.547001
 30
0.0
 10
124.919998
 20
121.547001
 30
0.0
 10
126.445000
 20
121.547001
 30
0.0
 10
128.169998
 20
121.547001
 30
0.0
 10
131.470993
 20
121.547001
 30
0.0
 10
132.065002
 20
121.547001
 30
0.0
 10
132.065002
 20
135.552000
 30
0.0
 10
131.470993
 20
135.552000
 30
0.0
 10
130.552002
 20
135.552000
 30
0.0
 10
128.826004
 20
135.552000
 30
0.0
 10
128.169998
 20
135.552000
 30
0.0
 10
127.301003
 20
135.552000
 30
0.0
 10
126.445000
 20
135.552000
 30
0.0
 10
124.919998
 20
135.552000
 30
0.0
  0
LWPOLYLINE
  5
120
100
AcDbEntity
  8
0
 62
7
100
AcDbPolyline
 90
12
 70
1
 10
124.919998
 20
97.452000
 30
0.0
 10
122.822998
 20
97.452000
 30
0.0
 10
122.822998
 20
83.447001
 30
0.0
 10
136.828003
 20
83.447001
 30
0.0
 10
136.828003
 20
97.452000
 30
0.0
 10
136.403000
 20
97.452000
 30
0.0
 10
135.576996
 20
97.452000
 30
0.0
 10
134.020996
 20
97.452000
 30
0.0
 10
133.195999
 20
97.452000
 30
0.0
 10
131.470993
 20
97.452000
 30
0.0
 10
128.169998
 20
97.452000
 30
0.0
 10
126.445000
 20
97.452000
 30
0.0
  0
LWPOLYLINE
  5
121
100
AcDbEntity
  8
0
 62
7
100
AcDbPolyline
 90
4
 70
1
 10
136.828003
 20
78.402000
 30
0.0
 10
122.822998
 20
78.402000
 30
0.0
 10
122.822998
 20
64.396999
 30
0.0
 10
136.828003
 20
64.396999
 30
0.0
  0
LWPOLYLINE
  5
122
100
AcDbEntity
  8
0
 62
7
100
AcDbPolyline
 90
11
 70
1
 10
70.434998
 20
116.502000
 30
0.0
 10
70.153000
 20
116.502000
 30
0.0
 10
65.672997
 20
116.502000
 30
0.0
 10
65.389999
 20
116.502000
 30
0.0
 10
60.910000
 20
116.502000
 30
0.0
 10
60.910000
 20
102.497000
 30
0.0
 10
65.389999
 20
102.497000
 30
0.0
 10
65.672997
 20
102.497000
 30
0.0
 10
70.434998
 20
102.497000
 30
0.0
 10
74.915001
 20
102.497000
 30
0.0
 10
74.915001
 20
116.502000
 30
0.0
  0
LWPOLYLINE
  5
123
100
AcDbEntity
  8
0
 62
7
100
AcDbPolyline
 90
9
 70
1
 10
74.915001
 20
97.452000
 30
0.0
 10
70.434998
 20
97.452000
 30
0.0
 10
70.434998
 20
83.447001
 30
0.0
 10
79.678001
 20
83.447001
 30
0.0
 10
84.440002
 20
83.447001
 30
0.0
 10
84.440002
 20
97.452000
 30
0.0
 10
79.959999
 20
97.452000
 30
0.0
 10
79.678001
 20
97.452000
 30
0.0
 10
75.197998
 20
97.452000
 30
0.0
  0
LWPOLYLINE
  5
124
100
AcDbEntity
  8
0
 62
7
100
AcDbPolyline
 90
5
 70
1
 10
70.434998
 20
78.402000
 30
0.0
 10
65.672997
 20
78.402000
 30
0.0
 10
65.672997
 20
64.396999
 30
0.0
 10
79.678001
 20
64.396999
 30
0.0
 10
79.678001
 20
78.402000
 30
0.0
  0
LWPOLYLINE
  5
125
100
AcDbEntity
  8
0
 62
7
100
AcDbPolyline
 90
11
 70
1
 10
65.672997
 20
135.552000
 30
0.0
 10
65.389999
 20
135.552000
 30
0.0
 10
60.910000
 20
135.552000
 30
0.0
 10
60.627998
 20
135.552000
 30
0.0
 10
56.147999
 20
135.552000
 30
0.0
 10
56.147999
 20
121.547001
 30
0.0
 10
60.910000
 20
121.547001
 30
0.0
 10
65.389999
 20
121.547001
 30
0.0
 10
65.672997
 20
121.547001
 30
0.0
 10
70.153000
 20
121.547001
 30
0.0
 10
70.153000
 20
135.552000
 30
0.0
  0
LWPOLYLINE
  5
126
100
AcDbEntity
  8
0
 62
7
100
AcDbPolyline
 90
9
 70
1
 10
65.389999
 20
97.452000
 30
0.0
 10
60.910000
 20
97.452000
 30
0.0
 10
56.147999
 20
97.452000
 30
0.0
 10
55.865002
 20
97.452000
 30
0.0
 10
51.384998
 20
97.452000
 30
0.0
 10
51.384998
 20
83.447001
 30
0.0
 10
58.245998
 20
83.447001
 30
0.0
 10
60.626999
 20
83.447001
 30
0.0
 10
65.389999
 20
83.447001
 30
0.0
  0
LWPOLYLINE
  5
127
100
AcDbEntity
  8
0
 62
7
100
AcDbPolyline
 90
10
 70
1
 10
41.860001
 20
135.552000
 30
0.0
 10
41.577999
 20
135.552000
 30
0.0
 10
37.098000
 20
135.552000
 30
0.0
 10
37.098000
 20
121.547001
 30
0.0
 10
41.860001
 20
121.547001
 30
0.0
 10
46.340000
 20
121.547001
 30
0.0
 10
51.103001
 20
121.547001
 30
0.0
 10
51.103001
 20
135.552000
 30
0.0
 10
46.623001
 20
135.552000
 30
0.0
 10
46.340000
 20
135.552000
 30
0.0
  0
LWPOLYLINE
  5
128
100
AcDbEntity
  8
0
 62
7
100
AcDbPolyline
 90
9
 70
1
 10
46.340000
 20
97.452000
 30
0.0
 10
41.860001
 20
97.452000
 30
0.0
 10
37.098000
 20
97.452000
 30
0.0
 10
36.814999
 20
97.452000
 30
0.0
 10
32.334999
 20
97.452000
 30
0.0
 10
32.334999
 20
83.447001
 30
0.0
 10
33.188999
 20
83.447001
 30
0.0
 10
44.241001
 20
83.447001
 30
0.0
 10
46.340000
 20
83.447001
 30
0.0
  0
LWPOLYLINE
  5
129
100
AcDbEntity
  8
0
 62
7
100
AcDbPolyline
 90
9
 70
1
 10
32.334999
 20
116.502000
 30
0.0
 10
32.053001
 20
116.502000
 30
0.0
 10
27.290001
 20
116.502000
 30
0.0
 10
22.809999
 20
116.502000
 30
0.0
 10
22.809999
 20
102.497000
 30
0.0
 10
27.290001
 20
102.497000
 30
0.0
 10
32.334999
 20
102.497000
 30
0.0
 10
36.814999
 20
102.497000
 30
0.0
 10
36.814999
 20
116.502000
 30
0.0
  0
LWPOLYLINE
  5
12a
100
AcDbEntity
  8
0
 62
7
100
AcDbPolyline
 90
10
 70
1
 10
22.809999
 20
135.552000
 30
0.0
 10
22.528000
 20
135.552000
 30
0.0
 10
18.048000
 20
135.552000
 30
0.0
 10
18.048000
 20
121.547001
 30
0.0
 10
22.809999
 20
121.547001
 30
0.0
 10
27.290001
 20
121.547001
 30
0.0
 10
32.053001
 20
121.547001
 30
0.0
 10
32.053001
 20
135.552000
 30
0.0
 10
27.573000
 20
135.552000
 30
0.0
 10
27.290001
 20
135.552000
 30
0.0
  0
LWPOLYLINE
  5
12b
100
AcDbEntity
  8
0
 62
7
100
AcDbPolyline
 90
10
 70
1
 10
3.760000
 20
135.552000
 30
0.0
 10
3.478000
 20
135.552000
 30
0.0
 10
-1.002000
 20
135.552000
 30
0.0
 10
-1.002000
 20
121.547001
 30
0.0
 10
3.760000
 20
121.547001
 30
0.0
 10
8.240000
 20
121.547001
 30
0.0
 10
13.003000
 20
121.547001
 30
0.0
 10
13.003000
 20
135.552000
 30
0.0
 10
8.523000
 20
135.552000
 30
0.0
 10
8.240000
 20
135.552000
 30
0.0
  0
LWPOLYLINE
  5
12c
100
AcDbEntity
  8
0
 62
7
100
AcDbPolyline
 90
11
 70
1
 10
8.240000
 20
97.452000
 30
0.0
 10
3.760000
 20
97.452000
 30
0.0
 10
-1.002000
 20
97.452000
 30
0.0
 10
-1.285000
 20
97.452000
 30
0.0
 10
-5.765000
 20
97.452000
 30
0.0
 10
-5.765000
 20
83.447001
 30
0.0
 10
-4.915000
 20
83.447001
 30
0.0
 10
-0.151000
 20
83.447001
 30
0.0
 10
1.380000
 20
83.447001
 30
0.0
 10
3.761000
 20
83.447001
 30
0.0
 10
8.240000
 20
83.447001
 30
0.0
  0
LWPOLYLINE
  5
12d
100
AcDbEntity
  8
0
 62
7
100
AcDbPolyline
 90
10
 70
1
 10
-15.290000
 20
135.552000
 30
0.0
 10
-15.572000
 20
135.552000
 30
0.0
 10
-20.052000
 20
135.552000
 30
0.0
 10
-20.052000
 20
121.547001
 30
0.0
 10
-15.290000
 20
121.547001
 30
0.0
 10
-10.810000
 20
121.547001
 30
0.0
 10
-6.047000
 20
121.547001
 30
0.0
 10
-6.047000
 20
135.552000
 30
0.0
 10
-10.527000
 20
135.552000
 30
0.0
 10
-10.810000
 20
135.552000
 30
0.0
  0
LWPOLYLINE
  5
12e
100
AcDbEntity
  8
0
 62
7
100
AcDbPolyline
 90
10
 70
1
 10
-24.815001
 20
116.502000
 30
0.0
 10
-25.097000
 20
116.502000
 30
0.0
 10
-29.860001
 20
116.502000
 30
0.0
 10
-34.340000
 20
116.502000
 30
0.0
 10
-34.340000
 20
102.497000
 30
0.0
 10
-29.860001
 20
102.497000
 30
0.0
 10
-28.723000
 20
102.497000
 30
0.0
 10
-24.815001
 20
102.497000
 30
0.0
 10
-20.334999
 20
102.497000
 30
0.0
 10
-20.334999
 20
116.502000
 30
0.0
  0
LWPOLYLINE
  5
12f
100
AcDbEntity
  8
0
 62
7
100
AcDbPolyline
 90
10
 70
1
 10
-34.340000
 20
135.552000
 30
0.0
 10
-34.622002
 20
135.552000
 30
0.0
 10
-39.102001
 20
135.552000
 30
0.0
 10
-39.102001
 20
121.547001
 30
0.0
 10
-34.340000
 20
121.547001
 30
0.0
 10
-29.860001
 20
121.547001
 30
0.0
 10
-25.097000
 20
121.547001
 30
0.0
 10
-25.097000
 20
135.552000
 30
0.0
 10
-29.577000
 20
135.552000
 30
0.0
 10
-29.860001
 20
135.552000
 30
0.0
  0
LWPOLYLINE
  5
130
100
AcDbEntity
  8
0
 62
7
100
AcDbPolyline
 90
9
 70
1
 10
-29.860001
 20
97.452000
 30
0.0
 10
-34.340000
 20
97.452000
 30
0.0
 10
-39.102001
 20
97.452000
 30
0.0
 10
-39.384998
 20
97.452000
 30
0.0
 10
-43.865002
 20
97.452000
 30
0.0
 10
-43.865002
 20
83.447001
 30
0.0
 10
-37.006001
 20
83.447001
 30
0.0
 10
-35.474998
 20
83.447001
 30
0.0
 10
-29.860001
 20
83.447001
 30
0.0
  0
LWPOLYLINE
  5
131
100
AcDbEntity
  8
0
 62
7
100
AcDbPolyline
 90
10
 70
1
 10
-53.389999
 20
135.552000
 30
0.0
 10
-53.672001
 20
135.552000
 30
0.0
 10
-58.152000
 20
135.552000
 30
0.0
 10
-58.152000
 20
121.547001
 30
0.0
 10
-53.389999
 20
121.547001
 30
0.0
 10
-48.910000
 20
121.547001
 30
0.0
 10
-44.146999
 20
121.547001
 30
0.0
 10
-44.146999
 20
135.552000
 30
0.0
 10
-48.626999
 20
135.552000
 30
0.0
 10
-48.910000
 20
135.552000
 30
0.0
  0
LWPOLYLINE
  5
132
100
AcDbEntity
  8
0
 62
7
100
AcDbPolyline
 90
11
 70
1
 10
-48.910000
 20
97.452000
 30
0.0
 10
-53.389999
 20
97.452000
 30
0.0
 10
-58.152000
 20
97.452000
 30
0.0
 10
-58.435001
 20
97.452000
 30
0.0
 10
-62.915001
 20
97.452000
 30
0.0
 10
-62.915001
 20
83.447001
 30
0.0
 10
-62.064999
 20
83.447001
 30
0.0
 10
-59.291000
 20
83.447001
 30
0.0
 10
-52.540001
 20
83.447001
 30
0.0
 10
-51.007999
 20
83.447001
 30
0.0
 10
-48.910000
 20
83.447001
 30
0.0
  0
LWPOLYLINE
  5
133
100
AcDbEntity
  8
0
 62
7
100
AcDbPolyline
 90
9
 70
1
 10
-62.915001
 20
116.502000
 30
0.0
 10
-63.196999
 20
116.502000
 30
0.0
 10
-67.959999
 20
116.502000
 30
0.0
 10
-72.440002
 20
116.502000
 30
0.0
 10
-72.440002
 20
102.497000
 30
0.0
 10
-67.959999
 20
102.497000
 30
0.0
 10
-62.915001
 20
102.497000
 30
0.0
 10
-58.435001
 20
102.497000
 30
0.0
 10
-58.435001
 20
116.502000
 30
0.0
  0
LWPOLYLINE
  5
134
100
AcDbEntity
  8
0
 62
7
100
AcDbPolyline
 90
10
 70
1
 10
-72.440002
 20
135.552000
 30
0.0
 10
-72.722000
 20
135.552000
 30
0.0
 10
-77.202003
 20
135.552000
 30
0.0
 10
-77.202003
 20
121.547001
 30
0.0
 10
-72.440002
 20
121.547001
 30
0.0
 10
-67.959999
 20
121.547001
 30
0.0
 10
-63.196999
 20
121.547001
 30
0.0
 10
-63.196999
 20
135.552000
 30
0.0
 10
-67.677002
 20
135.552000
 30
0.0
 10
-67.959999
 20
135.552000
 30
0.0
  0
LWPOLYLINE
  5
135
100
AcDbEntity
  8
0
 62
7
100
AcDbPolyline
 90
10
 70
1
 10
-67.959999
 20
97.452000
 30
0.0
 10
-72.440002
 20
97.452000
 30
0.0
 10
-77.202003
 20
97.452000
 30
0.0
 10
-77.485001
 20
97.452000
 30
0.0
 10
-81.964996
 20
97.452000
 30
0.0
 10
-81.964996
 20
83.447001
 30
0.0
 10
-79.865997
 20
83.447001
 30
0.0
 10
-77.485001
 20
83.447001
 30
0.0
 10
-68.816002
 20
83.447001
 30
0.0
 10
-67.959999
 20
83.447001
 30
0.0
  0
LWPOLYLINE
  5
136
100
AcDbEntity
  8
0
 62
7
100
AcDbPolyline
 90
9
 70
1
 10
-81.964996
 20
116.502000
 30
0.0
 10
-82.248001
 20
116.502000
 30
0.0
 10
-87.010002
 20
116.502000
 30
0.0
 10
-91.489998
 20
116.502000
 30
0.0
 10
-91.489998
 20
102.497000
 30
0.0
 10
-87.010002
 20
102.497000
 30
0.0
 10
-81.964996
 20
102.497000
 30
0.0
 10
-77.485001
 20
102.497000
 30
0.0
 10
-77.485001
 20
116.502000
 30
0.0
  0
LWPOLYLINE
  5
137
100
AcDbEntity
  8
0
 62
7
100
AcDbPolyline
 90
10
 70
1
 10
-91.489998
 20
135.552000
 30
0.0
 10
-91.772003
 20
135.552000
 30
0.0
 10
-96.251999
 20
135.552000
 30
0.0
 10
-96.251999
 20
121.547001
 30
0.0
 10
-91.489998
 20
121.547001
 30
0.0
 10
-87.010002
 20
121.547001
 30
0.0
 10
-82.248001
 20
121.547001
 30
0.0
 10
-82.248001
 20
135.552000
 30
0.0
 10
-86.726997
 20
135.552000
 30
0.0
 10
-87.010002
 20
135.552000
 30
0.0
  0
LWPOLYLINE
  5
138
100
AcDbEntity
  8
0
 62
7
100
AcDbPolyline
 90
9
 70
1
 10
-87.010002
 20
97.452000
 30
0.0
 10
-91.489998
 20
97.452000
 30
0.0
 10
-96.251999
 20
97.452000
 30
0.0
 10
-96.535004
 20
97.452000
 30
0.0
 10
-101.014999
 20
97.452000
 30
0.0
 10
-101.014999
 20
83.447001
 30
0.0
 10
-96.252998
 20
83.447001
 30
0.0
 10
-93.872002
 20
83.447001
 30
0.0
 10
-87.010002
 20
83.447001
 30
0.0
  0
LWPOLYLINE
  5
139
100
AcDbEntity
  8
0
 62
7
100
AcDbPolyline
 90
10
 70
1
 10
-101.014999
 20
116.502000
 30
0.0
 10
-101.296997
 20
116.502000
 30
0.0
 10
-110.540001
 20
116.502000
 30
0.0
 10
-110.540001
 20
102.497000
 30
0.0
 10
-109.691002
 20
102.497000
 30
0.0
 10
-108.865997
 20
102.497000
 30
0.0
 10
-103.679001
 20
102.497000
 30
0.0
 10
-101.014999
 20
102.497000
 30
0.0
 10
-96.535004
 20
102.497000
 30
0.0
 10
-96.535004
 20
116.502000
 30
0.0
  0
LWPOLYLINE
  5
13a
100
AcDbEntity
  8
0
 62
7
100
AcDbPolyline
 90
12
 70
1
 10
-105.778000
 20
135.552000
 30
0.0
 10
-110.540001
 20
135.552000
 30
0.0
 10
-110.821999
 20
135.552000
 30
0.0
 10
-111.417000
 20
135.552000
 30
0.0
 10
-114.717003
 20
135.552000
 30
0.0
 10
-115.302002
 20
135.552000
 30
0.0
 10
-115.302002
 20
121.547001
 30
0.0
 10
-114.717003
 20
121.547001
 30
0.0
 10
-111.417000
 20
121.547001
 30
0.0
 10
-110.540001
 20
121.547001
 30
0.0
 10
-101.296997
 20
121.547001
 30
0.0
 10
-101.296997
 20
135.552000
 30
0.0
  0
LWPOLYLINE
  5
13b
100
AcDbEntity
  8
0
 62
7
100
AcDbPolyline
 90
11
 70
1
 10
-110.540001
 20
78.402000
 30
0.0
 10
-111.417000
 20
78.402000
 30
0.0
 10
-114.717003
 20
78.402000
 30
0.0
 10
-116.442001
 20
78.402000
 30
0.0
 10
-117.683998
 20
78.402000
 30
0.0
 10
-117.683998
 20
64.396999
 30
0.0
 10
-110.540001
 20
64.396999
 30
0.0
 10
-103.679001
 20
64.396999
 30
0.0
 10
-103.679001
 20
78.402000
 30
0.0
 10
-108.865997
 20
78.402000
 30
0.0
 10
-109.691002
 20
78.402000
 30
0.0
  0
LWPOLYLINE
  5
13c
100
AcDbEntity
  8
0
 62
7
100
AcDbPolyline
 90
11
 70
1
 10
-136.733002
 20
116.502000
 30
0.0
 10
-136.733002
 20
102.497000
 30
0.0
 10
-135.220001
 20
102.497000
 30
0.0
 10
-133.494995
 20
102.497000
 30
0.0
 10
-131.970001
 20
102.497000
 30
0.0
 10
-127.490997
 20
102.497000
 30
0.0
 10
-122.727997
 20
102.497000
 30
0.0
 10
-122.727997
 20
116.502000
 30
0.0
 10
-124.827003
 20
116.502000
 30
0.0
 10
-125.110001
 20
116.502000
 30
0.0
 10
-127.490997
 20
116.502000
 30
0.0
  0
LWPOLYLINE
  5
13d
100
AcDbEntity
  8
0
 62
7
100
AcDbPolyline
 90
9
 70
1
 10
84.723000
 20
116.502000
 30
0.0
 10
84.440002
 20
116.502000
 30
0.0
 10
79.959999
 20
116.502000
 30
0.0
 10
79.959999
 20
102.497000
 30
0.0
 10
84.440002
 20
102.497000
 30
0.0
 10
84.723000
 20
102.497000
 30
0.0
 10
93.964996
 20
102.497000
 30
0.0
 10
93.964996
 20
116.502000
 30
0.0
 10
89.203003
 20
116.502000
 30
0.0
  0
LWPOLYLINE
  5
13e
100
AcDbEntity
  8
0
 62
7
100
AcDbPolyline
 90
7
 70
1
 10
93.964996
 20
78.402000
 30
0.0
 10
84.723000
 20
78.402000
 30
0.0
 10
84.723000
 20
64.396999
 30
0.0
 10
98.727997
 20
64.396999
 30
0.0
 10
98.727997
 20
78.402000
 30
0.0
 10
96.628998
 20
78.402000
 30
0.0
 10
94.248001
 20
78.402000
 30
0.0
  0
LWPOLYLINE
  5
13f
100
AcDbEntity
  8
0
 62
7
100
AcDbPolyline
 90
13
 70
1
 10
96.628998
 20
97.452000
 30
0.0
 10
96.628998
 20
83.447001
 30
0.0
 10
98.727997
 20
83.447001
 30
0.0
 10
103.773003
 20
83.447001
 30
0.0
 10
110.634003
 20
83.447001
 30
0.0
 10
110.634003
 20
97.452000
 30
0.0
 10
109.391998
 20
97.452000
 30
0.0
 10
107.667000
 20
97.452000
 30
0.0
 10
104.366997
 20
97.452000
 30
0.0
 10
103.773003
 20
97.452000
 30
0.0
 10
102.640999
 20
97.452000
 30
0.0
 10
101.816002
 20
97.452000
 30
0.0
 10
98.727997
 20
97.452000
 30
0.0
  0
LWPOLYLINE
  5
140
100
AcDbEntity
  8
0
 62
7
100
AcDbPolyline
 90
6
 70
1
 10
110.634003
 20
78.402000
 30
0.0
 10
103.773003
 20
78.402000
 30
0.0
 10
103.773003
 20
64.396999
 30
0.0
 10
117.778000
 20
64.396999
 30
0.0
 10
117.778000
 20
78.402000
 30
0.0
 10
110.917999
 20
78.402000
 30
0.0
  0
LWPOLYLINE
  5
141
100
AcDbEntity
  8
0
 62
7
100
AcDbPolyline
 90
4
 70
1
 10
155.878006
 20
154.602001
 30
0.0
 10
141.873001
 20
154.602001
 30
0.0
 10
141.873001
 20
140.597000
 30
0.0
 10
155.878006
 20
140.597000
 30
0.0
  0
LWPOLYLINE
  5
142
100
AcDbEntity
  8
0
 62
7
100
AcDbPolyline
 90
4
 70
1
 10
155.878006
 20
135.552000
 30
0.0
 10
141.873001
 20
135.552000
 30
0.0
 10
141.873001
 20
121.547001
 30
0.0
 10
155.878006
 20
121.547001
 30
0.0
  0
LWPOLYLINE
  5
143
100
AcDbEntity
  8
0
 62
7
100
AcDbPolyline
 90
4
 70
1
 10
155.878006
 20
116.502000
 30
0.0
 10
141.873001
 20
116.502000
 30
0.0
 10
141.873001
 20
102.497000
 30
0.0
 10
155.878006
 20
102.497000
 30
0.0
  0
LWPOLYLINE
  5
144
100
AcDbEntity
  8
0
 62
7
100
AcDbPolyline
 90
4
 70
1
 10
155.878006
 20
97.452000
 30
0.0
 10
141.873001
 20
97.452000
 30
0.0
 10
141.873001
 20
83.447001
 30
0.0
 10
155.878006
 20
83.447001
 30
0.0
  0
LWPOLYLINE
  5
145
100
AcDbEntity
  8
0
 62
7
100
AcDbPolyline
 90
5
 70
1
 10
155.878006
 20
78.402000
 30
0.0
 10
141.873001
 20
78.402000
 30
0.0
 10
141.873001
 20
64.396999
 30
0.0
 10
155.878006
 20
64.396999
 30
0.0
 10
155.878006
 20
78.402000
 30
0.0
  0
ENDSEC
  0
SECTION
  2
OBJECTS
  0
DICTIONARY
  5
C
330
0
100
AcDbDictionary
  3
ACAD_GROUP
350
D
  3
ACAD_MLINESTYLE
350
17
  0
DICTIONARY
  5
D
330
C
100
AcDbDictionary
  0
DICTIONARY
  5
1A
330
C
100
AcDbDictionary
  0
DICTIONARY
  5
17
330
C
100
AcDbDictionary
  3
STANDARD
350
18
  0
DICTIONARY
  5
19
330
C
100
AcDbDictionary
  0
ENDSEC
  0
EOF
