999
"DXF R12 Output" (www.mydxf.blogspot.com)
 0 
SECTION
 2 
HEADER
 9 
$ACADVER
 1 
AC1009
 9 
$EXTMIN
 10 
 0 
 20 
 0 
 9 
$EXTMAX
 10 
 8.5 
 20 
 11 
 0 
ENDSEC
 0 
SECTION
 2 
ENTITIES
0
LINE
8
Layer 1
10
72.115000
20
60.202100
11
72.141247
21
60.036049
0
LINE
8
Layer 1
10
72.141247
20
60.036049
11
72.141200
21
60.027100
0
LINE
8
Layer 1
10
72.141200
20
60.027100
11
72.141200
21
59.463200
0
LINE
8
Layer 1
10
72.141200
20
59.463200
11
73.481200
21
59.463200
0
LINE
8
Layer 1
10
73.481200
20
59.463200
11
73.491800
21
59.463200
0
LINE
8
Layer 1
10
73.491800
20
59.463200
11
73.656175
21
59.436953
0
LINE
8
Layer 1
10
73.656175
20
59.436953
11
73.813937
21
59.356520
0
LINE
8
Layer 1
10
73.813937
20
59.356520
11
73.939523
21
59.231213
0
LINE
8
Layer 1
10
73.939523
20
59.231213
11
74.019959
21
59.073169
0
LINE
8
Layer 1
10
74.019959
20
59.073169
11
74.046206
21
58.907118
0
LINE
8
Layer 1
10
74.046206
20
58.907118
11
74.046200
21
58.898200
0
LINE
8
Layer 1
10
74.046200
20
58.898200
11
74.046200
21
33.217400
0
LINE
8
Layer 1
10
74.046200
20
33.217400
11
74.046200
21
33.208500
0
LINE
8
Layer 1
10
74.046200
20
33.208500
11
74.019953
21
33.042452
0
LINE
8
Layer 1
10
74.019953
20
33.042452
11
73.939517
21
32.884408
0
LINE
8
Layer 1
10
73.939517
20
32.884408
11
73.813931
21
32.759101
0
LINE
8
Layer 1
10
73.813931
20
32.759101
11
73.656169
21
32.678668
0
LINE
8
Layer 1
10
73.656169
20
32.678668
11
73.490028
21
32.652139
0
LINE
8
Layer 1
10
73.490028
20
32.652139
11
73.481200
21
32.652200
0
LINE
8
Layer 1
10
73.481200
20
32.652200
11
73.447300
21
32.652200
0
LINE
8
Layer 1
10
73.447300
20
32.652200
11
72.141200
21
32.652200
0
LINE
8
Layer 1
10
72.141200
20
32.652200
11
72.141200
21
32.088300
0
LINE
8
Layer 1
10
72.141200
20
32.088300
11
72.141200
21
32.079400
0
LINE
8
Layer 1
10
72.141200
20
32.079400
11
72.140071
21
32.071949
0
LINE
8
Layer 1
10
72.140071
20
32.071949
11
72.115010
21
31.913340
0
LINE
8
Layer 1
10
72.115010
20
31.913340
11
72.034574
21
31.755578
0
LINE
8
Layer 1
10
72.034574
20
31.755578
11
71.908988
21
31.629989
0
LINE
8
Layer 1
10
71.908988
20
31.629989
11
71.751226
21
31.549556
0
LINE
8
Layer 1
10
71.751226
20
31.549556
11
71.585175
21
31.523309
0
LINE
8
Layer 1
10
71.585175
20
31.523309
11
71.576300
21
31.523300
0
LINE
8
Layer 1
10
71.576300
20
31.523300
11
54.644400
21
31.523300
0
LINE
8
Layer 1
10
54.644400
20
31.523300
11
54.635400
21
31.523300
0
LINE
8
Layer 1
10
54.635400
20
31.523300
11
54.469084
21
31.549547
0
LINE
8
Layer 1
10
54.469084
20
31.549547
11
54.311322
21
31.629980
0
LINE
8
Layer 1
10
54.311322
20
31.629980
11
54.185733
21
31.755569
0
LINE
8
Layer 1
10
54.185733
20
31.755569
11
54.105300
21
31.913331
0
LINE
8
Layer 1
10
54.105300
20
31.913331
11
54.080238
21
32.071940
0
LINE
8
Layer 1
10
54.080238
20
32.071940
11
54.079110
21
32.079391
0
LINE
8
Layer 1
10
54.079110
20
32.079391
11
54.079100
21
32.088300
0
LINE
8
Layer 1
10
54.079100
20
32.088300
11
54.079100
21
32.652200
0
LINE
8
Layer 1
10
54.079100
20
32.652200
11
53.366000
21
32.652200
0
LINE
8
Layer 1
10
53.366000
20
32.652200
11
53.286100
21
32.652200
0
LINE
8
Layer 1
10
53.286100
20
32.652200
11
51.942100
21
32.652200
0
LINE
8
Layer 1
10
51.942100
20
32.652200
11
50.833600
21
32.652200
0
LINE
8
Layer 1
10
50.833600
20
32.652200
11
50.833600
21
32.088300
0
LINE
8
Layer 1
10
50.833600
20
32.088300
11
50.833600
21
32.079400
0
LINE
8
Layer 1
10
50.833600
20
32.079400
11
50.832471
21
32.071949
0
LINE
8
Layer 1
10
50.832471
20
32.071949
11
50.807410
21
31.913340
0
LINE
8
Layer 1
10
50.807410
20
31.913340
11
50.726977
21
31.755578
0
LINE
8
Layer 1
10
50.726977
20
31.755578
11
50.601388
21
31.629989
0
LINE
8
Layer 1
10
50.601388
20
31.629989
11
50.443626
21
31.549556
0
LINE
8
Layer 1
10
50.443626
20
31.549556
11
50.277575
21
31.523309
0
LINE
8
Layer 1
10
50.277575
20
31.523309
11
50.268600
21
31.523300
0
LINE
8
Layer 1
10
50.268600
20
31.523300
11
33.336700
21
31.523300
0
LINE
8
Layer 1
10
33.336700
20
31.523300
11
33.327800
21
31.523300
0
LINE
8
Layer 1
10
33.327800
20
31.523300
11
33.161481
21
31.549547
0
LINE
8
Layer 1
10
33.161481
20
31.549547
11
33.003719
21
31.629980
0
LINE
8
Layer 1
10
33.003719
20
31.629980
11
32.878130
21
31.755569
0
LINE
8
Layer 1
10
32.878130
20
31.755569
11
32.797697
21
31.913331
0
LINE
8
Layer 1
10
32.797697
20
31.913331
11
32.772635
21
32.071940
0
LINE
8
Layer 1
10
32.772635
20
32.071940
11
32.771507
21
32.079391
0
LINE
8
Layer 1
10
32.771507
20
32.079391
11
32.771500
21
32.088300
0
LINE
8
Layer 1
10
32.771500
20
32.088300
11
32.771500
21
32.652200
0
LINE
8
Layer 1
10
32.771500
20
32.652200
11
31.780900
21
32.652200
0
LINE
8
Layer 1
10
31.780900
20
32.652200
11
30.516800
21
32.652200
0
LINE
8
Layer 1
10
30.516800
20
32.652200
11
29.844800
21
32.652200
0
LINE
8
Layer 1
10
29.844800
20
32.652200
11
29.525900
21
32.652200
0
LINE
8
Layer 1
10
29.525900
20
32.652200
11
29.525900
21
32.088300
0
LINE
8
Layer 1
10
29.525900
20
32.088300
11
29.525900
21
32.079400
0
LINE
8
Layer 1
10
29.525900
20
32.079400
11
29.524771
21
32.071949
0
LINE
8
Layer 1
10
29.524771
20
32.071949
11
29.499710
21
31.913340
0
LINE
8
Layer 1
10
29.499710
20
31.913340
11
29.419277
21
31.755578
0
LINE
8
Layer 1
10
29.419277
20
31.755578
11
29.293688
21
31.629989
0
LINE
8
Layer 1
10
29.293688
20
31.629989
11
29.135926
21
31.549556
0
LINE
8
Layer 1
10
29.135926
20
31.549556
11
28.969610
21
31.523309
0
LINE
8
Layer 1
10
28.969610
20
31.523309
11
28.960700
21
31.523300
0
LINE
8
Layer 1
10
28.960700
20
31.523300
11
12.028800
21
31.523300
0
LINE
8
Layer 1
10
12.028800
20
31.523300
11
12.019900
21
31.523300
0
LINE
8
Layer 1
10
12.019900
20
31.523300
11
11.853850
21
31.549547
0
LINE
8
Layer 1
10
11.853850
20
31.549547
11
11.696088
21
31.629980
0
LINE
8
Layer 1
10
11.696088
20
31.629980
11
11.570498
21
31.755569
0
LINE
8
Layer 1
10
11.570498
20
31.755569
11
11.490065
21
31.913331
0
LINE
8
Layer 1
10
11.490065
20
31.913331
11
11.464995
21
32.071940
0
LINE
8
Layer 1
10
11.464995
20
32.071940
11
11.463810
21
32.079391
0
LINE
8
Layer 1
10
11.463810
20
32.079391
11
11.463800
21
32.088300
0
LINE
8
Layer 1
10
11.463800
20
32.088300
11
11.463800
21
32.652200
0
LINE
8
Layer 1
10
11.463800
20
32.652200
11
10.275500
21
32.652200
0
LINE
8
Layer 1
10
10.275500
20
32.652200
11
10.033900
21
32.652200
0
LINE
8
Layer 1
10
10.033900
20
32.652200
11
8.218090
21
32.652200
0
LINE
8
Layer 1
10
8.218090
20
32.652200
11
8.218090
21
32.088300
0
LINE
8
Layer 1
10
8.218090
20
32.088300
11
8.218090
21
32.079400
0
LINE
8
Layer 1
10
8.218090
20
32.079400
11
8.216905
21
32.071949
0
LINE
8
Layer 1
10
8.216905
20
32.071949
11
8.191832
21
31.913340
0
LINE
8
Layer 1
10
8.191832
20
31.913340
11
8.111400
21
31.755578
0
LINE
8
Layer 1
10
8.111400
20
31.755578
11
7.985811
21
31.629989
0
LINE
8
Layer 1
10
7.985811
20
31.629989
11
7.828047
21
31.549556
0
LINE
8
Layer 1
10
7.828047
20
31.549556
11
7.661731
21
31.523309
0
LINE
8
Layer 1
10
7.661731
20
31.523309
11
7.652790
21
31.523300
0
LINE
8
Layer 1
10
7.652790
20
31.523300
11
-9.279120
21
31.523300
0
LINE
8
Layer 1
10
-9.279120
20
31.523300
11
-9.288040
21
31.523300
0
LINE
8
Layer 1
10
-9.288040
20
31.523300
11
-9.454089
21
31.549547
0
LINE
8
Layer 1
10
-9.454089
20
31.549547
11
-9.611853
21
31.629980
0
LINE
8
Layer 1
10
-9.611853
20
31.629980
11
-9.737440
21
31.755569
0
LINE
8
Layer 1
10
-9.737440
20
31.755569
11
-9.817875
21
31.913331
0
LINE
8
Layer 1
10
-9.817875
20
31.913331
11
-9.842936
21
32.071940
0
LINE
8
Layer 1
10
-9.842936
20
32.071940
11
-9.844065
21
32.079391
0
LINE
8
Layer 1
10
-9.844065
20
32.079391
11
-9.844070
21
32.088300
0
LINE
8
Layer 1
10
-9.844070
20
32.088300
11
-9.844070
21
32.652200
0
LINE
8
Layer 1
10
-9.844070
20
32.652200
11
-10.477900
21
32.652200
0
LINE
8
Layer 1
10
-10.477900
20
32.652200
11
-11.149900
21
32.652200
0
LINE
8
Layer 1
10
-11.149900
20
32.652200
11
-11.184100
21
32.652200
0
LINE
8
Layer 1
10
-11.184100
20
32.652200
11
-11.192800
21
32.652200
0
LINE
8
Layer 1
10
-11.192800
20
32.652200
11
-11.359026
21
32.679011
0
LINE
8
Layer 1
10
-11.359026
20
32.679011
11
-11.516788
21
32.760291
0
LINE
8
Layer 1
10
-11.516788
20
32.760291
11
-11.642374
21
32.886726
0
LINE
8
Layer 1
10
-11.642374
20
32.886726
11
-11.722810
21
33.046181
0
LINE
8
Layer 1
10
-11.722810
20
33.046181
11
-11.749057
21
33.213838
0
LINE
8
Layer 1
10
-11.749057
20
33.213838
11
-11.749100
21
33.222800
0
LINE
8
Layer 1
10
-11.749100
20
33.222800
11
-11.749100
21
58.898200
0
LINE
8
Layer 1
10
-11.749100
20
58.898200
11
-11.749100
21
58.907200
0
LINE
8
Layer 1
10
-11.749100
20
58.907200
11
-11.722853
21
59.073251
0
LINE
8
Layer 1
10
-11.722853
20
59.073251
11
-11.642417
21
59.231295
0
LINE
8
Layer 1
10
-11.642417
20
59.231295
11
-11.516831
21
59.356602
0
LINE
8
Layer 1
10
-11.516831
20
59.356602
11
-11.359069
21
59.437035
0
LINE
8
Layer 1
10
-11.359069
20
59.437035
11
-11.194694
21
59.463282
0
LINE
8
Layer 1
10
-11.194694
20
59.463282
11
-11.184000
21
59.463200
0
LINE
8
Layer 1
10
-11.184000
20
59.463200
11
-9.844060
21
59.463200
0
LINE
8
Layer 1
10
-9.844060
20
59.463200
11
-9.844060
21
60.027100
0
LINE
8
Layer 1
10
-9.844060
20
60.027100
11
-9.844060
21
60.036000
0
LINE
8
Layer 1
10
-9.844060
20
60.036000
11
-9.817813
21
60.202051
0
LINE
8
Layer 1
10
-9.817813
20
60.202051
11
-9.737378
21
60.359813
0
LINE
8
Layer 1
10
-9.737378
20
60.359813
11
-9.611791
21
60.485402
0
LINE
8
Layer 1
10
-9.611791
20
60.485402
11
-9.454027
21
60.565835
0
LINE
8
Layer 1
10
-9.454027
20
60.565835
11
-9.287978
21
60.592082
0
LINE
8
Layer 1
10
-9.287978
20
60.592082
11
-9.279050
21
60.592100
0
LINE
8
Layer 1
10
-9.279050
20
60.592100
11
7.652860
21
60.592100
0
LINE
8
Layer 1
10
7.652860
20
60.592100
11
7.661800
21
60.592100
0
LINE
8
Layer 1
10
7.661800
20
60.592100
11
7.828116
21
60.565853
0
LINE
8
Layer 1
10
7.828116
20
60.565853
11
7.985880
21
60.485420
0
LINE
8
Layer 1
10
7.985880
20
60.485420
11
8.111469
21
60.359831
0
LINE
8
Layer 1
10
8.111469
20
60.359831
11
8.191901
21
60.202069
0
LINE
8
Layer 1
10
8.191901
20
60.202069
11
8.218148
21
60.036018
0
LINE
8
Layer 1
10
8.218148
20
60.036018
11
8.218150
21
60.027100
0
LINE
8
Layer 1
10
8.218150
20
60.027100
11
8.218150
21
59.463200
0
LINE
8
Layer 1
10
8.218150
20
59.463200
11
11.463700
21
59.463200
0
LINE
8
Layer 1
10
11.463700
20
59.463200
11
11.463700
21
60.027100
0
LINE
8
Layer 1
10
11.463700
20
60.027100
11
11.463700
21
60.036000
0
LINE
8
Layer 1
10
11.463700
20
60.036000
11
11.489947
21
60.202051
0
LINE
8
Layer 1
10
11.489947
20
60.202051
11
11.570380
21
60.359813
0
LINE
8
Layer 1
10
11.570380
20
60.359813
11
11.695970
21
60.485402
0
LINE
8
Layer 1
10
11.695970
20
60.485402
11
11.853732
21
60.565835
0
LINE
8
Layer 1
10
11.853732
20
60.565835
11
12.019782
21
60.592082
0
LINE
8
Layer 1
10
12.019782
20
60.592082
11
12.028700
21
60.592100
0
LINE
8
Layer 1
10
12.028700
20
60.592100
11
28.960600
21
60.592100
0
LINE
8
Layer 1
10
28.960600
20
60.592100
11
28.969600
21
60.592100
0
LINE
8
Layer 1
10
28.969600
20
60.592100
11
29.135916
21
60.565853
0
LINE
8
Layer 1
10
29.135916
20
60.565853
11
29.293678
21
60.485420
0
LINE
8
Layer 1
10
29.293678
20
60.485420
11
29.419267
21
60.359831
0
LINE
8
Layer 1
10
29.419267
20
60.359831
11
29.499700
21
60.202069
0
LINE
8
Layer 1
10
29.499700
20
60.202069
11
29.525947
21
60.036018
0
LINE
8
Layer 1
10
29.525947
20
60.036018
11
29.525900
21
60.027100
0
LINE
8
Layer 1
10
29.525900
20
60.027100
11
29.525900
21
59.463200
0
LINE
8
Layer 1
10
29.525900
20
59.463200
11
32.771500
21
59.463200
0
LINE
8
Layer 1
10
32.771500
20
59.463200
11
32.771500
21
60.027100
0
LINE
8
Layer 1
10
32.771500
20
60.027100
11
32.771500
21
60.036000
0
LINE
8
Layer 1
10
32.771500
20
60.036000
11
32.797747
21
60.202051
0
LINE
8
Layer 1
10
32.797747
20
60.202051
11
32.878180
21
60.359813
0
LINE
8
Layer 1
10
32.878180
20
60.359813
11
33.003769
21
60.485402
0
LINE
8
Layer 1
10
33.003769
20
60.485402
11
33.161531
21
60.565835
0
LINE
8
Layer 1
10
33.161531
20
60.565835
11
33.327850
21
60.592082
0
LINE
8
Layer 1
10
33.327850
20
60.592082
11
33.336800
21
60.592100
0
LINE
8
Layer 1
10
33.336800
20
60.592100
11
50.268700
21
60.592100
0
LINE
8
Layer 1
10
50.268700
20
60.592100
11
50.277600
21
60.592100
0
LINE
8
Layer 1
10
50.277600
20
60.592100
11
50.443651
21
60.565853
0
LINE
8
Layer 1
10
50.443651
20
60.565853
11
50.601413
21
60.485420
0
LINE
8
Layer 1
10
50.601413
20
60.485420
11
50.727002
21
60.359831
0
LINE
8
Layer 1
10
50.727002
20
60.359831
11
50.807435
21
60.202069
0
LINE
8
Layer 1
10
50.807435
20
60.202069
11
50.833682
21
60.036018
0
LINE
8
Layer 1
10
50.833682
20
60.036018
11
50.833700
21
60.027100
0
LINE
8
Layer 1
10
50.833700
20
60.027100
11
50.833700
21
59.463200
0
LINE
8
Layer 1
10
50.833700
20
59.463200
11
54.079200
21
59.463200
0
LINE
8
Layer 1
10
54.079200
20
59.463200
11
54.079200
21
60.027100
0
LINE
8
Layer 1
10
54.079200
20
60.027100
11
54.079200
21
60.036000
0
LINE
8
Layer 1
10
54.079200
20
60.036000
11
54.105447
21
60.202051
0
LINE
8
Layer 1
10
54.105447
20
60.202051
11
54.185880
21
60.359813
0
LINE
8
Layer 1
10
54.185880
20
60.359813
11
54.311469
21
60.485402
0
LINE
8
Layer 1
10
54.311469
20
60.485402
11
54.469231
21
60.565835
0
LINE
8
Layer 1
10
54.469231
20
60.565835
11
54.635547
21
60.592082
0
LINE
8
Layer 1
10
54.635547
20
60.592082
11
54.644500
21
60.592100
0
LINE
8
Layer 1
10
54.644500
20
60.592100
11
71.576400
21
60.592100
0
LINE
8
Layer 1
10
71.576400
20
60.592100
11
71.585300
21
60.592100
0
LINE
8
Layer 1
10
71.585300
20
60.592100
11
71.751351
21
60.565853
0
LINE
8
Layer 1
10
71.751351
20
60.565853
11
71.909113
21
60.485420
0
LINE
8
Layer 1
10
71.909113
20
60.485420
11
72.034699
21
60.359831
0
LINE
8
Layer 1
10
72.034699
20
60.359831
11
72.115135
21
60.202069
0
LINE
8
Layer 1
10
64.710475
20
45.408269
11
65.140900
21
45.408300
0
LINE
8
Layer 1
10
65.140900
20
45.408300
11
65.140900
21
44.146500
0
LINE
8
Layer 1
10
65.140900
20
44.146500
11
65.627700
21
44.146500
0
LINE
8
Layer 1
10
65.627700
20
44.146500
11
65.627700
21
43.807500
0
LINE
8
Layer 1
10
65.627700
20
43.807500
11
66.559400
21
43.807500
0
LINE
8
Layer 1
10
66.559400
20
43.807500
11
66.559400
21
44.146500
0
LINE
8
Layer 1
10
66.559400
20
44.146500
11
67.046200
21
44.146500
0
LINE
8
Layer 1
10
67.046200
20
44.146500
11
67.046200
21
45.920800
0
LINE
8
Layer 1
10
67.046200
20
45.920800
11
67.279000
21
45.920800
0
LINE
8
Layer 1
10
67.279000
20
45.920800
11
67.279000
21
46.707100
0
LINE
8
Layer 1
10
67.279000
20
46.707100
11
67.231300
21
46.707100
0
LINE
8
Layer 1
10
67.231300
20
46.707100
11
67.046200
21
46.707100
0
LINE
8
Layer 1
10
67.046200
20
46.707100
11
67.046200
21
47.618900
0
LINE
8
Layer 1
10
67.046200
20
47.618900
11
66.727000
21
47.618900
0
LINE
8
Layer 1
10
66.727000
20
47.618900
11
66.559400
21
47.618900
0
LINE
8
Layer 1
10
66.559400
20
47.618900
11
65.627700
21
47.618900
0
LINE
8
Layer 1
10
65.627700
20
47.618900
11
65.140900
21
47.618900
0
LINE
8
Layer 1
10
65.140900
20
47.618900
11
65.140900
21
46.707100
0
LINE
8
Layer 1
10
65.140900
20
46.707100
11
64.710500
21
46.707100
0
LINE
8
Layer 1
10
64.710500
20
46.707100
11
64.710500
21
48.033800
0
LINE
8
Layer 1
10
64.710500
20
48.033800
11
64.118700
21
48.033800
0
LINE
8
Layer 1
10
64.118700
20
48.033800
11
62.774500
21
48.033800
0
LINE
8
Layer 1
10
62.774500
20
48.033800
11
62.694900
21
48.033800
0
LINE
8
Layer 1
10
62.694900
20
48.033800
11
61.430800
21
48.033800
0
LINE
8
Layer 1
10
61.430800
20
48.033800
11
61.000400
21
48.033800
0
LINE
8
Layer 1
10
61.000400
20
48.033800
11
60.758800
21
48.033800
0
LINE
8
Layer 1
10
60.758800
20
48.033800
11
60.758800
21
46.707100
0
LINE
8
Layer 1
10
60.758800
20
46.707100
11
60.678700
21
46.707100
0
LINE
8
Layer 1
10
60.678700
20
46.707100
11
60.513300
21
46.707100
0
LINE
8
Layer 1
10
60.513300
20
46.707100
11
60.328200
21
46.707100
0
LINE
8
Layer 1
10
60.328200
20
46.707100
11
60.328200
21
47.618900
0
LINE
8
Layer 1
10
60.328200
20
47.618900
11
60.006700
21
47.618900
0
LINE
8
Layer 1
10
60.006700
20
47.618900
11
59.841300
21
47.618900
0
LINE
8
Layer 1
10
59.841300
20
47.618900
11
58.910000
21
47.618900
0
LINE
8
Layer 1
10
58.910000
20
47.618900
11
58.742400
21
47.618900
0
LINE
8
Layer 1
10
58.742400
20
47.618900
11
58.422900
21
47.618900
0
LINE
8
Layer 1
10
58.422900
20
47.618900
11
58.422900
21
46.707100
0
LINE
8
Layer 1
10
58.422900
20
46.707100
11
58.190100
21
46.707100
0
LINE
8
Layer 1
10
58.190100
20
46.707100
11
58.190100
21
45.920800
0
LINE
8
Layer 1
10
58.190100
20
45.920800
11
58.422900
21
45.920800
0
LINE
8
Layer 1
10
58.422900
20
45.920800
11
58.422900
21
44.146500
0
LINE
8
Layer 1
10
58.422900
20
44.146500
11
58.742400
21
44.146500
0
LINE
8
Layer 1
10
58.742400
20
44.146500
11
58.910000
21
44.146500
0
LINE
8
Layer 1
10
58.910000
20
44.146500
11
58.910000
21
43.807500
0
LINE
8
Layer 1
10
58.910000
20
43.807500
11
59.841300
21
43.807500
0
LINE
8
Layer 1
10
59.841300
20
43.807500
11
59.841300
21
44.146500
0
LINE
8
Layer 1
10
59.841300
20
44.146500
11
60.328200
21
44.146500
0
LINE
8
Layer 1
10
60.328200
20
44.146500
11
60.328200
21
45.408300
0
LINE
8
Layer 1
10
60.328200
20
45.408300
11
60.678700
21
45.408300
0
LINE
8
Layer 1
10
60.678700
20
45.408300
11
60.758800
21
45.408300
0
LINE
8
Layer 1
10
60.758800
20
45.408300
11
60.758800
21
44.081600
0
LINE
8
Layer 1
10
60.758800
20
44.081600
11
62.694900
21
44.081600
0
LINE
8
Layer 1
10
62.694900
20
44.081600
11
64.118700
21
44.081600
0
LINE
8
Layer 1
10
64.118700
20
44.081600
11
64.710500
21
44.081600
0
LINE
8
Layer 1
10
64.710500
20
44.081600
11
64.710500
21
45.408300
0
LINE
8
Layer 1
10
65.382471
20
56.161000
11
65.627700
21
56.161000
0
LINE
8
Layer 1
10
65.627700
20
56.161000
11
65.812900
21
56.161000
0
LINE
8
Layer 1
10
65.812900
20
56.161000
11
65.812900
21
54.899100
0
LINE
8
Layer 1
10
65.812900
20
54.899100
11
66.300000
21
54.899100
0
LINE
8
Layer 1
10
66.300000
20
54.899100
11
66.300000
21
54.560200
0
LINE
8
Layer 1
10
66.300000
20
54.560200
11
66.559400
21
54.560200
0
LINE
8
Layer 1
10
66.559400
20
54.560200
11
66.727000
21
54.560200
0
LINE
8
Layer 1
10
66.727000
20
54.560200
11
67.046200
21
54.560200
0
LINE
8
Layer 1
10
67.046200
20
54.560200
11
67.231300
21
54.560200
0
LINE
8
Layer 1
10
67.231300
20
54.560200
11
67.231300
21
54.899100
0
LINE
8
Layer 1
10
67.231300
20
54.899100
11
67.279000
21
54.899100
0
LINE
8
Layer 1
10
67.279000
20
54.899100
11
67.718200
21
54.899100
0
LINE
8
Layer 1
10
67.718200
20
54.899100
11
67.718200
21
56.673500
0
LINE
8
Layer 1
10
67.718200
20
56.673500
11
67.951300
21
56.673500
0
LINE
8
Layer 1
10
67.951300
20
56.673500
11
67.951300
21
57.459700
0
LINE
8
Layer 1
10
67.951300
20
57.459700
11
67.718200
21
57.459700
0
LINE
8
Layer 1
10
67.718200
20
57.459700
11
67.718200
21
58.371600
0
LINE
8
Layer 1
10
67.718200
20
58.371600
11
67.279000
21
58.371600
0
LINE
8
Layer 1
10
67.279000
20
58.371600
11
67.231300
21
58.371600
0
LINE
8
Layer 1
10
67.231300
20
58.371600
11
67.046200
21
58.371600
0
LINE
8
Layer 1
10
67.046200
20
58.371600
11
66.727000
21
58.371600
0
LINE
8
Layer 1
10
66.727000
20
58.371600
11
66.559400
21
58.371600
0
LINE
8
Layer 1
10
66.559400
20
58.371600
11
66.300000
21
58.371600
0
LINE
8
Layer 1
10
66.300000
20
58.371600
11
65.812900
21
58.371600
0
LINE
8
Layer 1
10
65.812900
20
58.371600
11
65.812900
21
57.459700
0
LINE
8
Layer 1
10
65.812900
20
57.459700
11
65.627700
21
57.459700
0
LINE
8
Layer 1
10
65.627700
20
57.459700
11
65.382500
21
57.459700
0
LINE
8
Layer 1
10
65.382500
20
57.459700
11
65.382500
21
58.786500
0
LINE
8
Layer 1
10
65.382500
20
58.786500
11
65.140900
21
58.786500
0
LINE
8
Layer 1
10
65.140900
20
58.786500
11
64.710500
21
58.786500
0
LINE
8
Layer 1
10
64.710500
20
58.786500
11
64.118700
21
58.786500
0
LINE
8
Layer 1
10
64.118700
20
58.786500
11
62.774500
21
58.786500
0
LINE
8
Layer 1
10
62.774500
20
58.786500
11
62.694900
21
58.786500
0
LINE
8
Layer 1
10
62.694900
20
58.786500
11
61.430800
21
58.786500
0
LINE
8
Layer 1
10
61.430800
20
58.786500
11
61.430800
21
57.459700
0
LINE
8
Layer 1
10
61.430800
20
57.459700
11
61.000400
21
57.459700
0
LINE
8
Layer 1
10
61.000400
20
57.459700
11
61.000400
21
58.371600
0
LINE
8
Layer 1
10
61.000400
20
58.371600
11
60.758800
21
58.371600
0
LINE
8
Layer 1
10
60.758800
20
58.371600
11
60.678700
21
58.371600
0
LINE
8
Layer 1
10
60.678700
20
58.371600
11
60.513300
21
58.371600
0
LINE
8
Layer 1
10
60.513300
20
58.371600
11
60.328200
21
58.371600
0
LINE
8
Layer 1
10
60.328200
20
58.371600
11
60.006700
21
58.371600
0
LINE
8
Layer 1
10
60.006700
20
58.371600
11
59.841300
21
58.371600
0
LINE
8
Layer 1
10
59.841300
20
58.371600
11
59.582000
21
58.371600
0
LINE
8
Layer 1
10
59.582000
20
58.371600
11
59.095200
21
58.371600
0
LINE
8
Layer 1
10
59.095200
20
58.371600
11
59.095200
21
57.459700
0
LINE
8
Layer 1
10
59.095200
20
57.459700
11
58.910000
21
57.459700
0
LINE
8
Layer 1
10
58.910000
20
57.459700
11
58.862300
21
57.459700
0
LINE
8
Layer 1
10
58.862300
20
57.459700
11
58.862300
21
56.673500
0
LINE
8
Layer 1
10
58.862300
20
56.673500
11
58.910000
21
56.673500
0
LINE
8
Layer 1
10
58.910000
20
56.673500
11
59.095200
21
56.673500
0
LINE
8
Layer 1
10
59.095200
20
56.673500
11
59.095200
21
54.899100
0
LINE
8
Layer 1
10
59.095200
20
54.899100
11
59.582000
21
54.899100
0
LINE
8
Layer 1
10
59.582000
20
54.899100
11
59.582000
21
54.560200
0
LINE
8
Layer 1
10
59.582000
20
54.560200
11
59.841300
21
54.560200
0
LINE
8
Layer 1
10
59.841300
20
54.560200
11
60.006700
21
54.560200
0
LINE
8
Layer 1
10
60.006700
20
54.560200
11
60.328200
21
54.560200
0
LINE
8
Layer 1
10
60.328200
20
54.560200
11
60.513300
21
54.560200
0
LINE
8
Layer 1
10
60.513300
20
54.560200
11
60.513300
21
54.899100
0
LINE
8
Layer 1
10
60.513300
20
54.899100
11
60.678700
21
54.899100
0
LINE
8
Layer 1
10
60.678700
20
54.899100
11
60.758800
21
54.899100
0
LINE
8
Layer 1
10
60.758800
20
54.899100
11
61.000400
21
54.899100
0
LINE
8
Layer 1
10
61.000400
20
54.899100
11
61.000400
21
56.161000
0
LINE
8
Layer 1
10
61.000400
20
56.161000
11
61.430800
21
56.161000
0
LINE
8
Layer 1
10
61.430800
20
56.161000
11
61.430800
21
54.834200
0
LINE
8
Layer 1
10
61.430800
20
54.834200
11
62.694900
21
54.834200
0
LINE
8
Layer 1
10
62.694900
20
54.834200
11
62.774500
21
54.834200
0
LINE
8
Layer 1
10
62.774500
20
54.834200
11
64.118700
21
54.834200
0
LINE
8
Layer 1
10
64.118700
20
54.834200
11
64.710500
21
54.834200
0
LINE
8
Layer 1
10
64.710500
20
54.834200
11
65.140900
21
54.834200
0
LINE
8
Layer 1
10
65.140900
20
54.834200
11
65.382500
21
54.834200
0
LINE
8
Layer 1
10
65.382500
20
54.834200
11
65.382500
21
56.161000
0
LINE
8
Layer 1
10
26.163200
20
37.845600
11
26.162900
21
37.845600
0
LINE
8
Layer 1
10
26.162900
20
37.845600
11
26.162900
21
33.611100
0
LINE
8
Layer 1
10
26.162900
20
33.611100
11
26.404500
21
33.611100
0
LINE
8
Layer 1
10
26.404500
20
33.611100
11
27.828300
21
33.611100
0
LINE
8
Layer 1
10
27.828300
20
33.611100
11
28.068200
21
33.611100
0
LINE
8
Layer 1
10
28.068200
20
33.611100
11
28.500900
21
33.611100
0
LINE
8
Layer 1
10
28.500900
20
33.611100
11
28.500900
21
33.328900
0
LINE
8
Layer 1
10
28.500900
20
33.328900
11
29.412700
21
33.328900
0
LINE
8
Layer 1
10
29.412700
20
33.328900
11
29.844800
21
33.328900
0
LINE
8
Layer 1
10
29.844800
20
33.328900
11
30.516800
21
33.328900
0
LINE
8
Layer 1
10
30.516800
20
33.328900
11
30.516800
21
33.328600
0
LINE
8
Layer 1
10
30.516800
20
33.328600
11
31.780900
21
33.328600
0
LINE
8
Layer 1
10
31.780900
20
33.328600
11
33.204700
21
33.328600
0
LINE
8
Layer 1
10
33.204700
20
33.328600
11
34.468200
21
33.328600
0
LINE
8
Layer 1
10
34.468200
20
33.328600
11
34.468200
21
33.611100
0
LINE
8
Layer 1
10
34.468200
20
33.611100
11
36.134100
21
33.611100
0
LINE
8
Layer 1
10
36.134100
20
33.611100
11
36.134100
21
37.845900
0
LINE
8
Layer 1
10
36.134100
20
37.845900
11
34.468200
21
37.845900
0
LINE
8
Layer 1
10
34.468200
20
37.845900
11
34.228900
21
37.845900
0
LINE
8
Layer 1
10
34.228900
20
37.845900
11
33.204700
21
37.845900
0
LINE
8
Layer 1
10
33.204700
20
37.845900
11
32.884600
21
37.845900
0
LINE
8
Layer 1
10
32.884600
20
37.845900
11
32.884600
21
37.281100
0
LINE
8
Layer 1
10
32.884600
20
37.281100
11
31.780900
21
37.281100
0
LINE
8
Layer 1
10
31.780900
20
37.281100
11
30.516800
21
37.281100
0
LINE
8
Layer 1
10
30.516800
20
37.281100
11
29.844800
21
37.281100
0
LINE
8
Layer 1
10
29.844800
20
37.281100
11
29.412700
21
37.281100
0
LINE
8
Layer 1
10
29.412700
20
37.281100
11
29.412700
21
37.845900
0
LINE
8
Layer 1
10
29.412700
20
37.845900
11
28.068200
21
37.845900
0
LINE
8
Layer 1
10
28.068200
20
37.845900
11
27.828300
21
37.845900
0
LINE
8
Layer 1
10
27.828300
20
37.845900
11
27.507200
21
37.845900
0
LINE
8
Layer 1
10
27.507200
20
37.845900
11
26.404500
21
37.845900
0
LINE
8
Layer 1
10
26.404500
20
37.845900
11
26.163200
21
37.845900
0
LINE
8
Layer 1
10
26.163200
20
37.845900
11
26.163200
21
37.845600
0
LINE
8
Layer 1
10
19.443490
20
37.281156
11
19.011200
21
37.281100
0
LINE
8
Layer 1
10
19.011200
20
37.281100
11
17.075500
21
37.281100
0
LINE
8
Layer 1
10
17.075500
20
37.281100
11
15.971400
21
37.281100
0
LINE
8
Layer 1
10
15.971400
20
37.281100
11
15.971400
21
37.845900
0
LINE
8
Layer 1
10
15.971400
20
37.845900
11
15.651600
21
37.845900
0
LINE
8
Layer 1
10
15.651600
20
37.845900
11
15.059500
21
37.845900
0
LINE
8
Layer 1
10
15.059500
20
37.845900
11
14.627200
21
37.845900
0
LINE
8
Layer 1
10
14.627200
20
37.845900
11
12.721900
21
37.845900
0
LINE
8
Layer 1
10
12.721900
20
37.845900
11
12.721900
21
33.611100
0
LINE
8
Layer 1
10
12.721900
20
33.611100
11
14.387600
21
33.611100
0
LINE
8
Layer 1
10
14.387600
20
33.611100
11
14.387600
21
33.328600
0
LINE
8
Layer 1
10
14.387600
20
33.328600
11
14.627200
21
33.328600
0
LINE
8
Layer 1
10
14.627200
20
33.328600
11
15.059500
21
33.328600
0
LINE
8
Layer 1
10
15.059500
20
33.328600
11
15.651600
21
33.328600
0
LINE
8
Layer 1
10
15.651600
20
33.328600
11
17.075500
21
33.328600
0
LINE
8
Layer 1
10
17.075500
20
33.328600
11
18.339000
21
33.328600
0
LINE
8
Layer 1
10
18.339000
20
33.328600
11
18.339000
21
33.328900
0
LINE
8
Layer 1
10
18.339000
20
33.328900
11
19.011200
21
33.328900
0
LINE
8
Layer 1
10
19.011200
20
33.328900
11
19.443300
21
33.328900
0
LINE
8
Layer 1
10
19.443300
20
33.328900
11
20.355200
21
33.328900
0
LINE
8
Layer 1
10
20.355200
20
33.328900
11
20.355200
21
33.611100
0
LINE
8
Layer 1
10
20.355200
20
33.611100
11
21.028000
21
33.611100
0
LINE
8
Layer 1
10
21.028000
20
33.611100
11
21.348900
21
33.611100
0
LINE
8
Layer 1
10
21.348900
20
33.611100
11
22.451800
21
33.611100
0
LINE
8
Layer 1
10
22.451800
20
33.611100
11
22.692800
21
33.611100
0
LINE
8
Layer 1
10
22.692800
20
33.611100
11
22.692800
21
37.845900
0
LINE
8
Layer 1
10
22.692800
20
37.845900
11
22.451800
21
37.845900
0
LINE
8
Layer 1
10
22.451800
20
37.845900
11
21.348900
21
37.845900
0
LINE
8
Layer 1
10
21.348900
20
37.845900
11
21.028000
21
37.845900
0
LINE
8
Layer 1
10
21.028000
20
37.845900
11
19.443300
21
37.845900
0
LINE
8
Layer 1
10
19.443300
20
37.845900
11
19.443300
21
37.281100
0
LINE
8
Layer 1
10
10.033740
20
37.281100
11
7.587160
21
37.281100
0
LINE
8
Layer 1
10
7.587160
20
37.281100
11
6.915190
21
37.281100
0
LINE
8
Layer 1
10
6.915190
20
37.281100
11
6.322800
21
37.281100
0
LINE
8
Layer 1
10
6.322800
20
37.281100
11
4.898990
21
37.281100
0
LINE
8
Layer 1
10
4.898990
20
37.281100
11
2.962380
21
37.281100
0
LINE
8
Layer 1
10
2.962380
20
37.281100
11
2.290410
21
37.281100
0
LINE
8
Layer 1
10
2.290410
20
37.281100
11
2.290410
21
33.328600
0
LINE
8
Layer 1
10
2.290410
20
33.328600
11
2.962380
21
33.328600
0
LINE
8
Layer 1
10
2.962380
20
33.328600
11
4.898990
21
33.328600
0
LINE
8
Layer 1
10
4.898990
20
33.328600
11
6.322800
21
33.328600
0
LINE
8
Layer 1
10
6.322800
20
33.328600
11
6.915190
21
33.328600
0
LINE
8
Layer 1
10
6.915190
20
33.328600
11
7.587160
21
33.328600
0
LINE
8
Layer 1
10
7.587160
20
33.328600
11
10.033700
21
33.328600
0
LINE
8
Layer 1
10
10.033700
20
33.328600
11
10.275300
21
33.328600
0
LINE
8
Layer 1
10
10.275300
20
33.328600
11
11.619300
21
33.328600
0
LINE
8
Layer 1
10
11.619300
20
33.328600
11
11.619300
21
33.611100
0
LINE
8
Layer 1
10
11.619300
20
33.611100
11
11.699100
21
33.611100
0
LINE
8
Layer 1
10
11.699100
20
33.611100
11
11.939000
21
33.611100
0
LINE
8
Layer 1
10
11.939000
20
33.611100
11
11.939000
21
37.845600
0
LINE
8
Layer 1
10
11.939000
20
37.845600
11
11.699100
21
37.845600
0
LINE
8
Layer 1
10
11.699100
20
37.845600
11
10.275300
21
37.845600
0
LINE
8
Layer 1
10
10.275300
20
37.845600
11
10.033700
21
37.845600
0
LINE
8
Layer 1
10
10.033700
20
37.845600
11
10.033700
21
37.281100
0
LINE
8
Layer 1
10
-1.502100
20
40.544430
11
-1.269250
21
40.544500
0
LINE
8
Layer 1
10
-1.269250
20
40.544500
11
-1.269250
21
41.330800
0
LINE
8
Layer 1
10
-1.269250
20
41.330800
11
-1.502090
21
41.330800
0
LINE
8
Layer 1
10
-1.502090
20
41.330800
11
-1.502090
21
42.242600
0
LINE
8
Layer 1
10
-1.502090
20
42.242600
11
-1.741690
21
42.242600
0
LINE
8
Layer 1
10
-1.741690
20
42.242600
11
-1.989200
21
42.242600
0
LINE
8
Layer 1
10
-1.989200
20
42.242600
11
-2.920530
21
42.242600
0
LINE
8
Layer 1
10
-2.920530
20
42.242600
11
-3.085630
21
42.242600
0
LINE
8
Layer 1
10
-3.085630
20
42.242600
11
-3.407370
21
42.242600
0
LINE
8
Layer 1
10
-3.407370
20
42.242600
11
-3.407370
21
41.330800
0
LINE
8
Layer 1
10
-3.407370
20
41.330800
11
-3.757890
21
41.330800
0
LINE
8
Layer 1
10
-3.757890
20
41.330800
11
-3.838040
21
41.330800
0
LINE
8
Layer 1
10
-3.838040
20
41.330800
11
-3.838040
21
42.657500
0
LINE
8
Layer 1
10
-3.838040
20
42.657500
11
-5.181410
21
42.657500
0
LINE
8
Layer 1
10
-5.181410
20
42.657500
11
-6.525640
21
42.657500
0
LINE
8
Layer 1
10
-6.525640
20
42.657500
11
-7.789710
21
42.657500
0
LINE
8
Layer 1
10
-7.789710
20
42.657500
11
-7.789710
21
41.330800
0
LINE
8
Layer 1
10
-7.789710
20
41.330800
11
-8.220100
21
41.330800
0
LINE
8
Layer 1
10
-8.220100
20
41.330800
11
-8.220100
21
42.242600
0
LINE
8
Layer 1
10
-8.220100
20
42.242600
11
-8.706930
21
42.242600
0
LINE
8
Layer 1
10
-8.706930
20
42.242600
11
-9.133930
21
42.242600
0
LINE
8
Layer 1
10
-9.133930
20
42.242600
11
-9.638550
21
42.242600
0
LINE
8
Layer 1
10
-9.638550
20
42.242600
11
-9.806190
21
42.242600
0
LINE
8
Layer 1
10
-9.806190
20
42.242600
11
-10.125400
21
42.242600
0
LINE
8
Layer 1
10
-10.125400
20
42.242600
11
-10.125400
21
41.330800
0
LINE
8
Layer 1
10
-10.125400
20
41.330800
11
-10.358200
21
41.330800
0
LINE
8
Layer 1
10
-10.358200
20
41.330800
11
-10.358200
21
40.544500
0
LINE
8
Layer 1
10
-10.358200
20
40.544500
11
-10.125400
21
40.544500
0
LINE
8
Layer 1
10
-10.125400
20
40.544500
11
-10.125400
21
38.770200
0
LINE
8
Layer 1
10
-10.125400
20
38.770200
11
-9.638550
21
38.770200
0
LINE
8
Layer 1
10
-9.638550
20
38.770200
11
-9.638550
21
38.431200
0
LINE
8
Layer 1
10
-9.638550
20
38.431200
11
-9.133930
21
38.431200
0
LINE
8
Layer 1
10
-9.133930
20
38.431200
11
-8.706930
21
38.431200
0
LINE
8
Layer 1
10
-8.706930
20
38.431200
11
-8.706930
21
38.770200
0
LINE
8
Layer 1
10
-8.706930
20
38.770200
11
-8.220100
21
38.770200
0
LINE
8
Layer 1
10
-8.220100
20
38.770200
11
-8.220100
21
40.032000
0
LINE
8
Layer 1
10
-8.220100
20
40.032000
11
-7.789710
21
40.032000
0
LINE
8
Layer 1
10
-7.789710
20
40.032000
11
-7.789710
21
38.705200
0
LINE
8
Layer 1
10
-7.789710
20
38.705200
11
-6.525640
21
38.705200
0
LINE
8
Layer 1
10
-6.525640
20
38.705200
11
-5.181410
21
38.705200
0
LINE
8
Layer 1
10
-5.181410
20
38.705200
11
-3.838040
21
38.705200
0
LINE
8
Layer 1
10
-3.838040
20
38.705200
11
-3.838040
21
40.032000
0
LINE
8
Layer 1
10
-3.838040
20
40.032000
11
-3.757890
21
40.032000
0
LINE
8
Layer 1
10
-3.757890
20
40.032000
11
-3.407370
21
40.032000
0
LINE
8
Layer 1
10
-3.407370
20
40.032000
11
-3.407370
21
38.770200
0
LINE
8
Layer 1
10
-3.407370
20
38.770200
11
-2.920530
21
38.770200
0
LINE
8
Layer 1
10
-2.920530
20
38.770200
11
-2.920530
21
38.431200
0
LINE
8
Layer 1
10
-2.920530
20
38.431200
11
-1.989200
21
38.431200
0
LINE
8
Layer 1
10
-1.989200
20
38.431200
11
-1.989200
21
38.770200
0
LINE
8
Layer 1
10
-1.989200
20
38.770200
11
-1.741690
21
38.770200
0
LINE
8
Layer 1
10
-1.741690
20
38.770200
11
-1.502090
21
38.770200
0
LINE
8
Layer 1
10
-1.502090
20
38.770200
11
-1.502090
21
40.544500
0
LINE
8
Layer 1
10
49.253800
20
58.786500
11
47.989500
21
58.786500
0
LINE
8
Layer 1
10
47.989500
20
58.786500
11
47.989500
21
54.833900
0
LINE
8
Layer 1
10
47.989500
20
54.833900
11
49.253800
21
54.833900
0
LINE
8
Layer 1
10
49.253800
20
54.833900
11
49.333400
21
54.833900
0
LINE
8
Layer 1
10
49.333400
20
54.833900
11
50.597800
21
54.833900
0
LINE
8
Layer 1
10
50.597800
20
54.833900
11
50.677700
21
54.833900
0
LINE
8
Layer 1
10
50.677700
20
54.833900
11
51.942000
21
54.833900
0
LINE
8
Layer 1
10
51.942000
20
54.833900
11
51.942000
21
58.786500
0
LINE
8
Layer 1
10
51.942000
20
58.786500
11
50.677700
21
58.786500
0
LINE
8
Layer 1
10
50.677700
20
58.786500
11
50.597800
21
58.786500
0
LINE
8
Layer 1
10
50.597800
20
58.786500
11
49.333400
21
58.786500
0
LINE
8
Layer 1
10
49.333400
20
58.786500
11
49.253800
21
58.786500
0
LINE
8
Layer 1
10
45.221410
20
58.786500
11
43.957100
21
58.786500
0
LINE
8
Layer 1
10
43.957100
20
58.786500
11
43.877500
21
58.786500
0
LINE
8
Layer 1
10
43.877500
20
58.786500
11
42.613200
21
58.786500
0
LINE
8
Layer 1
10
42.613200
20
58.786500
11
42.613200
21
54.833900
0
LINE
8
Layer 1
10
42.613200
20
54.833900
11
43.877500
21
54.833900
0
LINE
8
Layer 1
10
43.877500
20
54.833900
11
43.957100
21
54.833900
0
LINE
8
Layer 1
10
43.957100
20
54.833900
11
45.221500
21
54.833900
0
LINE
8
Layer 1
10
45.221500
20
54.833900
11
45.301300
21
54.833900
0
LINE
8
Layer 1
10
45.301300
20
54.833900
11
46.565700
21
54.833900
0
LINE
8
Layer 1
10
46.565700
20
54.833900
11
46.565700
21
58.786500
0
LINE
8
Layer 1
10
46.565700
20
58.786500
11
45.301300
21
58.786500
0
LINE
8
Layer 1
10
45.301300
20
58.786500
11
45.221500
21
58.786500
0
LINE
8
Layer 1
10
43.957150
20
44.081300
11
45.221500
21
44.081300
0
LINE
8
Layer 1
10
45.221500
20
44.081300
11
45.221500
21
48.033800
0
LINE
8
Layer 1
10
45.221500
20
48.033800
11
43.957100
21
48.033800
0
LINE
8
Layer 1
10
43.957100
20
48.033800
11
43.877500
21
48.033800
0
LINE
8
Layer 1
10
43.877500
20
48.033800
11
42.533300
21
48.033800
0
LINE
8
Layer 1
10
42.533300
20
48.033800
11
41.268900
21
48.033800
0
LINE
8
Layer 1
10
41.268900
20
48.033800
11
41.268900
21
44.081300
0
LINE
8
Layer 1
10
41.268900
20
44.081300
11
42.533300
21
44.081300
0
LINE
8
Layer 1
10
42.533300
20
44.081300
11
42.612900
21
44.081300
0
LINE
8
Layer 1
10
42.612900
20
44.081300
11
43.957100
21
44.081300
0
LINE
8
Layer 1
10
45.893430
20
33.329200
11
46.565400
21
33.329200
0
LINE
8
Layer 1
10
46.565400
20
33.329200
11
46.565400
21
37.281700
0
LINE
8
Layer 1
10
46.565400
20
37.281700
11
45.893400
21
37.281700
0
LINE
8
Layer 1
10
45.893400
20
37.281700
11
43.957100
21
37.281700
0
LINE
8
Layer 1
10
43.957100
20
37.281700
11
42.612900
21
37.281700
0
LINE
8
Layer 1
10
42.612900
20
37.281700
11
42.533300
21
37.281700
0
LINE
8
Layer 1
10
42.533300
20
37.281700
11
41.940900
21
37.281700
0
LINE
8
Layer 1
10
41.940900
20
37.281700
11
38.821800
21
37.281700
0
LINE
8
Layer 1
10
38.821800
20
37.281700
11
38.821800
21
37.845600
0
LINE
8
Layer 1
10
38.821800
20
37.845600
11
38.580800
21
37.845600
0
LINE
8
Layer 1
10
38.580800
20
37.845600
11
37.157000
21
37.845600
0
LINE
8
Layer 1
10
37.157000
20
37.845600
11
36.916500
21
37.845600
0
LINE
8
Layer 1
10
36.916500
20
37.845600
11
36.916500
21
33.611100
0
LINE
8
Layer 1
10
36.916500
20
33.611100
11
37.157000
21
33.611100
0
LINE
8
Layer 1
10
37.157000
20
33.611100
11
37.236600
21
33.611100
0
LINE
8
Layer 1
10
37.236600
20
33.611100
11
37.236600
21
33.329200
0
LINE
8
Layer 1
10
37.236600
20
33.329200
11
38.580800
21
33.329200
0
LINE
8
Layer 1
10
38.580800
20
33.329200
11
38.821800
21
33.329200
0
LINE
8
Layer 1
10
38.821800
20
33.329200
11
41.940900
21
33.329200
0
LINE
8
Layer 1
10
41.940900
20
33.329200
11
41.940900
21
33.328600
0
LINE
8
Layer 1
10
41.940900
20
33.328600
11
42.533300
21
33.328600
0
LINE
8
Layer 1
10
42.533300
20
33.328600
11
43.957100
21
33.328600
0
LINE
8
Layer 1
10
43.957100
20
33.328600
11
45.893400
21
33.328600
0
LINE
8
Layer 1
10
45.893400
20
33.328600
11
45.893400
21
33.329200
0
LINE
8
Layer 1
10
39.845100
20
58.786500
11
38.580800
21
58.786500
0
LINE
8
Layer 1
10
38.580800
20
58.786500
11
38.501200
21
58.786500
0
LINE
8
Layer 1
10
38.501200
20
58.786500
11
37.236800
21
58.786500
0
LINE
8
Layer 1
10
37.236800
20
58.786500
11
37.236800
21
54.833900
0
LINE
8
Layer 1
10
37.236800
20
54.833900
11
38.501200
21
54.833900
0
LINE
8
Layer 1
10
38.501200
20
54.833900
11
38.580800
21
54.833900
0
LINE
8
Layer 1
10
38.580800
20
54.833900
11
39.845100
21
54.833900
0
LINE
8
Layer 1
10
39.845100
20
54.833900
11
39.925000
21
54.833900
0
LINE
8
Layer 1
10
39.925000
20
54.833900
11
41.189400
21
54.833900
0
LINE
8
Layer 1
10
41.189400
20
54.833900
11
41.189400
21
58.786500
0
LINE
8
Layer 1
10
41.189400
20
58.786500
11
39.925000
21
58.786500
0
LINE
8
Layer 1
10
39.925000
20
58.786500
11
39.845100
21
58.786500
0
LINE
8
Layer 1
10
34.468770
20
58.786500
11
33.204400
21
58.786500
0
LINE
8
Layer 1
10
33.204400
20
58.786500
11
33.124900
21
58.786500
0
LINE
8
Layer 1
10
33.124900
20
58.786500
11
31.860500
21
58.786500
0
LINE
8
Layer 1
10
31.860500
20
58.786500
11
31.860500
21
54.833900
0
LINE
8
Layer 1
10
31.860500
20
54.833900
11
33.124900
21
54.833900
0
LINE
8
Layer 1
10
33.124900
20
54.833900
11
33.204400
21
54.833900
0
LINE
8
Layer 1
10
33.204400
20
54.833900
11
34.468800
21
54.833900
0
LINE
8
Layer 1
10
34.468800
20
54.833900
11
34.548700
21
54.833900
0
LINE
8
Layer 1
10
34.548700
20
54.833900
11
35.813000
21
54.833900
0
LINE
8
Layer 1
10
35.813000
20
54.833900
11
35.813000
21
58.786500
0
LINE
8
Layer 1
10
35.813000
20
58.786500
11
34.548700
21
58.786500
0
LINE
8
Layer 1
10
34.548700
20
58.786500
11
34.468800
21
58.786500
0
LINE
8
Layer 1
10
33.204450
20
44.081300
11
34.468800
21
44.081300
0
LINE
8
Layer 1
10
34.468800
20
44.081300
11
34.468800
21
48.033800
0
LINE
8
Layer 1
10
34.468800
20
48.033800
11
33.204400
21
48.033800
0
LINE
8
Layer 1
10
33.204400
20
48.033800
11
33.124900
21
48.033800
0
LINE
8
Layer 1
10
33.124900
20
48.033800
11
31.780600
21
48.033800
0
LINE
8
Layer 1
10
31.780600
20
48.033800
11
30.516300
21
48.033800
0
LINE
8
Layer 1
10
30.516300
20
48.033800
11
30.516300
21
44.081300
0
LINE
8
Layer 1
10
30.516300
20
44.081300
11
31.780600
21
44.081300
0
LINE
8
Layer 1
10
31.780600
20
44.081300
11
32.884400
21
44.081300
0
LINE
8
Layer 1
10
32.884400
20
44.081300
11
33.204400
21
44.081300
0
LINE
8
Layer 1
10
34.467910
20
38.704970
11
36.133900
21
38.705000
0
LINE
8
Layer 1
10
36.133900
20
38.705000
11
36.916500
21
38.705000
0
LINE
8
Layer 1
10
36.916500
20
38.705000
11
37.157000
21
38.705000
0
LINE
8
Layer 1
10
37.157000
20
38.705000
11
37.157000
21
42.657500
0
LINE
8
Layer 1
10
37.157000
20
42.657500
11
35.892600
21
42.657500
0
LINE
8
Layer 1
10
35.892600
20
42.657500
11
34.548700
21
42.657500
0
LINE
8
Layer 1
10
34.548700
20
42.657500
11
34.468800
21
42.657500
0
LINE
8
Layer 1
10
34.468800
20
42.657500
11
33.204400
21
42.657500
0
LINE
8
Layer 1
10
33.204400
20
42.657500
11
33.204400
21
38.705000
0
LINE
8
Layer 1
10
33.204400
20
38.705000
11
34.228600
21
38.705000
0
LINE
8
Layer 1
10
34.228600
20
38.705000
11
34.468000
21
38.705000
0
LINE
8
Layer 1
10
29.092520
20
58.786500
11
27.828100
21
58.786500
0
LINE
8
Layer 1
10
27.828100
20
58.786500
11
27.748500
21
58.786500
0
LINE
8
Layer 1
10
27.748500
20
58.786500
11
26.484200
21
58.786500
0
LINE
8
Layer 1
10
26.484200
20
58.786500
11
26.484200
21
54.833900
0
LINE
8
Layer 1
10
26.484200
20
54.833900
11
27.748500
21
54.833900
0
LINE
8
Layer 1
10
27.748500
20
54.833900
11
27.828100
21
54.833900
0
LINE
8
Layer 1
10
27.828100
20
54.833900
11
29.092500
21
54.833900
0
LINE
8
Layer 1
10
29.092500
20
54.833900
11
29.172300
21
54.833900
0
LINE
8
Layer 1
10
29.172300
20
54.833900
11
30.436700
21
54.833900
0
LINE
8
Layer 1
10
30.436700
20
54.833900
11
30.436700
21
58.786500
0
LINE
8
Layer 1
10
30.436700
20
58.786500
11
29.172300
21
58.786500
0
LINE
8
Layer 1
10
29.172300
20
58.786500
11
29.092500
21
58.786500
0
LINE
8
Layer 1
10
27.828150
20
44.081300
11
29.092500
21
44.081300
0
LINE
8
Layer 1
10
29.092500
20
44.081300
11
29.092500
21
48.033800
0
LINE
8
Layer 1
10
29.092500
20
48.033800
11
27.828100
21
48.033800
0
LINE
8
Layer 1
10
27.828100
20
48.033800
11
27.748500
21
48.033800
0
LINE
8
Layer 1
10
27.748500
20
48.033800
11
26.404300
21
48.033800
0
LINE
8
Layer 1
10
26.404300
20
48.033800
11
25.140000
21
48.033800
0
LINE
8
Layer 1
10
25.140000
20
48.033800
11
25.140000
21
44.081300
0
LINE
8
Layer 1
10
25.140000
20
44.081300
11
26.404300
21
44.081300
0
LINE
8
Layer 1
10
26.404300
20
44.081300
11
27.506900
21
44.081300
0
LINE
8
Layer 1
10
27.506900
20
44.081300
11
27.828100
21
44.081300
0
LINE
8
Layer 1
10
23.716100
20
58.786500
11
22.451800
21
58.786500
0
LINE
8
Layer 1
10
22.451800
20
58.786500
11
22.372200
21
58.786500
0
LINE
8
Layer 1
10
22.372200
20
58.786500
11
21.107800
21
58.786500
0
LINE
8
Layer 1
10
21.107800
20
58.786500
11
21.107800
21
54.833900
0
LINE
8
Layer 1
10
21.107800
20
54.833900
11
22.372200
21
54.833900
0
LINE
8
Layer 1
10
22.372200
20
54.833900
11
22.451800
21
54.833900
0
LINE
8
Layer 1
10
22.451800
20
54.833900
11
23.716100
21
54.833900
0
LINE
8
Layer 1
10
23.716100
20
54.833900
11
23.796000
21
54.833900
0
LINE
8
Layer 1
10
23.796000
20
54.833900
11
25.060400
21
54.833900
0
LINE
8
Layer 1
10
25.060400
20
54.833900
11
25.060400
21
58.786500
0
LINE
8
Layer 1
10
25.060400
20
58.786500
11
23.796000
21
58.786500
0
LINE
8
Layer 1
10
23.796000
20
58.786500
11
23.716100
21
58.786500
0
LINE
8
Layer 1
10
26.404260
20
38.705000
11
26.404300
21
42.657500
0
LINE
8
Layer 1
10
26.404300
20
42.657500
11
25.140000
21
42.657500
0
LINE
8
Layer 1
10
25.140000
20
42.657500
11
23.796000
21
42.657500
0
LINE
8
Layer 1
10
23.796000
20
42.657500
11
23.716100
21
42.657500
0
LINE
8
Layer 1
10
23.716100
20
42.657500
11
22.451800
21
42.657500
0
LINE
8
Layer 1
10
22.451800
20
42.657500
11
22.451800
21
38.705000
0
LINE
8
Layer 1
10
22.451800
20
38.705000
11
22.692800
21
38.705000
0
LINE
8
Layer 1
10
22.692800
20
38.705000
11
26.162700
21
38.705000
0
LINE
8
Layer 1
10
26.162700
20
38.705000
11
26.163000
21
38.705000
0
LINE
8
Layer 1
10
26.163000
20
38.705000
11
26.404300
21
38.705000
0
LINE
8
Layer 1
10
18.339800
20
58.786500
11
17.075500
21
58.786500
0
LINE
8
Layer 1
10
17.075500
20
58.786500
11
16.995900
21
58.786500
0
LINE
8
Layer 1
10
16.995900
20
58.786500
11
15.731500
21
58.786500
0
LINE
8
Layer 1
10
15.731500
20
58.786500
11
15.731500
21
54.833900
0
LINE
8
Layer 1
10
15.731500
20
54.833900
11
16.995900
21
54.833900
0
LINE
8
Layer 1
10
16.995900
20
54.833900
11
17.075500
21
54.833900
0
LINE
8
Layer 1
10
17.075500
20
54.833900
11
18.339800
21
54.833900
0
LINE
8
Layer 1
10
18.339800
20
54.833900
11
18.419700
21
54.833900
0
LINE
8
Layer 1
10
18.419700
20
54.833900
11
19.684000
21
54.833900
0
LINE
8
Layer 1
10
19.684000
20
54.833900
11
19.684000
21
58.786500
0
LINE
8
Layer 1
10
19.684000
20
58.786500
11
18.419700
21
58.786500
0
LINE
8
Layer 1
10
18.419700
20
58.786500
11
18.339800
21
58.786500
0
LINE
8
Layer 1
10
17.075440
20
44.081300
11
18.339800
21
44.081300
0
LINE
8
Layer 1
10
18.339800
20
44.081300
11
18.339800
21
48.033800
0
LINE
8
Layer 1
10
18.339800
20
48.033800
11
17.075500
21
48.033800
0
LINE
8
Layer 1
10
17.075500
20
48.033800
11
16.995900
21
48.033800
0
LINE
8
Layer 1
10
16.995900
20
48.033800
11
15.651600
21
48.033800
0
LINE
8
Layer 1
10
15.651600
20
48.033800
11
14.387300
21
48.033800
0
LINE
8
Layer 1
10
14.387300
20
48.033800
11
14.387300
21
44.081300
0
LINE
8
Layer 1
10
14.387300
20
44.081300
11
15.651600
21
44.081300
0
LINE
8
Layer 1
10
15.651600
20
44.081300
11
15.971400
21
44.081300
0
LINE
8
Layer 1
10
15.971400
20
44.081300
11
17.075500
21
44.081300
0
LINE
8
Layer 1
10
12.963500
20
58.786500
11
11.699100
21
58.786500
0
LINE
8
Layer 1
10
11.699100
20
58.786500
11
11.619500
21
58.786500
0
LINE
8
Layer 1
10
11.619500
20
58.786500
11
10.355200
21
58.786500
0
LINE
8
Layer 1
10
10.355200
20
58.786500
11
10.355200
21
54.833900
0
LINE
8
Layer 1
10
10.355200
20
54.833900
11
11.619500
21
54.833900
0
LINE
8
Layer 1
10
11.619500
20
54.833900
11
11.699100
21
54.833900
0
LINE
8
Layer 1
10
11.699100
20
54.833900
11
12.963500
21
54.833900
0
LINE
8
Layer 1
10
12.963500
20
54.833900
11
13.043400
21
54.833900
0
LINE
8
Layer 1
10
13.043400
20
54.833900
11
14.307700
21
54.833900
0
LINE
8
Layer 1
10
14.307700
20
54.833900
11
14.307700
21
58.786500
0
LINE
8
Layer 1
10
14.307700
20
58.786500
11
13.043400
21
58.786500
0
LINE
8
Layer 1
10
13.043400
20
58.786500
11
12.963500
21
58.786500
0
LINE
8
Layer 1
10
7.587170
20
58.786500
11
6.322800
21
58.786500
0
LINE
8
Layer 1
10
6.322800
20
58.786500
11
6.242930
21
58.786500
0
LINE
8
Layer 1
10
6.242930
20
58.786500
11
4.978860
21
58.786500
0
LINE
8
Layer 1
10
4.978860
20
58.786500
11
4.978860
21
54.833900
0
LINE
8
Layer 1
10
4.978860
20
54.833900
11
6.242930
21
54.833900
0
LINE
8
Layer 1
10
6.242930
20
54.833900
11
6.322800
21
54.833900
0
LINE
8
Layer 1
10
6.322800
20
54.833900
11
7.587160
21
54.833900
0
LINE
8
Layer 1
10
7.587160
20
54.833900
11
7.667020
21
54.833900
0
LINE
8
Layer 1
10
7.667020
20
54.833900
11
8.931380
21
54.833900
0
LINE
8
Layer 1
10
8.931380
20
54.833900
11
8.931380
21
58.786500
0
LINE
8
Layer 1
10
8.931380
20
58.786500
11
7.667020
21
58.786500
0
LINE
8
Layer 1
10
7.667020
20
58.786500
11
7.587160
21
58.786500
0
LINE
8
Layer 1
10
2.210830
20
58.786500
11
0.946472
21
58.786500
0
LINE
8
Layer 1
10
0.946472
20
58.786500
11
0.866886
21
58.786500
0
LINE
8
Layer 1
10
0.866886
20
58.786500
11
-0.397751
21
58.786500
0
LINE
8
Layer 1
10
-0.397751
20
58.786500
11
-0.397751
21
54.833900
0
LINE
8
Layer 1
10
-0.397751
20
54.833900
11
0.866886
21
54.833900
0
LINE
8
Layer 1
10
0.866886
20
54.833900
11
0.946472
21
54.833900
0
LINE
8
Layer 1
10
0.946472
20
54.833900
11
2.210830
21
54.833900
0
LINE
8
Layer 1
10
2.210830
20
54.833900
11
2.290700
21
54.833900
0
LINE
8
Layer 1
10
2.290700
20
54.833900
11
3.555050
21
54.833900
0
LINE
8
Layer 1
10
3.555050
20
54.833900
11
3.555050
21
58.786500
0
LINE
8
Layer 1
10
3.555050
20
58.786500
11
2.290700
21
58.786500
0
LINE
8
Layer 1
10
2.290700
20
58.786500
11
2.210830
21
58.786500
0
LINE
8
Layer 1
10
-3.407360
20
58.786500
11
-3.757890
21
58.786500
0
LINE
8
Layer 1
10
-3.757890
20
58.786500
11
-3.838040
21
58.786500
0
LINE
8
Layer 1
10
-3.838040
20
58.786500
11
-5.181410
21
58.786500
0
LINE
8
Layer 1
10
-5.181410
20
58.786500
11
-5.773800
21
58.786500
0
LINE
8
Layer 1
10
-5.773800
20
58.786500
11
-5.773800
21
54.833900
0
LINE
8
Layer 1
10
-5.773800
20
54.833900
11
-5.181410
21
54.833900
0
LINE
8
Layer 1
10
-5.181410
20
54.833900
11
-3.838040
21
54.833900
0
LINE
8
Layer 1
10
-3.838040
20
54.833900
11
-3.757890
21
54.833900
0
LINE
8
Layer 1
10
-3.757890
20
54.833900
11
-3.407370
21
54.833900
0
LINE
8
Layer 1
10
-3.407370
20
54.833900
11
-3.085630
21
54.833900
0
LINE
8
Layer 1
10
-3.085630
20
54.833900
11
-2.920530
21
54.833900
0
LINE
8
Layer 1
10
-2.920530
20
54.833900
11
-1.989200
21
54.833900
0
LINE
8
Layer 1
10
-1.989200
20
54.833900
11
-1.821280
21
54.833900
0
LINE
8
Layer 1
10
-1.821280
20
54.833900
11
-1.821280
21
58.786500
0
LINE
8
Layer 1
10
-1.821280
20
58.786500
11
-1.989200
21
58.786500
0
LINE
8
Layer 1
10
-1.989200
20
58.786500
11
-2.920530
21
58.786500
0
LINE
8
Layer 1
10
-2.920530
20
58.786500
11
-3.085630
21
58.786500
0
LINE
8
Layer 1
10
-3.085630
20
58.786500
11
-3.407370
21
58.786500
0
LINE
8
Layer 1
10
-9.133940
20
37.281200
11
-9.638550
21
37.281100
0
LINE
8
Layer 1
10
-9.638550
20
37.281100
11
-10.125400
21
37.281100
0
LINE
8
Layer 1
10
-10.125400
20
37.281100
11
-10.358200
21
37.281100
0
LINE
8
Layer 1
10
-10.358200
20
37.281100
11
-10.478200
21
37.281100
0
LINE
8
Layer 1
10
-10.478200
20
37.281100
11
-10.478200
21
33.328600
0
LINE
8
Layer 1
10
-10.478200
20
33.328600
11
-6.525640
21
33.328600
0
LINE
8
Layer 1
10
-6.525640
20
33.328600
11
-6.525640
21
37.281100
0
LINE
8
Layer 1
10
-6.525640
20
37.281100
11
-7.789710
21
37.281100
0
LINE
8
Layer 1
10
-7.789710
20
37.281100
11
-8.220100
21
37.281100
0
LINE
8
Layer 1
10
-8.220100
20
37.281100
11
-8.706930
21
37.281100
0
LINE
8
Layer 1
10
-8.706930
20
37.281100
11
-9.133930
21
37.281100
0
LINE
8
Layer 1
10
-10.358210
20
58.786400
11
-10.478200
21
58.786500
0
LINE
8
Layer 1
10
-10.478200
20
58.786500
11
-11.150100
21
58.786500
0
LINE
8
Layer 1
10
-11.150100
20
58.786500
11
-11.150100
21
54.833900
0
LINE
8
Layer 1
10
-11.150100
20
54.833900
11
-10.478200
21
54.833900
0
LINE
8
Layer 1
10
-10.478200
20
54.833900
11
-10.358200
21
54.833900
0
LINE
8
Layer 1
10
-10.358200
20
54.833900
11
-10.125400
21
54.833900
0
LINE
8
Layer 1
10
-10.125400
20
54.833900
11
-9.806190
21
54.833900
0
LINE
8
Layer 1
10
-9.806190
20
54.833900
11
-9.638550
21
54.833900
0
LINE
8
Layer 1
10
-9.638550
20
54.833900
11
-9.133930
21
54.833900
0
LINE
8
Layer 1
10
-9.133930
20
54.833900
11
-7.197890
21
54.833900
0
LINE
8
Layer 1
10
-7.197890
20
54.833900
11
-7.197890
21
58.786500
0
LINE
8
Layer 1
10
-7.197890
20
58.786500
11
-9.133930
21
58.786500
0
LINE
8
Layer 1
10
-9.133930
20
58.786500
11
-9.638550
21
58.786500
0
LINE
8
Layer 1
10
-9.638550
20
58.786500
11
-9.806190
21
58.786500
0
LINE
8
Layer 1
10
-9.806190
20
58.786500
11
-10.125400
21
58.786500
0
LINE
8
Layer 1
10
-10.125400
20
58.786500
11
-10.358200
21
58.786500
0
LINE
8
Layer 1
10
-5.853650
20
53.410170
11
-6.525640
21
53.410100
0
LINE
8
Layer 1
10
-6.525640
20
53.410100
11
-7.197890
21
53.410100
0
LINE
8
Layer 1
10
-7.197890
20
53.410100
11
-9.133930
21
53.410100
0
LINE
8
Layer 1
10
-9.133930
20
53.410100
11
-9.638550
21
53.410100
0
LINE
8
Layer 1
10
-9.638550
20
53.410100
11
-9.806190
21
53.410100
0
LINE
8
Layer 1
10
-9.806190
20
53.410100
11
-9.806190
21
49.457600
0
LINE
8
Layer 1
10
-9.806190
20
49.457600
11
-9.638550
21
49.457600
0
LINE
8
Layer 1
10
-9.638550
20
49.457600
11
-9.133930
21
49.457600
0
LINE
8
Layer 1
10
-9.133930
20
49.457600
11
-6.525640
21
49.457600
0
LINE
8
Layer 1
10
-6.525640
20
49.457600
11
-5.853670
21
49.457600
0
LINE
8
Layer 1
10
-5.853670
20
49.457600
11
-5.853670
21
53.410100
0
LINE
8
Layer 1
10
54.630200
20
58.786500
11
53.365800
21
58.786500
0
LINE
8
Layer 1
10
53.365800
20
58.786500
11
53.365800
21
54.833900
0
LINE
8
Layer 1
10
53.365800
20
54.833900
11
54.630200
21
54.833900
0
LINE
8
Layer 1
10
54.630200
20
54.833900
11
55.974100
21
54.833900
0
LINE
8
Layer 1
10
55.974100
20
54.833900
11
56.054000
21
54.833900
0
LINE
8
Layer 1
10
56.054000
20
54.833900
11
56.726000
21
54.833900
0
LINE
8
Layer 1
10
56.726000
20
54.833900
11
57.318300
21
54.833900
0
LINE
8
Layer 1
10
57.318300
20
54.833900
11
57.318300
21
58.786500
0
LINE
8
Layer 1
10
57.318300
20
58.786500
11
56.726000
21
58.786500
0
LINE
8
Layer 1
10
56.726000
20
58.786500
11
56.054000
21
58.786500
0
LINE
8
Layer 1
10
56.054000
20
58.786500
11
55.974100
21
58.786500
0
LINE
8
Layer 1
10
55.974100
20
58.786500
11
54.630200
21
58.786500
0
LINE
8
Layer 1
10
52.021620
20
53.410170
11
51.942000
21
53.410100
0
LINE
8
Layer 1
10
51.942000
20
53.410100
11
50.677700
21
53.410100
0
LINE
8
Layer 1
10
50.677700
20
53.410100
11
50.677700
21
49.457600
0
LINE
8
Layer 1
10
50.677700
20
49.457600
11
51.942000
21
49.457600
0
LINE
8
Layer 1
10
51.942000
20
49.457600
11
52.021600
21
49.457600
0
LINE
8
Layer 1
10
52.021600
20
49.457600
11
53.286000
21
49.457600
0
LINE
8
Layer 1
10
53.286000
20
49.457600
11
53.365800
21
49.457600
0
LINE
8
Layer 1
10
53.365800
20
49.457600
11
54.630200
21
49.457600
0
LINE
8
Layer 1
10
54.630200
20
49.457600
11
54.630200
21
53.410100
0
LINE
8
Layer 1
10
54.630200
20
53.410100
11
53.365800
21
53.410100
0
LINE
8
Layer 1
10
53.365800
20
53.410100
11
53.286000
21
53.410100
0
LINE
8
Layer 1
10
53.286000
20
53.410100
11
52.021600
21
53.410100
0
LINE
8
Layer 1
10
58.189840
20
53.410100
11
57.318300
21
53.410100
0
LINE
8
Layer 1
10
57.318300
20
53.410100
11
56.726000
21
53.410100
0
LINE
8
Layer 1
10
56.726000
20
53.410100
11
56.054000
21
53.410100
0
LINE
8
Layer 1
10
56.054000
20
53.410100
11
56.054000
21
49.457600
0
LINE
8
Layer 1
10
56.054000
20
49.457600
11
56.726000
21
49.457600
0
LINE
8
Layer 1
10
56.726000
20
49.457600
11
57.318300
21
49.457600
0
LINE
8
Layer 1
10
57.318300
20
49.457600
11
58.189800
21
49.457600
0
LINE
8
Layer 1
10
58.189800
20
49.457600
11
58.422700
21
49.457600
0
LINE
8
Layer 1
10
58.422700
20
49.457600
11
58.742100
21
49.457600
0
LINE
8
Layer 1
10
58.742100
20
49.457600
11
58.909800
21
49.457600
0
LINE
8
Layer 1
10
58.909800
20
49.457600
11
59.841100
21
49.457600
0
LINE
8
Layer 1
10
59.841100
20
49.457600
11
60.006500
21
49.457600
0
LINE
8
Layer 1
10
60.006500
20
49.457600
11
60.006500
21
53.410100
0
LINE
8
Layer 1
10
60.006500
20
53.410100
11
59.841100
21
53.410100
0
LINE
8
Layer 1
10
59.841100
20
53.410100
11
59.581800
21
53.410100
0
LINE
8
Layer 1
10
59.581800
20
53.410100
11
59.094900
21
53.410100
0
LINE
8
Layer 1
10
59.094900
20
53.410100
11
58.909800
21
53.410100
0
LINE
8
Layer 1
10
58.909800
20
53.410100
11
58.862100
21
53.410100
0
LINE
8
Layer 1
10
58.862100
20
53.410100
11
58.742100
21
53.410100
0
LINE
8
Layer 1
10
58.742100
20
53.410100
11
58.422700
21
53.410100
0
LINE
8
Layer 1
10
58.422700
20
53.410100
11
58.189800
21
53.410100
0
LINE
8
Layer 1
10
64.118440
20
53.410100
11
62.774300
21
53.410100
0
LINE
8
Layer 1
10
62.774300
20
53.410100
11
62.774300
21
49.457600
0
LINE
8
Layer 1
10
62.774300
20
49.457600
11
64.118500
21
49.457600
0
LINE
8
Layer 1
10
64.118500
20
49.457600
11
64.710300
21
49.457600
0
LINE
8
Layer 1
10
64.710300
20
49.457600
11
65.140700
21
49.457600
0
LINE
8
Layer 1
10
65.140700
20
49.457600
11
65.627500
21
49.457600
0
LINE
8
Layer 1
10
65.627500
20
49.457600
11
66.559100
21
49.457600
0
LINE
8
Layer 1
10
66.559100
20
49.457600
11
66.726800
21
49.457600
0
LINE
8
Layer 1
10
66.726800
20
49.457600
11
66.726800
21
53.410100
0
LINE
8
Layer 1
10
66.726800
20
53.410100
11
66.559100
21
53.410100
0
LINE
8
Layer 1
10
66.559100
20
53.410100
11
66.299800
21
53.410100
0
LINE
8
Layer 1
10
66.299800
20
53.410100
11
65.812700
21
53.410100
0
LINE
8
Layer 1
10
65.812700
20
53.410100
11
65.627500
21
53.410100
0
LINE
8
Layer 1
10
65.627500
20
53.410100
11
65.382300
21
53.410100
0
LINE
8
Layer 1
10
65.382300
20
53.410100
11
65.140700
21
53.410100
0
LINE
8
Layer 1
10
65.140700
20
53.410100
11
64.710300
21
53.410100
0
LINE
8
Layer 1
10
64.710300
20
53.410100
11
64.118500
21
53.410100
0
LINE
8
Layer 1
10
64.710320
20
42.657400
11
64.118500
21
42.657500
0
LINE
8
Layer 1
10
64.118500
20
42.657500
11
64.118500
21
38.705000
0
LINE
8
Layer 1
10
64.118500
20
38.705000
11
68.071000
21
38.705000
0
LINE
8
Layer 1
10
68.071000
20
38.705000
11
68.071000
21
42.657500
0
LINE
8
Layer 1
10
68.071000
20
42.657500
11
67.951100
21
42.657500
0
LINE
8
Layer 1
10
67.951100
20
42.657500
11
67.717900
21
42.657500
0
LINE
8
Layer 1
10
67.717900
20
42.657500
11
67.278800
21
42.657500
0
LINE
8
Layer 1
10
67.278800
20
42.657500
11
67.046000
21
42.657500
0
LINE
8
Layer 1
10
67.046000
20
42.657500
11
66.559100
21
42.657500
0
LINE
8
Layer 1
10
66.559100
20
42.657500
11
65.627500
21
42.657500
0
LINE
8
Layer 1
10
65.627500
20
42.657500
11
65.140700
21
42.657500
0
LINE
8
Layer 1
10
65.140700
20
42.657500
11
64.710300
21
42.657500
0
LINE
8
Layer 1
10
68.071000
20
37.281170
11
64.118500
21
37.281100
0
LINE
8
Layer 1
10
64.118500
20
37.281100
11
64.118500
21
33.328600
0
LINE
8
Layer 1
10
64.118500
20
33.328600
11
68.071000
21
33.328600
0
LINE
8
Layer 1
10
68.071000
20
33.328600
11
68.071000
21
37.281100
0
LINE
8
Layer 1
10
49.333400
20
48.033800
11
49.253800
21
48.033800
0
LINE
8
Layer 1
10
49.253800
20
48.033800
11
47.989500
21
48.033800
0
LINE
8
Layer 1
10
47.989500
20
48.033800
11
47.909600
21
48.033800
0
LINE
8
Layer 1
10
47.909600
20
48.033800
11
46.645300
21
48.033800
0
LINE
8
Layer 1
10
46.645300
20
48.033800
11
46.645300
21
44.081300
0
LINE
8
Layer 1
10
46.645300
20
44.081300
11
47.909600
21
44.081300
0
LINE
8
Layer 1
10
47.909600
20
44.081300
11
47.989500
21
44.081300
0
LINE
8
Layer 1
10
47.989500
20
44.081300
11
49.333400
21
44.081300
0
LINE
8
Layer 1
10
49.333400
20
44.081300
11
50.597800
21
44.081300
0
LINE
8
Layer 1
10
50.597800
20
44.081300
11
50.597800
21
48.033800
0
LINE
8
Layer 1
10
50.597800
20
48.033800
11
49.333400
21
48.033800
0
LINE
8
Layer 1
10
50.597750
20
42.657470
11
49.333400
21
42.657500
0
LINE
8
Layer 1
10
49.333400
20
42.657500
11
49.333400
21
38.705000
0
LINE
8
Layer 1
10
49.333400
20
38.705000
11
51.942000
21
38.705000
0
LINE
8
Layer 1
10
51.942000
20
38.705000
11
53.286000
21
38.705000
0
LINE
8
Layer 1
10
53.286000
20
38.705000
11
53.286000
21
42.657500
0
LINE
8
Layer 1
10
53.286000
20
42.657500
11
52.021600
21
42.657500
0
LINE
8
Layer 1
10
52.021600
20
42.657500
11
51.942000
21
42.657500
0
LINE
8
Layer 1
10
51.942000
20
42.657500
11
50.677700
21
42.657500
0
LINE
8
Layer 1
10
50.677700
20
42.657500
11
50.597800
21
42.657500
0
LINE
8
Layer 1
10
49.333450
20
37.281170
11
47.989500
21
37.281100
0
LINE
8
Layer 1
10
47.989500
20
37.281100
11
47.989500
21
33.328600
0
LINE
8
Layer 1
10
47.989500
20
33.328600
11
51.942000
21
33.328600
0
LINE
8
Layer 1
10
51.942000
20
33.328600
11
51.942000
21
37.281100
0
LINE
8
Layer 1
10
51.942000
20
37.281100
11
49.333400
21
37.281100
0
LINE
8
Layer 1
10
47.989460
20
53.410100
11
47.909600
21
53.410100
0
LINE
8
Layer 1
10
47.909600
20
53.410100
11
46.645300
21
53.410100
0
LINE
8
Layer 1
10
46.645300
20
53.410100
11
46.565700
21
53.410100
0
LINE
8
Layer 1
10
46.565700
20
53.410100
11
45.301300
21
53.410100
0
LINE
8
Layer 1
10
45.301300
20
53.410100
11
45.301300
21
49.457600
0
LINE
8
Layer 1
10
45.301300
20
49.457600
11
46.645300
21
49.457600
0
LINE
8
Layer 1
10
46.645300
20
49.457600
11
47.909600
21
49.457600
0
LINE
8
Layer 1
10
47.909600
20
49.457600
11
47.989500
21
49.457600
0
LINE
8
Layer 1
10
47.989500
20
49.457600
11
49.253800
21
49.457600
0
LINE
8
Layer 1
10
49.253800
20
49.457600
11
49.253800
21
53.410100
0
LINE
8
Layer 1
10
49.253800
20
53.410100
11
47.989500
21
53.410100
0
LINE
8
Layer 1
10
47.909631
20
42.657400
11
46.645300
21
42.657500
0
LINE
8
Layer 1
10
46.645300
20
42.657500
11
45.301300
21
42.657500
0
LINE
8
Layer 1
10
45.301300
20
42.657500
11
45.221500
21
42.657500
0
LINE
8
Layer 1
10
45.221500
20
42.657500
11
43.957100
21
42.657500
0
LINE
8
Layer 1
10
43.957100
20
42.657500
11
43.957100
21
38.705000
0
LINE
8
Layer 1
10
43.957100
20
38.705000
11
45.893400
21
38.705000
0
LINE
8
Layer 1
10
45.893400
20
38.705000
11
46.565400
21
38.705000
0
LINE
8
Layer 1
10
46.565400
20
38.705000
11
47.909600
21
38.705000
0
LINE
8
Layer 1
10
47.909600
20
38.705000
11
47.909600
21
42.657500
0
LINE
8
Layer 1
10
41.268920
20
53.410200
11
41.189400
21
53.410100
0
LINE
8
Layer 1
10
41.189400
20
53.410100
11
39.925000
21
53.410100
0
LINE
8
Layer 1
10
39.925000
20
53.410100
11
39.925000
21
49.457600
0
LINE
8
Layer 1
10
39.925000
20
49.457600
11
41.268900
21
49.457600
0
LINE
8
Layer 1
10
41.268900
20
49.457600
11
42.533300
21
49.457600
0
LINE
8
Layer 1
10
42.533300
20
49.457600
11
43.877500
21
49.457600
0
LINE
8
Layer 1
10
43.877500
20
49.457600
11
43.877500
21
53.410100
0
LINE
8
Layer 1
10
43.877500
20
53.410100
11
42.613200
21
53.410100
0
LINE
8
Layer 1
10
42.613200
20
53.410100
11
42.533300
21
53.410100
0
LINE
8
Layer 1
10
42.533300
20
53.410100
11
41.268900
21
53.410100
0
LINE
8
Layer 1
10
42.533250
20
42.657400
11
41.268900
21
42.657500
0
LINE
8
Layer 1
10
41.268900
20
42.657500
11
39.925000
21
42.657500
0
LINE
8
Layer 1
10
39.925000
20
42.657500
11
39.845100
21
42.657500
0
LINE
8
Layer 1
10
39.845100
20
42.657500
11
38.580800
21
42.657500
0
LINE
8
Layer 1
10
38.580800
20
42.657500
11
38.580800
21
38.705000
0
LINE
8
Layer 1
10
38.580800
20
38.705000
11
38.821800
21
38.705000
0
LINE
8
Layer 1
10
38.821800
20
38.705000
11
41.940900
21
38.705000
0
LINE
8
Layer 1
10
41.940900
20
38.705000
11
42.533300
21
38.705000
0
LINE
8
Layer 1
10
42.533300
20
38.705000
11
42.533300
21
42.657500
0
LINE
8
Layer 1
10
38.580780
20
48.033830
11
38.501200
21
48.033800
0
LINE
8
Layer 1
10
38.501200
20
48.033800
11
37.157000
21
48.033800
0
LINE
8
Layer 1
10
37.157000
20
48.033800
11
35.892600
21
48.033800
0
LINE
8
Layer 1
10
35.892600
20
48.033800
11
35.892600
21
44.081300
0
LINE
8
Layer 1
10
35.892600
20
44.081300
11
37.157000
21
44.081300
0
LINE
8
Layer 1
10
37.157000
20
44.081300
11
38.580800
21
44.081300
0
LINE
8
Layer 1
10
38.580800
20
44.081300
11
39.845100
21
44.081300
0
LINE
8
Layer 1
10
39.845100
20
44.081300
11
39.845100
21
48.033800
0
LINE
8
Layer 1
10
39.845100
20
48.033800
11
38.580800
21
48.033800
0
LINE
8
Layer 1
10
35.892640
20
53.410130
11
35.813000
21
53.410100
0
LINE
8
Layer 1
10
35.813000
20
53.410100
11
34.548700
21
53.410100
0
LINE
8
Layer 1
10
34.548700
20
53.410100
11
34.548700
21
49.457600
0
LINE
8
Layer 1
10
34.548700
20
49.457600
11
35.892600
21
49.457600
0
LINE
8
Layer 1
10
35.892600
20
49.457600
11
37.157000
21
49.457600
0
LINE
8
Layer 1
10
37.157000
20
49.457600
11
38.501200
21
49.457600
0
LINE
8
Layer 1
10
38.501200
20
49.457600
11
38.501200
21
53.410100
0
LINE
8
Layer 1
10
38.501200
20
53.410100
11
37.236800
21
53.410100
0
LINE
8
Layer 1
10
37.236800
20
53.410100
11
37.157000
21
53.410100
0
LINE
8
Layer 1
10
37.157000
20
53.410100
11
35.892600
21
53.410100
0
LINE
8
Layer 1
10
30.516270
20
53.410100
11
30.436700
21
53.410100
0
LINE
8
Layer 1
10
30.436700
20
53.410100
11
29.172300
21
53.410100
0
LINE
8
Layer 1
10
29.172300
20
53.410100
11
29.172300
21
49.457600
0
LINE
8
Layer 1
10
29.172300
20
49.457600
11
30.516300
21
49.457600
0
LINE
8
Layer 1
10
30.516300
20
49.457600
11
31.780600
21
49.457600
0
LINE
8
Layer 1
10
31.780600
20
49.457600
11
33.124900
21
49.457600
0
LINE
8
Layer 1
10
33.124900
20
49.457600
11
33.124900
21
53.410100
0
LINE
8
Layer 1
10
33.124900
20
53.410100
11
31.860500
21
53.410100
0
LINE
8
Layer 1
10
31.860500
20
53.410100
11
31.780600
21
53.410100
0
LINE
8
Layer 1
10
31.780600
20
53.410100
11
30.516300
21
53.410100
0
LINE
8
Layer 1
10
31.780650
20
42.657400
11
30.516300
21
42.657500
0
LINE
8
Layer 1
10
30.516300
20
42.657500
11
29.172300
21
42.657500
0
LINE
8
Layer 1
10
29.172300
20
42.657500
11
29.092500
21
42.657500
0
LINE
8
Layer 1
10
29.092500
20
42.657500
11
27.828100
21
42.657500
0
LINE
8
Layer 1
10
27.828100
20
42.657500
11
27.828100
21
38.705000
0
LINE
8
Layer 1
10
27.828100
20
38.705000
11
28.068000
21
38.705000
0
LINE
8
Layer 1
10
28.068000
20
38.705000
11
29.412500
21
38.705000
0
LINE
8
Layer 1
10
29.412500
20
38.705000
11
29.844600
21
38.705000
0
LINE
8
Layer 1
10
29.844600
20
38.705000
11
30.516600
21
38.705000
0
LINE
8
Layer 1
10
30.516600
20
38.705000
11
31.780600
21
38.705000
0
LINE
8
Layer 1
10
31.780600
20
38.705000
11
31.780600
21
42.657500
0
LINE
8
Layer 1
10
25.139920
20
53.410200
11
25.060400
21
53.410100
0
LINE
8
Layer 1
10
25.060400
20
53.410100
11
23.796000
21
53.410100
0
LINE
8
Layer 1
10
23.796000
20
53.410100
11
23.796000
21
49.457600
0
LINE
8
Layer 1
10
23.796000
20
49.457600
11
25.140000
21
49.457600
0
LINE
8
Layer 1
10
25.140000
20
49.457600
11
26.404300
21
49.457600
0
LINE
8
Layer 1
10
26.404300
20
49.457600
11
27.748500
21
49.457600
0
LINE
8
Layer 1
10
27.748500
20
49.457600
11
27.748500
21
53.410100
0
LINE
8
Layer 1
10
27.748500
20
53.410100
11
26.484200
21
53.410100
0
LINE
8
Layer 1
10
26.484200
20
53.410100
11
26.404300
21
53.410100
0
LINE
8
Layer 1
10
26.404300
20
53.410100
11
25.140000
21
53.410100
0
LINE
8
Layer 1
10
22.451840
20
48.033770
11
22.372200
21
48.033800
0
LINE
8
Layer 1
10
22.372200
20
48.033800
11
21.028000
21
48.033800
0
LINE
8
Layer 1
10
21.028000
20
48.033800
11
19.763600
21
48.033800
0
LINE
8
Layer 1
10
19.763600
20
48.033800
11
19.763600
21
44.081300
0
LINE
8
Layer 1
10
19.763600
20
44.081300
11
21.028000
21
44.081300
0
LINE
8
Layer 1
10
21.028000
20
44.081300
11
21.348900
21
44.081300
0
LINE
8
Layer 1
10
21.348900
20
44.081300
11
22.451800
21
44.081300
0
LINE
8
Layer 1
10
22.451800
20
44.081300
11
23.716100
21
44.081300
0
LINE
8
Layer 1
10
23.716100
20
44.081300
11
23.716100
21
48.033800
0
LINE
8
Layer 1
10
23.716100
20
48.033800
11
22.451800
21
48.033800
0
LINE
8
Layer 1
10
19.763640
20
53.410130
11
19.684000
21
53.410100
0
LINE
8
Layer 1
10
19.684000
20
53.410100
11
18.419700
21
53.410100
0
LINE
8
Layer 1
10
18.419700
20
53.410100
11
18.419700
21
49.457600
0
LINE
8
Layer 1
10
18.419700
20
49.457600
11
19.763600
21
49.457600
0
LINE
8
Layer 1
10
19.763600
20
49.457600
11
21.028000
21
49.457600
0
LINE
8
Layer 1
10
21.028000
20
49.457600
11
22.372200
21
49.457600
0
LINE
8
Layer 1
10
22.372200
20
49.457600
11
22.372200
21
53.410100
0
LINE
8
Layer 1
10
22.372200
20
53.410100
11
21.107800
21
53.410100
0
LINE
8
Layer 1
10
21.107800
20
53.410100
11
21.028000
21
53.410100
0
LINE
8
Layer 1
10
21.028000
20
53.410100
11
19.763600
21
53.410100
0
LINE
8
Layer 1
10
21.027950
20
42.657400
11
19.763600
21
42.657500
0
LINE
8
Layer 1
10
19.763600
20
42.657500
11
18.419700
21
42.657500
0
LINE
8
Layer 1
10
18.419700
20
42.657500
11
18.339800
21
42.657500
0
LINE
8
Layer 1
10
18.339800
20
42.657500
11
17.075500
21
42.657500
0
LINE
8
Layer 1
10
17.075500
20
42.657500
11
17.075500
21
38.705000
0
LINE
8
Layer 1
10
17.075500
20
38.705000
11
19.011200
21
38.705000
0
LINE
8
Layer 1
10
19.011200
20
38.705000
11
19.443300
21
38.705000
0
LINE
8
Layer 1
10
19.443300
20
38.705000
11
21.028000
21
38.705000
0
LINE
8
Layer 1
10
21.028000
20
38.705000
11
21.028000
21
42.657500
0
LINE
8
Layer 1
10
14.387320
20
53.410200
11
14.307700
21
53.410100
0
LINE
8
Layer 1
10
14.307700
20
53.410100
11
13.043400
21
53.410100
0
LINE
8
Layer 1
10
13.043400
20
53.410100
11
13.043400
21
49.457600
0
LINE
8
Layer 1
10
13.043400
20
49.457600
11
14.387300
21
49.457600
0
LINE
8
Layer 1
10
14.387300
20
49.457600
11
15.651600
21
49.457600
0
LINE
8
Layer 1
10
15.651600
20
49.457600
11
16.995900
21
49.457600
0
LINE
8
Layer 1
10
16.995900
20
49.457600
11
16.995900
21
53.410100
0
LINE
8
Layer 1
10
16.995900
20
53.410100
11
15.731500
21
53.410100
0
LINE
8
Layer 1
10
15.731500
20
53.410100
11
15.651600
21
53.410100
0
LINE
8
Layer 1
10
15.651600
20
53.410100
11
14.387300
21
53.410100
0
LINE
8
Layer 1
10
15.651650
20
42.657400
11
14.387300
21
42.657500
0
LINE
8
Layer 1
10
14.387300
20
42.657500
11
13.043400
21
42.657500
0
LINE
8
Layer 1
10
13.043400
20
42.657500
11
12.963500
21
42.657500
0
LINE
8
Layer 1
10
12.963500
20
42.657500
11
11.699100
21
42.657500
0
LINE
8
Layer 1
10
11.699100
20
42.657500
11
11.699100
21
38.705000
0
LINE
8
Layer 1
10
11.699100
20
38.705000
11
11.939000
21
38.705000
0
LINE
8
Layer 1
10
11.939000
20
38.705000
11
12.721900
21
38.705000
0
LINE
8
Layer 1
10
12.721900
20
38.705000
11
14.627200
21
38.705000
0
LINE
8
Layer 1
10
14.627200
20
38.705000
11
15.059500
21
38.705000
0
LINE
8
Layer 1
10
15.059500
20
38.705000
11
15.651600
21
38.705000
0
LINE
8
Layer 1
10
15.651600
20
38.705000
11
15.651600
21
42.657500
0
LINE
8
Layer 1
10
11.699080
20
48.033830
11
11.619500
21
48.033800
0
LINE
8
Layer 1
10
11.619500
20
48.033800
11
10.275300
21
48.033800
0
LINE
8
Layer 1
10
10.275300
20
48.033800
11
9.010970
21
48.033800
0
LINE
8
Layer 1
10
9.010970
20
48.033800
11
9.010970
21
44.081300
0
LINE
8
Layer 1
10
9.010970
20
44.081300
11
10.275300
21
44.081300
0
LINE
8
Layer 1
10
10.275300
20
44.081300
11
11.699100
21
44.081300
0
LINE
8
Layer 1
10
11.699100
20
44.081300
11
12.963500
21
44.081300
0
LINE
8
Layer 1
10
12.963500
20
44.081300
11
12.963500
21
48.033800
0
LINE
8
Layer 1
10
12.963500
20
48.033800
11
11.699100
21
48.033800
0
LINE
8
Layer 1
10
9.010940
20
53.410130
11
8.931380
21
53.410100
0
LINE
8
Layer 1
10
8.931380
20
53.410100
11
7.667020
21
53.410100
0
LINE
8
Layer 1
10
7.667020
20
53.410100
11
7.667020
21
49.457600
0
LINE
8
Layer 1
10
7.667020
20
49.457600
11
9.010970
21
49.457600
0
LINE
8
Layer 1
10
9.010970
20
49.457600
11
10.275300
21
49.457600
0
LINE
8
Layer 1
10
10.275300
20
49.457600
11
11.619500
21
49.457600
0
LINE
8
Layer 1
10
11.619500
20
49.457600
11
11.619500
21
53.410100
0
LINE
8
Layer 1
10
11.619500
20
53.410100
11
10.355200
21
53.410100
0
LINE
8
Layer 1
10
10.355200
20
53.410100
11
10.275300
21
53.410100
0
LINE
8
Layer 1
10
10.275300
20
53.410100
11
9.010970
21
53.410100
0
LINE
8
Layer 1
10
10.275330
20
42.657400
11
9.010970
21
42.657500
0
LINE
8
Layer 1
10
9.010970
20
42.657500
11
7.667020
21
42.657500
0
LINE
8
Layer 1
10
7.667020
20
42.657500
11
7.587160
21
42.657500
0
LINE
8
Layer 1
10
7.587160
20
42.657500
11
6.322800
21
42.657500
0
LINE
8
Layer 1
10
6.322800
20
42.657500
11
6.322800
21
38.705000
0
LINE
8
Layer 1
10
6.322800
20
38.705000
11
6.915190
21
38.705000
0
LINE
8
Layer 1
10
6.915190
20
38.705000
11
7.587160
21
38.705000
0
LINE
8
Layer 1
10
7.587160
20
38.705000
11
10.033700
21
38.705000
0
LINE
8
Layer 1
10
10.033700
20
38.705000
11
10.275300
21
38.705000
0
LINE
8
Layer 1
10
10.275300
20
38.705000
11
10.275300
21
42.657500
0
LINE
8
Layer 1
10
6.322780
20
48.033830
11
6.242930
21
48.033800
0
LINE
8
Layer 1
10
6.242930
20
48.033800
11
4.898990
21
48.033800
0
LINE
8
Layer 1
10
4.898990
20
48.033800
11
3.634640
21
48.033800
0
LINE
8
Layer 1
10
3.634640
20
48.033800
11
3.634640
21
44.081300
0
LINE
8
Layer 1
10
3.634640
20
44.081300
11
4.898990
21
44.081300
0
LINE
8
Layer 1
10
4.898990
20
44.081300
11
6.322800
21
44.081300
0
LINE
8
Layer 1
10
6.322800
20
44.081300
11
7.587160
21
44.081300
0
LINE
8
Layer 1
10
7.587160
20
44.081300
11
7.587160
21
48.033800
0
LINE
8
Layer 1
10
7.587160
20
48.033800
11
6.322800
21
48.033800
0
LINE
8
Layer 1
10
3.634630
20
53.410130
11
3.555050
21
53.410100
0
LINE
8
Layer 1
10
3.555050
20
53.410100
11
2.290700
21
53.410100
0
LINE
8
Layer 1
10
2.290700
20
53.410100
11
2.290700
21
49.457600
0
LINE
8
Layer 1
10
2.290700
20
49.457600
11
3.634640
21
49.457600
0
LINE
8
Layer 1
10
3.634640
20
49.457600
11
4.898990
21
49.457600
0
LINE
8
Layer 1
10
4.898990
20
49.457600
11
6.242930
21
49.457600
0
LINE
8
Layer 1
10
6.242930
20
49.457600
11
6.242930
21
53.410100
0
LINE
8
Layer 1
10
6.242930
20
53.410100
11
4.978860
21
53.410100
0
LINE
8
Layer 1
10
4.978860
20
53.410100
11
4.898990
21
53.410100
0
LINE
8
Layer 1
10
4.898990
20
53.410100
11
3.634640
21
53.410100
0
LINE
8
Layer 1
10
4.898990
20
42.657400
11
3.634640
21
42.657500
0
LINE
8
Layer 1
10
3.634640
20
42.657500
11
2.290700
21
42.657500
0
LINE
8
Layer 1
10
2.290700
20
42.657500
11
2.210830
21
42.657500
0
LINE
8
Layer 1
10
2.210830
20
42.657500
11
0.946472
21
42.657500
0
LINE
8
Layer 1
10
0.946472
20
42.657500
11
0.946472
21
38.705000
0
LINE
8
Layer 1
10
0.946472
20
38.705000
11
2.290410
21
38.705000
0
LINE
8
Layer 1
10
2.290410
20
38.705000
11
2.962380
21
38.705000
0
LINE
8
Layer 1
10
2.962380
20
38.705000
11
4.898990
21
38.705000
0
LINE
8
Layer 1
10
4.898990
20
38.705000
11
4.898990
21
42.657500
0
LINE
8
Layer 1
10
0.946470
20
48.033830
11
0.866886
21
48.033800
0
LINE
8
Layer 1
10
0.866886
20
48.033800
11
-1.741690
21
48.033800
0
LINE
8
Layer 1
10
-1.741690
20
48.033800
11
-1.741690
21
44.081300
0
LINE
8
Layer 1
10
-1.741690
20
44.081300
11
-1.502090
21
44.081300
0
LINE
8
Layer 1
10
-1.502090
20
44.081300
11
-1.269250
21
44.081300
0
LINE
8
Layer 1
10
-1.269250
20
44.081300
11
0.194632
21
44.081300
0
LINE
8
Layer 1
10
0.194632
20
44.081300
11
0.946472
21
44.081300
0
LINE
8
Layer 1
10
0.946472
20
44.081300
11
2.210830
21
44.081300
0
LINE
8
Layer 1
10
2.210830
20
44.081300
11
2.210830
21
48.033800
0
LINE
8
Layer 1
10
2.210830
20
48.033800
11
0.946472
21
48.033800
0
LINE
8
Layer 1
10
-0.397748
20
53.410130
11
-1.741690
21
53.410100
0
LINE
8
Layer 1
10
-1.741690
20
53.410100
11
-1.821280
21
53.410100
0
LINE
8
Layer 1
10
-1.821280
20
53.410100
11
-1.989200
21
53.410100
0
LINE
8
Layer 1
10
-1.989200
20
53.410100
11
-2.920530
21
53.410100
0
LINE
8
Layer 1
10
-2.920530
20
53.410100
11
-3.085630
21
53.410100
0
LINE
8
Layer 1
10
-3.085630
20
53.410100
11
-3.085630
21
49.457600
0
LINE
8
Layer 1
10
-3.085630
20
49.457600
11
-2.920530
21
49.457600
0
LINE
8
Layer 1
10
-2.920530
20
49.457600
11
-1.989200
21
49.457600
0
LINE
8
Layer 1
10
-1.989200
20
49.457600
11
-1.741690
21
49.457600
0
LINE
8
Layer 1
10
-1.741690
20
49.457600
11
0.866886
21
49.457600
0
LINE
8
Layer 1
10
0.866886
20
49.457600
11
0.866886
21
53.410100
0
LINE
8
Layer 1
10
0.866886
20
53.410100
11
-0.397751
21
53.410100
0
LINE
8
Layer 1
10
-1.741691
20
37.281100
11
-1.989200
21
37.281100
0
LINE
8
Layer 1
10
-1.989200
20
37.281100
11
-2.920530
21
37.281100
0
LINE
8
Layer 1
10
-2.920530
20
37.281100
11
-3.407370
21
37.281100
0
LINE
8
Layer 1
10
-3.407370
20
37.281100
11
-3.757890
21
37.281100
0
LINE
8
Layer 1
10
-3.757890
20
37.281100
11
-3.757890
21
33.328600
0
LINE
8
Layer 1
10
-3.757890
20
33.328600
11
-1.741690
21
33.328600
0
LINE
8
Layer 1
10
-1.741690
20
33.328600
11
0.194632
21
33.328600
0
LINE
8
Layer 1
10
0.194632
20
33.328600
11
0.194632
21
37.281100
0
LINE
8
Layer 1
10
0.194632
20
37.281100
11
-1.269250
21
37.281100
0
LINE
8
Layer 1
10
-1.269250
20
37.281100
11
-1.502090
21
37.281100
0
LINE
8
Layer 1
10
-1.502090
20
37.281100
11
-1.741690
21
37.281100
0
LINE
8
Layer 1
10
-9.133930
20
48.033800
11
-9.133930
21
44.081300
0
LINE
8
Layer 1
10
-9.133930
20
44.081300
11
-8.706930
21
44.081300
0
LINE
8
Layer 1
10
-8.706930
20
44.081300
11
-8.220100
21
44.081300
0
LINE
8
Layer 1
10
-8.220100
20
44.081300
11
-7.789710
21
44.081300
0
LINE
8
Layer 1
10
-7.789710
20
44.081300
11
-6.525640
21
44.081300
0
LINE
8
Layer 1
10
-6.525640
20
44.081300
11
-5.181410
21
44.081300
0
LINE
8
Layer 1
10
-5.181410
20
44.081300
11
-5.181410
21
48.033800
0
LINE
8
Layer 1
10
-5.181410
20
48.033800
11
-5.773800
21
48.033800
0
LINE
8
Layer 1
10
-5.773800
20
48.033800
11
-5.853670
21
48.033800
0
LINE
8
Layer 1
10
-5.853670
20
48.033800
11
-6.525640
21
48.033800
0
LINE
8
Layer 1
10
-6.525640
20
48.033800
11
-9.133930
21
48.033800
0
LINE
8
Layer 1
10
53.365870
20
48.033800
11
53.286000
21
48.033800
0
LINE
8
Layer 1
10
53.286000
20
48.033800
11
52.021600
21
48.033800
0
LINE
8
Layer 1
10
52.021600
20
48.033800
11
52.021600
21
44.081300
0
LINE
8
Layer 1
10
52.021600
20
44.081300
11
53.286000
21
44.081300
0
LINE
8
Layer 1
10
53.286000
20
44.081300
11
53.365800
21
44.081300
0
LINE
8
Layer 1
10
53.365800
20
44.081300
11
55.974100
21
44.081300
0
LINE
8
Layer 1
10
55.974100
20
44.081300
11
55.974100
21
48.033800
0
LINE
8
Layer 1
10
55.974100
20
48.033800
11
54.630200
21
48.033800
0
LINE
8
Layer 1
10
54.630200
20
48.033800
11
53.365800
21
48.033800
0
LINE
8
Layer 1
10
55.974100
20
37.281100
11
53.365800
21
37.281100
0
LINE
8
Layer 1
10
53.365800
20
37.281100
11
53.365800
21
33.328600
0
LINE
8
Layer 1
10
53.365800
20
33.328600
11
57.318300
21
33.328600
0
LINE
8
Layer 1
10
57.318300
20
33.328600
11
57.318300
21
37.281100
0
LINE
8
Layer 1
10
57.318300
20
37.281100
11
56.726000
21
37.281100
0
LINE
8
Layer 1
10
56.726000
20
37.281100
11
56.054000
21
37.281100
0
LINE
8
Layer 1
10
56.054000
20
37.281100
11
55.974100
21
37.281100
0
LINE
8
Layer 1
10
56.725939
20
42.657430
11
56.726000
21
38.705000
0
LINE
8
Layer 1
10
56.726000
20
38.705000
11
57.318300
21
38.705000
0
LINE
8
Layer 1
10
57.318300
20
38.705000
11
58.742100
21
38.705000
0
LINE
8
Layer 1
10
58.742100
20
38.705000
11
60.678500
21
38.705000
0
LINE
8
Layer 1
10
60.678500
20
38.705000
11
60.678500
21
42.657500
0
LINE
8
Layer 1
10
60.678500
20
42.657500
11
60.328000
21
42.657500
0
LINE
8
Layer 1
10
60.328000
20
42.657500
11
59.841100
21
42.657500
0
LINE
8
Layer 1
10
59.841100
20
42.657500
11
58.909800
21
42.657500
0
LINE
8
Layer 1
10
58.909800
20
42.657500
11
58.742100
21
42.657500
0
LINE
8
Layer 1
10
58.742100
20
42.657500
11
58.422700
21
42.657500
0
LINE
8
Layer 1
10
58.422700
20
42.657500
11
58.189800
21
42.657500
0
LINE
8
Layer 1
10
58.189800
20
42.657500
11
57.318300
21
42.657500
0
LINE
8
Layer 1
10
57.318300
20
42.657500
11
56.726000
21
42.657500
0
LINE
8
Layer 1
10
60.678520
20
37.281170
11
58.742100
21
37.281100
0
LINE
8
Layer 1
10
58.742100
20
37.281100
11
58.742100
21
33.328600
0
LINE
8
Layer 1
10
58.742100
20
33.328600
11
62.694700
21
33.328600
0
LINE
8
Layer 1
10
62.694700
20
33.328600
11
62.694700
21
37.281100
0
LINE
8
Layer 1
10
62.694700
20
37.281100
11
60.758600
21
37.281100
0
LINE
8
Layer 1
10
60.758600
20
37.281100
11
60.678500
21
37.281100
0
LINE
8
Layer 1
10
73.447400
20
58.786400
11
69.494800
21
58.786500
0
LINE
8
Layer 1
10
69.494800
20
58.786500
11
69.494800
21
54.833900
0
LINE
8
Layer 1
10
69.494800
20
54.833900
11
73.447300
21
54.833900
0
LINE
8
Layer 1
10
73.447300
20
54.833900
11
73.447300
21
58.786500
0
LINE
8
Layer 1
10
73.447300
20
53.410170
11
69.494800
21
53.410100
0
LINE
8
Layer 1
10
69.494800
20
53.410100
11
69.494800
21
49.457600
0
LINE
8
Layer 1
10
69.494800
20
49.457600
11
73.447300
21
49.457600
0
LINE
8
Layer 1
10
73.447300
20
49.457600
11
73.447300
21
53.410100
0
LINE
8
Layer 1
10
73.447300
20
48.033770
11
69.494800
21
48.033800
0
LINE
8
Layer 1
10
69.494800
20
48.033800
11
69.494800
21
44.081300
0
LINE
8
Layer 1
10
69.494800
20
44.081300
11
73.447300
21
44.081300
0
LINE
8
Layer 1
10
73.447300
20
44.081300
11
73.447300
21
48.033800
0
LINE
8
Layer 1
10
73.447300
20
42.657470
11
69.494800
21
42.657500
0
LINE
8
Layer 1
10
69.494800
20
42.657500
11
69.494800
21
38.705000
0
LINE
8
Layer 1
10
69.494800
20
38.705000
11
73.447300
21
38.705000
0
LINE
8
Layer 1
10
73.447300
20
38.705000
11
73.447300
21
42.657500
0
LINE
8
Layer 1
10
73.447300
20
37.281170
11
69.494800
21
37.281100
0
LINE
8
Layer 1
10
69.494800
20
37.281100
11
69.494800
21
33.328600
0
LINE
8
Layer 1
10
69.494800
20
33.328600
11
73.447300
21
33.328600
0
LINE
8
Layer 1
10
73.447300
20
33.328600
11
73.447300
21
37.281170
 0 
ENDSEC
 0 
EOF