%FSLAX45Y45*%
G04 Gerber Fmt 4.5, Leading zero omitted, Abs format (unit mm)*
G04 Created by KiCad (PCBNEW (5.1.8-0-10_14)) date 2021-09-26 01:45:02*
%MOMM*%
%LPD*%
G01*
G04 APERTURE LIST*
%TA.AperFunction,Profile*%
%ADD10C,0.050000*%
%TD*%
%ADD11C,0.200000*%
%ADD12C,0.300000*%
G04 APERTURE END LIST*
D10*
X-297657Y-12144385D02*
X29765650Y-12144385D01*
X-297657Y-2619377D02*
X29765650Y-2619377D01*
X-416719Y-2738440D02*
G75*
G02*
X-297657Y-2619377I119063J0D01*
G01*
X-416719Y-12025323D02*
X-416719Y-2738440D01*
X-297657Y-12144385D02*
G75*
G02*
X-416719Y-12025323I0J119063D01*
G01*
X29884713Y-2738440D02*
X29884713Y-12025323D01*
X29884713Y-12025323D02*
G75*
G02*
X29765650Y-12144385I-119063J0D01*
G01*
X29765650Y-2619377D02*
G75*
G02*
X29884713Y-2738440I0J-119063D01*
G01*
D11*
X11310750Y-3484375D02*
X11485750Y-3659375D01*
X11485750Y-3484375D02*
X11310750Y-3659375D01*
X12326750Y-3484375D02*
X12501750Y-3659375D01*
X12501750Y-3484375D02*
X12326750Y-3659375D01*
X6548250Y-5389375D02*
X6723250Y-5564375D01*
X6723250Y-5389375D02*
X6548250Y-5564375D01*
X7564250Y-5389375D02*
X7739250Y-5564375D01*
X7739250Y-5389375D02*
X7564250Y-5564375D01*
X26550750Y-9199375D02*
X26725750Y-9374375D01*
X26725750Y-9199375D02*
X26550750Y-9374375D01*
X27566750Y-9199375D02*
X27741750Y-9374375D01*
X27741750Y-9199375D02*
X27566750Y-9374375D01*
X9882000Y-9199375D02*
X10057000Y-9374375D01*
X10057000Y-9199375D02*
X9882000Y-9374375D01*
X10898000Y-9199375D02*
X11073000Y-9374375D01*
X11073000Y-9199375D02*
X10898000Y-9374375D01*
X28455750Y-7294375D02*
X28630750Y-7469375D01*
X28630750Y-7294375D02*
X28455750Y-7469375D01*
X29471750Y-7294375D02*
X29646750Y-7469375D01*
X29646750Y-7294375D02*
X29471750Y-7469375D01*
X24645771Y-9199383D02*
X24820771Y-9374383D01*
X24820771Y-9199383D02*
X24645771Y-9374383D01*
X25661771Y-9199383D02*
X25836771Y-9374383D01*
X25836771Y-9199383D02*
X25661771Y-9374383D01*
X25598250Y-3484375D02*
X25773250Y-3659375D01*
X25773250Y-3484375D02*
X25598250Y-3659375D01*
X26614250Y-3484375D02*
X26789250Y-3659375D01*
X26789250Y-3484375D02*
X26614250Y-3659375D01*
X17025750Y-3484375D02*
X17200750Y-3659375D01*
X17200750Y-3484375D02*
X17025750Y-3659375D01*
X18041750Y-3484375D02*
X18216750Y-3659375D01*
X18216750Y-3484375D02*
X18041750Y-3659375D01*
X28455750Y-3484375D02*
X28630750Y-3659375D01*
X28630750Y-3484375D02*
X28455750Y-3659375D01*
X29471750Y-3484375D02*
X29646750Y-3659375D01*
X29646750Y-3484375D02*
X29471750Y-3659375D01*
X4643250Y-5389375D02*
X4818250Y-5564375D01*
X4818250Y-5389375D02*
X4643250Y-5564375D01*
X5659250Y-5389375D02*
X5834250Y-5564375D01*
X5834250Y-5389375D02*
X5659250Y-5564375D01*
X20835750Y-3484375D02*
X21010750Y-3659375D01*
X21010750Y-3484375D02*
X20835750Y-3659375D01*
X21851750Y-3484375D02*
X22026750Y-3659375D01*
X22026750Y-3484375D02*
X21851750Y-3659375D01*
X18216391Y-11104384D02*
X18391391Y-11279384D01*
X18391391Y-11104384D02*
X18216391Y-11279384D01*
X19232391Y-11104384D02*
X19407391Y-11279384D01*
X19407391Y-11104384D02*
X19232391Y-11279384D01*
X7977000Y-9199375D02*
X8152000Y-9374375D01*
X8152000Y-9199375D02*
X7977000Y-9374375D01*
X8993000Y-9199375D02*
X9168000Y-9374375D01*
X9168000Y-9199375D02*
X8993000Y-9374375D01*
X13215750Y-3484375D02*
X13390750Y-3659375D01*
X13390750Y-3484375D02*
X13215750Y-3659375D01*
X14231750Y-3484375D02*
X14406750Y-3659375D01*
X14406750Y-3484375D02*
X14231750Y-3659375D01*
X20835768Y-9199383D02*
X21010768Y-9374383D01*
X21010768Y-9199383D02*
X20835768Y-9374383D01*
X21851768Y-9199383D02*
X22026768Y-9374383D01*
X22026768Y-9199383D02*
X21851768Y-9374383D01*
X25360125Y-7294375D02*
X25535125Y-7469375D01*
X25535125Y-7294375D02*
X25360125Y-7469375D01*
X26376125Y-7294375D02*
X26551125Y-7469375D01*
X26551125Y-7294375D02*
X26376125Y-7469375D01*
X23931478Y-9199414D02*
X24106478Y-9374414D01*
X24106478Y-9199414D02*
X23931478Y-9374414D01*
X24947478Y-9199414D02*
X25122478Y-9374414D01*
X25122478Y-9199414D02*
X24947478Y-9374414D01*
X9643918Y-11104422D02*
X9818918Y-11279422D01*
X9818918Y-11104422D02*
X9643918Y-11279422D01*
X10659918Y-11104422D02*
X10834918Y-11279422D01*
X10834918Y-11104422D02*
X10659918Y-11279422D01*
X8929500Y-7294375D02*
X9104500Y-7469375D01*
X9104500Y-7294375D02*
X8929500Y-7469375D01*
X9945500Y-7294375D02*
X10120500Y-7469375D01*
X10120500Y-7294375D02*
X9945500Y-7469375D01*
X24645750Y-11104375D02*
X24820750Y-11279375D01*
X24820750Y-11104375D02*
X24645750Y-11279375D01*
X25661750Y-11104375D02*
X25836750Y-11279375D01*
X25836750Y-11104375D02*
X25661750Y-11279375D01*
X12739500Y-7294375D02*
X12914500Y-7469375D01*
X12914500Y-7294375D02*
X12739500Y-7469375D01*
X13755500Y-7294375D02*
X13930500Y-7469375D01*
X13930500Y-7294375D02*
X13755500Y-7469375D01*
X11310760Y-9199383D02*
X11485760Y-9374383D01*
X11485760Y-9199383D02*
X11310760Y-9374383D01*
X12326760Y-9199383D02*
X12501760Y-9374383D01*
X12501760Y-9199383D02*
X12326760Y-9374383D01*
X357000Y-5389375D02*
X532000Y-5564375D01*
X532000Y-5389375D02*
X357000Y-5564375D01*
X1373000Y-5389375D02*
X1548000Y-5564375D01*
X1548000Y-5389375D02*
X1373000Y-5564375D01*
X15597000Y-9199375D02*
X15772000Y-9374375D01*
X15772000Y-9199375D02*
X15597000Y-9374375D01*
X16613000Y-9199375D02*
X16788000Y-9374375D01*
X16788000Y-9199375D02*
X16613000Y-9374375D01*
X26550750Y-3484375D02*
X26725750Y-3659375D01*
X26725750Y-3484375D02*
X26550750Y-3659375D01*
X27566750Y-3484375D02*
X27741750Y-3659375D01*
X27741750Y-3484375D02*
X27566750Y-3659375D01*
X5595755Y-9199383D02*
X5770755Y-9374383D01*
X5770755Y-9199383D02*
X5595755Y-9374383D01*
X6611755Y-9199383D02*
X6786755Y-9374383D01*
X6786755Y-9199383D02*
X6611755Y-9374383D01*
X22264500Y-7294375D02*
X22439500Y-7469375D01*
X22439500Y-7294375D02*
X22264500Y-7469375D01*
X23280500Y-7294375D02*
X23455500Y-7469375D01*
X23455500Y-7294375D02*
X23280500Y-7469375D01*
X5119500Y-7294375D02*
X5294500Y-7469375D01*
X5294500Y-7294375D02*
X5119500Y-7469375D01*
X6135500Y-7294375D02*
X6310500Y-7469375D01*
X6310500Y-7294375D02*
X6135500Y-7469375D01*
X17025765Y-9199383D02*
X17200765Y-9374383D01*
X17200765Y-9199383D02*
X17025765Y-9374383D01*
X18041765Y-9199383D02*
X18216765Y-9374383D01*
X18216765Y-9199383D02*
X18041765Y-9374383D01*
X7500750Y-3484375D02*
X7675750Y-3659375D01*
X7675750Y-3484375D02*
X7500750Y-3659375D01*
X8516750Y-3484375D02*
X8691750Y-3659375D01*
X8691750Y-3484375D02*
X8516750Y-3659375D01*
X19883250Y-5389375D02*
X20058250Y-5564375D01*
X20058250Y-5389375D02*
X19883250Y-5564375D01*
X20899250Y-5389375D02*
X21074250Y-5564375D01*
X21074250Y-5389375D02*
X20899250Y-5564375D01*
X7024500Y-7294375D02*
X7199500Y-7469375D01*
X7199500Y-7294375D02*
X7024500Y-7469375D01*
X8040500Y-7294375D02*
X8215500Y-7469375D01*
X8215500Y-7294375D02*
X8040500Y-7469375D01*
X26550750Y-11104375D02*
X26725750Y-11279375D01*
X26725750Y-11104375D02*
X26550750Y-11279375D01*
X27566750Y-11104375D02*
X27741750Y-11279375D01*
X27741750Y-11104375D02*
X27566750Y-11279375D01*
X15120750Y-3484375D02*
X15295750Y-3659375D01*
X15295750Y-3484375D02*
X15120750Y-3659375D01*
X16136750Y-3484375D02*
X16311750Y-3659375D01*
X16311750Y-3484375D02*
X16136750Y-3659375D01*
X26312648Y-6341880D02*
X26487648Y-6516880D01*
X26487648Y-6341880D02*
X26312648Y-6516880D01*
X27328648Y-6341880D02*
X27503648Y-6516880D01*
X27503648Y-6341880D02*
X27328648Y-6516880D01*
X-119250Y-3484375D02*
X55750Y-3659375D01*
X55750Y-3484375D02*
X-119250Y-3659375D01*
X896750Y-3484375D02*
X1071750Y-3659375D01*
X1071750Y-3484375D02*
X896750Y-3659375D01*
X3690750Y-3484375D02*
X3865750Y-3659375D01*
X3865750Y-3484375D02*
X3690750Y-3659375D01*
X4706750Y-3484375D02*
X4881750Y-3659375D01*
X4881750Y-3484375D02*
X4706750Y-3659375D01*
X4167000Y-9199375D02*
X4342000Y-9374375D01*
X4342000Y-9199375D02*
X4167000Y-9374375D01*
X5183000Y-9199375D02*
X5358000Y-9374375D01*
X5358000Y-9199375D02*
X5183000Y-9374375D01*
X21788250Y-5389375D02*
X21963250Y-5564375D01*
X21963250Y-5389375D02*
X21788250Y-5564375D01*
X22804250Y-5389375D02*
X22979250Y-5564375D01*
X22979250Y-5389375D02*
X22804250Y-5564375D01*
X20597643Y-11104384D02*
X20772643Y-11279384D01*
X20772643Y-11104384D02*
X20597643Y-11279384D01*
X21613643Y-11104384D02*
X21788643Y-11279384D01*
X21788643Y-11104384D02*
X21613643Y-11279384D01*
X2738250Y-5389375D02*
X2913250Y-5564375D01*
X2913250Y-5389375D02*
X2738250Y-5564375D01*
X3754250Y-5389375D02*
X3929250Y-5564375D01*
X3929250Y-5389375D02*
X3754250Y-5564375D01*
X10358250Y-5389375D02*
X10533250Y-5564375D01*
X10533250Y-5389375D02*
X10358250Y-5564375D01*
X11374250Y-5389375D02*
X11549250Y-5564375D01*
X11549250Y-5389375D02*
X11374250Y-5564375D01*
X1071375Y-9199375D02*
X1246375Y-9374375D01*
X1246375Y-9199375D02*
X1071375Y-9374375D01*
X2087375Y-9199375D02*
X2262375Y-9374375D01*
X2262375Y-9199375D02*
X2087375Y-9374375D01*
X22740770Y-9199383D02*
X22915770Y-9374383D01*
X22915770Y-9199383D02*
X22740770Y-9374383D01*
X23756770Y-9199383D02*
X23931770Y-9374383D01*
X23931770Y-9199383D02*
X23756770Y-9374383D01*
X13930186Y-11104422D02*
X14105186Y-11279422D01*
X14105186Y-11104422D02*
X13930186Y-11279422D01*
X14946186Y-11104422D02*
X15121186Y-11279422D01*
X15121186Y-11104422D02*
X14946186Y-11279422D01*
X833251Y-9199383D02*
X1008251Y-9374383D01*
X1008251Y-9199383D02*
X833251Y-9374383D01*
X1849251Y-9199383D02*
X2024251Y-9374383D01*
X2024251Y-9199383D02*
X1849251Y-9374383D01*
X19407000Y-9199375D02*
X19582000Y-9374375D01*
X19582000Y-9199375D02*
X19407000Y-9374375D01*
X20423000Y-9199375D02*
X20598000Y-9374375D01*
X20598000Y-9199375D02*
X20423000Y-9374375D01*
X9405750Y-3484375D02*
X9580750Y-3659375D01*
X9580750Y-3484375D02*
X9405750Y-3659375D01*
X10421750Y-3484375D02*
X10596750Y-3659375D01*
X10596750Y-3484375D02*
X10421750Y-3659375D01*
X14644500Y-7294375D02*
X14819500Y-7469375D01*
X14819500Y-7294375D02*
X14644500Y-7469375D01*
X15660500Y-7294375D02*
X15835500Y-7469375D01*
X15835500Y-7294375D02*
X15660500Y-7469375D01*
X20835750Y-11104375D02*
X21010750Y-11279375D01*
X21010750Y-11104375D02*
X20835750Y-11279375D01*
X21851750Y-11104375D02*
X22026750Y-11279375D01*
X22026750Y-11104375D02*
X21851750Y-11279375D01*
X28455750Y-5389375D02*
X28630750Y-5564375D01*
X28630750Y-5389375D02*
X28455750Y-5564375D01*
X29471750Y-5389375D02*
X29646750Y-5564375D01*
X29646750Y-5389375D02*
X29471750Y-5564375D01*
X17978250Y-5389375D02*
X18153250Y-5564375D01*
X18153250Y-5389375D02*
X17978250Y-5564375D01*
X18994250Y-5389375D02*
X19169250Y-5564375D01*
X19169250Y-5389375D02*
X18994250Y-5564375D01*
X21312000Y-9199375D02*
X21487000Y-9374375D01*
X21487000Y-9199375D02*
X21312000Y-9374375D01*
X22328000Y-9199375D02*
X22503000Y-9374375D01*
X22503000Y-9199375D02*
X22328000Y-9374375D01*
X4643254Y-11104384D02*
X4818254Y-11279384D01*
X4818254Y-11104384D02*
X4643254Y-11279384D01*
X5659254Y-11104384D02*
X5834254Y-11279384D01*
X5834254Y-11104384D02*
X5659254Y-11279384D01*
X7500757Y-9199383D02*
X7675757Y-9374383D01*
X7675757Y-9199383D02*
X7500757Y-9374383D01*
X8516757Y-9199383D02*
X8691757Y-9374383D01*
X8691757Y-9199383D02*
X8516757Y-9374383D01*
X22740750Y-11104375D02*
X22915750Y-11279375D01*
X22915750Y-11104375D02*
X22740750Y-11279375D01*
X23756750Y-11104375D02*
X23931750Y-11279375D01*
X23931750Y-11104375D02*
X23756750Y-11279375D01*
X16073250Y-5389375D02*
X16248250Y-5564375D01*
X16248250Y-5389375D02*
X16073250Y-5564375D01*
X17089250Y-5389375D02*
X17264250Y-5564375D01*
X17264250Y-5389375D02*
X17089250Y-5564375D01*
X13692000Y-9199375D02*
X13867000Y-9374375D01*
X13867000Y-9199375D02*
X13692000Y-9374375D01*
X14708000Y-9199375D02*
X14883000Y-9374375D01*
X14883000Y-9199375D02*
X14708000Y-9374375D01*
X17502000Y-9199375D02*
X17677000Y-9374375D01*
X17677000Y-9199375D02*
X17502000Y-9374375D01*
X18518000Y-9199375D02*
X18693000Y-9374375D01*
X18693000Y-9199375D02*
X18518000Y-9374375D01*
X6548250Y-11104375D02*
X6723250Y-11279375D01*
X6723250Y-11104375D02*
X6548250Y-11279375D01*
X7564250Y-11104375D02*
X7739250Y-11279375D01*
X7739250Y-11104375D02*
X7564250Y-11279375D01*
X12025136Y-11104384D02*
X12200136Y-11279384D01*
X12200136Y-11104384D02*
X12025136Y-11279384D01*
X13041136Y-11104384D02*
X13216136Y-11279384D01*
X13216136Y-11104384D02*
X13041136Y-11279384D01*
X6072000Y-9199375D02*
X6247000Y-9374375D01*
X6247000Y-9199375D02*
X6072000Y-9374375D01*
X7088000Y-9199375D02*
X7263000Y-9374375D01*
X7263000Y-9199375D02*
X7088000Y-9374375D01*
X28455750Y-9199375D02*
X28630750Y-9374375D01*
X28630750Y-9199375D02*
X28455750Y-9374375D01*
X29471750Y-9199375D02*
X29646750Y-9374375D01*
X29646750Y-9199375D02*
X29471750Y-9374375D01*
X9167666Y-11104422D02*
X9342666Y-11279422D01*
X9342666Y-11104422D02*
X9167666Y-11279422D01*
X10183666Y-11104422D02*
X10358666Y-11279422D01*
X10358666Y-11104422D02*
X10183666Y-11279422D01*
X13215762Y-9199383D02*
X13390762Y-9374383D01*
X13390762Y-9199383D02*
X13215762Y-9374383D01*
X14231762Y-9199383D02*
X14406762Y-9374383D01*
X14406762Y-9199383D02*
X14231762Y-9374383D01*
X4881375Y-11104375D02*
X5056375Y-11279375D01*
X5056375Y-11104375D02*
X4881375Y-11279375D01*
X5897375Y-11104375D02*
X6072375Y-11279375D01*
X6072375Y-11104375D02*
X5897375Y-11279375D01*
X26074500Y-5389375D02*
X26249500Y-5564375D01*
X26249500Y-5389375D02*
X26074500Y-5564375D01*
X27090500Y-5389375D02*
X27265500Y-5564375D01*
X27265500Y-5389375D02*
X27090500Y-5564375D01*
X20359500Y-7294375D02*
X20534500Y-7469375D01*
X20534500Y-7294375D02*
X20359500Y-7469375D01*
X21375500Y-7294375D02*
X21550500Y-7469375D01*
X21550500Y-7294375D02*
X21375500Y-7469375D01*
X24169521Y-7294381D02*
X24344521Y-7469381D01*
X24344521Y-7294381D02*
X24169521Y-7469381D01*
X25185521Y-7294381D02*
X25360521Y-7469381D01*
X25360521Y-7294381D02*
X25185521Y-7469381D01*
X24645750Y-3484375D02*
X24820750Y-3659375D01*
X24820750Y-3484375D02*
X24645750Y-3659375D01*
X25661750Y-3484375D02*
X25836750Y-3659375D01*
X25836750Y-3484375D02*
X25661750Y-3659375D01*
X595125Y-7294375D02*
X770125Y-7469375D01*
X770125Y-7294375D02*
X595125Y-7469375D01*
X1611125Y-7294375D02*
X1786125Y-7469375D01*
X1786125Y-7294375D02*
X1611125Y-7469375D01*
X8929500Y-11104375D02*
X9104500Y-11279375D01*
X9104500Y-11104375D02*
X8929500Y-11279375D01*
X9945500Y-11104375D02*
X10120500Y-11279375D01*
X10120500Y-11104375D02*
X9945500Y-11279375D01*
X3214500Y-7294375D02*
X3389500Y-7469375D01*
X3389500Y-7294375D02*
X3214500Y-7469375D01*
X4230500Y-7294375D02*
X4405500Y-7469375D01*
X4405500Y-7294375D02*
X4230500Y-7469375D01*
X18692625Y-11104375D02*
X18867625Y-11279375D01*
X18867625Y-11104375D02*
X18692625Y-11279375D01*
X19708625Y-11104375D02*
X19883625Y-11279375D01*
X19883625Y-11104375D02*
X19708625Y-11279375D01*
X5595750Y-3484375D02*
X5770750Y-3659375D01*
X5770750Y-3484375D02*
X5595750Y-3659375D01*
X6611750Y-3484375D02*
X6786750Y-3659375D01*
X6786750Y-3484375D02*
X6611750Y-3659375D01*
X14406438Y-11104422D02*
X14581438Y-11279422D01*
X14581438Y-11104422D02*
X14406438Y-11279422D01*
X15422438Y-11104422D02*
X15597438Y-11279422D01*
X15597438Y-11104422D02*
X15422438Y-11279422D01*
X18930766Y-9199383D02*
X19105766Y-9374383D01*
X19105766Y-9199383D02*
X18930766Y-9374383D01*
X19946766Y-9199383D02*
X20121766Y-9374383D01*
X20121766Y-9199383D02*
X19946766Y-9374383D01*
X22740750Y-3484375D02*
X22915750Y-3659375D01*
X22915750Y-3484375D02*
X22740750Y-3659375D01*
X23756750Y-3484375D02*
X23931750Y-3659375D01*
X23931750Y-3484375D02*
X23756750Y-3659375D01*
X2500125Y-11104375D02*
X2675125Y-11279375D01*
X2675125Y-11104375D02*
X2500125Y-11279375D01*
X3516125Y-11104375D02*
X3691125Y-11279375D01*
X3691125Y-11104375D02*
X3516125Y-11279375D01*
X5119505Y-11104384D02*
X5294505Y-11279384D01*
X5294505Y-11104384D02*
X5119505Y-11279384D01*
X6135505Y-11104384D02*
X6310505Y-11279384D01*
X6310505Y-11104384D02*
X6135505Y-11279384D01*
X11787000Y-9199375D02*
X11962000Y-9374375D01*
X11962000Y-9199375D02*
X11787000Y-9374375D01*
X12803000Y-9199375D02*
X12978000Y-9374375D01*
X12978000Y-9199375D02*
X12803000Y-9374375D01*
X9405758Y-9199383D02*
X9580758Y-9374383D01*
X9580758Y-9199383D02*
X9405758Y-9374383D01*
X10421758Y-9199383D02*
X10596758Y-9374383D01*
X10596758Y-9199383D02*
X10421758Y-9374383D01*
X118875Y-11104375D02*
X293875Y-11279375D01*
X293875Y-11104375D02*
X118875Y-11279375D01*
X1134875Y-11104375D02*
X1309875Y-11279375D01*
X1309875Y-11104375D02*
X1134875Y-11279375D01*
X1785750Y-3484375D02*
X1960750Y-3659375D01*
X1960750Y-3484375D02*
X1785750Y-3659375D01*
X2801750Y-3484375D02*
X2976750Y-3659375D01*
X2976750Y-3484375D02*
X2801750Y-3659375D01*
X12263250Y-5389375D02*
X12438250Y-5564375D01*
X12438250Y-5389375D02*
X12263250Y-5564375D01*
X13279250Y-5389375D02*
X13454250Y-5564375D01*
X13454250Y-5389375D02*
X13279250Y-5564375D01*
X16549500Y-7294375D02*
X16724500Y-7469375D01*
X16724500Y-7294375D02*
X16549500Y-7469375D01*
X17565500Y-7294375D02*
X17740500Y-7469375D01*
X17740500Y-7294375D02*
X17565500Y-7469375D01*
X10834500Y-7294375D02*
X11009500Y-7469375D01*
X11009500Y-7294375D02*
X10834500Y-7469375D01*
X11850500Y-7294375D02*
X12025500Y-7469375D01*
X12025500Y-7294375D02*
X11850500Y-7469375D01*
X14168250Y-5389375D02*
X14343250Y-5564375D01*
X14343250Y-5389375D02*
X14168250Y-5564375D01*
X15184250Y-5389375D02*
X15359250Y-5564375D01*
X15359250Y-5389375D02*
X15184250Y-5564375D01*
X3690754Y-9199383D02*
X3865754Y-9374383D01*
X3865754Y-9199383D02*
X3690754Y-9374383D01*
X4706754Y-9199383D02*
X4881754Y-9374383D01*
X4881754Y-9199383D02*
X4706754Y-9374383D01*
X23684250Y-5389375D02*
X23859250Y-5564375D01*
X23859250Y-5389375D02*
X23684250Y-5564375D01*
X24700250Y-5389375D02*
X24875250Y-5564375D01*
X24875250Y-5389375D02*
X24700250Y-5564375D01*
X14644500Y-11104375D02*
X14819500Y-11279375D01*
X14819500Y-11104375D02*
X14644500Y-11279375D01*
X15660500Y-11104375D02*
X15835500Y-11279375D01*
X15835500Y-11104375D02*
X15660500Y-11279375D01*
X17025750Y-11104375D02*
X17200750Y-11279375D01*
X17200750Y-11104375D02*
X17025750Y-11279375D01*
X18041750Y-11104375D02*
X18216750Y-11279375D01*
X18216750Y-11104375D02*
X18041750Y-11279375D01*
X18930766Y-11104384D02*
X19105766Y-11279384D01*
X19105766Y-11104384D02*
X18930766Y-11279384D01*
X19946766Y-11104384D02*
X20121766Y-11279384D01*
X20121766Y-11104384D02*
X19946766Y-11279384D01*
X8453250Y-5389375D02*
X8628250Y-5564375D01*
X8628250Y-5389375D02*
X8453250Y-5564375D01*
X9469250Y-5389375D02*
X9644250Y-5564375D01*
X9644250Y-5389375D02*
X9469250Y-5564375D01*
X28455750Y-11104375D02*
X28630750Y-11279375D01*
X28630750Y-11104375D02*
X28455750Y-11279375D01*
X29471750Y-11104375D02*
X29646750Y-11279375D01*
X29646750Y-11104375D02*
X29471750Y-11279375D01*
X15120763Y-9199383D02*
X15295763Y-9374383D01*
X15295763Y-9199383D02*
X15120763Y-9374383D01*
X16136763Y-9199383D02*
X16311763Y-9374383D01*
X16311763Y-9199383D02*
X16136763Y-9374383D01*
X18930750Y-3484375D02*
X19105750Y-3659375D01*
X19105750Y-3484375D02*
X18930750Y-3659375D01*
X19946750Y-3484375D02*
X20121750Y-3659375D01*
X20121750Y-3484375D02*
X19946750Y-3659375D01*
X18454500Y-7294375D02*
X18629500Y-7469375D01*
X18629500Y-7294375D02*
X18454500Y-7469375D01*
X19470500Y-7294375D02*
X19645500Y-7469375D01*
X19645500Y-7294375D02*
X19470500Y-7469375D01*
X13487461Y-11890422D02*
G75*
G03*
X13487461Y-11890422I-152400J0D01*
G01*
X15868711Y-11890422D02*
G75*
G03*
X15868711Y-11890422I-152400J0D01*
G01*
X390526Y-8588383D02*
G75*
G03*
X390526Y-8588383I-152400J0D01*
G01*
X2771776Y-8588383D02*
G75*
G03*
X2771776Y-8588383I-152400J0D01*
G01*
X7773046Y-11890384D02*
G75*
G03*
X7773046Y-11890384I-152400J0D01*
G01*
X17773026Y-11890384D02*
G75*
G03*
X17773026Y-11890384I-152400J0D01*
G01*
X8724941Y-11890422D02*
G75*
G03*
X8724941Y-11890422I-152400J0D01*
G01*
X11106191Y-11890422D02*
G75*
G03*
X11106191Y-11890422I-152400J0D01*
G01*
X7772400Y-11890375D02*
G75*
G03*
X7772400Y-11890375I-152400J0D01*
G01*
X11582400Y-11890375D02*
G75*
G03*
X11582400Y-11890375I-152400J0D01*
G01*
X13963713Y-11890422D02*
G75*
G03*
X13963713Y-11890422I-152400J0D01*
G01*
X16344963Y-11890422D02*
G75*
G03*
X16344963Y-11890422I-152400J0D01*
G01*
X13487400Y-11890375D02*
G75*
G03*
X13487400Y-11890375I-152400J0D01*
G01*
X17297400Y-11890375D02*
G75*
G03*
X17297400Y-11890375I-152400J0D01*
G01*
X25155525Y-2873375D02*
G75*
G03*
X25155525Y-2873375I-152400J0D01*
G01*
X27536775Y-2873375D02*
G75*
G03*
X27536775Y-2873375I-152400J0D01*
G01*
X24917400Y-6683375D02*
G75*
G03*
X24917400Y-6683375I-152400J0D01*
G01*
X27298650Y-6683375D02*
G75*
G03*
X27298650Y-6683375I-152400J0D01*
G01*
X9201193Y-11890422D02*
G75*
G03*
X9201193Y-11890422I-152400J0D01*
G01*
X11582443Y-11890422D02*
G75*
G03*
X11582443Y-11890422I-152400J0D01*
G01*
X27759048Y-5235580D02*
G75*
G03*
X27759048Y-5235580I-152400J0D01*
G01*
X27759048Y-7623180D02*
G75*
G03*
X27759048Y-7623180I-152400J0D01*
G01*
X628650Y-8588375D02*
G75*
G03*
X628650Y-8588375I-152400J0D01*
G01*
X3009900Y-8588375D02*
G75*
G03*
X3009900Y-8588375I-152400J0D01*
G01*
X20478750Y-5277485D02*
X20478750Y-5676265D01*
X20279360Y-5476875D02*
X20678140Y-5476875D01*
X7620000Y-7182485D02*
X7620000Y-7581265D01*
X7420610Y-7381875D02*
X7819390Y-7381875D01*
X27146250Y-10992485D02*
X27146250Y-11391265D01*
X26946860Y-11191875D02*
X27345640Y-11191875D01*
X15716250Y-3372485D02*
X15716250Y-3771265D01*
X15516860Y-3571875D02*
X15915640Y-3571875D01*
X26082648Y-5036190D02*
X26082648Y-5434970D01*
X25883258Y-5235580D02*
X26282038Y-5235580D01*
X26082648Y-7423790D02*
X26082648Y-7822570D01*
X25883258Y-7623180D02*
X26282038Y-7623180D01*
X26908148Y-6229990D02*
X26908148Y-6628770D01*
X26708758Y-6429380D02*
X27107538Y-6429380D01*
X476250Y-3372485D02*
X476250Y-3771265D01*
X276860Y-3571875D02*
X675640Y-3571875D01*
X4286250Y-3372485D02*
X4286250Y-3771265D01*
X4086860Y-3571875D02*
X4485640Y-3571875D01*
X4762500Y-9087485D02*
X4762500Y-9486265D01*
X4563110Y-9286875D02*
X4961890Y-9286875D01*
X22383750Y-5277485D02*
X22383750Y-5676265D01*
X22184360Y-5476875D02*
X22583140Y-5476875D01*
X21193143Y-10992494D02*
X21193143Y-11391274D01*
X20993753Y-11191884D02*
X21392533Y-11191884D01*
X3333750Y-5277485D02*
X3333750Y-5676265D01*
X3134360Y-5476875D02*
X3533140Y-5476875D01*
X10953750Y-5277485D02*
X10953750Y-5676265D01*
X10754360Y-5476875D02*
X11153140Y-5476875D01*
X476250Y-9912985D02*
X476250Y-10311765D01*
X276860Y-10112375D02*
X675640Y-10112375D01*
X1666875Y-9087485D02*
X1666875Y-9486265D01*
X1467485Y-9286875D02*
X1866265Y-9286875D01*
X2857500Y-9912985D02*
X2857500Y-10311765D01*
X2658110Y-10112375D02*
X3056890Y-10112375D01*
X23336270Y-9087493D02*
X23336270Y-9486273D01*
X23136880Y-9286883D02*
X23535660Y-9286883D01*
X13335061Y-10167032D02*
X13335061Y-10565812D01*
X13135671Y-10366422D02*
X13534451Y-10366422D01*
X14525686Y-10992532D02*
X14525686Y-11391312D01*
X14326296Y-11191922D02*
X14725076Y-11191922D01*
X15716311Y-10167032D02*
X15716311Y-10565812D01*
X15516921Y-10366422D02*
X15915701Y-10366422D01*
X238126Y-9912993D02*
X238126Y-10311773D01*
X38736Y-10112383D02*
X437516Y-10112383D01*
X1428751Y-9087493D02*
X1428751Y-9486273D01*
X1229361Y-9286883D02*
X1628141Y-9286883D01*
X2619376Y-9912993D02*
X2619376Y-10311773D01*
X2419986Y-10112383D02*
X2818766Y-10112383D01*
X20002500Y-9087485D02*
X20002500Y-9486265D01*
X19803110Y-9286875D02*
X20201890Y-9286875D01*
X10001250Y-3372485D02*
X10001250Y-3771265D01*
X9801860Y-3571875D02*
X10200640Y-3571875D01*
X15240000Y-7182485D02*
X15240000Y-7581265D01*
X15040610Y-7381875D02*
X15439390Y-7381875D01*
X21431250Y-10992485D02*
X21431250Y-11391265D01*
X21231860Y-11191875D02*
X21630640Y-11191875D01*
X29051250Y-5277485D02*
X29051250Y-5676265D01*
X28851860Y-5476875D02*
X29250640Y-5476875D01*
X18573750Y-5277485D02*
X18573750Y-5676265D01*
X18374360Y-5476875D02*
X18773140Y-5476875D01*
X21907500Y-9087485D02*
X21907500Y-9486265D01*
X21708110Y-9286875D02*
X22106890Y-9286875D01*
X5238754Y-10992494D02*
X5238754Y-11391274D01*
X5039364Y-11191884D02*
X5438144Y-11191884D01*
X8096257Y-9087493D02*
X8096257Y-9486273D01*
X7896867Y-9286883D02*
X8295647Y-9286883D01*
X23336250Y-10992485D02*
X23336250Y-11391265D01*
X23136860Y-11191875D02*
X23535640Y-11191875D01*
X16668750Y-5277485D02*
X16668750Y-5676265D01*
X16469360Y-5476875D02*
X16868140Y-5476875D01*
X14287500Y-9087485D02*
X14287500Y-9486265D01*
X14088110Y-9286875D02*
X14486890Y-9286875D01*
X18097500Y-9087485D02*
X18097500Y-9486265D01*
X17898110Y-9286875D02*
X18296890Y-9286875D01*
X7143750Y-10992485D02*
X7143750Y-11391265D01*
X6944360Y-11191875D02*
X7343140Y-11191875D01*
X7620646Y-10166994D02*
X7620646Y-10565774D01*
X7421256Y-10366384D02*
X7820036Y-10366384D01*
X12620636Y-10992494D02*
X12620636Y-11391274D01*
X12421246Y-11191884D02*
X12820026Y-11191884D01*
X17620626Y-10166994D02*
X17620626Y-10565774D01*
X17421236Y-10366384D02*
X17820016Y-10366384D01*
X6667500Y-9087485D02*
X6667500Y-9486265D01*
X6468110Y-9286875D02*
X6866890Y-9286875D01*
X29051250Y-9087485D02*
X29051250Y-9486265D01*
X28851860Y-9286875D02*
X29250640Y-9286875D01*
X8572541Y-10167032D02*
X8572541Y-10565812D01*
X8373151Y-10366422D02*
X8771931Y-10366422D01*
X9763166Y-10992532D02*
X9763166Y-11391312D01*
X9563776Y-11191922D02*
X9962556Y-11191922D01*
X10953791Y-10167032D02*
X10953791Y-10565812D01*
X10754401Y-10366422D02*
X11153181Y-10366422D01*
X13811262Y-9087493D02*
X13811262Y-9486273D01*
X13611872Y-9286883D02*
X14010652Y-9286883D01*
X5476875Y-10992485D02*
X5476875Y-11391265D01*
X5277485Y-11191875D02*
X5676265Y-11191875D01*
X26670000Y-5277485D02*
X26670000Y-5676265D01*
X26470610Y-5476875D02*
X26869390Y-5476875D01*
X20955000Y-7182485D02*
X20955000Y-7581265D01*
X20755610Y-7381875D02*
X21154390Y-7381875D01*
X24765021Y-7182491D02*
X24765021Y-7581271D01*
X24565631Y-7381881D02*
X24964411Y-7381881D01*
X25241250Y-3372485D02*
X25241250Y-3771265D01*
X25041860Y-3571875D02*
X25440640Y-3571875D01*
X1190625Y-7182485D02*
X1190625Y-7581265D01*
X991235Y-7381875D02*
X1390015Y-7381875D01*
X7620000Y-10166985D02*
X7620000Y-10565765D01*
X7420610Y-10366375D02*
X7819390Y-10366375D01*
X9525000Y-10992485D02*
X9525000Y-11391265D01*
X9325610Y-11191875D02*
X9724390Y-11191875D01*
X11430000Y-10166985D02*
X11430000Y-10565765D01*
X11230610Y-10366375D02*
X11629390Y-10366375D01*
X3810000Y-7182485D02*
X3810000Y-7581265D01*
X3610610Y-7381875D02*
X4009390Y-7381875D01*
X19288125Y-10992485D02*
X19288125Y-11391265D01*
X19088735Y-11191875D02*
X19487515Y-11191875D01*
X6191250Y-3372485D02*
X6191250Y-3771265D01*
X5991860Y-3571875D02*
X6390640Y-3571875D01*
X13811313Y-10167032D02*
X13811313Y-10565812D01*
X13611923Y-10366422D02*
X14010703Y-10366422D01*
X15001938Y-10992532D02*
X15001938Y-11391312D01*
X14802548Y-11191922D02*
X15201328Y-11191922D01*
X16192563Y-10167032D02*
X16192563Y-10565812D01*
X15993173Y-10366422D02*
X16391953Y-10366422D01*
X19526266Y-9087493D02*
X19526266Y-9486273D01*
X19326876Y-9286883D02*
X19725656Y-9286883D01*
X23336250Y-3372485D02*
X23336250Y-3771265D01*
X23136860Y-3571875D02*
X23535640Y-3571875D01*
X3095625Y-10992485D02*
X3095625Y-11391265D01*
X2896235Y-11191875D02*
X3295015Y-11191875D01*
X5715005Y-10992494D02*
X5715005Y-11391274D01*
X5515615Y-11191884D02*
X5914395Y-11191884D01*
X12382500Y-9087485D02*
X12382500Y-9486265D01*
X12183110Y-9286875D02*
X12581890Y-9286875D01*
X10001258Y-9087493D02*
X10001258Y-9486273D01*
X9801868Y-9286883D02*
X10200648Y-9286883D01*
X714375Y-10992485D02*
X714375Y-11391265D01*
X514985Y-11191875D02*
X913765Y-11191875D01*
X2381250Y-3372485D02*
X2381250Y-3771265D01*
X2181860Y-3571875D02*
X2580640Y-3571875D01*
X12858750Y-5277485D02*
X12858750Y-5676265D01*
X12659360Y-5476875D02*
X13058140Y-5476875D01*
X17145000Y-7182485D02*
X17145000Y-7581265D01*
X16945610Y-7381875D02*
X17344390Y-7381875D01*
X11430000Y-7182485D02*
X11430000Y-7581265D01*
X11230610Y-7381875D02*
X11629390Y-7381875D01*
X14763750Y-5277485D02*
X14763750Y-5676265D01*
X14564360Y-5476875D02*
X14963140Y-5476875D01*
X4286254Y-9087493D02*
X4286254Y-9486273D01*
X4086864Y-9286883D02*
X4485644Y-9286883D01*
X24279750Y-5277485D02*
X24279750Y-5676265D01*
X24080360Y-5476875D02*
X24479140Y-5476875D01*
X13335000Y-10166985D02*
X13335000Y-10565765D01*
X13135610Y-10366375D02*
X13534390Y-10366375D01*
X15240000Y-10992485D02*
X15240000Y-11391265D01*
X15040610Y-11191875D02*
X15439390Y-11191875D01*
X17145000Y-10166985D02*
X17145000Y-10565765D01*
X16945610Y-10366375D02*
X17344390Y-10366375D01*
X17621250Y-10992485D02*
X17621250Y-11391265D01*
X17421860Y-11191875D02*
X17820640Y-11191875D01*
X19526266Y-10992494D02*
X19526266Y-11391274D01*
X19326876Y-11191884D02*
X19725656Y-11191884D01*
X9048750Y-5277485D02*
X9048750Y-5676265D01*
X8849360Y-5476875D02*
X9248140Y-5476875D01*
X29051250Y-10992485D02*
X29051250Y-11391265D01*
X28851860Y-11191875D02*
X29250640Y-11191875D01*
X15716263Y-9087493D02*
X15716263Y-9486273D01*
X15516873Y-9286883D02*
X15915653Y-9286883D01*
X19526250Y-3372485D02*
X19526250Y-3771265D01*
X19326860Y-3571875D02*
X19725640Y-3571875D01*
X19050000Y-7182485D02*
X19050000Y-7581265D01*
X18850610Y-7381875D02*
X19249390Y-7381875D01*
X11906250Y-3372485D02*
X11906250Y-3771265D01*
X11706860Y-3571875D02*
X12105640Y-3571875D01*
X7143750Y-5277485D02*
X7143750Y-5676265D01*
X6944360Y-5476875D02*
X7343140Y-5476875D01*
X27146250Y-9087485D02*
X27146250Y-9486265D01*
X26946860Y-9286875D02*
X27345640Y-9286875D01*
X10477500Y-9087485D02*
X10477500Y-9486265D01*
X10278110Y-9286875D02*
X10676890Y-9286875D01*
X29051250Y-7182485D02*
X29051250Y-7581265D01*
X28851860Y-7381875D02*
X29250640Y-7381875D01*
X25241271Y-9087493D02*
X25241271Y-9486273D01*
X25041881Y-9286883D02*
X25440661Y-9286883D01*
X25003125Y-4197985D02*
X25003125Y-4596765D01*
X24803735Y-4397375D02*
X25202515Y-4397375D01*
X26193750Y-3372485D02*
X26193750Y-3771265D01*
X25994360Y-3571875D02*
X26393140Y-3571875D01*
X27384375Y-4197985D02*
X27384375Y-4596765D01*
X27184985Y-4397375D02*
X27583765Y-4397375D01*
X17621250Y-3372485D02*
X17621250Y-3771265D01*
X17421860Y-3571875D02*
X17820640Y-3571875D01*
X29051250Y-3372485D02*
X29051250Y-3771265D01*
X28851860Y-3571875D02*
X29250640Y-3571875D01*
X5238750Y-5277485D02*
X5238750Y-5676265D01*
X5039360Y-5476875D02*
X5438140Y-5476875D01*
X21431250Y-3372485D02*
X21431250Y-3771265D01*
X21231860Y-3571875D02*
X21630640Y-3571875D01*
X18811891Y-10992494D02*
X18811891Y-11391274D01*
X18612501Y-11191884D02*
X19011281Y-11191884D01*
X8572500Y-9087485D02*
X8572500Y-9486265D01*
X8373110Y-9286875D02*
X8771890Y-9286875D01*
X13811250Y-3372485D02*
X13811250Y-3771265D01*
X13611860Y-3571875D02*
X14010640Y-3571875D01*
X21431268Y-9087493D02*
X21431268Y-9486273D01*
X21231878Y-9286883D02*
X21630658Y-9286883D01*
X24765000Y-8007985D02*
X24765000Y-8406765D01*
X24565610Y-8207375D02*
X24964390Y-8207375D01*
X25955625Y-7182485D02*
X25955625Y-7581265D01*
X25756235Y-7381875D02*
X26155015Y-7381875D01*
X27146250Y-8007985D02*
X27146250Y-8406765D01*
X26946860Y-8207375D02*
X27345640Y-8207375D01*
X24526978Y-9087524D02*
X24526978Y-9486304D01*
X24327588Y-9286914D02*
X24726368Y-9286914D01*
X9048793Y-10167032D02*
X9048793Y-10565812D01*
X8849403Y-10366422D02*
X9248183Y-10366422D01*
X10239418Y-10992532D02*
X10239418Y-11391312D01*
X10040028Y-11191922D02*
X10438808Y-11191922D01*
X11430043Y-10167032D02*
X11430043Y-10565812D01*
X11230653Y-10366422D02*
X11629433Y-10366422D01*
X9525000Y-7182485D02*
X9525000Y-7581265D01*
X9325610Y-7381875D02*
X9724390Y-7381875D01*
X25241250Y-10992485D02*
X25241250Y-11391265D01*
X25041860Y-11191875D02*
X25440640Y-11191875D01*
X13335000Y-7182485D02*
X13335000Y-7581265D01*
X13135610Y-7381875D02*
X13534390Y-7381875D01*
X11906260Y-9087493D02*
X11906260Y-9486273D01*
X11706870Y-9286883D02*
X12105650Y-9286883D01*
X952500Y-5277485D02*
X952500Y-5676265D01*
X753110Y-5476875D02*
X1151890Y-5476875D01*
X16192500Y-9087485D02*
X16192500Y-9486265D01*
X15993110Y-9286875D02*
X16391890Y-9286875D01*
X27146250Y-3372485D02*
X27146250Y-3771265D01*
X26946860Y-3571875D02*
X27345640Y-3571875D01*
X6191255Y-9087493D02*
X6191255Y-9486273D01*
X5991865Y-9286883D02*
X6390645Y-9286883D01*
X22860000Y-7182485D02*
X22860000Y-7581265D01*
X22660610Y-7381875D02*
X23059390Y-7381875D01*
X5715000Y-7182485D02*
X5715000Y-7581265D01*
X5515610Y-7381875D02*
X5914390Y-7381875D01*
X17621265Y-9087493D02*
X17621265Y-9486273D01*
X17421875Y-9286883D02*
X17820655Y-9286883D01*
X8096250Y-3372485D02*
X8096250Y-3771265D01*
X7896860Y-3571875D02*
X8295640Y-3571875D01*
D12*
X-132791Y-12612599D02*
X-132791Y-12312599D01*
X-61362Y-12312599D01*
X-18505Y-12326885D01*
X10067Y-12355457D01*
X24352Y-12384028D01*
X38638Y-12441171D01*
X38638Y-12484028D01*
X24352Y-12541171D01*
X10067Y-12569742D01*
X-18505Y-12598314D01*
X-61362Y-12612599D01*
X-132791Y-12612599D01*
X167209Y-12612599D02*
X167209Y-12412599D01*
X167209Y-12469742D02*
X181495Y-12441171D01*
X195781Y-12426885D01*
X224352Y-12412599D01*
X252924Y-12412599D01*
X352924Y-12612599D02*
X352924Y-12412599D01*
X352924Y-12312599D02*
X338638Y-12326885D01*
X352924Y-12341171D01*
X367209Y-12326885D01*
X352924Y-12312599D01*
X352924Y-12341171D01*
X538638Y-12612599D02*
X510066Y-12598314D01*
X495781Y-12569742D01*
X495781Y-12312599D01*
X695781Y-12612599D02*
X667209Y-12598314D01*
X652924Y-12569742D01*
X652924Y-12312599D01*
X1038638Y-12612599D02*
X1038638Y-12312599D01*
X1138638Y-12526885D01*
X1238638Y-12312599D01*
X1238638Y-12612599D01*
X1510066Y-12612599D02*
X1510066Y-12455457D01*
X1495781Y-12426885D01*
X1467209Y-12412599D01*
X1410066Y-12412599D01*
X1381495Y-12426885D01*
X1510066Y-12598314D02*
X1481495Y-12612599D01*
X1410066Y-12612599D01*
X1381495Y-12598314D01*
X1367209Y-12569742D01*
X1367209Y-12541171D01*
X1381495Y-12512599D01*
X1410066Y-12498314D01*
X1481495Y-12498314D01*
X1510066Y-12484028D01*
X1652924Y-12412599D02*
X1652924Y-12712599D01*
X1652924Y-12426885D02*
X1681495Y-12412599D01*
X1738638Y-12412599D01*
X1767209Y-12426885D01*
X1781495Y-12441171D01*
X1795781Y-12469742D01*
X1795781Y-12555457D01*
X1781495Y-12584028D01*
X1767209Y-12598314D01*
X1738638Y-12612599D01*
X1681495Y-12612599D01*
X1652924Y-12598314D01*
X1924352Y-12584028D02*
X1938638Y-12598314D01*
X1924352Y-12612599D01*
X1910066Y-12598314D01*
X1924352Y-12584028D01*
X1924352Y-12612599D01*
X1924352Y-12426885D02*
X1938638Y-12441171D01*
X1924352Y-12455457D01*
X1910066Y-12441171D01*
X1924352Y-12426885D01*
X1924352Y-12455457D01*
X-594219Y-13019385D02*
X-419219Y-13194385D01*
X-419219Y-13019385D02*
X-594219Y-13194385D01*
X24352Y-13242599D02*
X-147076Y-13242599D01*
X-61362Y-13242599D02*
X-61362Y-12942599D01*
X-89933Y-12985457D01*
X-118505Y-13014028D01*
X-147076Y-13028314D01*
X152924Y-13214028D02*
X167209Y-13228314D01*
X152924Y-13242599D01*
X138638Y-13228314D01*
X152924Y-13214028D01*
X152924Y-13242599D01*
X267209Y-12942599D02*
X467209Y-12942599D01*
X338638Y-13242599D01*
X724352Y-12942599D02*
X581495Y-12942599D01*
X567209Y-13085457D01*
X581495Y-13071171D01*
X610067Y-13056885D01*
X681495Y-13056885D01*
X710066Y-13071171D01*
X724352Y-13085457D01*
X738638Y-13114028D01*
X738638Y-13185457D01*
X724352Y-13214028D01*
X710066Y-13228314D01*
X681495Y-13242599D01*
X610067Y-13242599D01*
X581495Y-13228314D01*
X567209Y-13214028D01*
X867209Y-13242599D02*
X867209Y-13042599D01*
X867209Y-13071171D02*
X881495Y-13056885D01*
X910066Y-13042599D01*
X952924Y-13042599D01*
X981495Y-13056885D01*
X995781Y-13085457D01*
X995781Y-13242599D01*
X995781Y-13085457D02*
X1010066Y-13056885D01*
X1038638Y-13042599D01*
X1081495Y-13042599D01*
X1110067Y-13056885D01*
X1124352Y-13085457D01*
X1124352Y-13242599D01*
X1267209Y-13242599D02*
X1267209Y-13042599D01*
X1267209Y-13071171D02*
X1281495Y-13056885D01*
X1310067Y-13042599D01*
X1352924Y-13042599D01*
X1381495Y-13056885D01*
X1395781Y-13085457D01*
X1395781Y-13242599D01*
X1395781Y-13085457D02*
X1410066Y-13056885D01*
X1438638Y-13042599D01*
X1481495Y-13042599D01*
X1510066Y-13056885D01*
X1524352Y-13085457D01*
X1524352Y-13242599D01*
X2110067Y-12928314D02*
X1852924Y-13314028D01*
X2495781Y-12942599D02*
X2524352Y-12942599D01*
X2552924Y-12956885D01*
X2567209Y-12971171D01*
X2581495Y-12999742D01*
X2595781Y-13056885D01*
X2595781Y-13128314D01*
X2581495Y-13185457D01*
X2567209Y-13214028D01*
X2552924Y-13228314D01*
X2524352Y-13242599D01*
X2495781Y-13242599D01*
X2467209Y-13228314D01*
X2452924Y-13214028D01*
X2438638Y-13185457D01*
X2424352Y-13128314D01*
X2424352Y-13056885D01*
X2438638Y-12999742D01*
X2452924Y-12971171D01*
X2467209Y-12956885D01*
X2495781Y-12942599D01*
X2724352Y-13214028D02*
X2738638Y-13228314D01*
X2724352Y-13242599D01*
X2710067Y-13228314D01*
X2724352Y-13214028D01*
X2724352Y-13242599D01*
X2924352Y-12942599D02*
X2952924Y-12942599D01*
X2981495Y-12956885D01*
X2995781Y-12971171D01*
X3010066Y-12999742D01*
X3024352Y-13056885D01*
X3024352Y-13128314D01*
X3010066Y-13185457D01*
X2995781Y-13214028D01*
X2981495Y-13228314D01*
X2952924Y-13242599D01*
X2924352Y-13242599D01*
X2895781Y-13228314D01*
X2881495Y-13214028D01*
X2867209Y-13185457D01*
X2852924Y-13128314D01*
X2852924Y-13056885D01*
X2867209Y-12999742D01*
X2881495Y-12971171D01*
X2895781Y-12956885D01*
X2924352Y-12942599D01*
X3281495Y-12942599D02*
X3224352Y-12942599D01*
X3195781Y-12956885D01*
X3181495Y-12971171D01*
X3152924Y-13014028D01*
X3138638Y-13071171D01*
X3138638Y-13185457D01*
X3152924Y-13214028D01*
X3167209Y-13228314D01*
X3195781Y-13242599D01*
X3252924Y-13242599D01*
X3281495Y-13228314D01*
X3295781Y-13214028D01*
X3310066Y-13185457D01*
X3310066Y-13114028D01*
X3295781Y-13085457D01*
X3281495Y-13071171D01*
X3252924Y-13056885D01*
X3195781Y-13056885D01*
X3167209Y-13071171D01*
X3152924Y-13085457D01*
X3138638Y-13114028D01*
X3452924Y-13242599D02*
X3510066Y-13242599D01*
X3538638Y-13228314D01*
X3552924Y-13214028D01*
X3581495Y-13171171D01*
X3595781Y-13114028D01*
X3595781Y-12999742D01*
X3581495Y-12971171D01*
X3567209Y-12956885D01*
X3538638Y-12942599D01*
X3481495Y-12942599D01*
X3452924Y-12956885D01*
X3438638Y-12971171D01*
X3424352Y-12999742D01*
X3424352Y-13071171D01*
X3438638Y-13099742D01*
X3452924Y-13114028D01*
X3481495Y-13128314D01*
X3538638Y-13128314D01*
X3567209Y-13114028D01*
X3581495Y-13099742D01*
X3595781Y-13071171D01*
X3710066Y-12942599D02*
X3710066Y-12999742D01*
X3824352Y-12942599D02*
X3824352Y-12999742D01*
X4267209Y-13356885D02*
X4252924Y-13342599D01*
X4224352Y-13299742D01*
X4210067Y-13271171D01*
X4195781Y-13228314D01*
X4181495Y-13156885D01*
X4181495Y-13099742D01*
X4195781Y-13028314D01*
X4210067Y-12985457D01*
X4224352Y-12956885D01*
X4252924Y-12914028D01*
X4267209Y-12899742D01*
X4538638Y-13242599D02*
X4367209Y-13242599D01*
X4452924Y-13242599D02*
X4452924Y-12942599D01*
X4424352Y-12985457D01*
X4395781Y-13014028D01*
X4367209Y-13028314D01*
X4681495Y-13242599D02*
X4738638Y-13242599D01*
X4767209Y-13228314D01*
X4781495Y-13214028D01*
X4810067Y-13171171D01*
X4824352Y-13114028D01*
X4824352Y-12999742D01*
X4810067Y-12971171D01*
X4795781Y-12956885D01*
X4767209Y-12942599D01*
X4710067Y-12942599D01*
X4681495Y-12956885D01*
X4667209Y-12971171D01*
X4652924Y-12999742D01*
X4652924Y-13071171D01*
X4667209Y-13099742D01*
X4681495Y-13114028D01*
X4710067Y-13128314D01*
X4767209Y-13128314D01*
X4795781Y-13114028D01*
X4810067Y-13099742D01*
X4824352Y-13071171D01*
X5081495Y-12942599D02*
X5024352Y-12942599D01*
X4995781Y-12956885D01*
X4981495Y-12971171D01*
X4952924Y-13014028D01*
X4938638Y-13071171D01*
X4938638Y-13185457D01*
X4952924Y-13214028D01*
X4967209Y-13228314D01*
X4995781Y-13242599D01*
X5052924Y-13242599D01*
X5081495Y-13228314D01*
X5095781Y-13214028D01*
X5110067Y-13185457D01*
X5110067Y-13114028D01*
X5095781Y-13085457D01*
X5081495Y-13071171D01*
X5052924Y-13056885D01*
X4995781Y-13056885D01*
X4967209Y-13071171D01*
X4952924Y-13085457D01*
X4938638Y-13114028D01*
X5467209Y-13242599D02*
X5467209Y-12942599D01*
X5595781Y-13242599D02*
X5595781Y-13085457D01*
X5581495Y-13056885D01*
X5552924Y-13042599D01*
X5510067Y-13042599D01*
X5481495Y-13056885D01*
X5467209Y-13071171D01*
X5781495Y-13242599D02*
X5752924Y-13228314D01*
X5738638Y-13214028D01*
X5724352Y-13185457D01*
X5724352Y-13099742D01*
X5738638Y-13071171D01*
X5752924Y-13056885D01*
X5781495Y-13042599D01*
X5824352Y-13042599D01*
X5852924Y-13056885D01*
X5867209Y-13071171D01*
X5881495Y-13099742D01*
X5881495Y-13185457D01*
X5867209Y-13214028D01*
X5852924Y-13228314D01*
X5824352Y-13242599D01*
X5781495Y-13242599D01*
X6052924Y-13242599D02*
X6024352Y-13228314D01*
X6010066Y-13199742D01*
X6010066Y-12942599D01*
X6281495Y-13228314D02*
X6252924Y-13242599D01*
X6195781Y-13242599D01*
X6167209Y-13228314D01*
X6152924Y-13199742D01*
X6152924Y-13085457D01*
X6167209Y-13056885D01*
X6195781Y-13042599D01*
X6252924Y-13042599D01*
X6281495Y-13056885D01*
X6295781Y-13085457D01*
X6295781Y-13114028D01*
X6152924Y-13142599D01*
X6410066Y-13228314D02*
X6438638Y-13242599D01*
X6495781Y-13242599D01*
X6524352Y-13228314D01*
X6538638Y-13199742D01*
X6538638Y-13185457D01*
X6524352Y-13156885D01*
X6495781Y-13142599D01*
X6452924Y-13142599D01*
X6424352Y-13128314D01*
X6410066Y-13099742D01*
X6410066Y-13085457D01*
X6424352Y-13056885D01*
X6452924Y-13042599D01*
X6495781Y-13042599D01*
X6524352Y-13056885D01*
X6638638Y-13356885D02*
X6652924Y-13342599D01*
X6681495Y-13299742D01*
X6695781Y-13271171D01*
X6710066Y-13228314D01*
X6724352Y-13156885D01*
X6724352Y-13099742D01*
X6710066Y-13028314D01*
X6695781Y-12985457D01*
X6681495Y-12956885D01*
X6652924Y-12914028D01*
X6638638Y-12899742D01*
X7181495Y-13356885D02*
X7167209Y-13342599D01*
X7138638Y-13299742D01*
X7124352Y-13271171D01*
X7110066Y-13228314D01*
X7095781Y-13156885D01*
X7095781Y-13099742D01*
X7110066Y-13028314D01*
X7124352Y-12985457D01*
X7138638Y-12956885D01*
X7167209Y-12914028D01*
X7181495Y-12899742D01*
X7295781Y-13042599D02*
X7295781Y-13242599D01*
X7295781Y-13071171D02*
X7310066Y-13056885D01*
X7338638Y-13042599D01*
X7381495Y-13042599D01*
X7410066Y-13056885D01*
X7424352Y-13085457D01*
X7424352Y-13242599D01*
X7610066Y-13242599D02*
X7581495Y-13228314D01*
X7567209Y-13214028D01*
X7552924Y-13185457D01*
X7552924Y-13099742D01*
X7567209Y-13071171D01*
X7581495Y-13056885D01*
X7610066Y-13042599D01*
X7652924Y-13042599D01*
X7681495Y-13056885D01*
X7695781Y-13071171D01*
X7710066Y-13099742D01*
X7710066Y-13185457D01*
X7695781Y-13214028D01*
X7681495Y-13228314D01*
X7652924Y-13242599D01*
X7610066Y-13242599D01*
X7795781Y-13042599D02*
X7910066Y-13042599D01*
X7838638Y-12942599D02*
X7838638Y-13199742D01*
X7852924Y-13228314D01*
X7881495Y-13242599D01*
X7910066Y-13242599D01*
X8238638Y-13042599D02*
X8238638Y-13342599D01*
X8238638Y-13056885D02*
X8267209Y-13042599D01*
X8324352Y-13042599D01*
X8352924Y-13056885D01*
X8367209Y-13071171D01*
X8381495Y-13099742D01*
X8381495Y-13185457D01*
X8367209Y-13214028D01*
X8352924Y-13228314D01*
X8324352Y-13242599D01*
X8267209Y-13242599D01*
X8238638Y-13228314D01*
X8552924Y-13242599D02*
X8524352Y-13228314D01*
X8510067Y-13199742D01*
X8510067Y-12942599D01*
X8795781Y-13242599D02*
X8795781Y-13085457D01*
X8781495Y-13056885D01*
X8752924Y-13042599D01*
X8695781Y-13042599D01*
X8667209Y-13056885D01*
X8795781Y-13228314D02*
X8767209Y-13242599D01*
X8695781Y-13242599D01*
X8667209Y-13228314D01*
X8652924Y-13199742D01*
X8652924Y-13171171D01*
X8667209Y-13142599D01*
X8695781Y-13128314D01*
X8767209Y-13128314D01*
X8795781Y-13114028D01*
X8895781Y-13042599D02*
X9010067Y-13042599D01*
X8938638Y-12942599D02*
X8938638Y-13199742D01*
X8952924Y-13228314D01*
X8981495Y-13242599D01*
X9010067Y-13242599D01*
X9224352Y-13228314D02*
X9195781Y-13242599D01*
X9138638Y-13242599D01*
X9110067Y-13228314D01*
X9095781Y-13199742D01*
X9095781Y-13085457D01*
X9110067Y-13056885D01*
X9138638Y-13042599D01*
X9195781Y-13042599D01*
X9224352Y-13056885D01*
X9238638Y-13085457D01*
X9238638Y-13114028D01*
X9095781Y-13142599D01*
X9495781Y-13242599D02*
X9495781Y-12942599D01*
X9495781Y-13228314D02*
X9467209Y-13242599D01*
X9410067Y-13242599D01*
X9381495Y-13228314D01*
X9367209Y-13214028D01*
X9352924Y-13185457D01*
X9352924Y-13099742D01*
X9367209Y-13071171D01*
X9381495Y-13056885D01*
X9410067Y-13042599D01*
X9467209Y-13042599D01*
X9495781Y-13056885D01*
X9610067Y-13356885D02*
X9624352Y-13342599D01*
X9652924Y-13299742D01*
X9667209Y-13271171D01*
X9681495Y-13228314D01*
X9695781Y-13156885D01*
X9695781Y-13099742D01*
X9681495Y-13028314D01*
X9667209Y-12985457D01*
X9652924Y-12956885D01*
X9624352Y-12914028D01*
X9610067Y-12899742D01*
X-419219Y-13502885D02*
G75*
G03*
X-419219Y-13502885I-152400J0D01*
G01*
X-161362Y-13338599D02*
X24352Y-13338599D01*
X-75648Y-13452885D01*
X-32791Y-13452885D01*
X-4219Y-13467171D01*
X10067Y-13481457D01*
X24352Y-13510028D01*
X24352Y-13581457D01*
X10067Y-13610028D01*
X-4219Y-13624314D01*
X-32791Y-13638599D01*
X-118505Y-13638599D01*
X-147076Y-13624314D01*
X-161362Y-13610028D01*
X152924Y-13610028D02*
X167209Y-13624314D01*
X152924Y-13638599D01*
X138638Y-13624314D01*
X152924Y-13610028D01*
X152924Y-13638599D01*
X352924Y-13338599D02*
X381495Y-13338599D01*
X410066Y-13352885D01*
X424352Y-13367171D01*
X438638Y-13395742D01*
X452924Y-13452885D01*
X452924Y-13524314D01*
X438638Y-13581457D01*
X424352Y-13610028D01*
X410066Y-13624314D01*
X381495Y-13638599D01*
X352924Y-13638599D01*
X324352Y-13624314D01*
X310067Y-13610028D01*
X295781Y-13581457D01*
X281495Y-13524314D01*
X281495Y-13452885D01*
X295781Y-13395742D01*
X310067Y-13367171D01*
X324352Y-13352885D01*
X352924Y-13338599D01*
X724352Y-13338599D02*
X581495Y-13338599D01*
X567209Y-13481457D01*
X581495Y-13467171D01*
X610067Y-13452885D01*
X681495Y-13452885D01*
X710066Y-13467171D01*
X724352Y-13481457D01*
X738638Y-13510028D01*
X738638Y-13581457D01*
X724352Y-13610028D01*
X710066Y-13624314D01*
X681495Y-13638599D01*
X610067Y-13638599D01*
X581495Y-13624314D01*
X567209Y-13610028D01*
X867209Y-13638599D02*
X867209Y-13438599D01*
X867209Y-13467171D02*
X881495Y-13452885D01*
X910066Y-13438599D01*
X952924Y-13438599D01*
X981495Y-13452885D01*
X995781Y-13481457D01*
X995781Y-13638599D01*
X995781Y-13481457D02*
X1010066Y-13452885D01*
X1038638Y-13438599D01*
X1081495Y-13438599D01*
X1110067Y-13452885D01*
X1124352Y-13481457D01*
X1124352Y-13638599D01*
X1267209Y-13638599D02*
X1267209Y-13438599D01*
X1267209Y-13467171D02*
X1281495Y-13452885D01*
X1310067Y-13438599D01*
X1352924Y-13438599D01*
X1381495Y-13452885D01*
X1395781Y-13481457D01*
X1395781Y-13638599D01*
X1395781Y-13481457D02*
X1410066Y-13452885D01*
X1438638Y-13438599D01*
X1481495Y-13438599D01*
X1510066Y-13452885D01*
X1524352Y-13481457D01*
X1524352Y-13638599D01*
X2110067Y-13324314D02*
X1852924Y-13710028D01*
X2495781Y-13338599D02*
X2524352Y-13338599D01*
X2552924Y-13352885D01*
X2567209Y-13367171D01*
X2581495Y-13395742D01*
X2595781Y-13452885D01*
X2595781Y-13524314D01*
X2581495Y-13581457D01*
X2567209Y-13610028D01*
X2552924Y-13624314D01*
X2524352Y-13638599D01*
X2495781Y-13638599D01*
X2467209Y-13624314D01*
X2452924Y-13610028D01*
X2438638Y-13581457D01*
X2424352Y-13524314D01*
X2424352Y-13452885D01*
X2438638Y-13395742D01*
X2452924Y-13367171D01*
X2467209Y-13352885D01*
X2495781Y-13338599D01*
X2724352Y-13610028D02*
X2738638Y-13624314D01*
X2724352Y-13638599D01*
X2710067Y-13624314D01*
X2724352Y-13610028D01*
X2724352Y-13638599D01*
X3024352Y-13638599D02*
X2852924Y-13638599D01*
X2938638Y-13638599D02*
X2938638Y-13338599D01*
X2910066Y-13381457D01*
X2881495Y-13410028D01*
X2852924Y-13424314D01*
X3138638Y-13367171D02*
X3152924Y-13352885D01*
X3181495Y-13338599D01*
X3252924Y-13338599D01*
X3281495Y-13352885D01*
X3295781Y-13367171D01*
X3310066Y-13395742D01*
X3310066Y-13424314D01*
X3295781Y-13467171D01*
X3124352Y-13638599D01*
X3310066Y-13638599D01*
X3495781Y-13338599D02*
X3524352Y-13338599D01*
X3552924Y-13352885D01*
X3567209Y-13367171D01*
X3581495Y-13395742D01*
X3595781Y-13452885D01*
X3595781Y-13524314D01*
X3581495Y-13581457D01*
X3567209Y-13610028D01*
X3552924Y-13624314D01*
X3524352Y-13638599D01*
X3495781Y-13638599D01*
X3467209Y-13624314D01*
X3452924Y-13610028D01*
X3438638Y-13581457D01*
X3424352Y-13524314D01*
X3424352Y-13452885D01*
X3438638Y-13395742D01*
X3452924Y-13367171D01*
X3467209Y-13352885D01*
X3495781Y-13338599D01*
X3710066Y-13338599D02*
X3710066Y-13395742D01*
X3824352Y-13338599D02*
X3824352Y-13395742D01*
X4267209Y-13752885D02*
X4252924Y-13738599D01*
X4224352Y-13695742D01*
X4210067Y-13667171D01*
X4195781Y-13624314D01*
X4181495Y-13552885D01*
X4181495Y-13495742D01*
X4195781Y-13424314D01*
X4210067Y-13381457D01*
X4224352Y-13352885D01*
X4252924Y-13310028D01*
X4267209Y-13295742D01*
X4367209Y-13367171D02*
X4381495Y-13352885D01*
X4410067Y-13338599D01*
X4481495Y-13338599D01*
X4510067Y-13352885D01*
X4524352Y-13367171D01*
X4538638Y-13395742D01*
X4538638Y-13424314D01*
X4524352Y-13467171D01*
X4352924Y-13638599D01*
X4538638Y-13638599D01*
X4795781Y-13438599D02*
X4795781Y-13638599D01*
X4724352Y-13324314D02*
X4652924Y-13538599D01*
X4838638Y-13538599D01*
X5181495Y-13638599D02*
X5181495Y-13338599D01*
X5310067Y-13638599D02*
X5310067Y-13481457D01*
X5295781Y-13452885D01*
X5267209Y-13438599D01*
X5224352Y-13438599D01*
X5195781Y-13452885D01*
X5181495Y-13467171D01*
X5495781Y-13638599D02*
X5467209Y-13624314D01*
X5452924Y-13610028D01*
X5438638Y-13581457D01*
X5438638Y-13495742D01*
X5452924Y-13467171D01*
X5467209Y-13452885D01*
X5495781Y-13438599D01*
X5538638Y-13438599D01*
X5567209Y-13452885D01*
X5581495Y-13467171D01*
X5595781Y-13495742D01*
X5595781Y-13581457D01*
X5581495Y-13610028D01*
X5567209Y-13624314D01*
X5538638Y-13638599D01*
X5495781Y-13638599D01*
X5767209Y-13638599D02*
X5738638Y-13624314D01*
X5724352Y-13595742D01*
X5724352Y-13338599D01*
X5995781Y-13624314D02*
X5967209Y-13638599D01*
X5910066Y-13638599D01*
X5881495Y-13624314D01*
X5867209Y-13595742D01*
X5867209Y-13481457D01*
X5881495Y-13452885D01*
X5910066Y-13438599D01*
X5967209Y-13438599D01*
X5995781Y-13452885D01*
X6010066Y-13481457D01*
X6010066Y-13510028D01*
X5867209Y-13538599D01*
X6124352Y-13624314D02*
X6152924Y-13638599D01*
X6210066Y-13638599D01*
X6238638Y-13624314D01*
X6252924Y-13595742D01*
X6252924Y-13581457D01*
X6238638Y-13552885D01*
X6210066Y-13538599D01*
X6167209Y-13538599D01*
X6138638Y-13524314D01*
X6124352Y-13495742D01*
X6124352Y-13481457D01*
X6138638Y-13452885D01*
X6167209Y-13438599D01*
X6210066Y-13438599D01*
X6238638Y-13452885D01*
X6352924Y-13752885D02*
X6367209Y-13738599D01*
X6395781Y-13695742D01*
X6410066Y-13667171D01*
X6424352Y-13624314D01*
X6438638Y-13552885D01*
X6438638Y-13495742D01*
X6424352Y-13424314D01*
X6410066Y-13381457D01*
X6395781Y-13352885D01*
X6367209Y-13310028D01*
X6352924Y-13295742D01*
X6895781Y-13752885D02*
X6881495Y-13738599D01*
X6852924Y-13695742D01*
X6838638Y-13667171D01*
X6824352Y-13624314D01*
X6810066Y-13552885D01*
X6810066Y-13495742D01*
X6824352Y-13424314D01*
X6838638Y-13381457D01*
X6852924Y-13352885D01*
X6881495Y-13310028D01*
X6895781Y-13295742D01*
X7010066Y-13438599D02*
X7010066Y-13638599D01*
X7010066Y-13467171D02*
X7024352Y-13452885D01*
X7052924Y-13438599D01*
X7095781Y-13438599D01*
X7124352Y-13452885D01*
X7138638Y-13481457D01*
X7138638Y-13638599D01*
X7324352Y-13638599D02*
X7295781Y-13624314D01*
X7281495Y-13610028D01*
X7267209Y-13581457D01*
X7267209Y-13495742D01*
X7281495Y-13467171D01*
X7295781Y-13452885D01*
X7324352Y-13438599D01*
X7367209Y-13438599D01*
X7395781Y-13452885D01*
X7410066Y-13467171D01*
X7424352Y-13495742D01*
X7424352Y-13581457D01*
X7410066Y-13610028D01*
X7395781Y-13624314D01*
X7367209Y-13638599D01*
X7324352Y-13638599D01*
X7510066Y-13438599D02*
X7624352Y-13438599D01*
X7552924Y-13338599D02*
X7552924Y-13595742D01*
X7567209Y-13624314D01*
X7595781Y-13638599D01*
X7624352Y-13638599D01*
X7952924Y-13438599D02*
X7952924Y-13738599D01*
X7952924Y-13452885D02*
X7981495Y-13438599D01*
X8038638Y-13438599D01*
X8067209Y-13452885D01*
X8081495Y-13467171D01*
X8095781Y-13495742D01*
X8095781Y-13581457D01*
X8081495Y-13610028D01*
X8067209Y-13624314D01*
X8038638Y-13638599D01*
X7981495Y-13638599D01*
X7952924Y-13624314D01*
X8267209Y-13638599D02*
X8238638Y-13624314D01*
X8224352Y-13595742D01*
X8224352Y-13338599D01*
X8510067Y-13638599D02*
X8510067Y-13481457D01*
X8495781Y-13452885D01*
X8467209Y-13438599D01*
X8410067Y-13438599D01*
X8381495Y-13452885D01*
X8510067Y-13624314D02*
X8481495Y-13638599D01*
X8410067Y-13638599D01*
X8381495Y-13624314D01*
X8367209Y-13595742D01*
X8367209Y-13567171D01*
X8381495Y-13538599D01*
X8410067Y-13524314D01*
X8481495Y-13524314D01*
X8510067Y-13510028D01*
X8610067Y-13438599D02*
X8724352Y-13438599D01*
X8652924Y-13338599D02*
X8652924Y-13595742D01*
X8667209Y-13624314D01*
X8695781Y-13638599D01*
X8724352Y-13638599D01*
X8938638Y-13624314D02*
X8910067Y-13638599D01*
X8852924Y-13638599D01*
X8824352Y-13624314D01*
X8810067Y-13595742D01*
X8810067Y-13481457D01*
X8824352Y-13452885D01*
X8852924Y-13438599D01*
X8910067Y-13438599D01*
X8938638Y-13452885D01*
X8952924Y-13481457D01*
X8952924Y-13510028D01*
X8810067Y-13538599D01*
X9210067Y-13638599D02*
X9210067Y-13338599D01*
X9210067Y-13624314D02*
X9181495Y-13638599D01*
X9124352Y-13638599D01*
X9095781Y-13624314D01*
X9081495Y-13610028D01*
X9067209Y-13581457D01*
X9067209Y-13495742D01*
X9081495Y-13467171D01*
X9095781Y-13452885D01*
X9124352Y-13438599D01*
X9181495Y-13438599D01*
X9210067Y-13452885D01*
X9324352Y-13752885D02*
X9338638Y-13738599D01*
X9367209Y-13695742D01*
X9381495Y-13667171D01*
X9395781Y-13624314D01*
X9410067Y-13552885D01*
X9410067Y-13495742D01*
X9395781Y-13424314D01*
X9381495Y-13381457D01*
X9367209Y-13352885D01*
X9338638Y-13310028D01*
X9324352Y-13295742D01*
X-618609Y-13738295D02*
X-618609Y-14137075D01*
X-817999Y-13937685D02*
X-419219Y-13937685D01*
X-161362Y-13773399D02*
X24352Y-13773399D01*
X-75648Y-13887685D01*
X-32791Y-13887685D01*
X-4219Y-13901971D01*
X10067Y-13916257D01*
X24352Y-13944828D01*
X24352Y-14016257D01*
X10067Y-14044828D01*
X-4219Y-14059114D01*
X-32791Y-14073399D01*
X-118505Y-14073399D01*
X-147076Y-14059114D01*
X-161362Y-14044828D01*
X152924Y-14044828D02*
X167209Y-14059114D01*
X152924Y-14073399D01*
X138638Y-14059114D01*
X152924Y-14044828D01*
X152924Y-14073399D01*
X310067Y-14073399D02*
X367209Y-14073399D01*
X395781Y-14059114D01*
X410066Y-14044828D01*
X438638Y-14001971D01*
X452924Y-13944828D01*
X452924Y-13830542D01*
X438638Y-13801971D01*
X424352Y-13787685D01*
X395781Y-13773399D01*
X338638Y-13773399D01*
X310067Y-13787685D01*
X295781Y-13801971D01*
X281495Y-13830542D01*
X281495Y-13901971D01*
X295781Y-13930542D01*
X310067Y-13944828D01*
X338638Y-13959114D01*
X395781Y-13959114D01*
X424352Y-13944828D01*
X438638Y-13930542D01*
X452924Y-13901971D01*
X595781Y-14073399D02*
X652924Y-14073399D01*
X681495Y-14059114D01*
X695781Y-14044828D01*
X724352Y-14001971D01*
X738638Y-13944828D01*
X738638Y-13830542D01*
X724352Y-13801971D01*
X710066Y-13787685D01*
X681495Y-13773399D01*
X624352Y-13773399D01*
X595781Y-13787685D01*
X581495Y-13801971D01*
X567209Y-13830542D01*
X567209Y-13901971D01*
X581495Y-13930542D01*
X595781Y-13944828D01*
X624352Y-13959114D01*
X681495Y-13959114D01*
X710066Y-13944828D01*
X724352Y-13930542D01*
X738638Y-13901971D01*
X867209Y-14073399D02*
X867209Y-13873399D01*
X867209Y-13901971D02*
X881495Y-13887685D01*
X910066Y-13873399D01*
X952924Y-13873399D01*
X981495Y-13887685D01*
X995781Y-13916257D01*
X995781Y-14073399D01*
X995781Y-13916257D02*
X1010066Y-13887685D01*
X1038638Y-13873399D01*
X1081495Y-13873399D01*
X1110067Y-13887685D01*
X1124352Y-13916257D01*
X1124352Y-14073399D01*
X1267209Y-14073399D02*
X1267209Y-13873399D01*
X1267209Y-13901971D02*
X1281495Y-13887685D01*
X1310067Y-13873399D01*
X1352924Y-13873399D01*
X1381495Y-13887685D01*
X1395781Y-13916257D01*
X1395781Y-14073399D01*
X1395781Y-13916257D02*
X1410066Y-13887685D01*
X1438638Y-13873399D01*
X1481495Y-13873399D01*
X1510066Y-13887685D01*
X1524352Y-13916257D01*
X1524352Y-14073399D01*
X2110067Y-13759114D02*
X1852924Y-14144828D01*
X2495781Y-13773399D02*
X2524352Y-13773399D01*
X2552924Y-13787685D01*
X2567209Y-13801971D01*
X2581495Y-13830542D01*
X2595781Y-13887685D01*
X2595781Y-13959114D01*
X2581495Y-14016257D01*
X2567209Y-14044828D01*
X2552924Y-14059114D01*
X2524352Y-14073399D01*
X2495781Y-14073399D01*
X2467209Y-14059114D01*
X2452924Y-14044828D01*
X2438638Y-14016257D01*
X2424352Y-13959114D01*
X2424352Y-13887685D01*
X2438638Y-13830542D01*
X2452924Y-13801971D01*
X2467209Y-13787685D01*
X2495781Y-13773399D01*
X2724352Y-14044828D02*
X2738638Y-14059114D01*
X2724352Y-14073399D01*
X2710067Y-14059114D01*
X2724352Y-14044828D01*
X2724352Y-14073399D01*
X3024352Y-14073399D02*
X2852924Y-14073399D01*
X2938638Y-14073399D02*
X2938638Y-13773399D01*
X2910066Y-13816257D01*
X2881495Y-13844828D01*
X2852924Y-13859114D01*
X3295781Y-13773399D02*
X3152924Y-13773399D01*
X3138638Y-13916257D01*
X3152924Y-13901971D01*
X3181495Y-13887685D01*
X3252924Y-13887685D01*
X3281495Y-13901971D01*
X3295781Y-13916257D01*
X3310066Y-13944828D01*
X3310066Y-14016257D01*
X3295781Y-14044828D01*
X3281495Y-14059114D01*
X3252924Y-14073399D01*
X3181495Y-14073399D01*
X3152924Y-14059114D01*
X3138638Y-14044828D01*
X3410066Y-13773399D02*
X3610066Y-13773399D01*
X3481495Y-14073399D01*
X3710066Y-13773399D02*
X3710066Y-13830542D01*
X3824352Y-13773399D02*
X3824352Y-13830542D01*
X4267209Y-14187685D02*
X4252924Y-14173399D01*
X4224352Y-14130542D01*
X4210067Y-14101971D01*
X4195781Y-14059114D01*
X4181495Y-13987685D01*
X4181495Y-13930542D01*
X4195781Y-13859114D01*
X4210067Y-13816257D01*
X4224352Y-13787685D01*
X4252924Y-13744828D01*
X4267209Y-13730542D01*
X4538638Y-14073399D02*
X4367209Y-14073399D01*
X4452924Y-14073399D02*
X4452924Y-13773399D01*
X4424352Y-13816257D01*
X4395781Y-13844828D01*
X4367209Y-13859114D01*
X4652924Y-13801971D02*
X4667209Y-13787685D01*
X4695781Y-13773399D01*
X4767209Y-13773399D01*
X4795781Y-13787685D01*
X4810067Y-13801971D01*
X4824352Y-13830542D01*
X4824352Y-13859114D01*
X4810067Y-13901971D01*
X4638638Y-14073399D01*
X4824352Y-14073399D01*
X4938638Y-13801971D02*
X4952924Y-13787685D01*
X4981495Y-13773399D01*
X5052924Y-13773399D01*
X5081495Y-13787685D01*
X5095781Y-13801971D01*
X5110067Y-13830542D01*
X5110067Y-13859114D01*
X5095781Y-13901971D01*
X4924352Y-14073399D01*
X5110067Y-14073399D01*
X5467209Y-14073399D02*
X5467209Y-13773399D01*
X5595781Y-14073399D02*
X5595781Y-13916257D01*
X5581495Y-13887685D01*
X5552924Y-13873399D01*
X5510067Y-13873399D01*
X5481495Y-13887685D01*
X5467209Y-13901971D01*
X5781495Y-14073399D02*
X5752924Y-14059114D01*
X5738638Y-14044828D01*
X5724352Y-14016257D01*
X5724352Y-13930542D01*
X5738638Y-13901971D01*
X5752924Y-13887685D01*
X5781495Y-13873399D01*
X5824352Y-13873399D01*
X5852924Y-13887685D01*
X5867209Y-13901971D01*
X5881495Y-13930542D01*
X5881495Y-14016257D01*
X5867209Y-14044828D01*
X5852924Y-14059114D01*
X5824352Y-14073399D01*
X5781495Y-14073399D01*
X6052924Y-14073399D02*
X6024352Y-14059114D01*
X6010066Y-14030542D01*
X6010066Y-13773399D01*
X6281495Y-14059114D02*
X6252924Y-14073399D01*
X6195781Y-14073399D01*
X6167209Y-14059114D01*
X6152924Y-14030542D01*
X6152924Y-13916257D01*
X6167209Y-13887685D01*
X6195781Y-13873399D01*
X6252924Y-13873399D01*
X6281495Y-13887685D01*
X6295781Y-13916257D01*
X6295781Y-13944828D01*
X6152924Y-13973399D01*
X6410066Y-14059114D02*
X6438638Y-14073399D01*
X6495781Y-14073399D01*
X6524352Y-14059114D01*
X6538638Y-14030542D01*
X6538638Y-14016257D01*
X6524352Y-13987685D01*
X6495781Y-13973399D01*
X6452924Y-13973399D01*
X6424352Y-13959114D01*
X6410066Y-13930542D01*
X6410066Y-13916257D01*
X6424352Y-13887685D01*
X6452924Y-13873399D01*
X6495781Y-13873399D01*
X6524352Y-13887685D01*
X6638638Y-14187685D02*
X6652924Y-14173399D01*
X6681495Y-14130542D01*
X6695781Y-14101971D01*
X6710066Y-14059114D01*
X6724352Y-13987685D01*
X6724352Y-13930542D01*
X6710066Y-13859114D01*
X6695781Y-13816257D01*
X6681495Y-13787685D01*
X6652924Y-13744828D01*
X6638638Y-13730542D01*
X7181495Y-14187685D02*
X7167209Y-14173399D01*
X7138638Y-14130542D01*
X7124352Y-14101971D01*
X7110066Y-14059114D01*
X7095781Y-13987685D01*
X7095781Y-13930542D01*
X7110066Y-13859114D01*
X7124352Y-13816257D01*
X7138638Y-13787685D01*
X7167209Y-13744828D01*
X7181495Y-13730542D01*
X7295781Y-13873399D02*
X7295781Y-14073399D01*
X7295781Y-13901971D02*
X7310066Y-13887685D01*
X7338638Y-13873399D01*
X7381495Y-13873399D01*
X7410066Y-13887685D01*
X7424352Y-13916257D01*
X7424352Y-14073399D01*
X7610066Y-14073399D02*
X7581495Y-14059114D01*
X7567209Y-14044828D01*
X7552924Y-14016257D01*
X7552924Y-13930542D01*
X7567209Y-13901971D01*
X7581495Y-13887685D01*
X7610066Y-13873399D01*
X7652924Y-13873399D01*
X7681495Y-13887685D01*
X7695781Y-13901971D01*
X7710066Y-13930542D01*
X7710066Y-14016257D01*
X7695781Y-14044828D01*
X7681495Y-14059114D01*
X7652924Y-14073399D01*
X7610066Y-14073399D01*
X7795781Y-13873399D02*
X7910066Y-13873399D01*
X7838638Y-13773399D02*
X7838638Y-14030542D01*
X7852924Y-14059114D01*
X7881495Y-14073399D01*
X7910066Y-14073399D01*
X8238638Y-13873399D02*
X8238638Y-14173399D01*
X8238638Y-13887685D02*
X8267209Y-13873399D01*
X8324352Y-13873399D01*
X8352924Y-13887685D01*
X8367209Y-13901971D01*
X8381495Y-13930542D01*
X8381495Y-14016257D01*
X8367209Y-14044828D01*
X8352924Y-14059114D01*
X8324352Y-14073399D01*
X8267209Y-14073399D01*
X8238638Y-14059114D01*
X8552924Y-14073399D02*
X8524352Y-14059114D01*
X8510067Y-14030542D01*
X8510067Y-13773399D01*
X8795781Y-14073399D02*
X8795781Y-13916257D01*
X8781495Y-13887685D01*
X8752924Y-13873399D01*
X8695781Y-13873399D01*
X8667209Y-13887685D01*
X8795781Y-14059114D02*
X8767209Y-14073399D01*
X8695781Y-14073399D01*
X8667209Y-14059114D01*
X8652924Y-14030542D01*
X8652924Y-14001971D01*
X8667209Y-13973399D01*
X8695781Y-13959114D01*
X8767209Y-13959114D01*
X8795781Y-13944828D01*
X8895781Y-13873399D02*
X9010067Y-13873399D01*
X8938638Y-13773399D02*
X8938638Y-14030542D01*
X8952924Y-14059114D01*
X8981495Y-14073399D01*
X9010067Y-14073399D01*
X9224352Y-14059114D02*
X9195781Y-14073399D01*
X9138638Y-14073399D01*
X9110067Y-14059114D01*
X9095781Y-14030542D01*
X9095781Y-13916257D01*
X9110067Y-13887685D01*
X9138638Y-13873399D01*
X9195781Y-13873399D01*
X9224352Y-13887685D01*
X9238638Y-13916257D01*
X9238638Y-13944828D01*
X9095781Y-13973399D01*
X9495781Y-14073399D02*
X9495781Y-13773399D01*
X9495781Y-14059114D02*
X9467209Y-14073399D01*
X9410067Y-14073399D01*
X9381495Y-14059114D01*
X9367209Y-14044828D01*
X9352924Y-14016257D01*
X9352924Y-13930542D01*
X9367209Y-13901971D01*
X9381495Y-13887685D01*
X9410067Y-13873399D01*
X9467209Y-13873399D01*
X9495781Y-13887685D01*
X9610067Y-14187685D02*
X9624352Y-14173399D01*
X9652924Y-14130542D01*
X9667209Y-14101971D01*
X9681495Y-14059114D01*
X9695781Y-13987685D01*
X9695781Y-13930542D01*
X9681495Y-13859114D01*
X9667209Y-13816257D01*
X9652924Y-13787685D01*
X9624352Y-13744828D01*
X9610067Y-13730542D01*
M02*
