%FSLAX45Y45*%
G04 Gerber Fmt 4.5, Leading zero omitted, Abs format (unit mm)*
G04 Created by KiCad (PCBNEW (5.1.8-0-10_14)) date 2021-09-26 01:45:02*
%MOMM*%
%LPD*%
G01*
G04 APERTURE LIST*
%TA.AperFunction,Profile*%
%ADD10C,0.050000*%
%TD*%
%ADD11C,0.200000*%
%ADD12C,0.300000*%
G04 APERTURE END LIST*
D10*
X-297657Y-12144385D02*
X29765650Y-12144385D01*
X-297657Y-2619377D02*
X29765650Y-2619377D01*
X-416719Y-2738440D02*
G75*
G02*
X-297657Y-2619377I119063J0D01*
G01*
X-416719Y-12025323D02*
X-416719Y-2738440D01*
X-297657Y-12144385D02*
G75*
G02*
X-416719Y-12025323I0J119063D01*
G01*
X29884713Y-2738440D02*
X29884713Y-12025323D01*
X29884713Y-12025323D02*
G75*
G02*
X29765650Y-12144385I-119063J0D01*
G01*
X29765650Y-2619377D02*
G75*
G02*
X29884713Y-2738440I0J-119063D01*
G01*
D11*
X-258125Y-3373284D02*
X-218125Y-3413284D01*
X-218125Y-3373284D02*
X-258125Y-3413284D01*
X251336Y-5020424D02*
X291336Y-5060424D01*
X291336Y-5020424D02*
X251336Y-5060424D01*
X337188Y-5695005D02*
X377188Y-5735005D01*
X377188Y-5695005D02*
X337188Y-5735005D01*
X753907Y-4742504D02*
X793907Y-4782504D01*
X793907Y-4742504D02*
X753907Y-4782504D01*
X813438Y-9862196D02*
X853438Y-9902196D01*
X853438Y-9862196D02*
X813438Y-9902196D01*
X932501Y-5099692D02*
X972501Y-5139692D01*
X972501Y-5099692D02*
X932501Y-5139692D01*
X1170626Y-3373284D02*
X1210626Y-3413284D01*
X1210626Y-3373284D02*
X1170626Y-3413284D01*
X1170626Y-4028128D02*
X1210626Y-4068128D01*
X1210626Y-4028128D02*
X1170626Y-4068128D01*
X1289689Y-3135159D02*
X1329689Y-3175159D01*
X1329689Y-3135159D02*
X1289689Y-3175159D01*
X1289689Y-9862196D02*
X1329689Y-9902196D01*
X1329689Y-9862196D02*
X1289689Y-9902196D01*
X1349220Y-10517040D02*
X1389220Y-10557040D01*
X1389220Y-10517040D02*
X1349220Y-10557040D01*
X1885002Y-10040790D02*
X1925002Y-10080790D01*
X1925002Y-10040790D02*
X1885002Y-10080790D01*
X2004064Y-10517040D02*
X2044064Y-10557040D01*
X2044064Y-10517040D02*
X2004064Y-10557040D01*
X2182658Y-4921098D02*
X2222658Y-4961098D01*
X2222658Y-4921098D02*
X2182658Y-4961098D01*
X2182658Y-6885631D02*
X2222658Y-6925631D01*
X2222658Y-6885631D02*
X2182658Y-6925631D01*
X2718440Y-6349849D02*
X2758440Y-6389849D01*
X2758440Y-6349849D02*
X2718440Y-6389849D01*
X2837502Y-9505008D02*
X2877502Y-9545008D01*
X2877502Y-9505008D02*
X2837502Y-9545008D01*
X2849409Y-4313878D02*
X2889409Y-4353878D01*
X2889409Y-4313878D02*
X2849409Y-4353878D01*
X3135159Y-3670941D02*
X3175159Y-3710941D01*
X3175159Y-3670941D02*
X3135159Y-3710941D01*
X3313753Y-4563910D02*
X3353753Y-4603910D01*
X3353753Y-4563910D02*
X3313753Y-4603910D01*
X3313753Y-9921727D02*
X3353753Y-9961727D01*
X3353753Y-9921727D02*
X3313753Y-9961727D01*
X3610836Y-4087087D02*
X3650836Y-4127087D01*
X3650836Y-4087087D02*
X3610836Y-4127087D01*
X3730472Y-9505008D02*
X3770472Y-9545008D01*
X3770472Y-9505008D02*
X3730472Y-9545008D01*
X3790003Y-4087660D02*
X3830003Y-4127660D01*
X3830003Y-4087660D02*
X3790003Y-4127660D01*
X3790003Y-9921727D02*
X3830003Y-9961727D01*
X3830003Y-9921727D02*
X3790003Y-9961727D01*
X4266254Y-4147191D02*
X4306254Y-4187191D01*
X4306254Y-4147191D02*
X4266254Y-4187191D01*
X4385316Y-5933130D02*
X4425316Y-5973130D01*
X4425316Y-5933130D02*
X4385316Y-5973130D01*
X4682973Y-3790003D02*
X4722973Y-3830003D01*
X4722973Y-3790003D02*
X4682973Y-3830003D01*
X5040161Y-5933130D02*
X5080161Y-5973130D01*
X5080161Y-5933130D02*
X5040161Y-5973130D01*
X5159223Y-9564539D02*
X5199223Y-9604539D01*
X5199223Y-9564539D02*
X5159223Y-9604539D01*
X5159223Y-9981258D02*
X5199223Y-10021258D01*
X5199223Y-9981258D02*
X5159223Y-10021258D01*
X6528443Y-6826099D02*
X6568443Y-6866099D01*
X6568443Y-6826099D02*
X6528443Y-6866099D01*
X6647506Y-9862196D02*
X6687506Y-9902196D01*
X6687506Y-9862196D02*
X6647506Y-9902196D01*
X6766568Y-10278915D02*
X6806568Y-10318915D01*
X6806568Y-10278915D02*
X6766568Y-10318915D01*
X8135788Y-10219384D02*
X8175788Y-10259384D01*
X8175788Y-10219384D02*
X8135788Y-10259384D01*
X8433445Y-6766568D02*
X8473445Y-6806568D01*
X8473445Y-6766568D02*
X8433445Y-6806568D01*
X9326414Y-4147191D02*
X9366414Y-4187191D01*
X9366414Y-4147191D02*
X9326414Y-4187191D01*
X9862196Y-4147191D02*
X9902196Y-4187191D01*
X9902196Y-4147191D02*
X9862196Y-4187191D01*
X9981258Y-11826729D02*
X10021258Y-11866729D01*
X10021258Y-11826729D02*
X9981258Y-11866729D01*
X10397978Y-6766568D02*
X10437978Y-6806568D01*
X10437978Y-6766568D02*
X10397978Y-6806568D01*
X11410010Y-4147191D02*
X11450010Y-4187191D01*
X11450010Y-4147191D02*
X11410010Y-4187191D01*
X11707666Y-10159852D02*
X11747666Y-10199852D01*
X11747666Y-10159852D02*
X11707666Y-10199852D01*
X11826729Y-9743133D02*
X11866729Y-9783133D01*
X11866729Y-9743133D02*
X11826729Y-9783133D01*
X12064854Y-10278915D02*
X12104854Y-10318915D01*
X12104854Y-10278915D02*
X12064854Y-10318915D01*
X12183916Y-6766568D02*
X12223916Y-6806568D01*
X12223916Y-6766568D02*
X12183916Y-6806568D01*
X12362510Y-11826729D02*
X12402510Y-11866729D01*
X12402510Y-11826729D02*
X12362510Y-11866729D01*
X14088918Y-6707037D02*
X14128918Y-6747037D01*
X14128918Y-6707037D02*
X14088918Y-6747037D01*
X14862825Y-11826729D02*
X14902825Y-11866729D01*
X14902825Y-11826729D02*
X14862825Y-11866729D01*
X15934388Y-6707037D02*
X15974388Y-6747037D01*
X15974388Y-6707037D02*
X15934388Y-6747037D01*
X16410639Y-4087660D02*
X16450639Y-4127660D01*
X16450639Y-4087660D02*
X16410639Y-4127660D01*
X16589233Y-9743133D02*
X16629233Y-9783133D01*
X16629233Y-9743133D02*
X16589233Y-9783133D01*
X16589233Y-10159852D02*
X16629233Y-10199852D01*
X16629233Y-10159852D02*
X16589233Y-10199852D01*
X16648764Y-11826729D02*
X16688764Y-11866729D01*
X16688764Y-11826729D02*
X16648764Y-11866729D01*
X17422671Y-9683602D02*
X17462671Y-9723602D01*
X17462671Y-9683602D02*
X17422671Y-9723602D01*
X17839390Y-6707037D02*
X17879390Y-6747037D01*
X17879390Y-6707037D02*
X17839390Y-6747037D01*
X17958453Y-10219384D02*
X17998453Y-10259384D01*
X17998453Y-10219384D02*
X17958453Y-10259384D01*
X19744392Y-6707037D02*
X19784392Y-6747037D01*
X19784392Y-6707037D02*
X19744392Y-6747037D01*
X21649393Y-6647506D02*
X21689393Y-6687506D01*
X21689393Y-6647506D02*
X21649393Y-6687506D01*
X21768456Y-10278915D02*
X21808456Y-10318915D01*
X21808456Y-10278915D02*
X21768456Y-10318915D01*
X22363769Y-4028128D02*
X22403769Y-4068128D01*
X22403769Y-4028128D02*
X22363769Y-4068128D01*
X22363769Y-9683602D02*
X22403769Y-9723602D01*
X22403769Y-9683602D02*
X22363769Y-9723602D01*
X22482831Y-6647506D02*
X22522831Y-6687506D01*
X22522831Y-6647506D02*
X22482831Y-6687506D01*
X23792520Y-6647506D02*
X23832520Y-6687506D01*
X23832520Y-6647506D02*
X23792520Y-6687506D01*
X24745021Y-2777971D02*
X24785021Y-2817971D01*
X24785021Y-2777971D02*
X24745021Y-2817971D01*
X26947679Y-2837502D02*
X26987679Y-2877502D01*
X26987679Y-2837502D02*
X26947679Y-2877502D01*
X27959711Y-4028128D02*
X27999711Y-4068128D01*
X27999711Y-4028128D02*
X27959711Y-4068128D01*
X27959711Y-9921727D02*
X27999711Y-9961727D01*
X27999711Y-9921727D02*
X27959711Y-9961727D01*
X28435961Y-6290318D02*
X28475961Y-6330318D01*
X28475961Y-6290318D02*
X28435961Y-6330318D01*
X-79063Y-6084225D02*
G75*
G03*
X-79063Y-6084225I-40000J0D01*
G01*
X-79063Y-6284225D02*
G75*
G03*
X-79063Y-6284225I-40000J0D01*
G01*
X-79063Y-6484225D02*
G75*
G03*
X-79063Y-6484225I-40000J0D01*
G01*
X-79063Y-6684225D02*
G75*
G03*
X-79063Y-6684225I-40000J0D01*
G01*
X-79063Y-6884225D02*
G75*
G03*
X-79063Y-6884225I-40000J0D01*
G01*
X-79063Y-7084225D02*
G75*
G03*
X-79063Y-7084225I-40000J0D01*
G01*
X-138594Y-10196571D02*
G75*
G03*
X-138594Y-10196571I-40000J0D01*
G01*
X-138594Y-10396571D02*
G75*
G03*
X-138594Y-10396571I-40000J0D01*
G01*
X-138594Y-10596571D02*
G75*
G03*
X-138594Y-10596571I-40000J0D01*
G01*
X-238125Y-2765428D02*
X-238125Y-2854328D01*
X-282575Y-2809878D02*
X-193675Y-2809878D01*
X-238125Y-4289428D02*
X-238125Y-4378328D01*
X-282575Y-4333878D02*
X-193675Y-4333878D01*
X15875Y-2765428D02*
X15875Y-2854328D01*
X-28575Y-2809878D02*
X60325Y-2809878D01*
X15875Y-4289428D02*
X15875Y-4378328D01*
X-28575Y-4333878D02*
X60325Y-4333878D01*
X269875Y-2765428D02*
X269875Y-2854328D01*
X225425Y-2809878D02*
X314325Y-2809878D01*
X269875Y-4289428D02*
X269875Y-4378328D01*
X225425Y-4333878D02*
X314325Y-4333878D01*
X523875Y-2765428D02*
X523875Y-2854328D01*
X479425Y-2809878D02*
X568325Y-2809878D01*
X523875Y-4289428D02*
X523875Y-4378328D01*
X479425Y-4333878D02*
X568325Y-4333878D01*
X777875Y-2765428D02*
X777875Y-2854328D01*
X733425Y-2809878D02*
X822325Y-2809878D01*
X777875Y-4289428D02*
X777875Y-4378328D01*
X733425Y-4333878D02*
X822325Y-4333878D01*
X1031875Y-2765428D02*
X1031875Y-2854328D01*
X987425Y-2809878D02*
X1076325Y-2809878D01*
X1031875Y-4289428D02*
X1031875Y-4378328D01*
X987425Y-4333878D02*
X1076325Y-4333878D01*
X1285875Y-2765428D02*
X1285875Y-2854328D01*
X1241425Y-2809878D02*
X1330325Y-2809878D01*
X1285875Y-4289428D02*
X1285875Y-4378328D01*
X1241425Y-4333878D02*
X1330325Y-4333878D01*
X1539875Y-2765428D02*
X1539875Y-2854328D01*
X1495425Y-2809878D02*
X1584325Y-2809878D01*
X1539875Y-4289428D02*
X1539875Y-4378328D01*
X1495425Y-4333878D02*
X1584325Y-4333878D01*
X1793875Y-2765428D02*
X1793875Y-2854328D01*
X1749425Y-2809878D02*
X1838325Y-2809878D01*
X1793875Y-4289428D02*
X1793875Y-4378328D01*
X1749425Y-4333878D02*
X1838325Y-4333878D01*
X2047875Y-2765428D02*
X2047875Y-2854328D01*
X2003425Y-2809878D02*
X2092325Y-2809878D01*
X2047875Y-4289428D02*
X2047875Y-4378328D01*
X2003425Y-4333878D02*
X2092325Y-4333878D01*
X2301875Y-2765428D02*
X2301875Y-2854328D01*
X2257425Y-2809878D02*
X2346325Y-2809878D01*
X2301875Y-4289428D02*
X2301875Y-4378328D01*
X2257425Y-4333878D02*
X2346325Y-4333878D01*
X2555875Y-2765428D02*
X2555875Y-2854328D01*
X2511425Y-2809878D02*
X2600325Y-2809878D01*
X2555875Y-4289428D02*
X2555875Y-4378328D01*
X2511425Y-4333878D02*
X2600325Y-4333878D01*
X13958473Y-9084848D02*
X13958473Y-8980902D01*
X13854527Y-8980902D01*
X13854527Y-9084848D01*
X13958473Y-9084848D01*
X14593473Y-8830848D02*
X14593473Y-8726902D01*
X14489527Y-8726902D01*
X14489527Y-8830848D01*
X14593473Y-8830848D01*
X17768473Y-9084848D02*
X17768473Y-8980902D01*
X17664527Y-8980902D01*
X17664527Y-9084848D01*
X17768473Y-9084848D01*
X18403473Y-8830848D02*
X18403473Y-8726902D01*
X18299527Y-8726902D01*
X18299527Y-8830848D01*
X18403473Y-8830848D01*
X6814723Y-10989848D02*
X6814723Y-10885902D01*
X6710777Y-10885902D01*
X6710777Y-10989848D01*
X6814723Y-10989848D01*
X7449723Y-10735848D02*
X7449723Y-10631902D01*
X7345777Y-10631902D01*
X7345777Y-10735848D01*
X7449723Y-10735848D01*
X12291608Y-10989857D02*
X12291608Y-10885912D01*
X12187663Y-10885912D01*
X12187663Y-10989857D01*
X12291608Y-10989857D01*
X12926608Y-10735857D02*
X12926608Y-10631912D01*
X12822663Y-10631912D01*
X12822663Y-10735857D01*
X12926608Y-10735857D01*
X6338473Y-9084848D02*
X6338473Y-8980902D01*
X6234527Y-8980902D01*
X6234527Y-9084848D01*
X6338473Y-9084848D01*
X6973473Y-8830848D02*
X6973473Y-8726902D01*
X6869527Y-8726902D01*
X6869527Y-8830848D01*
X6973473Y-8830848D01*
X28722223Y-9084848D02*
X28722223Y-8980902D01*
X28618277Y-8980902D01*
X28618277Y-9084848D01*
X28722223Y-9084848D01*
X29357223Y-8830848D02*
X29357223Y-8726902D01*
X29253277Y-8726902D01*
X29253277Y-8830848D01*
X29357223Y-8830848D01*
X9434139Y-10989895D02*
X9434139Y-10885949D01*
X9330193Y-10885949D01*
X9330193Y-10989895D01*
X9434139Y-10989895D01*
X10069139Y-10735895D02*
X10069139Y-10631949D01*
X9965193Y-10631949D01*
X9965193Y-10735895D01*
X10069139Y-10735895D01*
X13482234Y-9084856D02*
X13482234Y-8980910D01*
X13378289Y-8980910D01*
X13378289Y-9084856D01*
X13482234Y-9084856D01*
X14117234Y-8830856D02*
X14117234Y-8726910D01*
X14013289Y-8726910D01*
X14013289Y-8830856D01*
X14117234Y-8830856D01*
X5147848Y-10989848D02*
X5147848Y-10885902D01*
X5043902Y-10885902D01*
X5043902Y-10989848D01*
X5147848Y-10989848D01*
X5782848Y-10735848D02*
X5782848Y-10631902D01*
X5678902Y-10631902D01*
X5678902Y-10735848D01*
X5782848Y-10735848D01*
X26340973Y-5274848D02*
X26340973Y-5170902D01*
X26237027Y-5170902D01*
X26237027Y-5274848D01*
X26340973Y-5274848D01*
X26975973Y-5020848D02*
X26975973Y-4916902D01*
X26872027Y-4916902D01*
X26872027Y-5020848D01*
X26975973Y-5020848D01*
X20625973Y-7179848D02*
X20625973Y-7075902D01*
X20522027Y-7075902D01*
X20522027Y-7179848D01*
X20625973Y-7179848D01*
X21260973Y-6925848D02*
X21260973Y-6821902D01*
X21157027Y-6821902D01*
X21157027Y-6925848D01*
X21260973Y-6925848D01*
X24435994Y-7179854D02*
X24435994Y-7075908D01*
X24332048Y-7075908D01*
X24332048Y-7179854D01*
X24435994Y-7179854D01*
X25070994Y-6925854D02*
X25070994Y-6821908D01*
X24967048Y-6821908D01*
X24967048Y-6925854D01*
X25070994Y-6925854D01*
X24912223Y-3369848D02*
X24912223Y-3265902D01*
X24808277Y-3265902D01*
X24808277Y-3369848D01*
X24912223Y-3369848D01*
X25547223Y-3115848D02*
X25547223Y-3011902D01*
X25443277Y-3011902D01*
X25443277Y-3115848D01*
X25547223Y-3115848D01*
X861598Y-7179848D02*
X861598Y-7075902D01*
X757652Y-7075902D01*
X757652Y-7179848D01*
X861598Y-7179848D01*
X1496598Y-6925848D02*
X1496598Y-6821902D01*
X1392652Y-6821902D01*
X1392652Y-6925848D01*
X1496598Y-6925848D01*
X9195973Y-10989848D02*
X9195973Y-10885902D01*
X9092027Y-10885902D01*
X9092027Y-10989848D01*
X9195973Y-10989848D01*
X9830973Y-10735848D02*
X9830973Y-10631902D01*
X9727027Y-10631902D01*
X9727027Y-10735848D01*
X9830973Y-10735848D01*
X3480973Y-7179848D02*
X3480973Y-7075902D01*
X3377027Y-7075902D01*
X3377027Y-7179848D01*
X3480973Y-7179848D01*
X4115973Y-6925848D02*
X4115973Y-6821902D01*
X4012027Y-6821902D01*
X4012027Y-6925848D01*
X4115973Y-6925848D01*
X18959098Y-10989848D02*
X18959098Y-10885902D01*
X18855152Y-10885902D01*
X18855152Y-10989848D01*
X18959098Y-10989848D01*
X19594098Y-10735848D02*
X19594098Y-10631902D01*
X19490152Y-10631902D01*
X19490152Y-10735848D01*
X19594098Y-10735848D01*
X5862223Y-3369848D02*
X5862223Y-3265902D01*
X5758277Y-3265902D01*
X5758277Y-3369848D01*
X5862223Y-3369848D01*
X6497223Y-3115848D02*
X6497223Y-3011902D01*
X6393277Y-3011902D01*
X6393277Y-3115848D01*
X6497223Y-3115848D01*
X14672911Y-10989895D02*
X14672911Y-10885949D01*
X14568965Y-10885949D01*
X14568965Y-10989895D01*
X14672911Y-10989895D01*
X15307911Y-10735895D02*
X15307911Y-10631949D01*
X15203965Y-10631949D01*
X15203965Y-10735895D01*
X15307911Y-10735895D01*
X19197239Y-9084856D02*
X19197239Y-8980910D01*
X19093294Y-8980910D01*
X19093294Y-9084856D01*
X19197239Y-9084856D01*
X19832239Y-8830856D02*
X19832239Y-8726910D01*
X19728294Y-8726910D01*
X19728294Y-8830856D01*
X19832239Y-8830856D01*
X23007223Y-3369848D02*
X23007223Y-3265902D01*
X22903277Y-3265902D01*
X22903277Y-3369848D01*
X23007223Y-3369848D01*
X23642223Y-3115848D02*
X23642223Y-3011902D01*
X23538277Y-3011902D01*
X23538277Y-3115848D01*
X23642223Y-3115848D01*
X2766598Y-10989848D02*
X2766598Y-10885902D01*
X2662652Y-10885902D01*
X2662652Y-10989848D01*
X2766598Y-10989848D01*
X3401598Y-10735848D02*
X3401598Y-10631902D01*
X3297652Y-10631902D01*
X3297652Y-10735848D01*
X3401598Y-10735848D01*
X5385978Y-10989857D02*
X5385978Y-10885912D01*
X5282032Y-10885912D01*
X5282032Y-10989857D01*
X5385978Y-10989857D01*
X6020978Y-10735857D02*
X6020978Y-10631912D01*
X5917032Y-10631912D01*
X5917032Y-10735857D01*
X6020978Y-10735857D01*
X12053473Y-9084848D02*
X12053473Y-8980902D01*
X11949527Y-8980902D01*
X11949527Y-9084848D01*
X12053473Y-9084848D01*
X12688473Y-8830848D02*
X12688473Y-8726902D01*
X12584527Y-8726902D01*
X12584527Y-8830848D01*
X12688473Y-8830848D01*
X9672231Y-9084856D02*
X9672231Y-8980910D01*
X9568286Y-8980910D01*
X9568286Y-9084856D01*
X9672231Y-9084856D01*
X10307231Y-8830856D02*
X10307231Y-8726910D01*
X10203286Y-8726910D01*
X10203286Y-8830856D01*
X10307231Y-8830856D01*
X385348Y-10989848D02*
X385348Y-10885902D01*
X281402Y-10885902D01*
X281402Y-10989848D01*
X385348Y-10989848D01*
X1020348Y-10735848D02*
X1020348Y-10631902D01*
X916402Y-10631902D01*
X916402Y-10735848D01*
X1020348Y-10735848D01*
X2052223Y-3369848D02*
X2052223Y-3265902D01*
X1948277Y-3265902D01*
X1948277Y-3369848D01*
X2052223Y-3369848D01*
X2687223Y-3115848D02*
X2687223Y-3011902D01*
X2583277Y-3011902D01*
X2583277Y-3115848D01*
X2687223Y-3115848D01*
X12529723Y-5274848D02*
X12529723Y-5170902D01*
X12425777Y-5170902D01*
X12425777Y-5274848D01*
X12529723Y-5274848D01*
X13164723Y-5020848D02*
X13164723Y-4916902D01*
X13060777Y-4916902D01*
X13060777Y-5020848D01*
X13164723Y-5020848D01*
X16815973Y-7179848D02*
X16815973Y-7075902D01*
X16712027Y-7075902D01*
X16712027Y-7179848D01*
X16815973Y-7179848D01*
X17450973Y-6925848D02*
X17450973Y-6821902D01*
X17347027Y-6821902D01*
X17347027Y-6925848D01*
X17450973Y-6925848D01*
X11100973Y-7179848D02*
X11100973Y-7075902D01*
X10997027Y-7075902D01*
X10997027Y-7179848D01*
X11100973Y-7179848D01*
X11735973Y-6925848D02*
X11735973Y-6821902D01*
X11632027Y-6821902D01*
X11632027Y-6925848D01*
X11735973Y-6925848D01*
X14434723Y-5274848D02*
X14434723Y-5170902D01*
X14330777Y-5170902D01*
X14330777Y-5274848D01*
X14434723Y-5274848D01*
X15069723Y-5020848D02*
X15069723Y-4916902D01*
X14965777Y-4916902D01*
X14965777Y-5020848D01*
X15069723Y-5020848D01*
X3957226Y-9084856D02*
X3957226Y-8980910D01*
X3853281Y-8980910D01*
X3853281Y-9084856D01*
X3957226Y-9084856D01*
X4592226Y-8830856D02*
X4592226Y-8726910D01*
X4488281Y-8726910D01*
X4488281Y-8830856D01*
X4592226Y-8830856D01*
X23950723Y-5274848D02*
X23950723Y-5170902D01*
X23846777Y-5170902D01*
X23846777Y-5274848D01*
X23950723Y-5274848D01*
X24585723Y-5020848D02*
X24585723Y-4916902D01*
X24481777Y-4916902D01*
X24481777Y-5020848D01*
X24585723Y-5020848D01*
X14910973Y-10989848D02*
X14910973Y-10885902D01*
X14807027Y-10885902D01*
X14807027Y-10989848D01*
X14910973Y-10989848D01*
X15545973Y-10735848D02*
X15545973Y-10631902D01*
X15442027Y-10631902D01*
X15442027Y-10735848D01*
X15545973Y-10735848D01*
X17292223Y-10989848D02*
X17292223Y-10885902D01*
X17188277Y-10885902D01*
X17188277Y-10989848D01*
X17292223Y-10989848D01*
X17927223Y-10735848D02*
X17927223Y-10631902D01*
X17823277Y-10631902D01*
X17823277Y-10735848D01*
X17927223Y-10735848D01*
X19197239Y-10989857D02*
X19197239Y-10885912D01*
X19093294Y-10885912D01*
X19093294Y-10989857D01*
X19197239Y-10989857D01*
X19832239Y-10735857D02*
X19832239Y-10631912D01*
X19728294Y-10631912D01*
X19728294Y-10735857D01*
X19832239Y-10735857D01*
X8719723Y-5274848D02*
X8719723Y-5170902D01*
X8615777Y-5170902D01*
X8615777Y-5274848D01*
X8719723Y-5274848D01*
X9354723Y-5020848D02*
X9354723Y-4916902D01*
X9250777Y-4916902D01*
X9250777Y-5020848D01*
X9354723Y-5020848D01*
X28722223Y-10989848D02*
X28722223Y-10885902D01*
X28618277Y-10885902D01*
X28618277Y-10989848D01*
X28722223Y-10989848D01*
X29357223Y-10735848D02*
X29357223Y-10631902D01*
X29253277Y-10631902D01*
X29253277Y-10735848D01*
X29357223Y-10735848D01*
X15387236Y-9084856D02*
X15387236Y-8980910D01*
X15283290Y-8980910D01*
X15283290Y-9084856D01*
X15387236Y-9084856D01*
X16022236Y-8830856D02*
X16022236Y-8726910D01*
X15918290Y-8726910D01*
X15918290Y-8830856D01*
X16022236Y-8830856D01*
X19197223Y-3369848D02*
X19197223Y-3265902D01*
X19093277Y-3265902D01*
X19093277Y-3369848D01*
X19197223Y-3369848D01*
X19832223Y-3115848D02*
X19832223Y-3011902D01*
X19728277Y-3011902D01*
X19728277Y-3115848D01*
X19832223Y-3115848D01*
X18720973Y-7179848D02*
X18720973Y-7075902D01*
X18617027Y-7075902D01*
X18617027Y-7179848D01*
X18720973Y-7179848D01*
X19355973Y-6925848D02*
X19355973Y-6821902D01*
X19252027Y-6821902D01*
X19252027Y-6925848D01*
X19355973Y-6925848D01*
X11577223Y-3369848D02*
X11577223Y-3265902D01*
X11473277Y-3265902D01*
X11473277Y-3369848D01*
X11577223Y-3369848D01*
X12212223Y-3115848D02*
X12212223Y-3011902D01*
X12108277Y-3011902D01*
X12108277Y-3115848D01*
X12212223Y-3115848D01*
X6814723Y-5274848D02*
X6814723Y-5170902D01*
X6710777Y-5170902D01*
X6710777Y-5274848D01*
X6814723Y-5274848D01*
X7449723Y-5020848D02*
X7449723Y-4916902D01*
X7345777Y-4916902D01*
X7345777Y-5020848D01*
X7449723Y-5020848D01*
X26817223Y-9084848D02*
X26817223Y-8980902D01*
X26713277Y-8980902D01*
X26713277Y-9084848D01*
X26817223Y-9084848D01*
X27452223Y-8830848D02*
X27452223Y-8726902D01*
X27348277Y-8726902D01*
X27348277Y-8830848D01*
X27452223Y-8830848D01*
X10148473Y-9084848D02*
X10148473Y-8980902D01*
X10044527Y-8980902D01*
X10044527Y-9084848D01*
X10148473Y-9084848D01*
X10783473Y-8830848D02*
X10783473Y-8726902D01*
X10679527Y-8726902D01*
X10679527Y-8830848D01*
X10783473Y-8830848D01*
X28722223Y-7179848D02*
X28722223Y-7075902D01*
X28618277Y-7075902D01*
X28618277Y-7179848D01*
X28722223Y-7179848D01*
X29357223Y-6925848D02*
X29357223Y-6821902D01*
X29253277Y-6821902D01*
X29253277Y-6925848D01*
X29357223Y-6925848D01*
X24912244Y-9084856D02*
X24912244Y-8980910D01*
X24808298Y-8980910D01*
X24808298Y-9084856D01*
X24912244Y-9084856D01*
X25547244Y-8830856D02*
X25547244Y-8726910D01*
X25443298Y-8726910D01*
X25443298Y-8830856D01*
X25547244Y-8830856D01*
X25864723Y-3369848D02*
X25864723Y-3265902D01*
X25760777Y-3265902D01*
X25760777Y-3369848D01*
X25864723Y-3369848D01*
X26499723Y-3115848D02*
X26499723Y-3011902D01*
X26395777Y-3011902D01*
X26395777Y-3115848D01*
X26499723Y-3115848D01*
X17292223Y-3369848D02*
X17292223Y-3265902D01*
X17188277Y-3265902D01*
X17188277Y-3369848D01*
X17292223Y-3369848D01*
X17927223Y-3115848D02*
X17927223Y-3011902D01*
X17823277Y-3011902D01*
X17823277Y-3115848D01*
X17927223Y-3115848D01*
X28722223Y-3369848D02*
X28722223Y-3265902D01*
X28618277Y-3265902D01*
X28618277Y-3369848D01*
X28722223Y-3369848D01*
X29357223Y-3115848D02*
X29357223Y-3011902D01*
X29253277Y-3011902D01*
X29253277Y-3115848D01*
X29357223Y-3115848D01*
X4909723Y-5274848D02*
X4909723Y-5170902D01*
X4805777Y-5170902D01*
X4805777Y-5274848D01*
X4909723Y-5274848D01*
X5544723Y-5020848D02*
X5544723Y-4916902D01*
X5440777Y-4916902D01*
X5440777Y-5020848D01*
X5544723Y-5020848D01*
X21102223Y-3369848D02*
X21102223Y-3265902D01*
X20998277Y-3265902D01*
X20998277Y-3369848D01*
X21102223Y-3369848D01*
X21737223Y-3115848D02*
X21737223Y-3011902D01*
X21633277Y-3011902D01*
X21633277Y-3115848D01*
X21737223Y-3115848D01*
X18482864Y-10989857D02*
X18482864Y-10885912D01*
X18378918Y-10885912D01*
X18378918Y-10989857D01*
X18482864Y-10989857D01*
X19117864Y-10735857D02*
X19117864Y-10631912D01*
X19013918Y-10631912D01*
X19013918Y-10735857D01*
X19117864Y-10735857D01*
X8243473Y-9084848D02*
X8243473Y-8980902D01*
X8139527Y-8980902D01*
X8139527Y-9084848D01*
X8243473Y-9084848D01*
X8878473Y-8830848D02*
X8878473Y-8726902D01*
X8774527Y-8726902D01*
X8774527Y-8830848D01*
X8878473Y-8830848D01*
X13482223Y-3369848D02*
X13482223Y-3265902D01*
X13378277Y-3265902D01*
X13378277Y-3369848D01*
X13482223Y-3369848D01*
X14117223Y-3115848D02*
X14117223Y-3011902D01*
X14013277Y-3011902D01*
X14013277Y-3115848D01*
X14117223Y-3115848D01*
X21102241Y-9084856D02*
X21102241Y-8980910D01*
X20998295Y-8980910D01*
X20998295Y-9084856D01*
X21102241Y-9084856D01*
X21737241Y-8830856D02*
X21737241Y-8726910D01*
X21633295Y-8726910D01*
X21633295Y-8830856D01*
X21737241Y-8830856D01*
X25626598Y-7179848D02*
X25626598Y-7075902D01*
X25522652Y-7075902D01*
X25522652Y-7179848D01*
X25626598Y-7179848D01*
X26261598Y-6925848D02*
X26261598Y-6821902D01*
X26157652Y-6821902D01*
X26157652Y-6925848D01*
X26261598Y-6925848D01*
X24197951Y-9084887D02*
X24197951Y-8980941D01*
X24094005Y-8980941D01*
X24094005Y-9084887D01*
X24197951Y-9084887D01*
X24832951Y-8830887D02*
X24832951Y-8726941D01*
X24729005Y-8726941D01*
X24729005Y-8830887D01*
X24832951Y-8830887D01*
X9910391Y-10989895D02*
X9910391Y-10885949D01*
X9806445Y-10885949D01*
X9806445Y-10989895D01*
X9910391Y-10989895D01*
X10545391Y-10735895D02*
X10545391Y-10631949D01*
X10441445Y-10631949D01*
X10441445Y-10735895D01*
X10545391Y-10735895D01*
X9195973Y-7179848D02*
X9195973Y-7075902D01*
X9092027Y-7075902D01*
X9092027Y-7179848D01*
X9195973Y-7179848D01*
X9830973Y-6925848D02*
X9830973Y-6821902D01*
X9727027Y-6821902D01*
X9727027Y-6925848D01*
X9830973Y-6925848D01*
X24912223Y-10989848D02*
X24912223Y-10885902D01*
X24808277Y-10885902D01*
X24808277Y-10989848D01*
X24912223Y-10989848D01*
X25547223Y-10735848D02*
X25547223Y-10631902D01*
X25443277Y-10631902D01*
X25443277Y-10735848D01*
X25547223Y-10735848D01*
X13005973Y-7179848D02*
X13005973Y-7075902D01*
X12902027Y-7075902D01*
X12902027Y-7179848D01*
X13005973Y-7179848D01*
X13640973Y-6925848D02*
X13640973Y-6821902D01*
X13537027Y-6821902D01*
X13537027Y-6925848D01*
X13640973Y-6925848D01*
X11577233Y-9084856D02*
X11577233Y-8980910D01*
X11473287Y-8980910D01*
X11473287Y-9084856D01*
X11577233Y-9084856D01*
X12212233Y-8830856D02*
X12212233Y-8726910D01*
X12108287Y-8726910D01*
X12108287Y-8830856D01*
X12212233Y-8830856D01*
X623473Y-5274848D02*
X623473Y-5170902D01*
X519527Y-5170902D01*
X519527Y-5274848D01*
X623473Y-5274848D01*
X1258473Y-5020848D02*
X1258473Y-4916902D01*
X1154527Y-4916902D01*
X1154527Y-5020848D01*
X1258473Y-5020848D01*
X15863473Y-9084848D02*
X15863473Y-8980902D01*
X15759527Y-8980902D01*
X15759527Y-9084848D01*
X15863473Y-9084848D01*
X16498473Y-8830848D02*
X16498473Y-8726902D01*
X16394527Y-8726902D01*
X16394527Y-8830848D01*
X16498473Y-8830848D01*
X26817223Y-3369848D02*
X26817223Y-3265902D01*
X26713277Y-3265902D01*
X26713277Y-3369848D01*
X26817223Y-3369848D01*
X27452223Y-3115848D02*
X27452223Y-3011902D01*
X27348277Y-3011902D01*
X27348277Y-3115848D01*
X27452223Y-3115848D01*
X5862228Y-9084856D02*
X5862228Y-8980910D01*
X5758282Y-8980910D01*
X5758282Y-9084856D01*
X5862228Y-9084856D01*
X6497228Y-8830856D02*
X6497228Y-8726910D01*
X6393282Y-8726910D01*
X6393282Y-8830856D01*
X6497228Y-8830856D01*
X22530973Y-7179848D02*
X22530973Y-7075902D01*
X22427027Y-7075902D01*
X22427027Y-7179848D01*
X22530973Y-7179848D01*
X23165973Y-6925848D02*
X23165973Y-6821902D01*
X23062027Y-6821902D01*
X23062027Y-6925848D01*
X23165973Y-6925848D01*
X5385973Y-7179848D02*
X5385973Y-7075902D01*
X5282027Y-7075902D01*
X5282027Y-7179848D01*
X5385973Y-7179848D01*
X6020973Y-6925848D02*
X6020973Y-6821902D01*
X5917027Y-6821902D01*
X5917027Y-6925848D01*
X6020973Y-6925848D01*
X17292238Y-9084856D02*
X17292238Y-8980910D01*
X17188292Y-8980910D01*
X17188292Y-9084856D01*
X17292238Y-9084856D01*
X17927238Y-8830856D02*
X17927238Y-8726910D01*
X17823292Y-8726910D01*
X17823292Y-8830856D01*
X17927238Y-8830856D01*
X7767223Y-3369848D02*
X7767223Y-3265902D01*
X7663277Y-3265902D01*
X7663277Y-3369848D01*
X7767223Y-3369848D01*
X8402223Y-3115848D02*
X8402223Y-3011902D01*
X8298277Y-3011902D01*
X8298277Y-3115848D01*
X8402223Y-3115848D01*
X20149723Y-5274848D02*
X20149723Y-5170902D01*
X20045777Y-5170902D01*
X20045777Y-5274848D01*
X20149723Y-5274848D01*
X20784723Y-5020848D02*
X20784723Y-4916902D01*
X20680777Y-4916902D01*
X20680777Y-5020848D01*
X20784723Y-5020848D01*
X7290973Y-7179848D02*
X7290973Y-7075902D01*
X7187027Y-7075902D01*
X7187027Y-7179848D01*
X7290973Y-7179848D01*
X7925973Y-6925848D02*
X7925973Y-6821902D01*
X7822027Y-6821902D01*
X7822027Y-6925848D01*
X7925973Y-6925848D01*
X26817223Y-10989848D02*
X26817223Y-10885902D01*
X26713277Y-10885902D01*
X26713277Y-10989848D01*
X26817223Y-10989848D01*
X27452223Y-10735848D02*
X27452223Y-10631902D01*
X27348277Y-10631902D01*
X27348277Y-10735848D01*
X27452223Y-10735848D01*
X15387223Y-3369848D02*
X15387223Y-3265902D01*
X15283277Y-3265902D01*
X15283277Y-3369848D01*
X15387223Y-3369848D01*
X16022223Y-3115848D02*
X16022223Y-3011902D01*
X15918277Y-3011902D01*
X15918277Y-3115848D01*
X16022223Y-3115848D01*
X26579120Y-6227353D02*
X26579120Y-6123408D01*
X26475175Y-6123408D01*
X26475175Y-6227353D01*
X26579120Y-6227353D01*
X27214120Y-5973353D02*
X27214120Y-5869408D01*
X27110175Y-5869408D01*
X27110175Y-5973353D01*
X27214120Y-5973353D01*
X147223Y-3369848D02*
X147223Y-3265902D01*
X43277Y-3265902D01*
X43277Y-3369848D01*
X147223Y-3369848D01*
X782223Y-3115848D02*
X782223Y-3011902D01*
X678277Y-3011902D01*
X678277Y-3115848D01*
X782223Y-3115848D01*
X3957223Y-3369848D02*
X3957223Y-3265902D01*
X3853277Y-3265902D01*
X3853277Y-3369848D01*
X3957223Y-3369848D01*
X4592223Y-3115848D02*
X4592223Y-3011902D01*
X4488277Y-3011902D01*
X4488277Y-3115848D01*
X4592223Y-3115848D01*
X4433473Y-9084848D02*
X4433473Y-8980902D01*
X4329527Y-8980902D01*
X4329527Y-9084848D01*
X4433473Y-9084848D01*
X5068473Y-8830848D02*
X5068473Y-8726902D01*
X4964527Y-8726902D01*
X4964527Y-8830848D01*
X5068473Y-8830848D01*
X22054723Y-5274848D02*
X22054723Y-5170902D01*
X21950777Y-5170902D01*
X21950777Y-5274848D01*
X22054723Y-5274848D01*
X22689723Y-5020848D02*
X22689723Y-4916902D01*
X22585777Y-4916902D01*
X22585777Y-5020848D01*
X22689723Y-5020848D01*
X20864116Y-10989857D02*
X20864116Y-10885912D01*
X20760170Y-10885912D01*
X20760170Y-10989857D01*
X20864116Y-10989857D01*
X21499116Y-10735857D02*
X21499116Y-10631912D01*
X21395170Y-10631912D01*
X21395170Y-10735857D01*
X21499116Y-10735857D01*
X3004723Y-5274848D02*
X3004723Y-5170902D01*
X2900777Y-5170902D01*
X2900777Y-5274848D01*
X3004723Y-5274848D01*
X3639723Y-5020848D02*
X3639723Y-4916902D01*
X3535777Y-4916902D01*
X3535777Y-5020848D01*
X3639723Y-5020848D01*
X10624723Y-5274848D02*
X10624723Y-5170902D01*
X10520777Y-5170902D01*
X10520777Y-5274848D01*
X10624723Y-5274848D01*
X11259723Y-5020848D02*
X11259723Y-4916902D01*
X11155777Y-4916902D01*
X11155777Y-5020848D01*
X11259723Y-5020848D01*
X1337848Y-9084848D02*
X1337848Y-8980902D01*
X1233902Y-8980902D01*
X1233902Y-9084848D01*
X1337848Y-9084848D01*
X1972848Y-8830848D02*
X1972848Y-8726902D01*
X1868902Y-8726902D01*
X1868902Y-8830848D01*
X1972848Y-8830848D01*
X23007242Y-9084856D02*
X23007242Y-8980910D01*
X22903297Y-8980910D01*
X22903297Y-9084856D01*
X23007242Y-9084856D01*
X23642242Y-8830856D02*
X23642242Y-8726910D01*
X23538297Y-8726910D01*
X23538297Y-8830856D01*
X23642242Y-8830856D01*
X14196659Y-10989895D02*
X14196659Y-10885949D01*
X14092713Y-10885949D01*
X14092713Y-10989895D01*
X14196659Y-10989895D01*
X14831659Y-10735895D02*
X14831659Y-10631949D01*
X14727713Y-10631949D01*
X14727713Y-10735895D01*
X14831659Y-10735895D01*
X1099724Y-9084856D02*
X1099724Y-8980910D01*
X995778Y-8980910D01*
X995778Y-9084856D01*
X1099724Y-9084856D01*
X1734724Y-8830856D02*
X1734724Y-8726910D01*
X1630778Y-8726910D01*
X1630778Y-8830856D01*
X1734724Y-8830856D01*
X19673473Y-9084848D02*
X19673473Y-8980902D01*
X19569527Y-8980902D01*
X19569527Y-9084848D01*
X19673473Y-9084848D01*
X20308473Y-8830848D02*
X20308473Y-8726902D01*
X20204527Y-8726902D01*
X20204527Y-8830848D01*
X20308473Y-8830848D01*
X9672223Y-3369848D02*
X9672223Y-3265902D01*
X9568277Y-3265902D01*
X9568277Y-3369848D01*
X9672223Y-3369848D01*
X10307223Y-3115848D02*
X10307223Y-3011902D01*
X10203277Y-3011902D01*
X10203277Y-3115848D01*
X10307223Y-3115848D01*
X14910973Y-7179848D02*
X14910973Y-7075902D01*
X14807027Y-7075902D01*
X14807027Y-7179848D01*
X14910973Y-7179848D01*
X15545973Y-6925848D02*
X15545973Y-6821902D01*
X15442027Y-6821902D01*
X15442027Y-6925848D01*
X15545973Y-6925848D01*
X21102223Y-10989848D02*
X21102223Y-10885902D01*
X20998277Y-10885902D01*
X20998277Y-10989848D01*
X21102223Y-10989848D01*
X21737223Y-10735848D02*
X21737223Y-10631902D01*
X21633277Y-10631902D01*
X21633277Y-10735848D01*
X21737223Y-10735848D01*
X28722223Y-5274848D02*
X28722223Y-5170902D01*
X28618277Y-5170902D01*
X28618277Y-5274848D01*
X28722223Y-5274848D01*
X29357223Y-5020848D02*
X29357223Y-4916902D01*
X29253277Y-4916902D01*
X29253277Y-5020848D01*
X29357223Y-5020848D01*
X18244723Y-5274848D02*
X18244723Y-5170902D01*
X18140777Y-5170902D01*
X18140777Y-5274848D01*
X18244723Y-5274848D01*
X18879723Y-5020848D02*
X18879723Y-4916902D01*
X18775777Y-4916902D01*
X18775777Y-5020848D01*
X18879723Y-5020848D01*
X21578473Y-9084848D02*
X21578473Y-8980902D01*
X21474527Y-8980902D01*
X21474527Y-9084848D01*
X21578473Y-9084848D01*
X22213473Y-8830848D02*
X22213473Y-8726902D01*
X22109527Y-8726902D01*
X22109527Y-8830848D01*
X22213473Y-8830848D01*
X4909727Y-10989857D02*
X4909727Y-10885912D01*
X4805782Y-10885912D01*
X4805782Y-10989857D01*
X4909727Y-10989857D01*
X5544727Y-10735857D02*
X5544727Y-10631912D01*
X5440782Y-10631912D01*
X5440782Y-10735857D01*
X5544727Y-10735857D01*
X7767230Y-9084856D02*
X7767230Y-8980910D01*
X7663284Y-8980910D01*
X7663284Y-9084856D01*
X7767230Y-9084856D01*
X8402230Y-8830856D02*
X8402230Y-8726910D01*
X8298284Y-8726910D01*
X8298284Y-8830856D01*
X8402230Y-8830856D01*
X23007223Y-10989848D02*
X23007223Y-10885902D01*
X22903277Y-10885902D01*
X22903277Y-10989848D01*
X23007223Y-10989848D01*
X23642223Y-10735848D02*
X23642223Y-10631902D01*
X23538277Y-10631902D01*
X23538277Y-10735848D01*
X23642223Y-10735848D01*
X16339723Y-5274848D02*
X16339723Y-5170902D01*
X16235777Y-5170902D01*
X16235777Y-5274848D01*
X16339723Y-5274848D01*
X16974723Y-5020848D02*
X16974723Y-4916902D01*
X16870777Y-4916902D01*
X16870777Y-5020848D01*
X16974723Y-5020848D01*
D12*
X-132791Y-12612599D02*
X-132791Y-12312599D01*
X-61362Y-12312599D01*
X-18505Y-12326885D01*
X10067Y-12355457D01*
X24352Y-12384028D01*
X38638Y-12441171D01*
X38638Y-12484028D01*
X24352Y-12541171D01*
X10067Y-12569742D01*
X-18505Y-12598314D01*
X-61362Y-12612599D01*
X-132791Y-12612599D01*
X167209Y-12612599D02*
X167209Y-12412599D01*
X167209Y-12469742D02*
X181495Y-12441171D01*
X195781Y-12426885D01*
X224352Y-12412599D01*
X252924Y-12412599D01*
X352924Y-12612599D02*
X352924Y-12412599D01*
X352924Y-12312599D02*
X338638Y-12326885D01*
X352924Y-12341171D01*
X367209Y-12326885D01*
X352924Y-12312599D01*
X352924Y-12341171D01*
X538638Y-12612599D02*
X510066Y-12598314D01*
X495781Y-12569742D01*
X495781Y-12312599D01*
X695781Y-12612599D02*
X667209Y-12598314D01*
X652924Y-12569742D01*
X652924Y-12312599D01*
X1038638Y-12612599D02*
X1038638Y-12312599D01*
X1138638Y-12526885D01*
X1238638Y-12312599D01*
X1238638Y-12612599D01*
X1510066Y-12612599D02*
X1510066Y-12455457D01*
X1495781Y-12426885D01*
X1467209Y-12412599D01*
X1410066Y-12412599D01*
X1381495Y-12426885D01*
X1510066Y-12598314D02*
X1481495Y-12612599D01*
X1410066Y-12612599D01*
X1381495Y-12598314D01*
X1367209Y-12569742D01*
X1367209Y-12541171D01*
X1381495Y-12512599D01*
X1410066Y-12498314D01*
X1481495Y-12498314D01*
X1510066Y-12484028D01*
X1652924Y-12412599D02*
X1652924Y-12712599D01*
X1652924Y-12426885D02*
X1681495Y-12412599D01*
X1738638Y-12412599D01*
X1767209Y-12426885D01*
X1781495Y-12441171D01*
X1795781Y-12469742D01*
X1795781Y-12555457D01*
X1781495Y-12584028D01*
X1767209Y-12598314D01*
X1738638Y-12612599D01*
X1681495Y-12612599D01*
X1652924Y-12598314D01*
X1924352Y-12584028D02*
X1938638Y-12598314D01*
X1924352Y-12612599D01*
X1910066Y-12598314D01*
X1924352Y-12584028D01*
X1924352Y-12612599D01*
X1924352Y-12426885D02*
X1938638Y-12441171D01*
X1924352Y-12455457D01*
X1910066Y-12441171D01*
X1924352Y-12426885D01*
X1924352Y-12455457D01*
X-459219Y-13086885D02*
X-419219Y-13126885D01*
X-419219Y-13086885D02*
X-459219Y-13126885D01*
X-75648Y-12942599D02*
X-47076Y-12942599D01*
X-18505Y-12956885D01*
X-4219Y-12971171D01*
X10067Y-12999742D01*
X24352Y-13056885D01*
X24352Y-13128314D01*
X10067Y-13185457D01*
X-4219Y-13214028D01*
X-18505Y-13228314D01*
X-47076Y-13242599D01*
X-75648Y-13242599D01*
X-104219Y-13228314D01*
X-118505Y-13214028D01*
X-132791Y-13185457D01*
X-147076Y-13128314D01*
X-147076Y-13056885D01*
X-132791Y-12999742D01*
X-118505Y-12971171D01*
X-104219Y-12956885D01*
X-75648Y-12942599D01*
X152924Y-13214028D02*
X167209Y-13228314D01*
X152924Y-13242599D01*
X138638Y-13228314D01*
X152924Y-13214028D01*
X152924Y-13242599D01*
X424352Y-13042599D02*
X424352Y-13242599D01*
X352924Y-12928314D02*
X281495Y-13142599D01*
X467209Y-13142599D01*
X638638Y-12942599D02*
X667209Y-12942599D01*
X695781Y-12956885D01*
X710066Y-12971171D01*
X724352Y-12999742D01*
X738638Y-13056885D01*
X738638Y-13128314D01*
X724352Y-13185457D01*
X710066Y-13214028D01*
X695781Y-13228314D01*
X667209Y-13242599D01*
X638638Y-13242599D01*
X610067Y-13228314D01*
X595781Y-13214028D01*
X581495Y-13185457D01*
X567209Y-13128314D01*
X567209Y-13056885D01*
X581495Y-12999742D01*
X595781Y-12971171D01*
X610067Y-12956885D01*
X638638Y-12942599D01*
X867209Y-13242599D02*
X867209Y-13042599D01*
X867209Y-13071171D02*
X881495Y-13056885D01*
X910066Y-13042599D01*
X952924Y-13042599D01*
X981495Y-13056885D01*
X995781Y-13085457D01*
X995781Y-13242599D01*
X995781Y-13085457D02*
X1010066Y-13056885D01*
X1038638Y-13042599D01*
X1081495Y-13042599D01*
X1110067Y-13056885D01*
X1124352Y-13085457D01*
X1124352Y-13242599D01*
X1267209Y-13242599D02*
X1267209Y-13042599D01*
X1267209Y-13071171D02*
X1281495Y-13056885D01*
X1310067Y-13042599D01*
X1352924Y-13042599D01*
X1381495Y-13056885D01*
X1395781Y-13085457D01*
X1395781Y-13242599D01*
X1395781Y-13085457D02*
X1410066Y-13056885D01*
X1438638Y-13042599D01*
X1481495Y-13042599D01*
X1510066Y-13056885D01*
X1524352Y-13085457D01*
X1524352Y-13242599D01*
X2110067Y-12928314D02*
X1852924Y-13314028D01*
X2495781Y-12942599D02*
X2524352Y-12942599D01*
X2552924Y-12956885D01*
X2567209Y-12971171D01*
X2581495Y-12999742D01*
X2595781Y-13056885D01*
X2595781Y-13128314D01*
X2581495Y-13185457D01*
X2567209Y-13214028D01*
X2552924Y-13228314D01*
X2524352Y-13242599D01*
X2495781Y-13242599D01*
X2467209Y-13228314D01*
X2452924Y-13214028D01*
X2438638Y-13185457D01*
X2424352Y-13128314D01*
X2424352Y-13056885D01*
X2438638Y-12999742D01*
X2452924Y-12971171D01*
X2467209Y-12956885D01*
X2495781Y-12942599D01*
X2724352Y-13214028D02*
X2738638Y-13228314D01*
X2724352Y-13242599D01*
X2710067Y-13228314D01*
X2724352Y-13214028D01*
X2724352Y-13242599D01*
X2924352Y-12942599D02*
X2952924Y-12942599D01*
X2981495Y-12956885D01*
X2995781Y-12971171D01*
X3010066Y-12999742D01*
X3024352Y-13056885D01*
X3024352Y-13128314D01*
X3010066Y-13185457D01*
X2995781Y-13214028D01*
X2981495Y-13228314D01*
X2952924Y-13242599D01*
X2924352Y-13242599D01*
X2895781Y-13228314D01*
X2881495Y-13214028D01*
X2867209Y-13185457D01*
X2852924Y-13128314D01*
X2852924Y-13056885D01*
X2867209Y-12999742D01*
X2881495Y-12971171D01*
X2895781Y-12956885D01*
X2924352Y-12942599D01*
X3310066Y-13242599D02*
X3138638Y-13242599D01*
X3224352Y-13242599D02*
X3224352Y-12942599D01*
X3195781Y-12985457D01*
X3167209Y-13014028D01*
X3138638Y-13028314D01*
X3567209Y-12942599D02*
X3510066Y-12942599D01*
X3481495Y-12956885D01*
X3467209Y-12971171D01*
X3438638Y-13014028D01*
X3424352Y-13071171D01*
X3424352Y-13185457D01*
X3438638Y-13214028D01*
X3452924Y-13228314D01*
X3481495Y-13242599D01*
X3538638Y-13242599D01*
X3567209Y-13228314D01*
X3581495Y-13214028D01*
X3595781Y-13185457D01*
X3595781Y-13114028D01*
X3581495Y-13085457D01*
X3567209Y-13071171D01*
X3538638Y-13056885D01*
X3481495Y-13056885D01*
X3452924Y-13071171D01*
X3438638Y-13085457D01*
X3424352Y-13114028D01*
X3710066Y-12942599D02*
X3710066Y-12999742D01*
X3824352Y-12942599D02*
X3824352Y-12999742D01*
X4267209Y-13356885D02*
X4252924Y-13342599D01*
X4224352Y-13299742D01*
X4210067Y-13271171D01*
X4195781Y-13228314D01*
X4181495Y-13156885D01*
X4181495Y-13099742D01*
X4195781Y-13028314D01*
X4210067Y-12985457D01*
X4224352Y-12956885D01*
X4252924Y-12914028D01*
X4267209Y-12899742D01*
X4510067Y-12942599D02*
X4452924Y-12942599D01*
X4424352Y-12956885D01*
X4410067Y-12971171D01*
X4381495Y-13014028D01*
X4367209Y-13071171D01*
X4367209Y-13185457D01*
X4381495Y-13214028D01*
X4395781Y-13228314D01*
X4424352Y-13242599D01*
X4481495Y-13242599D01*
X4510067Y-13228314D01*
X4524352Y-13214028D01*
X4538638Y-13185457D01*
X4538638Y-13114028D01*
X4524352Y-13085457D01*
X4510067Y-13071171D01*
X4481495Y-13056885D01*
X4424352Y-13056885D01*
X4395781Y-13071171D01*
X4381495Y-13085457D01*
X4367209Y-13114028D01*
X4710067Y-13071171D02*
X4681495Y-13056885D01*
X4667209Y-13042599D01*
X4652924Y-13014028D01*
X4652924Y-12999742D01*
X4667209Y-12971171D01*
X4681495Y-12956885D01*
X4710067Y-12942599D01*
X4767209Y-12942599D01*
X4795781Y-12956885D01*
X4810067Y-12971171D01*
X4824352Y-12999742D01*
X4824352Y-13014028D01*
X4810067Y-13042599D01*
X4795781Y-13056885D01*
X4767209Y-13071171D01*
X4710067Y-13071171D01*
X4681495Y-13085457D01*
X4667209Y-13099742D01*
X4652924Y-13128314D01*
X4652924Y-13185457D01*
X4667209Y-13214028D01*
X4681495Y-13228314D01*
X4710067Y-13242599D01*
X4767209Y-13242599D01*
X4795781Y-13228314D01*
X4810067Y-13214028D01*
X4824352Y-13185457D01*
X4824352Y-13128314D01*
X4810067Y-13099742D01*
X4795781Y-13085457D01*
X4767209Y-13071171D01*
X5181495Y-13242599D02*
X5181495Y-12942599D01*
X5310067Y-13242599D02*
X5310067Y-13085457D01*
X5295781Y-13056885D01*
X5267209Y-13042599D01*
X5224352Y-13042599D01*
X5195781Y-13056885D01*
X5181495Y-13071171D01*
X5495781Y-13242599D02*
X5467209Y-13228314D01*
X5452924Y-13214028D01*
X5438638Y-13185457D01*
X5438638Y-13099742D01*
X5452924Y-13071171D01*
X5467209Y-13056885D01*
X5495781Y-13042599D01*
X5538638Y-13042599D01*
X5567209Y-13056885D01*
X5581495Y-13071171D01*
X5595781Y-13099742D01*
X5595781Y-13185457D01*
X5581495Y-13214028D01*
X5567209Y-13228314D01*
X5538638Y-13242599D01*
X5495781Y-13242599D01*
X5767209Y-13242599D02*
X5738638Y-13228314D01*
X5724352Y-13199742D01*
X5724352Y-12942599D01*
X5995781Y-13228314D02*
X5967209Y-13242599D01*
X5910066Y-13242599D01*
X5881495Y-13228314D01*
X5867209Y-13199742D01*
X5867209Y-13085457D01*
X5881495Y-13056885D01*
X5910066Y-13042599D01*
X5967209Y-13042599D01*
X5995781Y-13056885D01*
X6010066Y-13085457D01*
X6010066Y-13114028D01*
X5867209Y-13142599D01*
X6124352Y-13228314D02*
X6152924Y-13242599D01*
X6210066Y-13242599D01*
X6238638Y-13228314D01*
X6252924Y-13199742D01*
X6252924Y-13185457D01*
X6238638Y-13156885D01*
X6210066Y-13142599D01*
X6167209Y-13142599D01*
X6138638Y-13128314D01*
X6124352Y-13099742D01*
X6124352Y-13085457D01*
X6138638Y-13056885D01*
X6167209Y-13042599D01*
X6210066Y-13042599D01*
X6238638Y-13056885D01*
X6352924Y-13356885D02*
X6367209Y-13342599D01*
X6395781Y-13299742D01*
X6410066Y-13271171D01*
X6424352Y-13228314D01*
X6438638Y-13156885D01*
X6438638Y-13099742D01*
X6424352Y-13028314D01*
X6410066Y-12985457D01*
X6395781Y-12956885D01*
X6367209Y-12914028D01*
X6352924Y-12899742D01*
X-419219Y-13502885D02*
G75*
G03*
X-419219Y-13502885I-40000J0D01*
G01*
X-75648Y-13338599D02*
X-47076Y-13338599D01*
X-18505Y-13352885D01*
X-4219Y-13367171D01*
X10067Y-13395742D01*
X24352Y-13452885D01*
X24352Y-13524314D01*
X10067Y-13581457D01*
X-4219Y-13610028D01*
X-18505Y-13624314D01*
X-47076Y-13638599D01*
X-75648Y-13638599D01*
X-104219Y-13624314D01*
X-118505Y-13610028D01*
X-132791Y-13581457D01*
X-147076Y-13524314D01*
X-147076Y-13452885D01*
X-132791Y-13395742D01*
X-118505Y-13367171D01*
X-104219Y-13352885D01*
X-75648Y-13338599D01*
X152924Y-13610028D02*
X167209Y-13624314D01*
X152924Y-13638599D01*
X138638Y-13624314D01*
X152924Y-13610028D01*
X152924Y-13638599D01*
X338638Y-13467171D02*
X310067Y-13452885D01*
X295781Y-13438599D01*
X281495Y-13410028D01*
X281495Y-13395742D01*
X295781Y-13367171D01*
X310067Y-13352885D01*
X338638Y-13338599D01*
X395781Y-13338599D01*
X424352Y-13352885D01*
X438638Y-13367171D01*
X452924Y-13395742D01*
X452924Y-13410028D01*
X438638Y-13438599D01*
X424352Y-13452885D01*
X395781Y-13467171D01*
X338638Y-13467171D01*
X310067Y-13481457D01*
X295781Y-13495742D01*
X281495Y-13524314D01*
X281495Y-13581457D01*
X295781Y-13610028D01*
X310067Y-13624314D01*
X338638Y-13638599D01*
X395781Y-13638599D01*
X424352Y-13624314D01*
X438638Y-13610028D01*
X452924Y-13581457D01*
X452924Y-13524314D01*
X438638Y-13495742D01*
X424352Y-13481457D01*
X395781Y-13467171D01*
X638638Y-13338599D02*
X667209Y-13338599D01*
X695781Y-13352885D01*
X710066Y-13367171D01*
X724352Y-13395742D01*
X738638Y-13452885D01*
X738638Y-13524314D01*
X724352Y-13581457D01*
X710066Y-13610028D01*
X695781Y-13624314D01*
X667209Y-13638599D01*
X638638Y-13638599D01*
X610067Y-13624314D01*
X595781Y-13610028D01*
X581495Y-13581457D01*
X567209Y-13524314D01*
X567209Y-13452885D01*
X581495Y-13395742D01*
X595781Y-13367171D01*
X610067Y-13352885D01*
X638638Y-13338599D01*
X867209Y-13638599D02*
X867209Y-13438599D01*
X867209Y-13467171D02*
X881495Y-13452885D01*
X910066Y-13438599D01*
X952924Y-13438599D01*
X981495Y-13452885D01*
X995781Y-13481457D01*
X995781Y-13638599D01*
X995781Y-13481457D02*
X1010066Y-13452885D01*
X1038638Y-13438599D01*
X1081495Y-13438599D01*
X1110067Y-13452885D01*
X1124352Y-13481457D01*
X1124352Y-13638599D01*
X1267209Y-13638599D02*
X1267209Y-13438599D01*
X1267209Y-13467171D02*
X1281495Y-13452885D01*
X1310067Y-13438599D01*
X1352924Y-13438599D01*
X1381495Y-13452885D01*
X1395781Y-13481457D01*
X1395781Y-13638599D01*
X1395781Y-13481457D02*
X1410066Y-13452885D01*
X1438638Y-13438599D01*
X1481495Y-13438599D01*
X1510066Y-13452885D01*
X1524352Y-13481457D01*
X1524352Y-13638599D01*
X2110067Y-13324314D02*
X1852924Y-13710028D01*
X2495781Y-13338599D02*
X2524352Y-13338599D01*
X2552924Y-13352885D01*
X2567209Y-13367171D01*
X2581495Y-13395742D01*
X2595781Y-13452885D01*
X2595781Y-13524314D01*
X2581495Y-13581457D01*
X2567209Y-13610028D01*
X2552924Y-13624314D01*
X2524352Y-13638599D01*
X2495781Y-13638599D01*
X2467209Y-13624314D01*
X2452924Y-13610028D01*
X2438638Y-13581457D01*
X2424352Y-13524314D01*
X2424352Y-13452885D01*
X2438638Y-13395742D01*
X2452924Y-13367171D01*
X2467209Y-13352885D01*
X2495781Y-13338599D01*
X2724352Y-13610028D02*
X2738638Y-13624314D01*
X2724352Y-13638599D01*
X2710067Y-13624314D01*
X2724352Y-13610028D01*
X2724352Y-13638599D01*
X2924352Y-13338599D02*
X2952924Y-13338599D01*
X2981495Y-13352885D01*
X2995781Y-13367171D01*
X3010066Y-13395742D01*
X3024352Y-13452885D01*
X3024352Y-13524314D01*
X3010066Y-13581457D01*
X2995781Y-13610028D01*
X2981495Y-13624314D01*
X2952924Y-13638599D01*
X2924352Y-13638599D01*
X2895781Y-13624314D01*
X2881495Y-13610028D01*
X2867209Y-13581457D01*
X2852924Y-13524314D01*
X2852924Y-13452885D01*
X2867209Y-13395742D01*
X2881495Y-13367171D01*
X2895781Y-13352885D01*
X2924352Y-13338599D01*
X3124352Y-13338599D02*
X3310066Y-13338599D01*
X3210066Y-13452885D01*
X3252924Y-13452885D01*
X3281495Y-13467171D01*
X3295781Y-13481457D01*
X3310066Y-13510028D01*
X3310066Y-13581457D01*
X3295781Y-13610028D01*
X3281495Y-13624314D01*
X3252924Y-13638599D01*
X3167209Y-13638599D01*
X3138638Y-13624314D01*
X3124352Y-13610028D01*
X3595781Y-13638599D02*
X3424352Y-13638599D01*
X3510066Y-13638599D02*
X3510066Y-13338599D01*
X3481495Y-13381457D01*
X3452924Y-13410028D01*
X3424352Y-13424314D01*
X3710066Y-13338599D02*
X3710066Y-13395742D01*
X3824352Y-13338599D02*
X3824352Y-13395742D01*
X4267209Y-13752885D02*
X4252924Y-13738599D01*
X4224352Y-13695742D01*
X4210067Y-13667171D01*
X4195781Y-13624314D01*
X4181495Y-13552885D01*
X4181495Y-13495742D01*
X4195781Y-13424314D01*
X4210067Y-13381457D01*
X4224352Y-13352885D01*
X4252924Y-13310028D01*
X4267209Y-13295742D01*
X4395781Y-13638599D02*
X4452924Y-13638599D01*
X4481495Y-13624314D01*
X4495781Y-13610028D01*
X4524352Y-13567171D01*
X4538638Y-13510028D01*
X4538638Y-13395742D01*
X4524352Y-13367171D01*
X4510067Y-13352885D01*
X4481495Y-13338599D01*
X4424352Y-13338599D01*
X4395781Y-13352885D01*
X4381495Y-13367171D01*
X4367209Y-13395742D01*
X4367209Y-13467171D01*
X4381495Y-13495742D01*
X4395781Y-13510028D01*
X4424352Y-13524314D01*
X4481495Y-13524314D01*
X4510067Y-13510028D01*
X4524352Y-13495742D01*
X4538638Y-13467171D01*
X4895781Y-13638599D02*
X4895781Y-13338599D01*
X5024352Y-13638599D02*
X5024352Y-13481457D01*
X5010067Y-13452885D01*
X4981495Y-13438599D01*
X4938638Y-13438599D01*
X4910067Y-13452885D01*
X4895781Y-13467171D01*
X5210067Y-13638599D02*
X5181495Y-13624314D01*
X5167209Y-13610028D01*
X5152924Y-13581457D01*
X5152924Y-13495742D01*
X5167209Y-13467171D01*
X5181495Y-13452885D01*
X5210067Y-13438599D01*
X5252924Y-13438599D01*
X5281495Y-13452885D01*
X5295781Y-13467171D01*
X5310067Y-13495742D01*
X5310067Y-13581457D01*
X5295781Y-13610028D01*
X5281495Y-13624314D01*
X5252924Y-13638599D01*
X5210067Y-13638599D01*
X5481495Y-13638599D02*
X5452924Y-13624314D01*
X5438638Y-13595742D01*
X5438638Y-13338599D01*
X5710066Y-13624314D02*
X5681495Y-13638599D01*
X5624352Y-13638599D01*
X5595781Y-13624314D01*
X5581495Y-13595742D01*
X5581495Y-13481457D01*
X5595781Y-13452885D01*
X5624352Y-13438599D01*
X5681495Y-13438599D01*
X5710066Y-13452885D01*
X5724352Y-13481457D01*
X5724352Y-13510028D01*
X5581495Y-13538599D01*
X5838638Y-13624314D02*
X5867209Y-13638599D01*
X5924352Y-13638599D01*
X5952924Y-13624314D01*
X5967209Y-13595742D01*
X5967209Y-13581457D01*
X5952924Y-13552885D01*
X5924352Y-13538599D01*
X5881495Y-13538599D01*
X5852924Y-13524314D01*
X5838638Y-13495742D01*
X5838638Y-13481457D01*
X5852924Y-13452885D01*
X5881495Y-13438599D01*
X5924352Y-13438599D01*
X5952924Y-13452885D01*
X6067209Y-13752885D02*
X6081495Y-13738599D01*
X6110066Y-13695742D01*
X6124352Y-13667171D01*
X6138638Y-13624314D01*
X6152924Y-13552885D01*
X6152924Y-13495742D01*
X6138638Y-13424314D01*
X6124352Y-13381457D01*
X6110066Y-13352885D01*
X6081495Y-13310028D01*
X6067209Y-13295742D01*
X-463669Y-13854435D02*
X-463669Y-13943335D01*
X-508119Y-13898885D02*
X-419219Y-13898885D01*
X-75648Y-13734599D02*
X-47076Y-13734599D01*
X-18505Y-13748885D01*
X-4219Y-13763171D01*
X10067Y-13791742D01*
X24352Y-13848885D01*
X24352Y-13920314D01*
X10067Y-13977457D01*
X-4219Y-14006028D01*
X-18505Y-14020314D01*
X-47076Y-14034599D01*
X-75648Y-14034599D01*
X-104219Y-14020314D01*
X-118505Y-14006028D01*
X-132791Y-13977457D01*
X-147076Y-13920314D01*
X-147076Y-13848885D01*
X-132791Y-13791742D01*
X-118505Y-13763171D01*
X-104219Y-13748885D01*
X-75648Y-13734599D01*
X152924Y-14006028D02*
X167209Y-14020314D01*
X152924Y-14034599D01*
X138638Y-14020314D01*
X152924Y-14006028D01*
X152924Y-14034599D01*
X338638Y-13863171D02*
X310067Y-13848885D01*
X295781Y-13834599D01*
X281495Y-13806028D01*
X281495Y-13791742D01*
X295781Y-13763171D01*
X310067Y-13748885D01*
X338638Y-13734599D01*
X395781Y-13734599D01*
X424352Y-13748885D01*
X438638Y-13763171D01*
X452924Y-13791742D01*
X452924Y-13806028D01*
X438638Y-13834599D01*
X424352Y-13848885D01*
X395781Y-13863171D01*
X338638Y-13863171D01*
X310067Y-13877457D01*
X295781Y-13891742D01*
X281495Y-13920314D01*
X281495Y-13977457D01*
X295781Y-14006028D01*
X310067Y-14020314D01*
X338638Y-14034599D01*
X395781Y-14034599D01*
X424352Y-14020314D01*
X438638Y-14006028D01*
X452924Y-13977457D01*
X452924Y-13920314D01*
X438638Y-13891742D01*
X424352Y-13877457D01*
X395781Y-13863171D01*
X595781Y-14034599D02*
X652924Y-14034599D01*
X681495Y-14020314D01*
X695781Y-14006028D01*
X724352Y-13963171D01*
X738638Y-13906028D01*
X738638Y-13791742D01*
X724352Y-13763171D01*
X710066Y-13748885D01*
X681495Y-13734599D01*
X624352Y-13734599D01*
X595781Y-13748885D01*
X581495Y-13763171D01*
X567209Y-13791742D01*
X567209Y-13863171D01*
X581495Y-13891742D01*
X595781Y-13906028D01*
X624352Y-13920314D01*
X681495Y-13920314D01*
X710066Y-13906028D01*
X724352Y-13891742D01*
X738638Y-13863171D01*
X867209Y-14034599D02*
X867209Y-13834599D01*
X867209Y-13863171D02*
X881495Y-13848885D01*
X910066Y-13834599D01*
X952924Y-13834599D01*
X981495Y-13848885D01*
X995781Y-13877457D01*
X995781Y-14034599D01*
X995781Y-13877457D02*
X1010066Y-13848885D01*
X1038638Y-13834599D01*
X1081495Y-13834599D01*
X1110067Y-13848885D01*
X1124352Y-13877457D01*
X1124352Y-14034599D01*
X1267209Y-14034599D02*
X1267209Y-13834599D01*
X1267209Y-13863171D02*
X1281495Y-13848885D01*
X1310067Y-13834599D01*
X1352924Y-13834599D01*
X1381495Y-13848885D01*
X1395781Y-13877457D01*
X1395781Y-14034599D01*
X1395781Y-13877457D02*
X1410066Y-13848885D01*
X1438638Y-13834599D01*
X1481495Y-13834599D01*
X1510066Y-13848885D01*
X1524352Y-13877457D01*
X1524352Y-14034599D01*
X2110067Y-13720314D02*
X1852924Y-14106028D01*
X2495781Y-13734599D02*
X2524352Y-13734599D01*
X2552924Y-13748885D01*
X2567209Y-13763171D01*
X2581495Y-13791742D01*
X2595781Y-13848885D01*
X2595781Y-13920314D01*
X2581495Y-13977457D01*
X2567209Y-14006028D01*
X2552924Y-14020314D01*
X2524352Y-14034599D01*
X2495781Y-14034599D01*
X2467209Y-14020314D01*
X2452924Y-14006028D01*
X2438638Y-13977457D01*
X2424352Y-13920314D01*
X2424352Y-13848885D01*
X2438638Y-13791742D01*
X2452924Y-13763171D01*
X2467209Y-13748885D01*
X2495781Y-13734599D01*
X2724352Y-14006028D02*
X2738638Y-14020314D01*
X2724352Y-14034599D01*
X2710067Y-14020314D01*
X2724352Y-14006028D01*
X2724352Y-14034599D01*
X2924352Y-13734599D02*
X2952924Y-13734599D01*
X2981495Y-13748885D01*
X2995781Y-13763171D01*
X3010066Y-13791742D01*
X3024352Y-13848885D01*
X3024352Y-13920314D01*
X3010066Y-13977457D01*
X2995781Y-14006028D01*
X2981495Y-14020314D01*
X2952924Y-14034599D01*
X2924352Y-14034599D01*
X2895781Y-14020314D01*
X2881495Y-14006028D01*
X2867209Y-13977457D01*
X2852924Y-13920314D01*
X2852924Y-13848885D01*
X2867209Y-13791742D01*
X2881495Y-13763171D01*
X2895781Y-13748885D01*
X2924352Y-13734599D01*
X3124352Y-13734599D02*
X3310066Y-13734599D01*
X3210066Y-13848885D01*
X3252924Y-13848885D01*
X3281495Y-13863171D01*
X3295781Y-13877457D01*
X3310066Y-13906028D01*
X3310066Y-13977457D01*
X3295781Y-14006028D01*
X3281495Y-14020314D01*
X3252924Y-14034599D01*
X3167209Y-14034599D01*
X3138638Y-14020314D01*
X3124352Y-14006028D01*
X3581495Y-13734599D02*
X3438638Y-13734599D01*
X3424352Y-13877457D01*
X3438638Y-13863171D01*
X3467209Y-13848885D01*
X3538638Y-13848885D01*
X3567209Y-13863171D01*
X3581495Y-13877457D01*
X3595781Y-13906028D01*
X3595781Y-13977457D01*
X3581495Y-14006028D01*
X3567209Y-14020314D01*
X3538638Y-14034599D01*
X3467209Y-14034599D01*
X3438638Y-14020314D01*
X3424352Y-14006028D01*
X3710066Y-13734599D02*
X3710066Y-13791742D01*
X3824352Y-13734599D02*
X3824352Y-13791742D01*
X4267209Y-14148885D02*
X4252924Y-14134599D01*
X4224352Y-14091742D01*
X4210067Y-14063171D01*
X4195781Y-14020314D01*
X4181495Y-13948885D01*
X4181495Y-13891742D01*
X4195781Y-13820314D01*
X4210067Y-13777457D01*
X4224352Y-13748885D01*
X4252924Y-13706028D01*
X4267209Y-13691742D01*
X4367209Y-13763171D02*
X4381495Y-13748885D01*
X4410067Y-13734599D01*
X4481495Y-13734599D01*
X4510067Y-13748885D01*
X4524352Y-13763171D01*
X4538638Y-13791742D01*
X4538638Y-13820314D01*
X4524352Y-13863171D01*
X4352924Y-14034599D01*
X4538638Y-14034599D01*
X4795781Y-13834599D02*
X4795781Y-14034599D01*
X4724352Y-13720314D02*
X4652924Y-13934599D01*
X4838638Y-13934599D01*
X5181495Y-14034599D02*
X5181495Y-13734599D01*
X5310067Y-14034599D02*
X5310067Y-13877457D01*
X5295781Y-13848885D01*
X5267209Y-13834599D01*
X5224352Y-13834599D01*
X5195781Y-13848885D01*
X5181495Y-13863171D01*
X5495781Y-14034599D02*
X5467209Y-14020314D01*
X5452924Y-14006028D01*
X5438638Y-13977457D01*
X5438638Y-13891742D01*
X5452924Y-13863171D01*
X5467209Y-13848885D01*
X5495781Y-13834599D01*
X5538638Y-13834599D01*
X5567209Y-13848885D01*
X5581495Y-13863171D01*
X5595781Y-13891742D01*
X5595781Y-13977457D01*
X5581495Y-14006028D01*
X5567209Y-14020314D01*
X5538638Y-14034599D01*
X5495781Y-14034599D01*
X5767209Y-14034599D02*
X5738638Y-14020314D01*
X5724352Y-13991742D01*
X5724352Y-13734599D01*
X5995781Y-14020314D02*
X5967209Y-14034599D01*
X5910066Y-14034599D01*
X5881495Y-14020314D01*
X5867209Y-13991742D01*
X5867209Y-13877457D01*
X5881495Y-13848885D01*
X5910066Y-13834599D01*
X5967209Y-13834599D01*
X5995781Y-13848885D01*
X6010066Y-13877457D01*
X6010066Y-13906028D01*
X5867209Y-13934599D01*
X6124352Y-14020314D02*
X6152924Y-14034599D01*
X6210066Y-14034599D01*
X6238638Y-14020314D01*
X6252924Y-13991742D01*
X6252924Y-13977457D01*
X6238638Y-13948885D01*
X6210066Y-13934599D01*
X6167209Y-13934599D01*
X6138638Y-13920314D01*
X6124352Y-13891742D01*
X6124352Y-13877457D01*
X6138638Y-13848885D01*
X6167209Y-13834599D01*
X6210066Y-13834599D01*
X6238638Y-13848885D01*
X6352924Y-14148885D02*
X6367209Y-14134599D01*
X6395781Y-14091742D01*
X6410066Y-14063171D01*
X6424352Y-14020314D01*
X6438638Y-13948885D01*
X6438638Y-13891742D01*
X6424352Y-13820314D01*
X6410066Y-13777457D01*
X6395781Y-13748885D01*
X6367209Y-13706028D01*
X6352924Y-13691742D01*
X-440746Y-14346858D02*
X-440746Y-14242912D01*
X-544692Y-14242912D01*
X-544692Y-14346858D01*
X-440746Y-14346858D01*
X24352Y-14430599D02*
X-147076Y-14430599D01*
X-61362Y-14430599D02*
X-61362Y-14130599D01*
X-89933Y-14173457D01*
X-118505Y-14202028D01*
X-147076Y-14216314D01*
X152924Y-14402028D02*
X167209Y-14416314D01*
X152924Y-14430599D01*
X138638Y-14416314D01*
X152924Y-14402028D01*
X152924Y-14430599D01*
X424352Y-14230599D02*
X424352Y-14430599D01*
X352924Y-14116314D02*
X281495Y-14330599D01*
X467209Y-14330599D01*
X552924Y-14130599D02*
X752924Y-14130599D01*
X624352Y-14430599D01*
X867209Y-14430599D02*
X867209Y-14230599D01*
X867209Y-14259171D02*
X881495Y-14244885D01*
X910066Y-14230599D01*
X952924Y-14230599D01*
X981495Y-14244885D01*
X995781Y-14273457D01*
X995781Y-14430599D01*
X995781Y-14273457D02*
X1010066Y-14244885D01*
X1038638Y-14230599D01*
X1081495Y-14230599D01*
X1110067Y-14244885D01*
X1124352Y-14273457D01*
X1124352Y-14430599D01*
X1267209Y-14430599D02*
X1267209Y-14230599D01*
X1267209Y-14259171D02*
X1281495Y-14244885D01*
X1310067Y-14230599D01*
X1352924Y-14230599D01*
X1381495Y-14244885D01*
X1395781Y-14273457D01*
X1395781Y-14430599D01*
X1395781Y-14273457D02*
X1410066Y-14244885D01*
X1438638Y-14230599D01*
X1481495Y-14230599D01*
X1510066Y-14244885D01*
X1524352Y-14273457D01*
X1524352Y-14430599D01*
X2110067Y-14116314D02*
X1852924Y-14502028D01*
X2495781Y-14130599D02*
X2524352Y-14130599D01*
X2552924Y-14144885D01*
X2567209Y-14159171D01*
X2581495Y-14187742D01*
X2595781Y-14244885D01*
X2595781Y-14316314D01*
X2581495Y-14373457D01*
X2567209Y-14402028D01*
X2552924Y-14416314D01*
X2524352Y-14430599D01*
X2495781Y-14430599D01*
X2467209Y-14416314D01*
X2452924Y-14402028D01*
X2438638Y-14373457D01*
X2424352Y-14316314D01*
X2424352Y-14244885D01*
X2438638Y-14187742D01*
X2452924Y-14159171D01*
X2467209Y-14144885D01*
X2495781Y-14130599D01*
X2724352Y-14402028D02*
X2738638Y-14416314D01*
X2724352Y-14430599D01*
X2710067Y-14416314D01*
X2724352Y-14402028D01*
X2724352Y-14430599D01*
X2924352Y-14130599D02*
X2952924Y-14130599D01*
X2981495Y-14144885D01*
X2995781Y-14159171D01*
X3010066Y-14187742D01*
X3024352Y-14244885D01*
X3024352Y-14316314D01*
X3010066Y-14373457D01*
X2995781Y-14402028D01*
X2981495Y-14416314D01*
X2952924Y-14430599D01*
X2924352Y-14430599D01*
X2895781Y-14416314D01*
X2881495Y-14402028D01*
X2867209Y-14373457D01*
X2852924Y-14316314D01*
X2852924Y-14244885D01*
X2867209Y-14187742D01*
X2881495Y-14159171D01*
X2895781Y-14144885D01*
X2924352Y-14130599D01*
X3295781Y-14130599D02*
X3152924Y-14130599D01*
X3138638Y-14273457D01*
X3152924Y-14259171D01*
X3181495Y-14244885D01*
X3252924Y-14244885D01*
X3281495Y-14259171D01*
X3295781Y-14273457D01*
X3310066Y-14302028D01*
X3310066Y-14373457D01*
X3295781Y-14402028D01*
X3281495Y-14416314D01*
X3252924Y-14430599D01*
X3181495Y-14430599D01*
X3152924Y-14416314D01*
X3138638Y-14402028D01*
X3481495Y-14259171D02*
X3452924Y-14244885D01*
X3438638Y-14230599D01*
X3424352Y-14202028D01*
X3424352Y-14187742D01*
X3438638Y-14159171D01*
X3452924Y-14144885D01*
X3481495Y-14130599D01*
X3538638Y-14130599D01*
X3567209Y-14144885D01*
X3581495Y-14159171D01*
X3595781Y-14187742D01*
X3595781Y-14202028D01*
X3581495Y-14230599D01*
X3567209Y-14244885D01*
X3538638Y-14259171D01*
X3481495Y-14259171D01*
X3452924Y-14273457D01*
X3438638Y-14287742D01*
X3424352Y-14316314D01*
X3424352Y-14373457D01*
X3438638Y-14402028D01*
X3452924Y-14416314D01*
X3481495Y-14430599D01*
X3538638Y-14430599D01*
X3567209Y-14416314D01*
X3581495Y-14402028D01*
X3595781Y-14373457D01*
X3595781Y-14316314D01*
X3581495Y-14287742D01*
X3567209Y-14273457D01*
X3538638Y-14259171D01*
X3710066Y-14130599D02*
X3710066Y-14187742D01*
X3824352Y-14130599D02*
X3824352Y-14187742D01*
X4267209Y-14544885D02*
X4252924Y-14530599D01*
X4224352Y-14487742D01*
X4210067Y-14459171D01*
X4195781Y-14416314D01*
X4181495Y-14344885D01*
X4181495Y-14287742D01*
X4195781Y-14216314D01*
X4210067Y-14173457D01*
X4224352Y-14144885D01*
X4252924Y-14102028D01*
X4267209Y-14087742D01*
X4538638Y-14430599D02*
X4367209Y-14430599D01*
X4452924Y-14430599D02*
X4452924Y-14130599D01*
X4424352Y-14173457D01*
X4395781Y-14202028D01*
X4367209Y-14216314D01*
X4681495Y-14430599D02*
X4738638Y-14430599D01*
X4767209Y-14416314D01*
X4781495Y-14402028D01*
X4810067Y-14359171D01*
X4824352Y-14302028D01*
X4824352Y-14187742D01*
X4810067Y-14159171D01*
X4795781Y-14144885D01*
X4767209Y-14130599D01*
X4710067Y-14130599D01*
X4681495Y-14144885D01*
X4667209Y-14159171D01*
X4652924Y-14187742D01*
X4652924Y-14259171D01*
X4667209Y-14287742D01*
X4681495Y-14302028D01*
X4710067Y-14316314D01*
X4767209Y-14316314D01*
X4795781Y-14302028D01*
X4810067Y-14287742D01*
X4824352Y-14259171D01*
X5081495Y-14130599D02*
X5024352Y-14130599D01*
X4995781Y-14144885D01*
X4981495Y-14159171D01*
X4952924Y-14202028D01*
X4938638Y-14259171D01*
X4938638Y-14373457D01*
X4952924Y-14402028D01*
X4967209Y-14416314D01*
X4995781Y-14430599D01*
X5052924Y-14430599D01*
X5081495Y-14416314D01*
X5095781Y-14402028D01*
X5110067Y-14373457D01*
X5110067Y-14302028D01*
X5095781Y-14273457D01*
X5081495Y-14259171D01*
X5052924Y-14244885D01*
X4995781Y-14244885D01*
X4967209Y-14259171D01*
X4952924Y-14273457D01*
X4938638Y-14302028D01*
X5467209Y-14430599D02*
X5467209Y-14130599D01*
X5595781Y-14430599D02*
X5595781Y-14273457D01*
X5581495Y-14244885D01*
X5552924Y-14230599D01*
X5510067Y-14230599D01*
X5481495Y-14244885D01*
X5467209Y-14259171D01*
X5781495Y-14430599D02*
X5752924Y-14416314D01*
X5738638Y-14402028D01*
X5724352Y-14373457D01*
X5724352Y-14287742D01*
X5738638Y-14259171D01*
X5752924Y-14244885D01*
X5781495Y-14230599D01*
X5824352Y-14230599D01*
X5852924Y-14244885D01*
X5867209Y-14259171D01*
X5881495Y-14287742D01*
X5881495Y-14373457D01*
X5867209Y-14402028D01*
X5852924Y-14416314D01*
X5824352Y-14430599D01*
X5781495Y-14430599D01*
X6052924Y-14430599D02*
X6024352Y-14416314D01*
X6010066Y-14387742D01*
X6010066Y-14130599D01*
X6281495Y-14416314D02*
X6252924Y-14430599D01*
X6195781Y-14430599D01*
X6167209Y-14416314D01*
X6152924Y-14387742D01*
X6152924Y-14273457D01*
X6167209Y-14244885D01*
X6195781Y-14230599D01*
X6252924Y-14230599D01*
X6281495Y-14244885D01*
X6295781Y-14273457D01*
X6295781Y-14302028D01*
X6152924Y-14330599D01*
X6410066Y-14416314D02*
X6438638Y-14430599D01*
X6495781Y-14430599D01*
X6524352Y-14416314D01*
X6538638Y-14387742D01*
X6538638Y-14373457D01*
X6524352Y-14344885D01*
X6495781Y-14330599D01*
X6452924Y-14330599D01*
X6424352Y-14316314D01*
X6410066Y-14287742D01*
X6410066Y-14273457D01*
X6424352Y-14244885D01*
X6452924Y-14230599D01*
X6495781Y-14230599D01*
X6524352Y-14244885D01*
X6638638Y-14544885D02*
X6652924Y-14530599D01*
X6681495Y-14487742D01*
X6695781Y-14459171D01*
X6710066Y-14416314D01*
X6724352Y-14344885D01*
X6724352Y-14287742D01*
X6710066Y-14216314D01*
X6695781Y-14173457D01*
X6681495Y-14144885D01*
X6652924Y-14102028D01*
X6638638Y-14087742D01*
M02*
