M48
; DRILL file {KiCad (5.1.8-0-10_14)} date Sunday, September 26, 2021 at 01:45:01 AM
; FORMAT={-:-/ absolute / metric / decimal}
; #@! TF.CreationDate,2021-09-26T01:45:01+09:00
; #@! TF.GenerationSoftware,Kicad,Pcbnew,(5.1.8-0-10_14)
; #@! TF.FileFunction,Plated,1,2,PTH
FMAT,2
METRIC
T1C0.400
T2C0.800
T3C0.889
T4C1.470
%
G90
G05
T1
X-2.381Y-33.933
X2.713Y-50.404
X3.572Y-57.15
X7.739Y-47.625
X8.334Y-98.822
X9.525Y-51.197
X11.906Y-33.933
X11.906Y-40.481
X13.097Y-31.552
X13.097Y-98.822
X13.692Y-105.37
X19.05Y-100.608
X20.241Y-105.37
X22.027Y-49.411
X22.027Y-69.056
X27.384Y-63.698
X28.575Y-95.25
X28.694Y-43.339
X31.552Y-36.909
X33.338Y-45.839
X33.338Y-99.417
X36.308Y-41.071
X37.505Y-95.25
X38.1Y-41.077
X38.1Y-99.417
X42.863Y-41.672
X44.053Y-59.531
X47.03Y-38.1
X50.602Y-59.531
X51.792Y-95.845
X51.792Y-100.013
X65.484Y-68.461
X66.675Y-98.822
X67.866Y-102.989
X81.558Y-102.394
X84.534Y-67.866
X93.464Y-41.672
X98.822Y-41.672
X100.013Y-118.467
X104.18Y-67.866
X114.3Y-41.672
X117.277Y-101.799
X118.467Y-97.631
X120.849Y-102.989
X122.039Y-67.866
X123.825Y-118.467
X141.089Y-67.27
X148.828Y-118.467
X159.544Y-67.27
X164.306Y-41.077
X166.092Y-97.631
X166.092Y-101.799
X166.688Y-118.467
X174.427Y-97.036
X178.594Y-67.27
X179.785Y-102.394
X197.644Y-67.27
X216.694Y-66.675
X217.885Y-102.989
X223.838Y-40.481
X223.838Y-97.036
X225.028Y-66.675
X238.125Y-66.675
X247.65Y-27.98
X269.677Y-28.575
X279.797Y-40.481
X279.797Y-99.417
X284.56Y-63.103
T2
X-1.191Y-60.842
X-1.191Y-62.842
X-1.191Y-64.842
X-1.191Y-66.842
X-1.191Y-68.842
X-1.191Y-70.842
X-1.786Y-101.966
X-1.786Y-103.966
X-1.786Y-105.966
T3
X-2.381Y-28.099
X-2.381Y-43.339
X0.159Y-28.099
X0.159Y-43.339
X2.699Y-28.099
X2.699Y-43.339
X5.239Y-28.099
X5.239Y-43.339
X7.779Y-28.099
X7.779Y-43.339
X10.319Y-28.099
X10.319Y-43.339
X12.859Y-28.099
X12.859Y-43.339
X15.399Y-28.099
X15.399Y-43.339
X17.939Y-28.099
X17.939Y-43.339
X20.479Y-28.099
X20.479Y-43.339
X23.019Y-28.099
X23.019Y-43.339
X25.559Y-28.099
X25.559Y-43.339
T4
X139.065Y-90.329
X145.415Y-87.789
X177.165Y-90.329
X183.515Y-87.789
X67.627Y-109.379
X73.977Y-106.839
X122.396Y-109.379
X128.746Y-106.839
X62.865Y-90.329
X69.215Y-87.789
X286.702Y-90.329
X293.053Y-87.789
X93.822Y-109.379
X100.172Y-106.839
X134.303Y-90.329
X140.653Y-87.789
X50.959Y-109.379
X57.309Y-106.839
X262.89Y-52.229
X269.24Y-49.689
X205.74Y-71.279
X212.09Y-68.739
X243.84Y-71.279
X250.19Y-68.739
X248.602Y-33.179
X254.952Y-30.639
X8.096Y-71.279
X14.446Y-68.739
X91.44Y-109.379
X97.79Y-106.839
X34.29Y-71.279
X40.64Y-68.739
X189.071Y-109.379
X195.421Y-106.839
X58.102Y-33.179
X64.453Y-30.639
X146.209Y-109.379
X152.559Y-106.839
X191.453Y-90.329
X197.803Y-87.789
X229.552Y-33.179
X235.903Y-30.639
X27.146Y-109.379
X33.496Y-106.839
X53.34Y-109.379
X59.69Y-106.839
X120.015Y-90.329
X126.365Y-87.789
X96.203Y-90.329
X102.553Y-87.789
X3.334Y-109.379
X9.684Y-106.839
X20.002Y-33.179
X26.352Y-30.639
X124.777Y-52.229
X131.127Y-49.689
X167.64Y-71.279
X173.99Y-68.739
X110.49Y-71.279
X116.84Y-68.739
X143.827Y-52.229
X150.177Y-49.689
X39.053Y-90.329
X45.403Y-87.789
X238.988Y-52.229
X245.338Y-49.689
X148.59Y-109.379
X154.94Y-106.839
X172.403Y-109.379
X178.752Y-106.839
X191.453Y-109.379
X197.803Y-106.839
X86.677Y-52.229
X93.027Y-49.689
X286.702Y-109.379
X293.053Y-106.839
X153.353Y-90.329
X159.703Y-87.789
X191.452Y-33.179
X197.802Y-30.639
X186.69Y-71.279
X193.04Y-68.739
X115.252Y-33.179
X121.602Y-30.639
X67.627Y-52.229
X73.977Y-49.689
X267.652Y-90.329
X274.002Y-87.789
X100.965Y-90.329
X107.315Y-87.789
X286.702Y-71.279
X293.053Y-68.739
X248.603Y-90.329
X254.953Y-87.789
X258.127Y-33.179
X264.477Y-30.639
X172.403Y-33.179
X178.752Y-30.639
X286.702Y-33.179
X293.053Y-30.639
X48.578Y-52.229
X54.927Y-49.689
X210.502Y-33.179
X216.852Y-30.639
X184.309Y-109.379
X190.659Y-106.839
X81.915Y-90.329
X88.265Y-87.789
X134.302Y-33.179
X140.653Y-30.639
X210.503Y-90.329
X216.853Y-87.789
X255.746Y-71.279
X262.096Y-68.739
X241.46Y-90.329
X247.81Y-87.789
X98.584Y-109.379
X104.934Y-106.839
X91.44Y-71.279
X97.79Y-68.739
X248.602Y-109.379
X254.952Y-106.839
X129.54Y-71.279
X135.89Y-68.739
X115.253Y-90.329
X121.603Y-87.789
X5.715Y-52.229
X12.065Y-49.689
X158.115Y-90.329
X164.465Y-87.789
X267.652Y-33.179
X274.002Y-30.639
X58.103Y-90.329
X64.453Y-87.789
X224.79Y-71.279
X231.14Y-68.739
X53.34Y-71.279
X59.69Y-68.739
X172.403Y-90.329
X178.753Y-87.789
X77.153Y-33.179
X83.502Y-30.639
X200.977Y-52.229
X207.327Y-49.689
X72.39Y-71.279
X78.74Y-68.739
X267.652Y-109.379
X274.002Y-106.839
X153.352Y-33.179
X159.702Y-30.639
X265.271Y-61.754
X271.621Y-59.214
X0.952Y-33.179
X7.302Y-30.639
X39.052Y-33.179
X45.402Y-30.639
X43.815Y-90.329
X50.165Y-87.789
X220.028Y-52.229
X226.377Y-49.689
X208.121Y-109.379
X214.471Y-106.839
X29.527Y-52.229
X35.877Y-49.689
X105.727Y-52.229
X112.078Y-49.689
X12.859Y-90.329
X19.209Y-87.789
X229.553Y-90.329
X235.903Y-87.789
X141.447Y-109.379
X147.797Y-106.839
X10.478Y-90.329
X16.828Y-87.789
X196.215Y-90.329
X202.565Y-87.789
X96.203Y-33.179
X102.552Y-30.639
X148.59Y-71.279
X154.94Y-68.739
X210.502Y-109.379
X216.852Y-106.839
X286.702Y-52.229
X293.053Y-49.689
X181.927Y-52.229
X188.278Y-49.689
X215.265Y-90.329
X221.615Y-87.789
X48.578Y-109.379
X54.928Y-106.839
X77.153Y-90.329
X83.503Y-87.789
X229.552Y-109.379
X235.903Y-106.839
X162.877Y-52.229
X169.227Y-49.689
T0
M30
