G04 #@! TF.GenerationSoftware,KiCad,Pcbnew,(5.1.8-0-10_14)*
G04 #@! TF.CreationDate,2021-09-26T01:44:44+09:00*
G04 #@! TF.ProjectId,ts69v3,74733639-7633-42e6-9b69-6361645f7063,rev?*
G04 #@! TF.SameCoordinates,Original*
G04 #@! TF.FileFunction,Legend,Bot*
G04 #@! TF.FilePolarity,Positive*
%FSLAX46Y46*%
G04 Gerber Fmt 4.6, Leading zero omitted, Abs format (unit mm)*
G04 Created by KiCad (PCBNEW (5.1.8-0-10_14)) date 2021-09-26 01:44:44*
%MOMM*%
%LPD*%
G01*
G04 APERTURE LIST*
%ADD10C,0.150000*%
%ADD11C,0.120000*%
%ADD12C,0.127000*%
%ADD13C,2.250000*%
%ADD14C,3.987800*%
%ADD15C,1.750000*%
%ADD16R,1.200000X0.900000*%
%ADD17C,3.048000*%
%ADD18R,1.500000X1.000000*%
%ADD19R,0.900000X1.200000*%
%ADD20R,1.350000X1.350000*%
%ADD21O,1.350000X1.350000*%
%ADD22C,2.082800*%
G04 APERTURE END LIST*
D10*
X3143156Y-70342247D02*
X3238394Y-70294627D01*
X3381252Y-70294627D01*
X3524109Y-70342247D01*
X3619347Y-70437485D01*
X3666966Y-70532723D01*
X3714585Y-70723199D01*
X3714585Y-70866056D01*
X3666966Y-71056532D01*
X3619347Y-71151770D01*
X3524109Y-71247008D01*
X3381252Y-71294627D01*
X3286013Y-71294627D01*
X3143156Y-71247008D01*
X3095537Y-71199389D01*
X3095537Y-70866056D01*
X3286013Y-70866056D01*
X2666966Y-71294627D02*
X2666966Y-70294627D01*
X2095537Y-71294627D01*
X2095537Y-70294627D01*
X1619347Y-71294627D02*
X1619347Y-70294627D01*
X1381252Y-70294627D01*
X1238394Y-70342247D01*
X1143156Y-70437485D01*
X1095537Y-70532723D01*
X1047918Y-70723199D01*
X1047918Y-70866056D01*
X1095537Y-71056532D01*
X1143156Y-71151770D01*
X1238394Y-71247008D01*
X1381252Y-71294627D01*
X1619347Y-71294627D01*
X268462278Y-66722749D02*
X268462278Y-67437035D01*
X268509897Y-67579892D01*
X268605135Y-67675130D01*
X268747992Y-67722749D01*
X268843230Y-67722749D01*
X267986088Y-67722749D02*
X267986088Y-66722749D01*
X267557516Y-67675130D02*
X267414659Y-67722749D01*
X267176564Y-67722749D01*
X267081326Y-67675130D01*
X267033707Y-67627511D01*
X266986088Y-67532273D01*
X266986088Y-67437035D01*
X267033707Y-67341797D01*
X267081326Y-67294178D01*
X267176564Y-67246559D01*
X267367040Y-67198940D01*
X267462278Y-67151321D01*
X267509897Y-67103702D01*
X267557516Y-67008464D01*
X267557516Y-66913226D01*
X267509897Y-66817988D01*
X267462278Y-66770369D01*
X267367040Y-66722749D01*
X267128945Y-66722749D01*
X266986088Y-66770369D01*
X15048442Y-118514980D02*
X14477014Y-118514980D01*
X14762728Y-119514980D02*
X14762728Y-118514980D01*
X14191300Y-119467361D02*
X14048443Y-119514980D01*
X13810347Y-119514980D01*
X13715109Y-119467361D01*
X13667490Y-119419742D01*
X13619871Y-119324504D01*
X13619871Y-119229266D01*
X13667490Y-119134028D01*
X13715109Y-119086409D01*
X13810347Y-119038790D01*
X14000823Y-118991171D01*
X14096062Y-118943552D01*
X14143681Y-118895933D01*
X14191300Y-118800695D01*
X14191300Y-118705457D01*
X14143681Y-118610219D01*
X14096062Y-118562600D01*
X14000823Y-118514980D01*
X13762728Y-118514980D01*
X13619871Y-118562600D01*
X12762728Y-118514980D02*
X12953204Y-118514980D01*
X13048443Y-118562600D01*
X13096062Y-118610219D01*
X13191300Y-118753076D01*
X13238919Y-118943552D01*
X13238919Y-119324504D01*
X13191300Y-119419742D01*
X13143681Y-119467361D01*
X13048443Y-119514980D01*
X12857966Y-119514980D01*
X12762728Y-119467361D01*
X12715109Y-119419742D01*
X12667490Y-119324504D01*
X12667490Y-119086409D01*
X12715109Y-118991171D01*
X12762728Y-118943552D01*
X12857966Y-118895933D01*
X13048443Y-118895933D01*
X13143681Y-118943552D01*
X13191300Y-118991171D01*
X13238919Y-119086409D01*
X12191300Y-119514980D02*
X12000823Y-119514980D01*
X11905585Y-119467361D01*
X11857966Y-119419742D01*
X11762728Y-119276885D01*
X11715109Y-119086409D01*
X11715109Y-118705457D01*
X11762728Y-118610219D01*
X11810347Y-118562600D01*
X11905585Y-118514980D01*
X12096062Y-118514980D01*
X12191300Y-118562600D01*
X12238919Y-118610219D01*
X12286538Y-118705457D01*
X12286538Y-118943552D01*
X12238919Y-119038790D01*
X12191300Y-119086409D01*
X12096062Y-119134028D01*
X11905585Y-119134028D01*
X11810347Y-119086409D01*
X11762728Y-119038790D01*
X11715109Y-118943552D01*
X11429395Y-118514980D02*
X11096062Y-119514980D01*
X10762728Y-118514980D01*
X10524633Y-118514980D02*
X9905585Y-118514980D01*
X10238919Y-118895933D01*
X10096062Y-118895933D01*
X10000823Y-118943552D01*
X9953204Y-118991171D01*
X9905585Y-119086409D01*
X9905585Y-119324504D01*
X9953204Y-119419742D01*
X10000823Y-119467361D01*
X10096062Y-119514980D01*
X10381776Y-119514980D01*
X10477014Y-119467361D01*
X10524633Y-119419742D01*
X8715109Y-119514980D02*
X8715109Y-118514980D01*
X8143681Y-119514980D02*
X8572252Y-118943552D01*
X8143681Y-118514980D02*
X8715109Y-119086409D01*
X7334157Y-119467361D02*
X7429395Y-119514980D01*
X7619871Y-119514980D01*
X7715109Y-119467361D01*
X7762728Y-119372123D01*
X7762728Y-118991171D01*
X7715109Y-118895933D01*
X7619871Y-118848314D01*
X7429395Y-118848314D01*
X7334157Y-118895933D01*
X7286538Y-118991171D01*
X7286538Y-119086409D01*
X7762728Y-119181647D01*
X6953204Y-118848314D02*
X6715109Y-119514980D01*
X6477014Y-118848314D02*
X6715109Y-119514980D01*
X6810347Y-119753076D01*
X6857966Y-119800695D01*
X6953204Y-119848314D01*
X6096062Y-119514980D02*
X6096062Y-118514980D01*
X6096062Y-118895933D02*
X6000823Y-118848314D01*
X5810347Y-118848314D01*
X5715109Y-118895933D01*
X5667490Y-118943552D01*
X5619871Y-119038790D01*
X5619871Y-119324504D01*
X5667490Y-119419742D01*
X5715109Y-119467361D01*
X5810347Y-119514980D01*
X6000823Y-119514980D01*
X6096062Y-119467361D01*
X5048443Y-119514980D02*
X5143681Y-119467361D01*
X5191300Y-119419742D01*
X5238919Y-119324504D01*
X5238919Y-119038790D01*
X5191300Y-118943552D01*
X5143681Y-118895933D01*
X5048443Y-118848314D01*
X4905585Y-118848314D01*
X4810347Y-118895933D01*
X4762728Y-118943552D01*
X4715109Y-119038790D01*
X4715109Y-119324504D01*
X4762728Y-119419742D01*
X4810347Y-119467361D01*
X4905585Y-119514980D01*
X5048443Y-119514980D01*
X3857966Y-119514980D02*
X3857966Y-118991171D01*
X3905585Y-118895933D01*
X4000823Y-118848314D01*
X4191300Y-118848314D01*
X4286538Y-118895933D01*
X3857966Y-119467361D02*
X3953204Y-119514980D01*
X4191300Y-119514980D01*
X4286538Y-119467361D01*
X4334157Y-119372123D01*
X4334157Y-119276885D01*
X4286538Y-119181647D01*
X4191300Y-119134028D01*
X3953204Y-119134028D01*
X3857966Y-119086409D01*
X3381776Y-119514980D02*
X3381776Y-118848314D01*
X3381776Y-119038790D02*
X3334157Y-118943552D01*
X3286538Y-118895933D01*
X3191300Y-118848314D01*
X3096062Y-118848314D01*
X2334157Y-119514980D02*
X2334157Y-118514980D01*
X2334157Y-119467361D02*
X2429395Y-119514980D01*
X2619871Y-119514980D01*
X2715109Y-119467361D01*
X2762728Y-119419742D01*
X2810347Y-119324504D01*
X2810347Y-119038790D01*
X2762728Y-118943552D01*
X2715109Y-118895933D01*
X2619871Y-118848314D01*
X2429395Y-118848314D01*
X2334157Y-118895933D01*
X524633Y-119514980D02*
X857966Y-119038790D01*
X1096062Y-119514980D02*
X1096062Y-118514980D01*
X715109Y-118514980D01*
X619871Y-118562600D01*
X572252Y-118610219D01*
X524633Y-118705457D01*
X524633Y-118848314D01*
X572252Y-118943552D01*
X619871Y-118991171D01*
X715109Y-119038790D01*
X1096062Y-119038790D01*
X-94414Y-118514980D02*
X-189652Y-118514980D01*
X-284890Y-118562600D01*
X-332509Y-118610219D01*
X-380128Y-118705457D01*
X-427747Y-118895933D01*
X-427747Y-119134028D01*
X-380128Y-119324504D01*
X-332509Y-119419742D01*
X-284890Y-119467361D01*
X-189652Y-119514980D01*
X-94414Y-119514980D01*
X823Y-119467361D01*
X48443Y-119419742D01*
X96062Y-119324504D01*
X143681Y-119134028D01*
X143681Y-118895933D01*
X96062Y-118705457D01*
X48443Y-118610219D01*
X823Y-118562600D01*
X-94414Y-118514980D01*
X-856318Y-119419742D02*
X-903937Y-119467361D01*
X-856318Y-119514980D01*
X-808699Y-119467361D01*
X-856318Y-119419742D01*
X-856318Y-119514980D01*
X-1856318Y-119514980D02*
X-1284890Y-119514980D01*
X-1570604Y-119514980D02*
X-1570604Y-118514980D01*
X-1475366Y-118657838D01*
X-1380128Y-118753076D01*
X-1284890Y-118800695D01*
X785789Y-106013407D02*
X1261979Y-106013407D01*
X1309598Y-106489598D01*
X1261979Y-106441979D01*
X1166741Y-106394360D01*
X928646Y-106394360D01*
X833408Y-106441979D01*
X785789Y-106489598D01*
X738170Y-106584836D01*
X738170Y-106822931D01*
X785789Y-106918169D01*
X833408Y-106965788D01*
X928646Y-107013407D01*
X1166741Y-107013407D01*
X1261979Y-106965788D01*
X1309598Y-106918169D01*
X452455Y-106013407D02*
X119122Y-107013407D01*
X-214210Y-106013407D01*
X857217Y-104632155D02*
X857217Y-103632155D01*
X619122Y-103632155D01*
X476265Y-103679775D01*
X381027Y-103775013D01*
X333408Y-103870251D01*
X285789Y-104060727D01*
X285789Y-104203584D01*
X333408Y-104394060D01*
X381027Y-104489298D01*
X476265Y-104584536D01*
X619122Y-104632155D01*
X857217Y-104632155D01*
X3880809Y-69394632D02*
X4214142Y-68918442D01*
X4452237Y-69394632D02*
X4452237Y-68394632D01*
X4071285Y-68394632D01*
X3976047Y-68442252D01*
X3928428Y-68489871D01*
X3880809Y-68585109D01*
X3880809Y-68727966D01*
X3928428Y-68823204D01*
X3976047Y-68870823D01*
X4071285Y-68918442D01*
X4452237Y-68918442D01*
X3452237Y-68870823D02*
X3118904Y-68870823D01*
X2976047Y-69394632D02*
X3452237Y-69394632D01*
X3452237Y-68394632D01*
X2976047Y-68394632D01*
X2595094Y-69347013D02*
X2452237Y-69394632D01*
X2214142Y-69394632D01*
X2118904Y-69347013D01*
X2071285Y-69299394D01*
X2023666Y-69204156D01*
X2023666Y-69108918D01*
X2071285Y-69013680D01*
X2118904Y-68966061D01*
X2214142Y-68918442D01*
X2404618Y-68870823D01*
X2499856Y-68823204D01*
X2547475Y-68775585D01*
X2595094Y-68680347D01*
X2595094Y-68585109D01*
X2547475Y-68489871D01*
X2499856Y-68442252D01*
X2404618Y-68394632D01*
X2166523Y-68394632D01*
X2023666Y-68442252D01*
X1595094Y-68870823D02*
X1261761Y-68870823D01*
X1118904Y-69394632D02*
X1595094Y-69394632D01*
X1595094Y-68394632D01*
X1118904Y-68394632D01*
X833190Y-68394632D02*
X261761Y-68394632D01*
X547475Y-69394632D02*
X547475Y-68394632D01*
X3877168Y-67383389D02*
X3877168Y-66383389D01*
X3543835Y-67097675D01*
X3210502Y-66383389D01*
X3210502Y-67383389D01*
X2734311Y-67383389D02*
X2734311Y-66383389D01*
X2305740Y-67335770D02*
X2162883Y-67383389D01*
X1924787Y-67383389D01*
X1829549Y-67335770D01*
X1781930Y-67288151D01*
X1734311Y-67192913D01*
X1734311Y-67097675D01*
X1781930Y-67002437D01*
X1829549Y-66954818D01*
X1924787Y-66907199D01*
X2115264Y-66859580D01*
X2210502Y-66811961D01*
X2258121Y-66764342D01*
X2305740Y-66669104D01*
X2305740Y-66573866D01*
X2258121Y-66478628D01*
X2210502Y-66431009D01*
X2115264Y-66383389D01*
X1877168Y-66383389D01*
X1734311Y-66431009D01*
X1115264Y-66383389D02*
X924787Y-66383389D01*
X829549Y-66431009D01*
X734311Y-66526247D01*
X686692Y-66716723D01*
X686692Y-67050056D01*
X734311Y-67240532D01*
X829549Y-67335770D01*
X924787Y-67383389D01*
X1115264Y-67383389D01*
X1210502Y-67335770D01*
X1305740Y-67240532D01*
X1353359Y-67050056D01*
X1353359Y-66716723D01*
X1305740Y-66526247D01*
X1210502Y-66431009D01*
X1115264Y-66383389D01*
X3879804Y-65380204D02*
X3879804Y-64380204D01*
X3546471Y-65094490D01*
X3213138Y-64380204D01*
X3213138Y-65380204D01*
X2546471Y-64380204D02*
X2355995Y-64380204D01*
X2260757Y-64427824D01*
X2165519Y-64523062D01*
X2117900Y-64713538D01*
X2117900Y-65046871D01*
X2165519Y-65237347D01*
X2260757Y-65332585D01*
X2355995Y-65380204D01*
X2546471Y-65380204D01*
X2641709Y-65332585D01*
X2736947Y-65237347D01*
X2784566Y-65046871D01*
X2784566Y-64713538D01*
X2736947Y-64523062D01*
X2641709Y-64427824D01*
X2546471Y-64380204D01*
X1736947Y-65332585D02*
X1594090Y-65380204D01*
X1355995Y-65380204D01*
X1260757Y-65332585D01*
X1213138Y-65284966D01*
X1165519Y-65189728D01*
X1165519Y-65094490D01*
X1213138Y-64999252D01*
X1260757Y-64951633D01*
X1355995Y-64904014D01*
X1546471Y-64856395D01*
X1641709Y-64808776D01*
X1689328Y-64761157D01*
X1736947Y-64665919D01*
X1736947Y-64570681D01*
X1689328Y-64475443D01*
X1641709Y-64427824D01*
X1546471Y-64380204D01*
X1308376Y-64380204D01*
X1165519Y-64427824D01*
X736947Y-65380204D02*
X736947Y-64380204D01*
X3901427Y-63371487D02*
X3758570Y-63419106D01*
X3520475Y-63419106D01*
X3425237Y-63371487D01*
X3377618Y-63323868D01*
X3329999Y-63228630D01*
X3329999Y-63133392D01*
X3377618Y-63038154D01*
X3425237Y-62990535D01*
X3520475Y-62942916D01*
X3710951Y-62895297D01*
X3806189Y-62847678D01*
X3853808Y-62800059D01*
X3901427Y-62704821D01*
X3901427Y-62609583D01*
X3853808Y-62514345D01*
X3806189Y-62466726D01*
X3710951Y-62419106D01*
X3472856Y-62419106D01*
X3329999Y-62466726D01*
X2329999Y-63323868D02*
X2377618Y-63371487D01*
X2520475Y-63419106D01*
X2615713Y-63419106D01*
X2758570Y-63371487D01*
X2853808Y-63276249D01*
X2901427Y-63181011D01*
X2949046Y-62990535D01*
X2949046Y-62847678D01*
X2901427Y-62657202D01*
X2853808Y-62561964D01*
X2758570Y-62466726D01*
X2615713Y-62419106D01*
X2520475Y-62419106D01*
X2377618Y-62466726D01*
X2329999Y-62514345D01*
X1425237Y-63419106D02*
X1901427Y-63419106D01*
X1901427Y-62419106D01*
X1091904Y-63419106D02*
X1091904Y-62419106D01*
X520475Y-63419106D02*
X949046Y-62847678D01*
X520475Y-62419106D02*
X1091904Y-62990535D01*
X3682811Y-60354280D02*
X3349478Y-61354280D01*
X3016145Y-60354280D01*
X2111383Y-61259042D02*
X2159002Y-61306661D01*
X2301859Y-61354280D01*
X2397097Y-61354280D01*
X2539954Y-61306661D01*
X2635192Y-61211423D01*
X2682811Y-61116185D01*
X2730430Y-60925709D01*
X2730430Y-60782852D01*
X2682811Y-60592376D01*
X2635192Y-60497138D01*
X2539954Y-60401900D01*
X2397097Y-60354280D01*
X2301859Y-60354280D01*
X2159002Y-60401900D01*
X2111383Y-60449519D01*
X1111383Y-61259042D02*
X1159002Y-61306661D01*
X1301859Y-61354280D01*
X1397097Y-61354280D01*
X1539954Y-61306661D01*
X1635192Y-61211423D01*
X1682811Y-61116185D01*
X1730430Y-60925709D01*
X1730430Y-60782852D01*
X1682811Y-60592376D01*
X1635192Y-60497138D01*
X1539954Y-60401900D01*
X1397097Y-60354280D01*
X1301859Y-60354280D01*
X1159002Y-60401900D01*
X1111383Y-60449519D01*
X-214435Y-58793054D02*
X-214435Y-57793054D01*
X-643006Y-58745435D02*
X-785864Y-58793054D01*
X-1023959Y-58793054D01*
X-1119197Y-58745435D01*
X-1166816Y-58697816D01*
X-1214435Y-58602578D01*
X-1214435Y-58507340D01*
X-1166816Y-58412102D01*
X-1119197Y-58364483D01*
X-1023959Y-58316864D01*
X-833483Y-58269245D01*
X-738245Y-58221626D01*
X-690626Y-58174007D01*
X-643006Y-58078769D01*
X-643006Y-57983531D01*
X-690626Y-57888293D01*
X-738245Y-57840674D01*
X-833483Y-57793054D01*
X-1071578Y-57793054D01*
X-1214435Y-57840674D01*
X-1643006Y-58793054D02*
X-1643006Y-57793054D01*
X-2023959Y-57793054D01*
X-2119197Y-57840674D01*
X-2166816Y-57888293D01*
X-2214435Y-57983531D01*
X-2214435Y-58126388D01*
X-2166816Y-58221626D01*
X-2119197Y-58269245D01*
X-2023959Y-58316864D01*
X-1643006Y-58316864D01*
X271915108Y-39554749D02*
X271915108Y-38983321D01*
X271915108Y-39269035D02*
X270915108Y-39269035D01*
X271057966Y-39173797D01*
X271153204Y-39078559D01*
X271200823Y-38983321D01*
X261485339Y-38983321D02*
X261437720Y-39030940D01*
X261390100Y-39126178D01*
X261390100Y-39364273D01*
X261437720Y-39459511D01*
X261485339Y-39507130D01*
X261580577Y-39554749D01*
X261675815Y-39554749D01*
X261818672Y-39507130D01*
X262390100Y-38935702D01*
X262390100Y-39554749D01*
X252865092Y-39554749D02*
X252865092Y-38983321D01*
X252865092Y-39269035D02*
X251865092Y-39269035D01*
X252007950Y-39173797D01*
X252103188Y-39078559D01*
X252150807Y-38983321D01*
X214765060Y-115754813D02*
X214765060Y-115183385D01*
X214765060Y-115469099D02*
X213765060Y-115469099D01*
X213907918Y-115373861D01*
X214003156Y-115278623D01*
X214050775Y-115183385D01*
X212383808Y-115754813D02*
X212383808Y-115183385D01*
X212383808Y-115469099D02*
X211383808Y-115469099D01*
X211526666Y-115373861D01*
X211621904Y-115278623D01*
X211669523Y-115183385D01*
X212288570Y-116183385D02*
X212336189Y-116231004D01*
X212383808Y-116183385D01*
X212336189Y-116135766D01*
X212288570Y-116183385D01*
X212383808Y-116183385D01*
X211479047Y-116611956D02*
X211431428Y-116659575D01*
X211383808Y-116754813D01*
X211383808Y-116992909D01*
X211431428Y-117088147D01*
X211479047Y-117135766D01*
X211574285Y-117183385D01*
X211669523Y-117183385D01*
X211812380Y-117135766D01*
X212383808Y-116564337D01*
X212383808Y-117183385D01*
X211383808Y-118088147D02*
X211383808Y-117611956D01*
X211859999Y-117564337D01*
X211812380Y-117611956D01*
X211764761Y-117707194D01*
X211764761Y-117945289D01*
X211812380Y-118040528D01*
X211859999Y-118088147D01*
X211955237Y-118135766D01*
X212193332Y-118135766D01*
X212288570Y-118088147D01*
X212336189Y-118040528D01*
X212383808Y-117945289D01*
X212383808Y-117707194D01*
X212336189Y-117611956D01*
X212288570Y-117564337D01*
X195715044Y-115754813D02*
X195715044Y-115183385D01*
X195715044Y-115469099D02*
X194715044Y-115469099D01*
X194857902Y-115373861D01*
X194953140Y-115278623D01*
X195000759Y-115183385D01*
X193333792Y-115754813D02*
X193333792Y-115183385D01*
X193333792Y-115469099D02*
X192333792Y-115469099D01*
X192476650Y-115373861D01*
X192571888Y-115278623D01*
X192619507Y-115183385D01*
X193238554Y-116183385D02*
X193286173Y-116231004D01*
X193333792Y-116183385D01*
X193286173Y-116135766D01*
X193238554Y-116183385D01*
X193333792Y-116183385D01*
X192429031Y-116611956D02*
X192381412Y-116659575D01*
X192333792Y-116754813D01*
X192333792Y-116992909D01*
X192381412Y-117088147D01*
X192429031Y-117135766D01*
X192524269Y-117183385D01*
X192619507Y-117183385D01*
X192762364Y-117135766D01*
X193333792Y-116564337D01*
X193333792Y-117183385D01*
X192333792Y-118088147D02*
X192333792Y-117611956D01*
X192809983Y-117564337D01*
X192762364Y-117611956D01*
X192714745Y-117707194D01*
X192714745Y-117945289D01*
X192762364Y-118040528D01*
X192809983Y-118088147D01*
X192905221Y-118135766D01*
X193143316Y-118135766D01*
X193238554Y-118088147D01*
X193286173Y-118040528D01*
X193333792Y-117945289D01*
X193333792Y-117707194D01*
X193286173Y-117611956D01*
X193238554Y-117564337D01*
X188571288Y-115754813D02*
X188571288Y-115183385D01*
X188571288Y-115469099D02*
X187571288Y-115469099D01*
X187714146Y-115373861D01*
X187809384Y-115278623D01*
X187857003Y-115183385D01*
X188476050Y-116183385D02*
X188523669Y-116231004D01*
X188571288Y-116183385D01*
X188523669Y-116135766D01*
X188476050Y-116183385D01*
X188571288Y-116183385D01*
X187666527Y-116611956D02*
X187618908Y-116659575D01*
X187571288Y-116754813D01*
X187571288Y-116992909D01*
X187618908Y-117088147D01*
X187666527Y-117135766D01*
X187761765Y-117183385D01*
X187857003Y-117183385D01*
X187999860Y-117135766D01*
X188571288Y-116564337D01*
X188571288Y-117183385D01*
X187571288Y-118088147D02*
X187571288Y-117611956D01*
X188047479Y-117564337D01*
X187999860Y-117611956D01*
X187952241Y-117707194D01*
X187952241Y-117945289D01*
X187999860Y-118040528D01*
X188047479Y-118088147D01*
X188142717Y-118135766D01*
X188380812Y-118135766D01*
X188476050Y-118088147D01*
X188523669Y-118040528D01*
X188571288Y-117945289D01*
X188571288Y-117707194D01*
X188523669Y-117611956D01*
X188476050Y-117564337D01*
X176665028Y-115754813D02*
X176665028Y-115183385D01*
X176665028Y-115469099D02*
X175665028Y-115469099D01*
X175807886Y-115373861D01*
X175903124Y-115278623D01*
X175950743Y-115183385D01*
X151852508Y-115135766D02*
X151852508Y-115754813D01*
X152233461Y-115421480D01*
X152233461Y-115564337D01*
X152281080Y-115659575D01*
X152328699Y-115707194D01*
X152423937Y-115754813D01*
X152662032Y-115754813D01*
X152757270Y-115707194D01*
X152804889Y-115659575D01*
X152852508Y-115564337D01*
X152852508Y-115278623D01*
X152804889Y-115183385D01*
X152757270Y-115135766D01*
X149566495Y-115183385D02*
X149518876Y-115231004D01*
X149471256Y-115326242D01*
X149471256Y-115564337D01*
X149518876Y-115659575D01*
X149566495Y-115707194D01*
X149661733Y-115754813D01*
X149756971Y-115754813D01*
X149899828Y-115707194D01*
X150471256Y-115135766D01*
X150471256Y-115754813D01*
X150376018Y-116183385D02*
X150423637Y-116231004D01*
X150471256Y-116183385D01*
X150423637Y-116135766D01*
X150376018Y-116183385D01*
X150471256Y-116183385D01*
X149471256Y-116564337D02*
X149471256Y-117231004D01*
X150471256Y-116802432D01*
X149471256Y-118088147D02*
X149471256Y-117611956D01*
X149947447Y-117564337D01*
X149899828Y-117611956D01*
X149852209Y-117707194D01*
X149852209Y-117945289D01*
X149899828Y-118040528D01*
X149947447Y-118088147D01*
X150042685Y-118135766D01*
X150280780Y-118135766D01*
X150376018Y-118088147D01*
X150423637Y-118040528D01*
X150471256Y-117945289D01*
X150471256Y-117707194D01*
X150423637Y-117611956D01*
X150376018Y-117564337D01*
X144803991Y-115183385D02*
X144756372Y-115231004D01*
X144708752Y-115326242D01*
X144708752Y-115564337D01*
X144756372Y-115659575D01*
X144803991Y-115707194D01*
X144899229Y-115754813D01*
X144994467Y-115754813D01*
X145137324Y-115707194D01*
X145708752Y-115135766D01*
X145708752Y-115754813D01*
X145613514Y-116183385D02*
X145661133Y-116231004D01*
X145708752Y-116183385D01*
X145661133Y-116135766D01*
X145613514Y-116183385D01*
X145708752Y-116183385D01*
X144803991Y-116611956D02*
X144756372Y-116659575D01*
X144708752Y-116754813D01*
X144708752Y-116992909D01*
X144756372Y-117088147D01*
X144803991Y-117135766D01*
X144899229Y-117183385D01*
X144994467Y-117183385D01*
X145137324Y-117135766D01*
X145708752Y-116564337D01*
X145708752Y-117183385D01*
X144708752Y-118088147D02*
X144708752Y-117611956D01*
X145184943Y-117564337D01*
X145137324Y-117611956D01*
X145089705Y-117707194D01*
X145089705Y-117945289D01*
X145137324Y-118040528D01*
X145184943Y-118088147D01*
X145280181Y-118135766D01*
X145518276Y-118135766D01*
X145613514Y-118088147D01*
X145661133Y-118040528D01*
X145708752Y-117945289D01*
X145708752Y-117707194D01*
X145661133Y-117611956D01*
X145613514Y-117564337D01*
X125658736Y-115659575D02*
X125658736Y-115469099D01*
X125706356Y-115373861D01*
X125753975Y-115326242D01*
X125896832Y-115231004D01*
X126087308Y-115183385D01*
X126468260Y-115183385D01*
X126563498Y-115231004D01*
X126611117Y-115278623D01*
X126658736Y-115373861D01*
X126658736Y-115564337D01*
X126611117Y-115659575D01*
X126563498Y-115707194D01*
X126468260Y-115754813D01*
X126230165Y-115754813D01*
X126134927Y-115707194D01*
X126087308Y-115659575D01*
X126039689Y-115564337D01*
X126039689Y-115373861D01*
X126087308Y-115278623D01*
X126134927Y-115231004D01*
X126230165Y-115183385D01*
X126563498Y-116183385D02*
X126611117Y-116231004D01*
X126658736Y-116183385D01*
X126611117Y-116135766D01*
X126563498Y-116183385D01*
X126658736Y-116183385D01*
X125753975Y-116611956D02*
X125706356Y-116659575D01*
X125658736Y-116754813D01*
X125658736Y-116992909D01*
X125706356Y-117088147D01*
X125753975Y-117135766D01*
X125849213Y-117183385D01*
X125944451Y-117183385D01*
X126087308Y-117135766D01*
X126658736Y-116564337D01*
X126658736Y-117183385D01*
X125658736Y-118088147D02*
X125658736Y-117611956D01*
X126134927Y-117564337D01*
X126087308Y-117611956D01*
X126039689Y-117707194D01*
X126039689Y-117945289D01*
X126087308Y-118040528D01*
X126134927Y-118088147D01*
X126230165Y-118135766D01*
X126468260Y-118135766D01*
X126563498Y-118088147D01*
X126611117Y-118040528D01*
X126658736Y-117945289D01*
X126658736Y-117707194D01*
X126611117Y-117611956D01*
X126563498Y-117564337D01*
X101941455Y-115183385D02*
X101893836Y-115231004D01*
X101846216Y-115326242D01*
X101846216Y-115564337D01*
X101893836Y-115659575D01*
X101941455Y-115707194D01*
X102036693Y-115754813D01*
X102131931Y-115754813D01*
X102274788Y-115707194D01*
X102846216Y-115135766D01*
X102846216Y-115754813D01*
X102750978Y-116183385D02*
X102798597Y-116231004D01*
X102846216Y-116183385D01*
X102798597Y-116135766D01*
X102750978Y-116183385D01*
X102846216Y-116183385D01*
X101941455Y-116611956D02*
X101893836Y-116659575D01*
X101846216Y-116754813D01*
X101846216Y-116992909D01*
X101893836Y-117088147D01*
X101941455Y-117135766D01*
X102036693Y-117183385D01*
X102131931Y-117183385D01*
X102274788Y-117135766D01*
X102846216Y-116564337D01*
X102846216Y-117183385D01*
X101846216Y-118088147D02*
X101846216Y-117611956D01*
X102322407Y-117564337D01*
X102274788Y-117611956D01*
X102227169Y-117707194D01*
X102227169Y-117945289D01*
X102274788Y-118040528D01*
X102322407Y-118088147D01*
X102417645Y-118135766D01*
X102655740Y-118135766D01*
X102750978Y-118088147D01*
X102798597Y-118040528D01*
X102846216Y-117945289D01*
X102846216Y-117707194D01*
X102798597Y-117611956D01*
X102750978Y-117564337D01*
X97178951Y-115183385D02*
X97131332Y-115231004D01*
X97083712Y-115326242D01*
X97083712Y-115564337D01*
X97131332Y-115659575D01*
X97178951Y-115707194D01*
X97274189Y-115754813D01*
X97369427Y-115754813D01*
X97512284Y-115707194D01*
X98083712Y-115135766D01*
X98083712Y-115754813D01*
X97988474Y-116183385D02*
X98036093Y-116231004D01*
X98083712Y-116183385D01*
X98036093Y-116135766D01*
X97988474Y-116183385D01*
X98083712Y-116183385D01*
X97083712Y-116564337D02*
X97083712Y-117231004D01*
X98083712Y-116802432D01*
X97083712Y-118088147D02*
X97083712Y-117611956D01*
X97559903Y-117564337D01*
X97512284Y-117611956D01*
X97464665Y-117707194D01*
X97464665Y-117945289D01*
X97512284Y-118040528D01*
X97559903Y-118088147D01*
X97655141Y-118135766D01*
X97893236Y-118135766D01*
X97988474Y-118088147D01*
X98036093Y-118040528D01*
X98083712Y-117945289D01*
X98083712Y-117707194D01*
X98036093Y-117611956D01*
X97988474Y-117564337D01*
X94702460Y-115135766D02*
X94702460Y-115754813D01*
X95083413Y-115421480D01*
X95083413Y-115564337D01*
X95131032Y-115659575D01*
X95178651Y-115707194D01*
X95273889Y-115754813D01*
X95511984Y-115754813D01*
X95607222Y-115707194D01*
X95654841Y-115659575D01*
X95702460Y-115564337D01*
X95702460Y-115278623D01*
X95654841Y-115183385D01*
X95607222Y-115135766D01*
X71889940Y-115754813D02*
X71889940Y-115183385D01*
X71889940Y-115469099D02*
X70889940Y-115469099D01*
X71032798Y-115373861D01*
X71128036Y-115278623D01*
X71175655Y-115183385D01*
X57602428Y-115754813D02*
X57602428Y-115183385D01*
X57602428Y-115469099D02*
X56602428Y-115469099D01*
X56745286Y-115373861D01*
X56840524Y-115278623D01*
X56888143Y-115183385D01*
X57507190Y-116183385D02*
X57554809Y-116231004D01*
X57602428Y-116183385D01*
X57554809Y-116135766D01*
X57507190Y-116183385D01*
X57602428Y-116183385D01*
X56602428Y-117135766D02*
X56602428Y-116659575D01*
X57078619Y-116611956D01*
X57031000Y-116659575D01*
X56983381Y-116754813D01*
X56983381Y-116992909D01*
X57031000Y-117088147D01*
X57078619Y-117135766D01*
X57173857Y-117183385D01*
X57411952Y-117183385D01*
X57507190Y-117135766D01*
X57554809Y-117088147D01*
X57602428Y-116992909D01*
X57602428Y-116754813D01*
X57554809Y-116659575D01*
X57507190Y-116611956D01*
X55221176Y-115754813D02*
X55221176Y-115183385D01*
X55221176Y-115469099D02*
X54221176Y-115469099D01*
X54364034Y-115373861D01*
X54459272Y-115278623D01*
X54506891Y-115183385D01*
X55125938Y-116183385D02*
X55173557Y-116231004D01*
X55221176Y-116183385D01*
X55173557Y-116135766D01*
X55125938Y-116183385D01*
X55221176Y-116183385D01*
X54316415Y-116611956D02*
X54268796Y-116659575D01*
X54221176Y-116754813D01*
X54221176Y-116992909D01*
X54268796Y-117088147D01*
X54316415Y-117135766D01*
X54411653Y-117183385D01*
X54506891Y-117183385D01*
X54649748Y-117135766D01*
X55221176Y-116564337D01*
X55221176Y-117183385D01*
X54221176Y-118088147D02*
X54221176Y-117611956D01*
X54697367Y-117564337D01*
X54649748Y-117611956D01*
X54602129Y-117707194D01*
X54602129Y-117945289D01*
X54649748Y-118040528D01*
X54697367Y-118088147D01*
X54792605Y-118135766D01*
X55030700Y-118135766D01*
X55125938Y-118088147D01*
X55173557Y-118040528D01*
X55221176Y-117945289D01*
X55221176Y-117707194D01*
X55173557Y-117611956D01*
X55125938Y-117564337D01*
X52839924Y-115754813D02*
X52839924Y-115183385D01*
X52839924Y-115469099D02*
X51839924Y-115469099D01*
X51982782Y-115373861D01*
X52078020Y-115278623D01*
X52125639Y-115183385D01*
X295629769Y-119895933D02*
X295677388Y-119848314D01*
X295772626Y-119705457D01*
X295820245Y-119610219D01*
X295867864Y-119467361D01*
X295915483Y-119229266D01*
X295915483Y-119038790D01*
X295867864Y-118800695D01*
X295820245Y-118657838D01*
X295772626Y-118562600D01*
X295677388Y-118419742D01*
X295629769Y-118372123D01*
X294677388Y-119419742D02*
X294725007Y-119467361D01*
X294867864Y-119514980D01*
X294963102Y-119514980D01*
X295105959Y-119467361D01*
X295201197Y-119372123D01*
X295248816Y-119276885D01*
X295296435Y-119086409D01*
X295296435Y-118943552D01*
X295248816Y-118753076D01*
X295201197Y-118657838D01*
X295105959Y-118562600D01*
X294963102Y-118514980D01*
X294867864Y-118514980D01*
X294725007Y-118562600D01*
X294677388Y-118610219D01*
X294344054Y-119895933D02*
X294296435Y-119848314D01*
X294201197Y-119705457D01*
X294153578Y-119610219D01*
X294105959Y-119467361D01*
X294058340Y-119229266D01*
X294058340Y-119038790D01*
X294105959Y-118800695D01*
X294153578Y-118657838D01*
X294201197Y-118562600D01*
X294296435Y-118419742D01*
X294344054Y-118372123D01*
X292867864Y-118610219D02*
X292820245Y-118562600D01*
X292725007Y-118514980D01*
X292486912Y-118514980D01*
X292391673Y-118562600D01*
X292344054Y-118610219D01*
X292296435Y-118705457D01*
X292296435Y-118800695D01*
X292344054Y-118943552D01*
X292915483Y-119514980D01*
X292296435Y-119514980D01*
X291677388Y-118514980D02*
X291582150Y-118514980D01*
X291486912Y-118562600D01*
X291439293Y-118610219D01*
X291391673Y-118705457D01*
X291344054Y-118895933D01*
X291344054Y-119134028D01*
X291391673Y-119324504D01*
X291439293Y-119419742D01*
X291486912Y-119467361D01*
X291582150Y-119514980D01*
X291677388Y-119514980D01*
X291772626Y-119467361D01*
X291820245Y-119419742D01*
X291867864Y-119324504D01*
X291915483Y-119134028D01*
X291915483Y-118895933D01*
X291867864Y-118705457D01*
X291820245Y-118610219D01*
X291772626Y-118562600D01*
X291677388Y-118514980D01*
X290963102Y-118610219D02*
X290915483Y-118562600D01*
X290820245Y-118514980D01*
X290582150Y-118514980D01*
X290486912Y-118562600D01*
X290439293Y-118610219D01*
X290391673Y-118705457D01*
X290391673Y-118800695D01*
X290439293Y-118943552D01*
X291010721Y-119514980D01*
X290391673Y-119514980D01*
X289439293Y-119514980D02*
X290010721Y-119514980D01*
X289725007Y-119514980D02*
X289725007Y-118514980D01*
X289820245Y-118657838D01*
X289915483Y-118753076D01*
X290010721Y-118800695D01*
X288248816Y-119514980D02*
X288248816Y-118514980D01*
X287772626Y-119514980D02*
X287772626Y-118514980D01*
X287677388Y-119134028D02*
X287391673Y-119514980D01*
X287391673Y-118848314D02*
X287772626Y-119229266D01*
X286582150Y-119467361D02*
X286677388Y-119514980D01*
X286867864Y-119514980D01*
X286963102Y-119467361D01*
X287010721Y-119372123D01*
X287010721Y-118991171D01*
X286963102Y-118895933D01*
X286867864Y-118848314D01*
X286677388Y-118848314D01*
X286582150Y-118895933D01*
X286534531Y-118991171D01*
X286534531Y-119086409D01*
X287010721Y-119181647D01*
X286105959Y-119514980D02*
X286105959Y-118514980D01*
X286105959Y-118895933D02*
X286010721Y-118848314D01*
X285820245Y-118848314D01*
X285725007Y-118895933D01*
X285677388Y-118943552D01*
X285629769Y-119038790D01*
X285629769Y-119324504D01*
X285677388Y-119419742D01*
X285725007Y-119467361D01*
X285820245Y-119514980D01*
X286010721Y-119514980D01*
X286105959Y-119467361D01*
X284820245Y-119467361D02*
X284915483Y-119514980D01*
X285105959Y-119514980D01*
X285201197Y-119467361D01*
X285248816Y-119372123D01*
X285248816Y-118991171D01*
X285201197Y-118895933D01*
X285105959Y-118848314D01*
X284915483Y-118848314D01*
X284820245Y-118895933D01*
X284772626Y-118991171D01*
X284772626Y-119086409D01*
X285248816Y-119181647D01*
X283629769Y-119467361D02*
X283486912Y-119514980D01*
X283248816Y-119514980D01*
X283153578Y-119467361D01*
X283105959Y-119419742D01*
X283058340Y-119324504D01*
X283058340Y-119229266D01*
X283105959Y-119134028D01*
X283153578Y-119086409D01*
X283248816Y-119038790D01*
X283439293Y-118991171D01*
X283534531Y-118943552D01*
X283582150Y-118895933D01*
X283629769Y-118800695D01*
X283629769Y-118705457D01*
X283582150Y-118610219D01*
X283534531Y-118562600D01*
X283439293Y-118514980D01*
X283201197Y-118514980D01*
X283058340Y-118562600D01*
X282201197Y-119514980D02*
X282201197Y-118991171D01*
X282248816Y-118895933D01*
X282344054Y-118848314D01*
X282534531Y-118848314D01*
X282629769Y-118895933D01*
X282201197Y-119467361D02*
X282296435Y-119514980D01*
X282534531Y-119514980D01*
X282629769Y-119467361D01*
X282677388Y-119372123D01*
X282677388Y-119276885D01*
X282629769Y-119181647D01*
X282534531Y-119134028D01*
X282296435Y-119134028D01*
X282201197Y-119086409D01*
X281296435Y-119514980D02*
X281296435Y-118514980D01*
X281296435Y-119467361D02*
X281391673Y-119514980D01*
X281582150Y-119514980D01*
X281677388Y-119467361D01*
X281725007Y-119419742D01*
X281772626Y-119324504D01*
X281772626Y-119038790D01*
X281725007Y-118943552D01*
X281677388Y-118895933D01*
X281582150Y-118848314D01*
X281391673Y-118848314D01*
X281296435Y-118895933D01*
X280391673Y-119514980D02*
X280391673Y-118991171D01*
X280439293Y-118895933D01*
X280534531Y-118848314D01*
X280725007Y-118848314D01*
X280820245Y-118895933D01*
X280391673Y-119467361D02*
X280486912Y-119514980D01*
X280725007Y-119514980D01*
X280820245Y-119467361D01*
X280867864Y-119372123D01*
X280867864Y-119276885D01*
X280820245Y-119181647D01*
X280725007Y-119134028D01*
X280486912Y-119134028D01*
X280391673Y-119086409D01*
X279772626Y-119514980D02*
X279867864Y-119467361D01*
X279915483Y-119419742D01*
X279963102Y-119324504D01*
X279963102Y-119038790D01*
X279915483Y-118943552D01*
X279867864Y-118895933D01*
X279772626Y-118848314D01*
X279629769Y-118848314D01*
X279534531Y-118895933D01*
X279486912Y-118943552D01*
X279439293Y-119038790D01*
X279439293Y-119324504D01*
X279486912Y-119419742D01*
X279534531Y-119467361D01*
X279629769Y-119514980D01*
X279772626Y-119514980D01*
X278248816Y-119514980D02*
X278248816Y-118514980D01*
X277820245Y-119514980D02*
X277820245Y-118991171D01*
X277867864Y-118895933D01*
X277963102Y-118848314D01*
X278105959Y-118848314D01*
X278201197Y-118895933D01*
X278248816Y-118943552D01*
X277486912Y-118848314D02*
X277105959Y-118848314D01*
X277344054Y-118514980D02*
X277344054Y-119372123D01*
X277296435Y-119467361D01*
X277201197Y-119514980D01*
X277105959Y-119514980D01*
X276915483Y-118848314D02*
X276534531Y-118848314D01*
X276772626Y-118514980D02*
X276772626Y-119372123D01*
X276725007Y-119467361D01*
X276629769Y-119514980D01*
X276534531Y-119514980D01*
X276201197Y-118848314D02*
X276201197Y-119848314D01*
X276201197Y-118895933D02*
X276105959Y-118848314D01*
X275915483Y-118848314D01*
X275820245Y-118895933D01*
X275772626Y-118943552D01*
X275725007Y-119038790D01*
X275725007Y-119324504D01*
X275772626Y-119419742D01*
X275820245Y-119467361D01*
X275915483Y-119514980D01*
X276105959Y-119514980D01*
X276201197Y-119467361D01*
X275344054Y-119467361D02*
X275248816Y-119514980D01*
X275058340Y-119514980D01*
X274963102Y-119467361D01*
X274915483Y-119372123D01*
X274915483Y-119324504D01*
X274963102Y-119229266D01*
X275058340Y-119181647D01*
X275201197Y-119181647D01*
X275296435Y-119134028D01*
X275344054Y-119038790D01*
X275344054Y-118991171D01*
X275296435Y-118895933D01*
X275201197Y-118848314D01*
X275058340Y-118848314D01*
X274963102Y-118895933D01*
X274486912Y-119419742D02*
X274439293Y-119467361D01*
X274486912Y-119514980D01*
X274534531Y-119467361D01*
X274486912Y-119419742D01*
X274486912Y-119514980D01*
X274486912Y-118895933D02*
X274439293Y-118943552D01*
X274486912Y-118991171D01*
X274534531Y-118943552D01*
X274486912Y-118895933D01*
X274486912Y-118991171D01*
X273296435Y-118467361D02*
X274153578Y-119753076D01*
X272248816Y-118467361D02*
X273105959Y-119753076D01*
X271486912Y-118848314D02*
X271486912Y-119657838D01*
X271534531Y-119753076D01*
X271582150Y-119800695D01*
X271677388Y-119848314D01*
X271820245Y-119848314D01*
X271915483Y-119800695D01*
X271486912Y-119467361D02*
X271582150Y-119514980D01*
X271772626Y-119514980D01*
X271867864Y-119467361D01*
X271915483Y-119419742D01*
X271963102Y-119324504D01*
X271963102Y-119038790D01*
X271915483Y-118943552D01*
X271867864Y-118895933D01*
X271772626Y-118848314D01*
X271582150Y-118848314D01*
X271486912Y-118895933D01*
X271010721Y-119514980D02*
X271010721Y-118848314D01*
X271010721Y-118514980D02*
X271058340Y-118562600D01*
X271010721Y-118610219D01*
X270963102Y-118562600D01*
X271010721Y-118514980D01*
X271010721Y-118610219D01*
X270677388Y-118848314D02*
X270296435Y-118848314D01*
X270534531Y-118514980D02*
X270534531Y-119372123D01*
X270486912Y-119467361D01*
X270391673Y-119514980D01*
X270296435Y-119514980D01*
X269963102Y-119514980D02*
X269963102Y-118514980D01*
X269534531Y-119514980D02*
X269534531Y-118991171D01*
X269582150Y-118895933D01*
X269677388Y-118848314D01*
X269820245Y-118848314D01*
X269915483Y-118895933D01*
X269963102Y-118943552D01*
X268629769Y-118848314D02*
X268629769Y-119514980D01*
X269058340Y-118848314D02*
X269058340Y-119372123D01*
X269010721Y-119467361D01*
X268915483Y-119514980D01*
X268772626Y-119514980D01*
X268677388Y-119467361D01*
X268629769Y-119419742D01*
X268153578Y-119514980D02*
X268153578Y-118514980D01*
X268153578Y-118895933D02*
X268058340Y-118848314D01*
X267867864Y-118848314D01*
X267772626Y-118895933D01*
X267725007Y-118943552D01*
X267677388Y-119038790D01*
X267677388Y-119324504D01*
X267725007Y-119419742D01*
X267772626Y-119467361D01*
X267867864Y-119514980D01*
X268058340Y-119514980D01*
X268153578Y-119467361D01*
X267248816Y-119419742D02*
X267201197Y-119467361D01*
X267248816Y-119514980D01*
X267296435Y-119467361D01*
X267248816Y-119419742D01*
X267248816Y-119514980D01*
X266344054Y-119467361D02*
X266439293Y-119514980D01*
X266629769Y-119514980D01*
X266725007Y-119467361D01*
X266772626Y-119419742D01*
X266820245Y-119324504D01*
X266820245Y-119038790D01*
X266772626Y-118943552D01*
X266725007Y-118895933D01*
X266629769Y-118848314D01*
X266439293Y-118848314D01*
X266344054Y-118895933D01*
X265772626Y-119514980D02*
X265867864Y-119467361D01*
X265915483Y-119419742D01*
X265963102Y-119324504D01*
X265963102Y-119038790D01*
X265915483Y-118943552D01*
X265867864Y-118895933D01*
X265772626Y-118848314D01*
X265629769Y-118848314D01*
X265534531Y-118895933D01*
X265486912Y-118943552D01*
X265439293Y-119038790D01*
X265439293Y-119324504D01*
X265486912Y-119419742D01*
X265534531Y-119467361D01*
X265629769Y-119514980D01*
X265772626Y-119514980D01*
X265010721Y-119514980D02*
X265010721Y-118848314D01*
X265010721Y-118943552D02*
X264963102Y-118895933D01*
X264867864Y-118848314D01*
X264725007Y-118848314D01*
X264629769Y-118895933D01*
X264582150Y-118991171D01*
X264582150Y-119514980D01*
X264582150Y-118991171D02*
X264534531Y-118895933D01*
X264439293Y-118848314D01*
X264296435Y-118848314D01*
X264201197Y-118895933D01*
X264153578Y-118991171D01*
X264153578Y-119514980D01*
X262963102Y-118467361D02*
X263820245Y-119753076D01*
X262677388Y-119467361D02*
X262582150Y-119514980D01*
X262391673Y-119514980D01*
X262296435Y-119467361D01*
X262248816Y-119372123D01*
X262248816Y-119324504D01*
X262296435Y-119229266D01*
X262391673Y-119181647D01*
X262534531Y-119181647D01*
X262629769Y-119134028D01*
X262677388Y-119038790D01*
X262677388Y-118991171D01*
X262629769Y-118895933D01*
X262534531Y-118848314D01*
X262391673Y-118848314D01*
X262296435Y-118895933D01*
X261391673Y-119514980D02*
X261391673Y-118991171D01*
X261439293Y-118895933D01*
X261534531Y-118848314D01*
X261725007Y-118848314D01*
X261820245Y-118895933D01*
X261391673Y-119467361D02*
X261486912Y-119514980D01*
X261725007Y-119514980D01*
X261820245Y-119467361D01*
X261867864Y-119372123D01*
X261867864Y-119276885D01*
X261820245Y-119181647D01*
X261725007Y-119134028D01*
X261486912Y-119134028D01*
X261391673Y-119086409D01*
X260486912Y-119514980D02*
X260486912Y-118514980D01*
X260486912Y-119467361D02*
X260582150Y-119514980D01*
X260772626Y-119514980D01*
X260867864Y-119467361D01*
X260915483Y-119419742D01*
X260963102Y-119324504D01*
X260963102Y-119038790D01*
X260915483Y-118943552D01*
X260867864Y-118895933D01*
X260772626Y-118848314D01*
X260582150Y-118848314D01*
X260486912Y-118895933D01*
X259582150Y-119514980D02*
X259582150Y-118991171D01*
X259629769Y-118895933D01*
X259725007Y-118848314D01*
X259915483Y-118848314D01*
X260010721Y-118895933D01*
X259582150Y-119467361D02*
X259677388Y-119514980D01*
X259915483Y-119514980D01*
X260010721Y-119467361D01*
X260058340Y-119372123D01*
X260058340Y-119276885D01*
X260010721Y-119181647D01*
X259915483Y-119134028D01*
X259677388Y-119134028D01*
X259582150Y-119086409D01*
X258963102Y-119514980D02*
X259058340Y-119467361D01*
X259105959Y-119419742D01*
X259153578Y-119324504D01*
X259153578Y-119038790D01*
X259105959Y-118943552D01*
X259058340Y-118895933D01*
X258963102Y-118848314D01*
X258820245Y-118848314D01*
X258725007Y-118895933D01*
X258677388Y-118943552D01*
X258629769Y-119038790D01*
X258629769Y-119324504D01*
X258677388Y-119419742D01*
X258725007Y-119467361D01*
X258820245Y-119514980D01*
X258963102Y-119514980D01*
X258201197Y-119514980D02*
X258201197Y-118848314D01*
X258201197Y-118514980D02*
X258248816Y-118562600D01*
X258201197Y-118610219D01*
X258153578Y-118562600D01*
X258201197Y-118514980D01*
X258201197Y-118610219D01*
X257725007Y-119514980D02*
X257725007Y-118514980D01*
X257629769Y-119134028D02*
X257344054Y-119514980D01*
X257344054Y-118848314D02*
X257725007Y-119229266D01*
X256534531Y-119467361D02*
X256629769Y-119514980D01*
X256820245Y-119514980D01*
X256915483Y-119467361D01*
X256963102Y-119372123D01*
X256963102Y-118991171D01*
X256915483Y-118895933D01*
X256820245Y-118848314D01*
X256629769Y-118848314D01*
X256534531Y-118895933D01*
X256486912Y-118991171D01*
X256486912Y-119086409D01*
X256963102Y-119181647D01*
X256058340Y-119514980D02*
X256058340Y-118514980D01*
X256058340Y-118895933D02*
X255963102Y-118848314D01*
X255772626Y-118848314D01*
X255677388Y-118895933D01*
X255629769Y-118943552D01*
X255582150Y-119038790D01*
X255582150Y-119324504D01*
X255629769Y-119419742D01*
X255677388Y-119467361D01*
X255772626Y-119514980D01*
X255963102Y-119514980D01*
X256058340Y-119467361D01*
X254772626Y-119467361D02*
X254867864Y-119514980D01*
X255058340Y-119514980D01*
X255153578Y-119467361D01*
X255201197Y-119372123D01*
X255201197Y-118991171D01*
X255153578Y-118895933D01*
X255058340Y-118848314D01*
X254867864Y-118848314D01*
X254772626Y-118895933D01*
X254725007Y-118991171D01*
X254725007Y-119086409D01*
X255201197Y-119181647D01*
X253582150Y-118467361D02*
X254439293Y-119753076D01*
D11*
X45943029Y-39074908D02*
X45943029Y-39290580D01*
X46663029Y-39074908D02*
X46663029Y-39290580D01*
X87106324Y-27379711D02*
X87106324Y-31279711D01*
X89106324Y-27379711D02*
X89106324Y-31279711D01*
X87106324Y-27379711D02*
X89106324Y-27379711D01*
X143875120Y-79776629D02*
X143875120Y-75876629D01*
X141875120Y-79776629D02*
X141875120Y-75876629D01*
X143875120Y-79776629D02*
X141875120Y-79776629D01*
X220187688Y-101571958D02*
X227487688Y-101571958D01*
X220187688Y-96071958D02*
X227487688Y-96071958D01*
X227487688Y-96071958D02*
X227487688Y-97221958D01*
X127475520Y-96071958D02*
X127475520Y-97221958D01*
X120175520Y-96071958D02*
X127475520Y-96071958D01*
X120175520Y-101571958D02*
X127475520Y-101571958D01*
X111728218Y-116090722D02*
X111728218Y-112190722D01*
X109728218Y-116090722D02*
X109728218Y-112190722D01*
X111728218Y-116090722D02*
X109728218Y-116090722D01*
X44457849Y-115495409D02*
X44457849Y-111595409D01*
X42457849Y-115495409D02*
X42457849Y-111595409D01*
X44457849Y-115495409D02*
X42457849Y-115495409D01*
X226028314Y-84267255D02*
X226028314Y-80367255D01*
X224028314Y-84267255D02*
X224028314Y-80367255D01*
X226028314Y-84267255D02*
X224028314Y-84267255D01*
X45985971Y-38512536D02*
X38685971Y-38512536D01*
X45985971Y-44012536D02*
X38685971Y-44012536D01*
X38685971Y-44012536D02*
X38685971Y-42862536D01*
X279987736Y-110400096D02*
X279987736Y-114300096D01*
X281987736Y-110400096D02*
X281987736Y-114300096D01*
X279987736Y-110400096D02*
X281987736Y-110400096D01*
X284292423Y-77581316D02*
X280392423Y-77581316D01*
X284292423Y-79581316D02*
X280392423Y-79581316D01*
X284292423Y-77581316D02*
X284292423Y-79581316D01*
X284292423Y-48410979D02*
X280392423Y-48410979D01*
X284292423Y-50410979D02*
X280392423Y-50410979D01*
X284292423Y-48410979D02*
X284292423Y-50410979D01*
X283101797Y-30551589D02*
X279201797Y-30551589D01*
X283101797Y-32551589D02*
X279201797Y-32551589D01*
X283101797Y-30551589D02*
X283101797Y-32551589D01*
X264128346Y-114900096D02*
X264128346Y-111000096D01*
X262128346Y-114900096D02*
X262128346Y-111000096D01*
X264128346Y-114900096D02*
X262128346Y-114900096D01*
X260937720Y-79903194D02*
X260937720Y-83803194D01*
X262937720Y-79903194D02*
X262937720Y-83803194D01*
X260937720Y-79903194D02*
X262937720Y-79903194D01*
X268890850Y-75014125D02*
X268890850Y-71114125D01*
X266890850Y-75014125D02*
X266890850Y-71114125D01*
X268890850Y-75014125D02*
X266890850Y-75014125D01*
X258175216Y-60131250D02*
X258175216Y-56231250D01*
X256175216Y-60131250D02*
X256175216Y-56231250D01*
X258175216Y-60131250D02*
X256175216Y-60131250D01*
X257765842Y-28979711D02*
X261665842Y-28979711D01*
X257765842Y-26979711D02*
X261665842Y-26979711D01*
X257765842Y-28979711D02*
X257765842Y-26979711D01*
X259746875Y-110400096D02*
X259746875Y-114300096D01*
X261746875Y-110400096D02*
X261746875Y-114300096D01*
X259746875Y-110400096D02*
X261746875Y-110400096D01*
X245078330Y-31879711D02*
X245078330Y-27979711D01*
X243078330Y-31879711D02*
X243078330Y-27979711D01*
X245078330Y-31879711D02*
X243078330Y-31879711D01*
X243887500Y-114900000D02*
X243887500Y-111000000D01*
X241887500Y-114900000D02*
X241887500Y-111000000D01*
X243887500Y-114900000D02*
X241887500Y-114900000D01*
X237934574Y-79776629D02*
X237934574Y-75876629D01*
X235934574Y-79776629D02*
X235934574Y-75876629D01*
X237934574Y-79776629D02*
X235934574Y-79776629D01*
X253412500Y-60131300D02*
X253412500Y-56231300D01*
X251412500Y-60131300D02*
X251412500Y-56231300D01*
X253412500Y-60131300D02*
X251412500Y-60131300D01*
X239506452Y-27379711D02*
X239506452Y-31279711D01*
X241506452Y-27379711D02*
X241506452Y-31279711D01*
X239506452Y-27379711D02*
X241506452Y-27379711D01*
X222837500Y-110400096D02*
X222837500Y-114300096D01*
X224837500Y-110400096D02*
X224837500Y-114300096D01*
X222837500Y-110400096D02*
X224837500Y-110400096D01*
X232362696Y-55631300D02*
X232362696Y-59531300D01*
X234362696Y-55631300D02*
X234362696Y-59531300D01*
X232362696Y-55631300D02*
X234362696Y-55631300D01*
X222456436Y-31879711D02*
X222456436Y-27979711D01*
X220456436Y-31879711D02*
X220456436Y-27979711D01*
X222456436Y-31879711D02*
X220456436Y-31879711D01*
X203406420Y-116686035D02*
X203406420Y-112786035D01*
X201406420Y-116686035D02*
X201406420Y-112786035D01*
X203406420Y-116686035D02*
X201406420Y-116686035D01*
X205573611Y-79767255D02*
X205573611Y-83667255D01*
X207573611Y-79767255D02*
X207573611Y-83667255D01*
X205573611Y-79767255D02*
X207573611Y-79767255D01*
X218884558Y-79776629D02*
X218884558Y-75876629D01*
X216884558Y-79776629D02*
X216884558Y-75876629D01*
X218884558Y-79776629D02*
X216884558Y-79776629D01*
X215312500Y-60131250D02*
X215312500Y-56231250D01*
X213312500Y-60131250D02*
X213312500Y-56231250D01*
X215312500Y-60131250D02*
X213312500Y-60131250D01*
X201406420Y-27379711D02*
X201406420Y-31279711D01*
X203406420Y-27379711D02*
X203406420Y-31279711D01*
X201406420Y-27379711D02*
X203406420Y-27379711D01*
X188523595Y-84267255D02*
X188523595Y-80367255D01*
X186523595Y-84267255D02*
X186523595Y-80367255D01*
X188523595Y-84267255D02*
X186523595Y-84267255D01*
X199025168Y-75276629D02*
X199025168Y-79176629D01*
X201025168Y-75276629D02*
X201025168Y-79176629D01*
X199025168Y-75276629D02*
X201025168Y-75276629D01*
X194262664Y-55631300D02*
X194262664Y-59531300D01*
X196262664Y-55631300D02*
X196262664Y-59531300D01*
X194262664Y-55631300D02*
X196262664Y-55631300D01*
X184356404Y-31879711D02*
X184356404Y-27979711D01*
X182356404Y-31879711D02*
X182356404Y-27979711D01*
X184356404Y-31879711D02*
X182356404Y-31879711D01*
X163520449Y-116090722D02*
X163520449Y-112190722D01*
X161520449Y-116090722D02*
X161520449Y-112190722D01*
X163520449Y-116090722D02*
X161520449Y-116090722D01*
X168068892Y-79767255D02*
X168068892Y-83667255D01*
X170068892Y-79767255D02*
X170068892Y-83667255D01*
X168068892Y-79767255D02*
X170068892Y-79767255D01*
X181975000Y-79776629D02*
X181975000Y-75876629D01*
X179975000Y-79776629D02*
X179975000Y-75876629D01*
X181975000Y-79776629D02*
X179975000Y-79776629D01*
X177212500Y-60131250D02*
X177212500Y-56231250D01*
X175212500Y-60131250D02*
X175212500Y-56231250D01*
X177212500Y-60131250D02*
X175212500Y-60131250D01*
X163306388Y-27379711D02*
X165306388Y-27379711D01*
X165306388Y-27379711D02*
X165306388Y-31279711D01*
X163306388Y-27379711D02*
X163306388Y-31279711D01*
X149828250Y-84267255D02*
X149828250Y-80367255D01*
X147828250Y-84267255D02*
X147828250Y-80367255D01*
X149828250Y-84267255D02*
X147828250Y-84267255D01*
X160925136Y-75276629D02*
X160925136Y-79176629D01*
X162925136Y-75276629D02*
X162925136Y-79176629D01*
X160925136Y-75276629D02*
X162925136Y-75276629D01*
X156162632Y-55631300D02*
X156162632Y-59531300D01*
X158162632Y-55631300D02*
X158162632Y-59531300D01*
X156162632Y-55631300D02*
X158162632Y-55631300D01*
X146256372Y-31879711D02*
X146256372Y-27979711D01*
X144256372Y-31879711D02*
X144256372Y-27979711D01*
X146256372Y-31879711D02*
X144256372Y-31879711D01*
X129968860Y-79767255D02*
X129968860Y-83667255D01*
X131968860Y-79767255D02*
X131968860Y-83667255D01*
X129968860Y-79767255D02*
X131968860Y-79767255D01*
X139112616Y-60131300D02*
X139112616Y-56231300D01*
X137112616Y-60131300D02*
X137112616Y-56231300D01*
X139112616Y-60131300D02*
X137112616Y-60131300D01*
X125206356Y-27379711D02*
X125206356Y-31279711D01*
X127206356Y-27379711D02*
X127206356Y-31279711D01*
X125206356Y-27379711D02*
X127206356Y-27379711D01*
X111728218Y-84267255D02*
X111728218Y-80367255D01*
X109728218Y-84267255D02*
X109728218Y-80367255D01*
X111728218Y-84267255D02*
X109728218Y-84267255D01*
X122825104Y-75276629D02*
X122825104Y-79176629D01*
X124825104Y-75276629D02*
X124825104Y-79176629D01*
X122825104Y-75276629D02*
X124825104Y-75276629D01*
X118062500Y-55631300D02*
X118062500Y-59531300D01*
X120062500Y-55631300D02*
X120062500Y-59531300D01*
X118062500Y-55631300D02*
X120062500Y-55631300D01*
X108156340Y-31879711D02*
X108156340Y-27979711D01*
X106156340Y-31879711D02*
X106156340Y-27979711D01*
X108156340Y-31879711D02*
X106156340Y-31879711D01*
X91868828Y-79767255D02*
X91868828Y-83667255D01*
X93868828Y-79767255D02*
X93868828Y-83667255D01*
X91868828Y-79767255D02*
X93868828Y-79767255D01*
X105775000Y-79776629D02*
X105775000Y-75876629D01*
X103775000Y-79776629D02*
X103775000Y-75876629D01*
X105775000Y-79776629D02*
X103775000Y-79776629D01*
X101012500Y-60131250D02*
X101012500Y-56231250D01*
X99012500Y-60131250D02*
X99012500Y-56231250D01*
X101012500Y-60131250D02*
X99012500Y-60131250D01*
X73032873Y-84267255D02*
X73032873Y-80367255D01*
X71032873Y-84267255D02*
X71032873Y-80367255D01*
X73032873Y-84267255D02*
X71032873Y-84267255D01*
X84725072Y-75276629D02*
X84725072Y-79176629D01*
X86725072Y-75276629D02*
X86725072Y-79176629D01*
X84725072Y-75276629D02*
X86725072Y-75276629D01*
X79962568Y-55631300D02*
X79962568Y-59531300D01*
X81962568Y-55631300D02*
X81962568Y-59531300D01*
X79962568Y-55631300D02*
X81962568Y-55631300D01*
X70056308Y-31879711D02*
X70056308Y-27979711D01*
X68056308Y-31879711D02*
X68056308Y-27979711D01*
X70056308Y-31879711D02*
X68056308Y-31879711D01*
X53768796Y-79767255D02*
X53768796Y-83667255D01*
X55768796Y-79767255D02*
X55768796Y-83667255D01*
X53768796Y-79767255D02*
X55768796Y-79767255D01*
X67675056Y-79776629D02*
X67675056Y-75876629D01*
X65675056Y-79776629D02*
X65675056Y-75876629D01*
X67675056Y-79776629D02*
X65675056Y-79776629D01*
X62912500Y-60131250D02*
X62912500Y-56231250D01*
X60912500Y-60131250D02*
X60912500Y-56231250D01*
X62912500Y-60131250D02*
X60912500Y-60131250D01*
X49006292Y-27379711D02*
X49006292Y-31279711D01*
X51006292Y-27379711D02*
X51006292Y-31279711D01*
X49006292Y-27379711D02*
X51006292Y-27379711D01*
X38885971Y-110995409D02*
X38885971Y-114895409D01*
X40885971Y-110995409D02*
X40885971Y-114895409D01*
X38885971Y-110995409D02*
X40885971Y-110995409D01*
X46625040Y-75276629D02*
X46625040Y-79176629D01*
X48625040Y-75276629D02*
X48625040Y-79176629D01*
X46625040Y-75276629D02*
X48625040Y-75276629D01*
X39481284Y-55631300D02*
X39481284Y-59531300D01*
X41481284Y-55631300D02*
X41481284Y-59531300D01*
X39481284Y-55631300D02*
X41481284Y-55631300D01*
X28570337Y-29575024D02*
X32470337Y-29575024D01*
X28570337Y-27575024D02*
X32470337Y-27575024D01*
X28570337Y-29575024D02*
X28570337Y-27575024D01*
X17668750Y-115495409D02*
X17668750Y-111595409D01*
X15668750Y-115495409D02*
X15668750Y-111595409D01*
X17668750Y-115495409D02*
X15668750Y-115495409D01*
X22626581Y-59721926D02*
X18726581Y-59721926D01*
X22626581Y-61721926D02*
X18726581Y-61721926D01*
X22626581Y-59721926D02*
X22626581Y-61721926D01*
X22626581Y-57340674D02*
X18726581Y-57340674D01*
X22626581Y-59340674D02*
X18726581Y-59340674D01*
X22626581Y-57340674D02*
X22626581Y-59340674D01*
X22626581Y-54959422D02*
X18726581Y-54959422D01*
X22626581Y-56959422D02*
X18726581Y-56959422D01*
X22626581Y-54959422D02*
X22626581Y-56959422D01*
X13696886Y-30551589D02*
X9796886Y-30551589D01*
X13696886Y-32551589D02*
X9796886Y-32551589D01*
X13696886Y-30551589D02*
X13696886Y-32551589D01*
X79367255Y-111454783D02*
X79367255Y-115354783D01*
X81367255Y-111454783D02*
X81367255Y-115354783D01*
X79367255Y-111454783D02*
X81367255Y-111454783D01*
X165092327Y-111590722D02*
X167092327Y-111590722D01*
X167092327Y-111590722D02*
X167092327Y-115490722D01*
X165092327Y-111590722D02*
X165092327Y-115490722D01*
X95103210Y-44235971D02*
X95103210Y-43085971D01*
X102403210Y-44235971D02*
X95103210Y-44235971D01*
X102403210Y-38735971D02*
X95103210Y-38735971D01*
X167361075Y-38326597D02*
X160061075Y-38326597D01*
X167361075Y-43826597D02*
X160061075Y-43826597D01*
X160061075Y-43826597D02*
X160061075Y-42676597D01*
X220188440Y-43231420D02*
X220188440Y-42081420D01*
X227488440Y-43231420D02*
X220188440Y-43231420D01*
X227488440Y-37731420D02*
X220188440Y-37731420D01*
X283515858Y-37917223D02*
X276215858Y-37917223D01*
X283515858Y-43417223D02*
X276215858Y-43417223D01*
X276215858Y-43417223D02*
X276215858Y-42267223D01*
X283447110Y-96853210D02*
X283447110Y-98003210D01*
X276147110Y-96853210D02*
X283447110Y-96853210D01*
X276147110Y-102353210D02*
X283447110Y-102353210D01*
X177481396Y-95476645D02*
X177481396Y-96626645D01*
X170181396Y-95476645D02*
X177481396Y-95476645D01*
X170181396Y-100976645D02*
X177481396Y-100976645D01*
X63025056Y-101571958D02*
X70325056Y-101571958D01*
X63025056Y-96071958D02*
X70325056Y-96071958D01*
X70325056Y-96071958D02*
X70325056Y-97221958D01*
X21440710Y-97857897D02*
X21440710Y-99007897D01*
X14140710Y-97857897D02*
X21440710Y-97857897D01*
X14140710Y-103357897D02*
X21440710Y-103357897D01*
X-725939Y-107025714D02*
X-2845939Y-107025714D01*
X-725939Y-102965714D02*
X-725939Y-107025714D01*
X-2845939Y-102965714D02*
X-2845939Y-107025714D01*
X-725939Y-102965714D02*
X-2845939Y-102965714D01*
X-725939Y-101965714D02*
X-725939Y-100905714D01*
X-725939Y-100905714D02*
X-1785939Y-100905714D01*
X-2250626Y-59782247D02*
X-130626Y-59782247D01*
X-2250626Y-69842247D02*
X-2250626Y-59782247D01*
X-130626Y-69842247D02*
X-130626Y-59782247D01*
X-2250626Y-69842247D02*
X-130626Y-69842247D01*
X-2250626Y-70842247D02*
X-2250626Y-71902247D01*
X-2250626Y-71902247D02*
X-1190626Y-71902247D01*
X284292423Y-67460995D02*
X284292423Y-69460995D01*
X284292423Y-69460995D02*
X280392423Y-69460995D01*
X284292423Y-67460995D02*
X280392423Y-67460995D01*
X242697078Y-84267255D02*
X240697078Y-84267255D01*
X240697078Y-84267255D02*
X240697078Y-80367255D01*
X242697078Y-84267255D02*
X242697078Y-80367255D01*
X134945425Y-116090722D02*
X134945425Y-112190722D01*
X132945425Y-116090722D02*
X132945425Y-112190722D01*
X134945425Y-116090722D02*
X132945425Y-116090722D01*
X103192285Y-40477866D02*
X103192285Y-40262194D01*
X102472285Y-40477866D02*
X102472285Y-40262194D01*
X284324301Y-39398494D02*
X284324301Y-39182822D01*
X283604301Y-39398494D02*
X283604301Y-39182822D01*
X275989919Y-101791046D02*
X275989919Y-101575374D01*
X275269919Y-101791046D02*
X275269919Y-101575374D01*
X220030497Y-101195733D02*
X220030497Y-100980061D01*
X219310497Y-101195733D02*
X219310497Y-100980061D01*
X168708892Y-100600420D02*
X168708892Y-100384748D01*
X169428892Y-100600420D02*
X169428892Y-100384748D01*
X119297913Y-101195733D02*
X119297913Y-100980061D01*
X120017913Y-101195733D02*
X120017913Y-100980061D01*
X62867865Y-100600420D02*
X62867865Y-100384748D01*
X62147865Y-100600420D02*
X62147865Y-100384748D01*
X15118138Y-104882924D02*
X15118138Y-104667252D01*
X15838138Y-104882924D02*
X15838138Y-104667252D01*
X167387195Y-40064097D02*
X167387195Y-39848425D01*
X168107195Y-40064097D02*
X168107195Y-39848425D01*
X227644879Y-39513807D02*
X227644879Y-39298135D01*
X228364879Y-39513807D02*
X228364879Y-39298135D01*
X229981444Y-79767255D02*
X231981444Y-79767255D01*
X231981444Y-79767255D02*
X231981444Y-83667255D01*
X229981444Y-79767255D02*
X229981444Y-83667255D01*
X238315826Y-75276629D02*
X238315826Y-79176629D01*
X240315826Y-75276629D02*
X240315826Y-79176629D01*
X238315826Y-75276629D02*
X240315826Y-75276629D01*
D10*
X45500171Y-39016077D02*
X45547790Y-38968458D01*
X45595409Y-38825601D01*
X45595409Y-38730363D01*
X45547790Y-38587505D01*
X45452552Y-38492267D01*
X45357314Y-38444648D01*
X45166838Y-38397029D01*
X45023981Y-38397029D01*
X44833505Y-38444648D01*
X44738267Y-38492267D01*
X44643029Y-38587505D01*
X44595409Y-38730363D01*
X44595409Y-38825601D01*
X44643029Y-38968458D01*
X44690648Y-39016077D01*
X45023981Y-39587505D02*
X44976362Y-39492267D01*
X44928743Y-39444648D01*
X44833505Y-39397029D01*
X44785886Y-39397029D01*
X44690648Y-39444648D01*
X44643029Y-39492267D01*
X44595409Y-39587505D01*
X44595409Y-39777982D01*
X44643029Y-39873220D01*
X44690648Y-39920839D01*
X44785886Y-39968458D01*
X44833505Y-39968458D01*
X44928743Y-39920839D01*
X44976362Y-39873220D01*
X45023981Y-39777982D01*
X45023981Y-39587505D01*
X45071600Y-39492267D01*
X45119219Y-39444648D01*
X45214457Y-39397029D01*
X45404933Y-39397029D01*
X45500171Y-39444648D01*
X45547790Y-39492267D01*
X45595409Y-39587505D01*
X45595409Y-39777982D01*
X45547790Y-39873220D01*
X45500171Y-39920839D01*
X45404933Y-39968458D01*
X45214457Y-39968458D01*
X45119219Y-39920839D01*
X45071600Y-39873220D01*
X45023981Y-39777982D01*
X86558704Y-28415425D02*
X85558704Y-28415425D01*
X85558704Y-28653520D01*
X85606324Y-28796377D01*
X85701562Y-28891615D01*
X85796800Y-28939234D01*
X85987276Y-28986853D01*
X86130133Y-28986853D01*
X86320609Y-28939234D01*
X86415847Y-28891615D01*
X86511085Y-28796377D01*
X86558704Y-28653520D01*
X86558704Y-28415425D01*
X86558704Y-29939234D02*
X86558704Y-29367806D01*
X86558704Y-29653520D02*
X85558704Y-29653520D01*
X85701562Y-29558282D01*
X85796800Y-29463044D01*
X85844419Y-29367806D01*
X86558704Y-30415425D02*
X86558704Y-30605901D01*
X86511085Y-30701139D01*
X86463466Y-30748758D01*
X86320609Y-30843996D01*
X86130133Y-30891615D01*
X85749181Y-30891615D01*
X85653943Y-30843996D01*
X85606324Y-30796377D01*
X85558704Y-30701139D01*
X85558704Y-30510663D01*
X85606324Y-30415425D01*
X85653943Y-30367806D01*
X85749181Y-30320187D01*
X85987276Y-30320187D01*
X86082514Y-30367806D01*
X86130133Y-30415425D01*
X86177752Y-30510663D01*
X86177752Y-30701139D01*
X86130133Y-30796377D01*
X86082514Y-30843996D01*
X85987276Y-30891615D01*
X145327500Y-76312343D02*
X144327500Y-76312343D01*
X144327500Y-76550438D01*
X144375120Y-76693295D01*
X144470358Y-76788533D01*
X144565596Y-76836152D01*
X144756072Y-76883771D01*
X144898929Y-76883771D01*
X145089405Y-76836152D01*
X145184643Y-76788533D01*
X145279881Y-76693295D01*
X145327500Y-76550438D01*
X145327500Y-76312343D01*
X144327500Y-77217105D02*
X144327500Y-77836152D01*
X144708453Y-77502819D01*
X144708453Y-77645676D01*
X144756072Y-77740914D01*
X144803691Y-77788533D01*
X144898929Y-77836152D01*
X145137024Y-77836152D01*
X145232262Y-77788533D01*
X145279881Y-77740914D01*
X145327500Y-77645676D01*
X145327500Y-77359962D01*
X145279881Y-77264724D01*
X145232262Y-77217105D01*
X144327500Y-78455200D02*
X144327500Y-78550438D01*
X144375120Y-78645676D01*
X144422739Y-78693295D01*
X144517977Y-78740914D01*
X144708453Y-78788533D01*
X144946548Y-78788533D01*
X145137024Y-78740914D01*
X145232262Y-78693295D01*
X145279881Y-78645676D01*
X145327500Y-78550438D01*
X145327500Y-78455200D01*
X145279881Y-78359962D01*
X145232262Y-78312343D01*
X145137024Y-78264724D01*
X144946548Y-78217105D01*
X144708453Y-78217105D01*
X144517977Y-78264724D01*
X144422739Y-78312343D01*
X144375120Y-78359962D01*
X144327500Y-78455200D01*
X225051973Y-102774338D02*
X225051973Y-101774338D01*
X224813878Y-101774338D01*
X224671021Y-101821958D01*
X224575783Y-101917196D01*
X224528164Y-102012434D01*
X224480545Y-102202910D01*
X224480545Y-102345767D01*
X224528164Y-102536243D01*
X224575783Y-102631481D01*
X224671021Y-102726719D01*
X224813878Y-102774338D01*
X225051973Y-102774338D01*
X223909116Y-102202910D02*
X224004354Y-102155291D01*
X224051973Y-102107672D01*
X224099592Y-102012434D01*
X224099592Y-101964815D01*
X224051973Y-101869577D01*
X224004354Y-101821958D01*
X223909116Y-101774338D01*
X223718640Y-101774338D01*
X223623402Y-101821958D01*
X223575783Y-101869577D01*
X223528164Y-101964815D01*
X223528164Y-102012434D01*
X223575783Y-102107672D01*
X223623402Y-102155291D01*
X223718640Y-102202910D01*
X223909116Y-102202910D01*
X224004354Y-102250529D01*
X224051973Y-102298148D01*
X224099592Y-102393386D01*
X224099592Y-102583862D01*
X224051973Y-102679100D01*
X224004354Y-102726719D01*
X223909116Y-102774338D01*
X223718640Y-102774338D01*
X223623402Y-102726719D01*
X223575783Y-102679100D01*
X223528164Y-102583862D01*
X223528164Y-102393386D01*
X223575783Y-102298148D01*
X223623402Y-102250529D01*
X223718640Y-102202910D01*
X222909116Y-101774338D02*
X222813878Y-101774338D01*
X222718640Y-101821958D01*
X222671021Y-101869577D01*
X222623402Y-101964815D01*
X222575783Y-102155291D01*
X222575783Y-102393386D01*
X222623402Y-102583862D01*
X222671021Y-102679100D01*
X222718640Y-102726719D01*
X222813878Y-102774338D01*
X222909116Y-102774338D01*
X223004354Y-102726719D01*
X223051973Y-102679100D01*
X223099592Y-102583862D01*
X223147211Y-102393386D01*
X223147211Y-102155291D01*
X223099592Y-101964815D01*
X223051973Y-101869577D01*
X223004354Y-101821958D01*
X222909116Y-101774338D01*
X125039805Y-102774338D02*
X125039805Y-101774338D01*
X124801710Y-101774338D01*
X124658853Y-101821958D01*
X124563615Y-101917196D01*
X124515996Y-102012434D01*
X124468377Y-102202910D01*
X124468377Y-102345767D01*
X124515996Y-102536243D01*
X124563615Y-102631481D01*
X124658853Y-102726719D01*
X124801710Y-102774338D01*
X125039805Y-102774338D01*
X123896948Y-102202910D02*
X123992186Y-102155291D01*
X124039805Y-102107672D01*
X124087424Y-102012434D01*
X124087424Y-101964815D01*
X124039805Y-101869577D01*
X123992186Y-101821958D01*
X123896948Y-101774338D01*
X123706472Y-101774338D01*
X123611234Y-101821958D01*
X123563615Y-101869577D01*
X123515996Y-101964815D01*
X123515996Y-102012434D01*
X123563615Y-102107672D01*
X123611234Y-102155291D01*
X123706472Y-102202910D01*
X123896948Y-102202910D01*
X123992186Y-102250529D01*
X124039805Y-102298148D01*
X124087424Y-102393386D01*
X124087424Y-102583862D01*
X124039805Y-102679100D01*
X123992186Y-102726719D01*
X123896948Y-102774338D01*
X123706472Y-102774338D01*
X123611234Y-102726719D01*
X123563615Y-102679100D01*
X123515996Y-102583862D01*
X123515996Y-102393386D01*
X123563615Y-102298148D01*
X123611234Y-102250529D01*
X123706472Y-102202910D01*
X123135043Y-101869577D02*
X123087424Y-101821958D01*
X122992186Y-101774338D01*
X122754091Y-101774338D01*
X122658853Y-101821958D01*
X122611234Y-101869577D01*
X122563615Y-101964815D01*
X122563615Y-102060053D01*
X122611234Y-102202910D01*
X123182662Y-102774338D01*
X122563615Y-102774338D01*
X113180598Y-112626436D02*
X112180598Y-112626436D01*
X112180598Y-112864531D01*
X112228218Y-113007388D01*
X112323456Y-113102626D01*
X112418694Y-113150245D01*
X112609170Y-113197864D01*
X112752027Y-113197864D01*
X112942503Y-113150245D01*
X113037741Y-113102626D01*
X113132979Y-113007388D01*
X113180598Y-112864531D01*
X113180598Y-112626436D01*
X112275837Y-113578817D02*
X112228218Y-113626436D01*
X112180598Y-113721674D01*
X112180598Y-113959769D01*
X112228218Y-114055007D01*
X112275837Y-114102626D01*
X112371075Y-114150245D01*
X112466313Y-114150245D01*
X112609170Y-114102626D01*
X113180598Y-113531198D01*
X113180598Y-114150245D01*
X112180598Y-114483579D02*
X112180598Y-115102626D01*
X112561551Y-114769293D01*
X112561551Y-114912150D01*
X112609170Y-115007388D01*
X112656789Y-115055007D01*
X112752027Y-115102626D01*
X112990122Y-115102626D01*
X113085360Y-115055007D01*
X113132979Y-115007388D01*
X113180598Y-114912150D01*
X113180598Y-114626436D01*
X113132979Y-114531198D01*
X113085360Y-114483579D01*
X45910229Y-112031123D02*
X44910229Y-112031123D01*
X44910229Y-112269218D01*
X44957849Y-112412075D01*
X45053087Y-112507313D01*
X45148325Y-112554932D01*
X45338801Y-112602551D01*
X45481658Y-112602551D01*
X45672134Y-112554932D01*
X45767372Y-112507313D01*
X45862610Y-112412075D01*
X45910229Y-112269218D01*
X45910229Y-112031123D01*
X45910229Y-113554932D02*
X45910229Y-112983504D01*
X45910229Y-113269218D02*
X44910229Y-113269218D01*
X45053087Y-113173980D01*
X45148325Y-113078742D01*
X45195944Y-112983504D01*
X45243563Y-114412075D02*
X45910229Y-114412075D01*
X44862610Y-114173980D02*
X45576896Y-113935885D01*
X45576896Y-114554932D01*
X227480694Y-80802969D02*
X226480694Y-80802969D01*
X226480694Y-81041064D01*
X226528314Y-81183921D01*
X226623552Y-81279159D01*
X226718790Y-81326778D01*
X226909266Y-81374397D01*
X227052123Y-81374397D01*
X227242599Y-81326778D01*
X227337837Y-81279159D01*
X227433075Y-81183921D01*
X227480694Y-81041064D01*
X227480694Y-80802969D01*
X226480694Y-82279159D02*
X226480694Y-81802969D01*
X226956885Y-81755350D01*
X226909266Y-81802969D01*
X226861647Y-81898207D01*
X226861647Y-82136302D01*
X226909266Y-82231540D01*
X226956885Y-82279159D01*
X227052123Y-82326778D01*
X227290218Y-82326778D01*
X227385456Y-82279159D01*
X227433075Y-82231540D01*
X227480694Y-82136302D01*
X227480694Y-81898207D01*
X227433075Y-81802969D01*
X227385456Y-81755350D01*
X226575933Y-82707731D02*
X226528314Y-82755350D01*
X226480694Y-82850588D01*
X226480694Y-83088683D01*
X226528314Y-83183921D01*
X226575933Y-83231540D01*
X226671171Y-83279159D01*
X226766409Y-83279159D01*
X226909266Y-83231540D01*
X227480694Y-82660112D01*
X227480694Y-83279159D01*
X43550256Y-38214916D02*
X43550256Y-37214916D01*
X43312161Y-37214916D01*
X43169304Y-37262536D01*
X43074066Y-37357774D01*
X43026447Y-37453012D01*
X42978828Y-37643488D01*
X42978828Y-37786345D01*
X43026447Y-37976821D01*
X43074066Y-38072059D01*
X43169304Y-38167297D01*
X43312161Y-38214916D01*
X43550256Y-38214916D01*
X42645494Y-37214916D02*
X41978828Y-37214916D01*
X42407399Y-38214916D01*
X41169304Y-37548250D02*
X41169304Y-38214916D01*
X41407399Y-37167297D02*
X41645494Y-37881583D01*
X41026447Y-37881583D01*
X279440116Y-111435810D02*
X278440116Y-111435810D01*
X278440116Y-111673905D01*
X278487736Y-111816762D01*
X278582974Y-111912000D01*
X278678212Y-111959619D01*
X278868688Y-112007238D01*
X279011545Y-112007238D01*
X279202021Y-111959619D01*
X279297259Y-111912000D01*
X279392497Y-111816762D01*
X279440116Y-111673905D01*
X279440116Y-111435810D01*
X278440116Y-112340572D02*
X278440116Y-113007238D01*
X279440116Y-112578667D01*
X278440116Y-113578667D02*
X278440116Y-113673905D01*
X278487736Y-113769143D01*
X278535355Y-113816762D01*
X278630593Y-113864381D01*
X278821069Y-113912000D01*
X279059164Y-113912000D01*
X279249640Y-113864381D01*
X279344878Y-113816762D01*
X279392497Y-113769143D01*
X279440116Y-113673905D01*
X279440116Y-113578667D01*
X279392497Y-113483429D01*
X279344878Y-113435810D01*
X279249640Y-113388191D01*
X279059164Y-113340572D01*
X278821069Y-113340572D01*
X278630593Y-113388191D01*
X278535355Y-113435810D01*
X278487736Y-113483429D01*
X278440116Y-113578667D01*
X283256708Y-77033696D02*
X283256708Y-76033696D01*
X283018613Y-76033696D01*
X282875756Y-76081316D01*
X282780518Y-76176554D01*
X282732899Y-76271792D01*
X282685280Y-76462268D01*
X282685280Y-76605125D01*
X282732899Y-76795601D01*
X282780518Y-76890839D01*
X282875756Y-76986077D01*
X283018613Y-77033696D01*
X283256708Y-77033696D01*
X281828137Y-76033696D02*
X282018613Y-76033696D01*
X282113851Y-76081316D01*
X282161470Y-76128935D01*
X282256708Y-76271792D01*
X282304327Y-76462268D01*
X282304327Y-76843220D01*
X282256708Y-76938458D01*
X282209089Y-76986077D01*
X282113851Y-77033696D01*
X281923375Y-77033696D01*
X281828137Y-76986077D01*
X281780518Y-76938458D01*
X281732899Y-76843220D01*
X281732899Y-76605125D01*
X281780518Y-76509887D01*
X281828137Y-76462268D01*
X281923375Y-76414649D01*
X282113851Y-76414649D01*
X282209089Y-76462268D01*
X282256708Y-76509887D01*
X282304327Y-76605125D01*
X281256708Y-77033696D02*
X281066232Y-77033696D01*
X280970994Y-76986077D01*
X280923375Y-76938458D01*
X280828137Y-76795601D01*
X280780518Y-76605125D01*
X280780518Y-76224173D01*
X280828137Y-76128935D01*
X280875756Y-76081316D01*
X280970994Y-76033696D01*
X281161470Y-76033696D01*
X281256708Y-76081316D01*
X281304327Y-76128935D01*
X281351946Y-76224173D01*
X281351946Y-76462268D01*
X281304327Y-76557506D01*
X281256708Y-76605125D01*
X281161470Y-76652744D01*
X280970994Y-76652744D01*
X280875756Y-76605125D01*
X280828137Y-76557506D01*
X280780518Y-76462268D01*
X283256708Y-47863359D02*
X283256708Y-46863359D01*
X283018613Y-46863359D01*
X282875756Y-46910979D01*
X282780518Y-47006217D01*
X282732899Y-47101455D01*
X282685280Y-47291931D01*
X282685280Y-47434788D01*
X282732899Y-47625264D01*
X282780518Y-47720502D01*
X282875756Y-47815740D01*
X283018613Y-47863359D01*
X283256708Y-47863359D01*
X281828137Y-46863359D02*
X282018613Y-46863359D01*
X282113851Y-46910979D01*
X282161470Y-46958598D01*
X282256708Y-47101455D01*
X282304327Y-47291931D01*
X282304327Y-47672883D01*
X282256708Y-47768121D01*
X282209089Y-47815740D01*
X282113851Y-47863359D01*
X281923375Y-47863359D01*
X281828137Y-47815740D01*
X281780518Y-47768121D01*
X281732899Y-47672883D01*
X281732899Y-47434788D01*
X281780518Y-47339550D01*
X281828137Y-47291931D01*
X281923375Y-47244312D01*
X282113851Y-47244312D01*
X282209089Y-47291931D01*
X282256708Y-47339550D01*
X282304327Y-47434788D01*
X281161470Y-47291931D02*
X281256708Y-47244312D01*
X281304327Y-47196693D01*
X281351946Y-47101455D01*
X281351946Y-47053836D01*
X281304327Y-46958598D01*
X281256708Y-46910979D01*
X281161470Y-46863359D01*
X280970994Y-46863359D01*
X280875756Y-46910979D01*
X280828137Y-46958598D01*
X280780518Y-47053836D01*
X280780518Y-47101455D01*
X280828137Y-47196693D01*
X280875756Y-47244312D01*
X280970994Y-47291931D01*
X281161470Y-47291931D01*
X281256708Y-47339550D01*
X281304327Y-47387169D01*
X281351946Y-47482407D01*
X281351946Y-47672883D01*
X281304327Y-47768121D01*
X281256708Y-47815740D01*
X281161470Y-47863359D01*
X280970994Y-47863359D01*
X280875756Y-47815740D01*
X280828137Y-47768121D01*
X280780518Y-47672883D01*
X280780518Y-47482407D01*
X280828137Y-47387169D01*
X280875756Y-47339550D01*
X280970994Y-47291931D01*
X282066082Y-30003969D02*
X282066082Y-29003969D01*
X281827987Y-29003969D01*
X281685130Y-29051589D01*
X281589892Y-29146827D01*
X281542273Y-29242065D01*
X281494654Y-29432541D01*
X281494654Y-29575398D01*
X281542273Y-29765874D01*
X281589892Y-29861112D01*
X281685130Y-29956350D01*
X281827987Y-30003969D01*
X282066082Y-30003969D01*
X280637511Y-29003969D02*
X280827987Y-29003969D01*
X280923225Y-29051589D01*
X280970844Y-29099208D01*
X281066082Y-29242065D01*
X281113701Y-29432541D01*
X281113701Y-29813493D01*
X281066082Y-29908731D01*
X281018463Y-29956350D01*
X280923225Y-30003969D01*
X280732749Y-30003969D01*
X280637511Y-29956350D01*
X280589892Y-29908731D01*
X280542273Y-29813493D01*
X280542273Y-29575398D01*
X280589892Y-29480160D01*
X280637511Y-29432541D01*
X280732749Y-29384922D01*
X280923225Y-29384922D01*
X281018463Y-29432541D01*
X281066082Y-29480160D01*
X281113701Y-29575398D01*
X280208939Y-29003969D02*
X279542273Y-29003969D01*
X279970844Y-30003969D01*
X263580726Y-107727993D02*
X262580726Y-107727993D01*
X262580726Y-107966088D01*
X262628346Y-108108945D01*
X262723584Y-108204183D01*
X262818822Y-108251802D01*
X263009298Y-108299421D01*
X263152155Y-108299421D01*
X263342631Y-108251802D01*
X263437869Y-108204183D01*
X263533107Y-108108945D01*
X263580726Y-107966088D01*
X263580726Y-107727993D01*
X262580726Y-109156564D02*
X262580726Y-108966088D01*
X262628346Y-108870850D01*
X262675965Y-108823231D01*
X262818822Y-108727993D01*
X263009298Y-108680374D01*
X263390250Y-108680374D01*
X263485488Y-108727993D01*
X263533107Y-108775612D01*
X263580726Y-108870850D01*
X263580726Y-109061326D01*
X263533107Y-109156564D01*
X263485488Y-109204183D01*
X263390250Y-109251802D01*
X263152155Y-109251802D01*
X263056917Y-109204183D01*
X263009298Y-109156564D01*
X262961679Y-109061326D01*
X262961679Y-108870850D01*
X263009298Y-108775612D01*
X263056917Y-108727993D01*
X263152155Y-108680374D01*
X262580726Y-110108945D02*
X262580726Y-109918469D01*
X262628346Y-109823231D01*
X262675965Y-109775612D01*
X262818822Y-109680374D01*
X263009298Y-109632755D01*
X263390250Y-109632755D01*
X263485488Y-109680374D01*
X263533107Y-109727993D01*
X263580726Y-109823231D01*
X263580726Y-110013707D01*
X263533107Y-110108945D01*
X263485488Y-110156564D01*
X263390250Y-110204183D01*
X263152155Y-110204183D01*
X263056917Y-110156564D01*
X263009298Y-110108945D01*
X262961679Y-110013707D01*
X262961679Y-109823231D01*
X263009298Y-109727993D01*
X263056917Y-109680374D01*
X263152155Y-109632755D01*
X260390100Y-80938908D02*
X259390100Y-80938908D01*
X259390100Y-81177003D01*
X259437720Y-81319860D01*
X259532958Y-81415098D01*
X259628196Y-81462717D01*
X259818672Y-81510336D01*
X259961529Y-81510336D01*
X260152005Y-81462717D01*
X260247243Y-81415098D01*
X260342481Y-81319860D01*
X260390100Y-81177003D01*
X260390100Y-80938908D01*
X259390100Y-82367479D02*
X259390100Y-82177003D01*
X259437720Y-82081765D01*
X259485339Y-82034146D01*
X259628196Y-81938908D01*
X259818672Y-81891289D01*
X260199624Y-81891289D01*
X260294862Y-81938908D01*
X260342481Y-81986527D01*
X260390100Y-82081765D01*
X260390100Y-82272241D01*
X260342481Y-82367479D01*
X260294862Y-82415098D01*
X260199624Y-82462717D01*
X259961529Y-82462717D01*
X259866291Y-82415098D01*
X259818672Y-82367479D01*
X259771053Y-82272241D01*
X259771053Y-82081765D01*
X259818672Y-81986527D01*
X259866291Y-81938908D01*
X259961529Y-81891289D01*
X259390100Y-83367479D02*
X259390100Y-82891289D01*
X259866291Y-82843670D01*
X259818672Y-82891289D01*
X259771053Y-82986527D01*
X259771053Y-83224622D01*
X259818672Y-83319860D01*
X259866291Y-83367479D01*
X259961529Y-83415098D01*
X260199624Y-83415098D01*
X260294862Y-83367479D01*
X260342481Y-83319860D01*
X260390100Y-83224622D01*
X260390100Y-82986527D01*
X260342481Y-82891289D01*
X260294862Y-82843670D01*
X270343230Y-71549839D02*
X269343230Y-71549839D01*
X269343230Y-71787934D01*
X269390850Y-71930791D01*
X269486088Y-72026029D01*
X269581326Y-72073648D01*
X269771802Y-72121267D01*
X269914659Y-72121267D01*
X270105135Y-72073648D01*
X270200373Y-72026029D01*
X270295611Y-71930791D01*
X270343230Y-71787934D01*
X270343230Y-71549839D01*
X269343230Y-72978410D02*
X269343230Y-72787934D01*
X269390850Y-72692696D01*
X269438469Y-72645077D01*
X269581326Y-72549839D01*
X269771802Y-72502220D01*
X270152754Y-72502220D01*
X270247992Y-72549839D01*
X270295611Y-72597458D01*
X270343230Y-72692696D01*
X270343230Y-72883172D01*
X270295611Y-72978410D01*
X270247992Y-73026029D01*
X270152754Y-73073648D01*
X269914659Y-73073648D01*
X269819421Y-73026029D01*
X269771802Y-72978410D01*
X269724183Y-72883172D01*
X269724183Y-72692696D01*
X269771802Y-72597458D01*
X269819421Y-72549839D01*
X269914659Y-72502220D01*
X269676564Y-73930791D02*
X270343230Y-73930791D01*
X269295611Y-73692696D02*
X270009897Y-73454601D01*
X270009897Y-74073648D01*
X259627596Y-56666964D02*
X258627596Y-56666964D01*
X258627596Y-56905059D01*
X258675216Y-57047916D01*
X258770454Y-57143154D01*
X258865692Y-57190773D01*
X259056168Y-57238392D01*
X259199025Y-57238392D01*
X259389501Y-57190773D01*
X259484739Y-57143154D01*
X259579977Y-57047916D01*
X259627596Y-56905059D01*
X259627596Y-56666964D01*
X258627596Y-58095535D02*
X258627596Y-57905059D01*
X258675216Y-57809821D01*
X258722835Y-57762202D01*
X258865692Y-57666964D01*
X259056168Y-57619345D01*
X259437120Y-57619345D01*
X259532358Y-57666964D01*
X259579977Y-57714583D01*
X259627596Y-57809821D01*
X259627596Y-58000297D01*
X259579977Y-58095535D01*
X259532358Y-58143154D01*
X259437120Y-58190773D01*
X259199025Y-58190773D01*
X259103787Y-58143154D01*
X259056168Y-58095535D01*
X259008549Y-58000297D01*
X259008549Y-57809821D01*
X259056168Y-57714583D01*
X259103787Y-57666964D01*
X259199025Y-57619345D01*
X258627596Y-58524107D02*
X258627596Y-59143154D01*
X259008549Y-58809821D01*
X259008549Y-58952678D01*
X259056168Y-59047916D01*
X259103787Y-59095535D01*
X259199025Y-59143154D01*
X259437120Y-59143154D01*
X259532358Y-59095535D01*
X259579977Y-59047916D01*
X259627596Y-58952678D01*
X259627596Y-58666964D01*
X259579977Y-58571726D01*
X259532358Y-58524107D01*
X261230127Y-30432091D02*
X261230127Y-29432091D01*
X260992032Y-29432091D01*
X260849175Y-29479711D01*
X260753937Y-29574949D01*
X260706318Y-29670187D01*
X260658699Y-29860663D01*
X260658699Y-30003520D01*
X260706318Y-30193996D01*
X260753937Y-30289234D01*
X260849175Y-30384472D01*
X260992032Y-30432091D01*
X261230127Y-30432091D01*
X259801556Y-29432091D02*
X259992032Y-29432091D01*
X260087270Y-29479711D01*
X260134889Y-29527330D01*
X260230127Y-29670187D01*
X260277746Y-29860663D01*
X260277746Y-30241615D01*
X260230127Y-30336853D01*
X260182508Y-30384472D01*
X260087270Y-30432091D01*
X259896794Y-30432091D01*
X259801556Y-30384472D01*
X259753937Y-30336853D01*
X259706318Y-30241615D01*
X259706318Y-30003520D01*
X259753937Y-29908282D01*
X259801556Y-29860663D01*
X259896794Y-29813044D01*
X260087270Y-29813044D01*
X260182508Y-29860663D01*
X260230127Y-29908282D01*
X260277746Y-30003520D01*
X259325365Y-29527330D02*
X259277746Y-29479711D01*
X259182508Y-29432091D01*
X258944413Y-29432091D01*
X258849175Y-29479711D01*
X258801556Y-29527330D01*
X258753937Y-29622568D01*
X258753937Y-29717806D01*
X258801556Y-29860663D01*
X259372984Y-30432091D01*
X258753937Y-30432091D01*
X261199474Y-107727993D02*
X260199474Y-107727993D01*
X260199474Y-107966088D01*
X260247094Y-108108945D01*
X260342332Y-108204183D01*
X260437570Y-108251802D01*
X260628046Y-108299421D01*
X260770903Y-108299421D01*
X260961379Y-108251802D01*
X261056617Y-108204183D01*
X261151855Y-108108945D01*
X261199474Y-107966088D01*
X261199474Y-107727993D01*
X260199474Y-109156564D02*
X260199474Y-108966088D01*
X260247094Y-108870850D01*
X260294713Y-108823231D01*
X260437570Y-108727993D01*
X260628046Y-108680374D01*
X261008998Y-108680374D01*
X261104236Y-108727993D01*
X261151855Y-108775612D01*
X261199474Y-108870850D01*
X261199474Y-109061326D01*
X261151855Y-109156564D01*
X261104236Y-109204183D01*
X261008998Y-109251802D01*
X260770903Y-109251802D01*
X260675665Y-109204183D01*
X260628046Y-109156564D01*
X260580427Y-109061326D01*
X260580427Y-108870850D01*
X260628046Y-108775612D01*
X260675665Y-108727993D01*
X260770903Y-108680374D01*
X261199474Y-110204183D02*
X261199474Y-109632755D01*
X261199474Y-109918469D02*
X260199474Y-109918469D01*
X260342332Y-109823231D01*
X260437570Y-109727993D01*
X260485189Y-109632755D01*
X246530710Y-28415425D02*
X245530710Y-28415425D01*
X245530710Y-28653520D01*
X245578330Y-28796377D01*
X245673568Y-28891615D01*
X245768806Y-28939234D01*
X245959282Y-28986853D01*
X246102139Y-28986853D01*
X246292615Y-28939234D01*
X246387853Y-28891615D01*
X246483091Y-28796377D01*
X246530710Y-28653520D01*
X246530710Y-28415425D01*
X245530710Y-29891615D02*
X245530710Y-29415425D01*
X246006901Y-29367806D01*
X245959282Y-29415425D01*
X245911663Y-29510663D01*
X245911663Y-29748758D01*
X245959282Y-29843996D01*
X246006901Y-29891615D01*
X246102139Y-29939234D01*
X246340234Y-29939234D01*
X246435472Y-29891615D01*
X246483091Y-29843996D01*
X246530710Y-29748758D01*
X246530710Y-29510663D01*
X246483091Y-29415425D01*
X246435472Y-29367806D01*
X246530710Y-30415425D02*
X246530710Y-30605901D01*
X246483091Y-30701139D01*
X246435472Y-30748758D01*
X246292615Y-30843996D01*
X246102139Y-30891615D01*
X245721187Y-30891615D01*
X245625949Y-30843996D01*
X245578330Y-30796377D01*
X245530710Y-30701139D01*
X245530710Y-30510663D01*
X245578330Y-30415425D01*
X245625949Y-30367806D01*
X245721187Y-30320187D01*
X245959282Y-30320187D01*
X246054520Y-30367806D01*
X246102139Y-30415425D01*
X246149758Y-30510663D01*
X246149758Y-30701139D01*
X246102139Y-30796377D01*
X246054520Y-30843996D01*
X245959282Y-30891615D01*
X245339880Y-111435714D02*
X244339880Y-111435714D01*
X244339880Y-111673809D01*
X244387500Y-111816666D01*
X244482738Y-111911904D01*
X244577976Y-111959523D01*
X244768452Y-112007142D01*
X244911309Y-112007142D01*
X245101785Y-111959523D01*
X245197023Y-111911904D01*
X245292261Y-111816666D01*
X245339880Y-111673809D01*
X245339880Y-111435714D01*
X244339880Y-112911904D02*
X244339880Y-112435714D01*
X244816071Y-112388095D01*
X244768452Y-112435714D01*
X244720833Y-112530952D01*
X244720833Y-112769047D01*
X244768452Y-112864285D01*
X244816071Y-112911904D01*
X244911309Y-112959523D01*
X245149404Y-112959523D01*
X245244642Y-112911904D01*
X245292261Y-112864285D01*
X245339880Y-112769047D01*
X245339880Y-112530952D01*
X245292261Y-112435714D01*
X245244642Y-112388095D01*
X244768452Y-113530952D02*
X244720833Y-113435714D01*
X244673214Y-113388095D01*
X244577976Y-113340476D01*
X244530357Y-113340476D01*
X244435119Y-113388095D01*
X244387500Y-113435714D01*
X244339880Y-113530952D01*
X244339880Y-113721428D01*
X244387500Y-113816666D01*
X244435119Y-113864285D01*
X244530357Y-113911904D01*
X244577976Y-113911904D01*
X244673214Y-113864285D01*
X244720833Y-113816666D01*
X244768452Y-113721428D01*
X244768452Y-113530952D01*
X244816071Y-113435714D01*
X244863690Y-113388095D01*
X244958928Y-113340476D01*
X245149404Y-113340476D01*
X245244642Y-113388095D01*
X245292261Y-113435714D01*
X245339880Y-113530952D01*
X245339880Y-113721428D01*
X245292261Y-113816666D01*
X245244642Y-113864285D01*
X245149404Y-113911904D01*
X244958928Y-113911904D01*
X244863690Y-113864285D01*
X244816071Y-113816666D01*
X244768452Y-113721428D01*
X241554145Y-76176404D02*
X240554145Y-76176404D01*
X240554145Y-76414499D01*
X240601765Y-76557356D01*
X240697003Y-76652594D01*
X240792241Y-76700213D01*
X240982717Y-76747832D01*
X241125574Y-76747832D01*
X241316050Y-76700213D01*
X241411288Y-76652594D01*
X241506526Y-76557356D01*
X241554145Y-76414499D01*
X241554145Y-76176404D01*
X240554145Y-77652594D02*
X240554145Y-77176404D01*
X241030336Y-77128785D01*
X240982717Y-77176404D01*
X240935098Y-77271642D01*
X240935098Y-77509737D01*
X240982717Y-77604975D01*
X241030336Y-77652594D01*
X241125574Y-77700213D01*
X241363669Y-77700213D01*
X241458907Y-77652594D01*
X241506526Y-77604975D01*
X241554145Y-77509737D01*
X241554145Y-77271642D01*
X241506526Y-77176404D01*
X241458907Y-77128785D01*
X240554145Y-78557356D02*
X240554145Y-78366880D01*
X240601765Y-78271642D01*
X240649384Y-78224023D01*
X240792241Y-78128785D01*
X240982717Y-78081166D01*
X241363669Y-78081166D01*
X241458907Y-78128785D01*
X241506526Y-78176404D01*
X241554145Y-78271642D01*
X241554145Y-78462118D01*
X241506526Y-78557356D01*
X241458907Y-78604975D01*
X241363669Y-78652594D01*
X241125574Y-78652594D01*
X241030336Y-78604975D01*
X240982717Y-78557356D01*
X240935098Y-78462118D01*
X240935098Y-78271642D01*
X240982717Y-78176404D01*
X241030336Y-78128785D01*
X241125574Y-78081166D01*
X254864880Y-56667014D02*
X253864880Y-56667014D01*
X253864880Y-56905109D01*
X253912500Y-57047966D01*
X254007738Y-57143204D01*
X254102976Y-57190823D01*
X254293452Y-57238442D01*
X254436309Y-57238442D01*
X254626785Y-57190823D01*
X254722023Y-57143204D01*
X254817261Y-57047966D01*
X254864880Y-56905109D01*
X254864880Y-56667014D01*
X253864880Y-58143204D02*
X253864880Y-57667014D01*
X254341071Y-57619395D01*
X254293452Y-57667014D01*
X254245833Y-57762252D01*
X254245833Y-58000347D01*
X254293452Y-58095585D01*
X254341071Y-58143204D01*
X254436309Y-58190823D01*
X254674404Y-58190823D01*
X254769642Y-58143204D01*
X254817261Y-58095585D01*
X254864880Y-58000347D01*
X254864880Y-57762252D01*
X254817261Y-57667014D01*
X254769642Y-57619395D01*
X253864880Y-59095585D02*
X253864880Y-58619395D01*
X254341071Y-58571776D01*
X254293452Y-58619395D01*
X254245833Y-58714633D01*
X254245833Y-58952728D01*
X254293452Y-59047966D01*
X254341071Y-59095585D01*
X254436309Y-59143204D01*
X254674404Y-59143204D01*
X254769642Y-59095585D01*
X254817261Y-59047966D01*
X254864880Y-58952728D01*
X254864880Y-58714633D01*
X254817261Y-58619395D01*
X254769642Y-58571776D01*
X238958832Y-28415425D02*
X237958832Y-28415425D01*
X237958832Y-28653520D01*
X238006452Y-28796377D01*
X238101690Y-28891615D01*
X238196928Y-28939234D01*
X238387404Y-28986853D01*
X238530261Y-28986853D01*
X238720737Y-28939234D01*
X238815975Y-28891615D01*
X238911213Y-28796377D01*
X238958832Y-28653520D01*
X238958832Y-28415425D01*
X237958832Y-29891615D02*
X237958832Y-29415425D01*
X238435023Y-29367806D01*
X238387404Y-29415425D01*
X238339785Y-29510663D01*
X238339785Y-29748758D01*
X238387404Y-29843996D01*
X238435023Y-29891615D01*
X238530261Y-29939234D01*
X238768356Y-29939234D01*
X238863594Y-29891615D01*
X238911213Y-29843996D01*
X238958832Y-29748758D01*
X238958832Y-29510663D01*
X238911213Y-29415425D01*
X238863594Y-29367806D01*
X238292166Y-30796377D02*
X238958832Y-30796377D01*
X237911213Y-30558282D02*
X238625499Y-30320187D01*
X238625499Y-30939234D01*
X222289880Y-111435810D02*
X221289880Y-111435810D01*
X221289880Y-111673905D01*
X221337500Y-111816762D01*
X221432738Y-111912000D01*
X221527976Y-111959619D01*
X221718452Y-112007238D01*
X221861309Y-112007238D01*
X222051785Y-111959619D01*
X222147023Y-111912000D01*
X222242261Y-111816762D01*
X222289880Y-111673905D01*
X222289880Y-111435810D01*
X221289880Y-112912000D02*
X221289880Y-112435810D01*
X221766071Y-112388191D01*
X221718452Y-112435810D01*
X221670833Y-112531048D01*
X221670833Y-112769143D01*
X221718452Y-112864381D01*
X221766071Y-112912000D01*
X221861309Y-112959619D01*
X222099404Y-112959619D01*
X222194642Y-112912000D01*
X222242261Y-112864381D01*
X222289880Y-112769143D01*
X222289880Y-112531048D01*
X222242261Y-112435810D01*
X222194642Y-112388191D01*
X221289880Y-113292953D02*
X221289880Y-113912000D01*
X221670833Y-113578667D01*
X221670833Y-113721524D01*
X221718452Y-113816762D01*
X221766071Y-113864381D01*
X221861309Y-113912000D01*
X222099404Y-113912000D01*
X222194642Y-113864381D01*
X222242261Y-113816762D01*
X222289880Y-113721524D01*
X222289880Y-113435810D01*
X222242261Y-113340572D01*
X222194642Y-113292953D01*
X231815076Y-56667014D02*
X230815076Y-56667014D01*
X230815076Y-56905109D01*
X230862696Y-57047966D01*
X230957934Y-57143204D01*
X231053172Y-57190823D01*
X231243648Y-57238442D01*
X231386505Y-57238442D01*
X231576981Y-57190823D01*
X231672219Y-57143204D01*
X231767457Y-57047966D01*
X231815076Y-56905109D01*
X231815076Y-56667014D01*
X230815076Y-58143204D02*
X230815076Y-57667014D01*
X231291267Y-57619395D01*
X231243648Y-57667014D01*
X231196029Y-57762252D01*
X231196029Y-58000347D01*
X231243648Y-58095585D01*
X231291267Y-58143204D01*
X231386505Y-58190823D01*
X231624600Y-58190823D01*
X231719838Y-58143204D01*
X231767457Y-58095585D01*
X231815076Y-58000347D01*
X231815076Y-57762252D01*
X231767457Y-57667014D01*
X231719838Y-57619395D01*
X231815076Y-59143204D02*
X231815076Y-58571776D01*
X231815076Y-58857490D02*
X230815076Y-58857490D01*
X230957934Y-58762252D01*
X231053172Y-58667014D01*
X231100791Y-58571776D01*
X223908816Y-28415425D02*
X222908816Y-28415425D01*
X222908816Y-28653520D01*
X222956436Y-28796377D01*
X223051674Y-28891615D01*
X223146912Y-28939234D01*
X223337388Y-28986853D01*
X223480245Y-28986853D01*
X223670721Y-28939234D01*
X223765959Y-28891615D01*
X223861197Y-28796377D01*
X223908816Y-28653520D01*
X223908816Y-28415425D01*
X222908816Y-29891615D02*
X222908816Y-29415425D01*
X223385007Y-29367806D01*
X223337388Y-29415425D01*
X223289769Y-29510663D01*
X223289769Y-29748758D01*
X223337388Y-29843996D01*
X223385007Y-29891615D01*
X223480245Y-29939234D01*
X223718340Y-29939234D01*
X223813578Y-29891615D01*
X223861197Y-29843996D01*
X223908816Y-29748758D01*
X223908816Y-29510663D01*
X223861197Y-29415425D01*
X223813578Y-29367806D01*
X222908816Y-30558282D02*
X222908816Y-30653520D01*
X222956436Y-30748758D01*
X223004055Y-30796377D01*
X223099293Y-30843996D01*
X223289769Y-30891615D01*
X223527864Y-30891615D01*
X223718340Y-30843996D01*
X223813578Y-30796377D01*
X223861197Y-30748758D01*
X223908816Y-30653520D01*
X223908816Y-30558282D01*
X223861197Y-30463044D01*
X223813578Y-30415425D01*
X223718340Y-30367806D01*
X223527864Y-30320187D01*
X223289769Y-30320187D01*
X223099293Y-30367806D01*
X223004055Y-30415425D01*
X222956436Y-30463044D01*
X222908816Y-30558282D01*
X204858800Y-113221749D02*
X203858800Y-113221749D01*
X203858800Y-113459844D01*
X203906420Y-113602701D01*
X204001658Y-113697939D01*
X204096896Y-113745558D01*
X204287372Y-113793177D01*
X204430229Y-113793177D01*
X204620705Y-113745558D01*
X204715943Y-113697939D01*
X204811181Y-113602701D01*
X204858800Y-113459844D01*
X204858800Y-113221749D01*
X204192134Y-114650320D02*
X204858800Y-114650320D01*
X203811181Y-114412225D02*
X204525467Y-114174130D01*
X204525467Y-114793177D01*
X204858800Y-115221749D02*
X204858800Y-115412225D01*
X204811181Y-115507463D01*
X204763562Y-115555082D01*
X204620705Y-115650320D01*
X204430229Y-115697939D01*
X204049277Y-115697939D01*
X203954039Y-115650320D01*
X203906420Y-115602701D01*
X203858800Y-115507463D01*
X203858800Y-115316987D01*
X203906420Y-115221749D01*
X203954039Y-115174130D01*
X204049277Y-115126511D01*
X204287372Y-115126511D01*
X204382610Y-115174130D01*
X204430229Y-115221749D01*
X204477848Y-115316987D01*
X204477848Y-115507463D01*
X204430229Y-115602701D01*
X204382610Y-115650320D01*
X204287372Y-115697939D01*
X205025991Y-80802969D02*
X204025991Y-80802969D01*
X204025991Y-81041064D01*
X204073611Y-81183921D01*
X204168849Y-81279159D01*
X204264087Y-81326778D01*
X204454563Y-81374397D01*
X204597420Y-81374397D01*
X204787896Y-81326778D01*
X204883134Y-81279159D01*
X204978372Y-81183921D01*
X205025991Y-81041064D01*
X205025991Y-80802969D01*
X204359325Y-82231540D02*
X205025991Y-82231540D01*
X203978372Y-81993445D02*
X204692658Y-81755350D01*
X204692658Y-82374397D01*
X204454563Y-82898207D02*
X204406944Y-82802969D01*
X204359325Y-82755350D01*
X204264087Y-82707731D01*
X204216468Y-82707731D01*
X204121230Y-82755350D01*
X204073611Y-82802969D01*
X204025991Y-82898207D01*
X204025991Y-83088683D01*
X204073611Y-83183921D01*
X204121230Y-83231540D01*
X204216468Y-83279159D01*
X204264087Y-83279159D01*
X204359325Y-83231540D01*
X204406944Y-83183921D01*
X204454563Y-83088683D01*
X204454563Y-82898207D01*
X204502182Y-82802969D01*
X204549801Y-82755350D01*
X204645039Y-82707731D01*
X204835515Y-82707731D01*
X204930753Y-82755350D01*
X204978372Y-82802969D01*
X205025991Y-82898207D01*
X205025991Y-83088683D01*
X204978372Y-83183921D01*
X204930753Y-83231540D01*
X204835515Y-83279159D01*
X204645039Y-83279159D01*
X204549801Y-83231540D01*
X204502182Y-83183921D01*
X204454563Y-83088683D01*
X220336938Y-76312343D02*
X219336938Y-76312343D01*
X219336938Y-76550438D01*
X219384558Y-76693295D01*
X219479796Y-76788533D01*
X219575034Y-76836152D01*
X219765510Y-76883771D01*
X219908367Y-76883771D01*
X220098843Y-76836152D01*
X220194081Y-76788533D01*
X220289319Y-76693295D01*
X220336938Y-76550438D01*
X220336938Y-76312343D01*
X219670272Y-77740914D02*
X220336938Y-77740914D01*
X219289319Y-77502819D02*
X220003605Y-77264724D01*
X220003605Y-77883771D01*
X219336938Y-78169486D02*
X219336938Y-78836152D01*
X220336938Y-78407581D01*
X216764880Y-56666964D02*
X215764880Y-56666964D01*
X215764880Y-56905059D01*
X215812500Y-57047916D01*
X215907738Y-57143154D01*
X216002976Y-57190773D01*
X216193452Y-57238392D01*
X216336309Y-57238392D01*
X216526785Y-57190773D01*
X216622023Y-57143154D01*
X216717261Y-57047916D01*
X216764880Y-56905059D01*
X216764880Y-56666964D01*
X216098214Y-58095535D02*
X216764880Y-58095535D01*
X215717261Y-57857440D02*
X216431547Y-57619345D01*
X216431547Y-58238392D01*
X215764880Y-59047916D02*
X215764880Y-58857440D01*
X215812500Y-58762202D01*
X215860119Y-58714583D01*
X216002976Y-58619345D01*
X216193452Y-58571726D01*
X216574404Y-58571726D01*
X216669642Y-58619345D01*
X216717261Y-58666964D01*
X216764880Y-58762202D01*
X216764880Y-58952678D01*
X216717261Y-59047916D01*
X216669642Y-59095535D01*
X216574404Y-59143154D01*
X216336309Y-59143154D01*
X216241071Y-59095535D01*
X216193452Y-59047916D01*
X216145833Y-58952678D01*
X216145833Y-58762202D01*
X216193452Y-58666964D01*
X216241071Y-58619345D01*
X216336309Y-58571726D01*
X200858800Y-28415425D02*
X199858800Y-28415425D01*
X199858800Y-28653520D01*
X199906420Y-28796377D01*
X200001658Y-28891615D01*
X200096896Y-28939234D01*
X200287372Y-28986853D01*
X200430229Y-28986853D01*
X200620705Y-28939234D01*
X200715943Y-28891615D01*
X200811181Y-28796377D01*
X200858800Y-28653520D01*
X200858800Y-28415425D01*
X200192134Y-29843996D02*
X200858800Y-29843996D01*
X199811181Y-29605901D02*
X200525467Y-29367806D01*
X200525467Y-29986853D01*
X199858800Y-30843996D02*
X199858800Y-30367806D01*
X200334991Y-30320187D01*
X200287372Y-30367806D01*
X200239753Y-30463044D01*
X200239753Y-30701139D01*
X200287372Y-30796377D01*
X200334991Y-30843996D01*
X200430229Y-30891615D01*
X200668324Y-30891615D01*
X200763562Y-30843996D01*
X200811181Y-30796377D01*
X200858800Y-30701139D01*
X200858800Y-30463044D01*
X200811181Y-30367806D01*
X200763562Y-30320187D01*
X189975975Y-80802969D02*
X188975975Y-80802969D01*
X188975975Y-81041064D01*
X189023595Y-81183921D01*
X189118833Y-81279159D01*
X189214071Y-81326778D01*
X189404547Y-81374397D01*
X189547404Y-81374397D01*
X189737880Y-81326778D01*
X189833118Y-81279159D01*
X189928356Y-81183921D01*
X189975975Y-81041064D01*
X189975975Y-80802969D01*
X189309309Y-82231540D02*
X189975975Y-82231540D01*
X188928356Y-81993445D02*
X189642642Y-81755350D01*
X189642642Y-82374397D01*
X189309309Y-83183921D02*
X189975975Y-83183921D01*
X188928356Y-82945826D02*
X189642642Y-82707731D01*
X189642642Y-83326778D01*
X198477548Y-76312343D02*
X197477548Y-76312343D01*
X197477548Y-76550438D01*
X197525168Y-76693295D01*
X197620406Y-76788533D01*
X197715644Y-76836152D01*
X197906120Y-76883771D01*
X198048977Y-76883771D01*
X198239453Y-76836152D01*
X198334691Y-76788533D01*
X198429929Y-76693295D01*
X198477548Y-76550438D01*
X198477548Y-76312343D01*
X197810882Y-77740914D02*
X198477548Y-77740914D01*
X197429929Y-77502819D02*
X198144215Y-77264724D01*
X198144215Y-77883771D01*
X197477548Y-78169486D02*
X197477548Y-78788533D01*
X197858501Y-78455200D01*
X197858501Y-78598057D01*
X197906120Y-78693295D01*
X197953739Y-78740914D01*
X198048977Y-78788533D01*
X198287072Y-78788533D01*
X198382310Y-78740914D01*
X198429929Y-78693295D01*
X198477548Y-78598057D01*
X198477548Y-78312343D01*
X198429929Y-78217105D01*
X198382310Y-78169486D01*
X193715044Y-56667014D02*
X192715044Y-56667014D01*
X192715044Y-56905109D01*
X192762664Y-57047966D01*
X192857902Y-57143204D01*
X192953140Y-57190823D01*
X193143616Y-57238442D01*
X193286473Y-57238442D01*
X193476949Y-57190823D01*
X193572187Y-57143204D01*
X193667425Y-57047966D01*
X193715044Y-56905109D01*
X193715044Y-56667014D01*
X193048378Y-58095585D02*
X193715044Y-58095585D01*
X192667425Y-57857490D02*
X193381711Y-57619395D01*
X193381711Y-58238442D01*
X192810283Y-58571776D02*
X192762664Y-58619395D01*
X192715044Y-58714633D01*
X192715044Y-58952728D01*
X192762664Y-59047966D01*
X192810283Y-59095585D01*
X192905521Y-59143204D01*
X193000759Y-59143204D01*
X193143616Y-59095585D01*
X193715044Y-58524157D01*
X193715044Y-59143204D01*
X185808784Y-28415425D02*
X184808784Y-28415425D01*
X184808784Y-28653520D01*
X184856404Y-28796377D01*
X184951642Y-28891615D01*
X185046880Y-28939234D01*
X185237356Y-28986853D01*
X185380213Y-28986853D01*
X185570689Y-28939234D01*
X185665927Y-28891615D01*
X185761165Y-28796377D01*
X185808784Y-28653520D01*
X185808784Y-28415425D01*
X185142118Y-29843996D02*
X185808784Y-29843996D01*
X184761165Y-29605901D02*
X185475451Y-29367806D01*
X185475451Y-29986853D01*
X185808784Y-30891615D02*
X185808784Y-30320187D01*
X185808784Y-30605901D02*
X184808784Y-30605901D01*
X184951642Y-30510663D01*
X185046880Y-30415425D01*
X185094499Y-30320187D01*
X160591577Y-112490497D02*
X159591577Y-112490497D01*
X159591577Y-112728592D01*
X159639197Y-112871449D01*
X159734435Y-112966687D01*
X159829673Y-113014306D01*
X160020149Y-113061925D01*
X160163006Y-113061925D01*
X160353482Y-113014306D01*
X160448720Y-112966687D01*
X160543958Y-112871449D01*
X160591577Y-112728592D01*
X160591577Y-112490497D01*
X159924911Y-113919068D02*
X160591577Y-113919068D01*
X159543958Y-113680973D02*
X160258244Y-113442878D01*
X160258244Y-114061925D01*
X159591577Y-114633354D02*
X159591577Y-114728592D01*
X159639197Y-114823830D01*
X159686816Y-114871449D01*
X159782054Y-114919068D01*
X159972530Y-114966687D01*
X160210625Y-114966687D01*
X160401101Y-114919068D01*
X160496339Y-114871449D01*
X160543958Y-114823830D01*
X160591577Y-114728592D01*
X160591577Y-114633354D01*
X160543958Y-114538116D01*
X160496339Y-114490497D01*
X160401101Y-114442878D01*
X160210625Y-114395259D01*
X159972530Y-114395259D01*
X159782054Y-114442878D01*
X159686816Y-114490497D01*
X159639197Y-114538116D01*
X159591577Y-114633354D01*
X167521272Y-80802969D02*
X166521272Y-80802969D01*
X166521272Y-81041064D01*
X166568892Y-81183921D01*
X166664130Y-81279159D01*
X166759368Y-81326778D01*
X166949844Y-81374397D01*
X167092701Y-81374397D01*
X167283177Y-81326778D01*
X167378415Y-81279159D01*
X167473653Y-81183921D01*
X167521272Y-81041064D01*
X167521272Y-80802969D01*
X166521272Y-81707731D02*
X166521272Y-82326778D01*
X166902225Y-81993445D01*
X166902225Y-82136302D01*
X166949844Y-82231540D01*
X166997463Y-82279159D01*
X167092701Y-82326778D01*
X167330796Y-82326778D01*
X167426034Y-82279159D01*
X167473653Y-82231540D01*
X167521272Y-82136302D01*
X167521272Y-81850588D01*
X167473653Y-81755350D01*
X167426034Y-81707731D01*
X167521272Y-82802969D02*
X167521272Y-82993445D01*
X167473653Y-83088683D01*
X167426034Y-83136302D01*
X167283177Y-83231540D01*
X167092701Y-83279159D01*
X166711749Y-83279159D01*
X166616511Y-83231540D01*
X166568892Y-83183921D01*
X166521272Y-83088683D01*
X166521272Y-82898207D01*
X166568892Y-82802969D01*
X166616511Y-82755350D01*
X166711749Y-82707731D01*
X166949844Y-82707731D01*
X167045082Y-82755350D01*
X167092701Y-82802969D01*
X167140320Y-82898207D01*
X167140320Y-83088683D01*
X167092701Y-83183921D01*
X167045082Y-83231540D01*
X166949844Y-83279159D01*
X183427380Y-76312343D02*
X182427380Y-76312343D01*
X182427380Y-76550438D01*
X182475000Y-76693295D01*
X182570238Y-76788533D01*
X182665476Y-76836152D01*
X182855952Y-76883771D01*
X182998809Y-76883771D01*
X183189285Y-76836152D01*
X183284523Y-76788533D01*
X183379761Y-76693295D01*
X183427380Y-76550438D01*
X183427380Y-76312343D01*
X182427380Y-77217105D02*
X182427380Y-77836152D01*
X182808333Y-77502819D01*
X182808333Y-77645676D01*
X182855952Y-77740914D01*
X182903571Y-77788533D01*
X182998809Y-77836152D01*
X183236904Y-77836152D01*
X183332142Y-77788533D01*
X183379761Y-77740914D01*
X183427380Y-77645676D01*
X183427380Y-77359962D01*
X183379761Y-77264724D01*
X183332142Y-77217105D01*
X182855952Y-78407581D02*
X182808333Y-78312343D01*
X182760714Y-78264724D01*
X182665476Y-78217105D01*
X182617857Y-78217105D01*
X182522619Y-78264724D01*
X182475000Y-78312343D01*
X182427380Y-78407581D01*
X182427380Y-78598057D01*
X182475000Y-78693295D01*
X182522619Y-78740914D01*
X182617857Y-78788533D01*
X182665476Y-78788533D01*
X182760714Y-78740914D01*
X182808333Y-78693295D01*
X182855952Y-78598057D01*
X182855952Y-78407581D01*
X182903571Y-78312343D01*
X182951190Y-78264724D01*
X183046428Y-78217105D01*
X183236904Y-78217105D01*
X183332142Y-78264724D01*
X183379761Y-78312343D01*
X183427380Y-78407581D01*
X183427380Y-78598057D01*
X183379761Y-78693295D01*
X183332142Y-78740914D01*
X183236904Y-78788533D01*
X183046428Y-78788533D01*
X182951190Y-78740914D01*
X182903571Y-78693295D01*
X182855952Y-78598057D01*
X178664880Y-56666964D02*
X177664880Y-56666964D01*
X177664880Y-56905059D01*
X177712500Y-57047916D01*
X177807738Y-57143154D01*
X177902976Y-57190773D01*
X178093452Y-57238392D01*
X178236309Y-57238392D01*
X178426785Y-57190773D01*
X178522023Y-57143154D01*
X178617261Y-57047916D01*
X178664880Y-56905059D01*
X178664880Y-56666964D01*
X177664880Y-57571726D02*
X177664880Y-58190773D01*
X178045833Y-57857440D01*
X178045833Y-58000297D01*
X178093452Y-58095535D01*
X178141071Y-58143154D01*
X178236309Y-58190773D01*
X178474404Y-58190773D01*
X178569642Y-58143154D01*
X178617261Y-58095535D01*
X178664880Y-58000297D01*
X178664880Y-57714583D01*
X178617261Y-57619345D01*
X178569642Y-57571726D01*
X177664880Y-58524107D02*
X177664880Y-59190773D01*
X178664880Y-58762202D01*
X162758768Y-28415425D02*
X161758768Y-28415425D01*
X161758768Y-28653520D01*
X161806388Y-28796377D01*
X161901626Y-28891615D01*
X161996864Y-28939234D01*
X162187340Y-28986853D01*
X162330197Y-28986853D01*
X162520673Y-28939234D01*
X162615911Y-28891615D01*
X162711149Y-28796377D01*
X162758768Y-28653520D01*
X162758768Y-28415425D01*
X161758768Y-29320187D02*
X161758768Y-29939234D01*
X162139721Y-29605901D01*
X162139721Y-29748758D01*
X162187340Y-29843996D01*
X162234959Y-29891615D01*
X162330197Y-29939234D01*
X162568292Y-29939234D01*
X162663530Y-29891615D01*
X162711149Y-29843996D01*
X162758768Y-29748758D01*
X162758768Y-29463044D01*
X162711149Y-29367806D01*
X162663530Y-29320187D01*
X161758768Y-30796377D02*
X161758768Y-30605901D01*
X161806388Y-30510663D01*
X161854007Y-30463044D01*
X161996864Y-30367806D01*
X162187340Y-30320187D01*
X162568292Y-30320187D01*
X162663530Y-30367806D01*
X162711149Y-30415425D01*
X162758768Y-30510663D01*
X162758768Y-30701139D01*
X162711149Y-30796377D01*
X162663530Y-30843996D01*
X162568292Y-30891615D01*
X162330197Y-30891615D01*
X162234959Y-30843996D01*
X162187340Y-30796377D01*
X162139721Y-30701139D01*
X162139721Y-30510663D01*
X162187340Y-30415425D01*
X162234959Y-30367806D01*
X162330197Y-30320187D01*
X151280630Y-80802969D02*
X150280630Y-80802969D01*
X150280630Y-81041064D01*
X150328250Y-81183921D01*
X150423488Y-81279159D01*
X150518726Y-81326778D01*
X150709202Y-81374397D01*
X150852059Y-81374397D01*
X151042535Y-81326778D01*
X151137773Y-81279159D01*
X151233011Y-81183921D01*
X151280630Y-81041064D01*
X151280630Y-80802969D01*
X150280630Y-81707731D02*
X150280630Y-82326778D01*
X150661583Y-81993445D01*
X150661583Y-82136302D01*
X150709202Y-82231540D01*
X150756821Y-82279159D01*
X150852059Y-82326778D01*
X151090154Y-82326778D01*
X151185392Y-82279159D01*
X151233011Y-82231540D01*
X151280630Y-82136302D01*
X151280630Y-81850588D01*
X151233011Y-81755350D01*
X151185392Y-81707731D01*
X150280630Y-83231540D02*
X150280630Y-82755350D01*
X150756821Y-82707731D01*
X150709202Y-82755350D01*
X150661583Y-82850588D01*
X150661583Y-83088683D01*
X150709202Y-83183921D01*
X150756821Y-83231540D01*
X150852059Y-83279159D01*
X151090154Y-83279159D01*
X151185392Y-83231540D01*
X151233011Y-83183921D01*
X151280630Y-83088683D01*
X151280630Y-82850588D01*
X151233011Y-82755350D01*
X151185392Y-82707731D01*
X160377516Y-76312343D02*
X159377516Y-76312343D01*
X159377516Y-76550438D01*
X159425136Y-76693295D01*
X159520374Y-76788533D01*
X159615612Y-76836152D01*
X159806088Y-76883771D01*
X159948945Y-76883771D01*
X160139421Y-76836152D01*
X160234659Y-76788533D01*
X160329897Y-76693295D01*
X160377516Y-76550438D01*
X160377516Y-76312343D01*
X159377516Y-77217105D02*
X159377516Y-77836152D01*
X159758469Y-77502819D01*
X159758469Y-77645676D01*
X159806088Y-77740914D01*
X159853707Y-77788533D01*
X159948945Y-77836152D01*
X160187040Y-77836152D01*
X160282278Y-77788533D01*
X160329897Y-77740914D01*
X160377516Y-77645676D01*
X160377516Y-77359962D01*
X160329897Y-77264724D01*
X160282278Y-77217105D01*
X159710850Y-78693295D02*
X160377516Y-78693295D01*
X159329897Y-78455200D02*
X160044183Y-78217105D01*
X160044183Y-78836152D01*
X155615012Y-56667014D02*
X154615012Y-56667014D01*
X154615012Y-56905109D01*
X154662632Y-57047966D01*
X154757870Y-57143204D01*
X154853108Y-57190823D01*
X155043584Y-57238442D01*
X155186441Y-57238442D01*
X155376917Y-57190823D01*
X155472155Y-57143204D01*
X155567393Y-57047966D01*
X155615012Y-56905109D01*
X155615012Y-56667014D01*
X154615012Y-57571776D02*
X154615012Y-58190823D01*
X154995965Y-57857490D01*
X154995965Y-58000347D01*
X155043584Y-58095585D01*
X155091203Y-58143204D01*
X155186441Y-58190823D01*
X155424536Y-58190823D01*
X155519774Y-58143204D01*
X155567393Y-58095585D01*
X155615012Y-58000347D01*
X155615012Y-57714633D01*
X155567393Y-57619395D01*
X155519774Y-57571776D01*
X154615012Y-58524157D02*
X154615012Y-59143204D01*
X154995965Y-58809871D01*
X154995965Y-58952728D01*
X155043584Y-59047966D01*
X155091203Y-59095585D01*
X155186441Y-59143204D01*
X155424536Y-59143204D01*
X155519774Y-59095585D01*
X155567393Y-59047966D01*
X155615012Y-58952728D01*
X155615012Y-58667014D01*
X155567393Y-58571776D01*
X155519774Y-58524157D01*
X147708752Y-28415425D02*
X146708752Y-28415425D01*
X146708752Y-28653520D01*
X146756372Y-28796377D01*
X146851610Y-28891615D01*
X146946848Y-28939234D01*
X147137324Y-28986853D01*
X147280181Y-28986853D01*
X147470657Y-28939234D01*
X147565895Y-28891615D01*
X147661133Y-28796377D01*
X147708752Y-28653520D01*
X147708752Y-28415425D01*
X146708752Y-29320187D02*
X146708752Y-29939234D01*
X147089705Y-29605901D01*
X147089705Y-29748758D01*
X147137324Y-29843996D01*
X147184943Y-29891615D01*
X147280181Y-29939234D01*
X147518276Y-29939234D01*
X147613514Y-29891615D01*
X147661133Y-29843996D01*
X147708752Y-29748758D01*
X147708752Y-29463044D01*
X147661133Y-29367806D01*
X147613514Y-29320187D01*
X146803991Y-30320187D02*
X146756372Y-30367806D01*
X146708752Y-30463044D01*
X146708752Y-30701139D01*
X146756372Y-30796377D01*
X146803991Y-30843996D01*
X146899229Y-30891615D01*
X146994467Y-30891615D01*
X147137324Y-30843996D01*
X147708752Y-30272568D01*
X147708752Y-30891615D01*
X129421240Y-80802969D02*
X128421240Y-80802969D01*
X128421240Y-81041064D01*
X128468860Y-81183921D01*
X128564098Y-81279159D01*
X128659336Y-81326778D01*
X128849812Y-81374397D01*
X128992669Y-81374397D01*
X129183145Y-81326778D01*
X129278383Y-81279159D01*
X129373621Y-81183921D01*
X129421240Y-81041064D01*
X129421240Y-80802969D01*
X128421240Y-81707731D02*
X128421240Y-82326778D01*
X128802193Y-81993445D01*
X128802193Y-82136302D01*
X128849812Y-82231540D01*
X128897431Y-82279159D01*
X128992669Y-82326778D01*
X129230764Y-82326778D01*
X129326002Y-82279159D01*
X129373621Y-82231540D01*
X129421240Y-82136302D01*
X129421240Y-81850588D01*
X129373621Y-81755350D01*
X129326002Y-81707731D01*
X129421240Y-83279159D02*
X129421240Y-82707731D01*
X129421240Y-82993445D02*
X128421240Y-82993445D01*
X128564098Y-82898207D01*
X128659336Y-82802969D01*
X128706955Y-82707731D01*
X140564996Y-56667014D02*
X139564996Y-56667014D01*
X139564996Y-56905109D01*
X139612616Y-57047966D01*
X139707854Y-57143204D01*
X139803092Y-57190823D01*
X139993568Y-57238442D01*
X140136425Y-57238442D01*
X140326901Y-57190823D01*
X140422139Y-57143204D01*
X140517377Y-57047966D01*
X140564996Y-56905109D01*
X140564996Y-56667014D01*
X139660235Y-57619395D02*
X139612616Y-57667014D01*
X139564996Y-57762252D01*
X139564996Y-58000347D01*
X139612616Y-58095585D01*
X139660235Y-58143204D01*
X139755473Y-58190823D01*
X139850711Y-58190823D01*
X139993568Y-58143204D01*
X140564996Y-57571776D01*
X140564996Y-58190823D01*
X140564996Y-58667014D02*
X140564996Y-58857490D01*
X140517377Y-58952728D01*
X140469758Y-59000347D01*
X140326901Y-59095585D01*
X140136425Y-59143204D01*
X139755473Y-59143204D01*
X139660235Y-59095585D01*
X139612616Y-59047966D01*
X139564996Y-58952728D01*
X139564996Y-58762252D01*
X139612616Y-58667014D01*
X139660235Y-58619395D01*
X139755473Y-58571776D01*
X139993568Y-58571776D01*
X140088806Y-58619395D01*
X140136425Y-58667014D01*
X140184044Y-58762252D01*
X140184044Y-58952728D01*
X140136425Y-59047966D01*
X140088806Y-59095585D01*
X139993568Y-59143204D01*
X124658736Y-28415425D02*
X123658736Y-28415425D01*
X123658736Y-28653520D01*
X123706356Y-28796377D01*
X123801594Y-28891615D01*
X123896832Y-28939234D01*
X124087308Y-28986853D01*
X124230165Y-28986853D01*
X124420641Y-28939234D01*
X124515879Y-28891615D01*
X124611117Y-28796377D01*
X124658736Y-28653520D01*
X124658736Y-28415425D01*
X123753975Y-29367806D02*
X123706356Y-29415425D01*
X123658736Y-29510663D01*
X123658736Y-29748758D01*
X123706356Y-29843996D01*
X123753975Y-29891615D01*
X123849213Y-29939234D01*
X123944451Y-29939234D01*
X124087308Y-29891615D01*
X124658736Y-29320187D01*
X124658736Y-29939234D01*
X124087308Y-30510663D02*
X124039689Y-30415425D01*
X123992070Y-30367806D01*
X123896832Y-30320187D01*
X123849213Y-30320187D01*
X123753975Y-30367806D01*
X123706356Y-30415425D01*
X123658736Y-30510663D01*
X123658736Y-30701139D01*
X123706356Y-30796377D01*
X123753975Y-30843996D01*
X123849213Y-30891615D01*
X123896832Y-30891615D01*
X123992070Y-30843996D01*
X124039689Y-30796377D01*
X124087308Y-30701139D01*
X124087308Y-30510663D01*
X124134927Y-30415425D01*
X124182546Y-30367806D01*
X124277784Y-30320187D01*
X124468260Y-30320187D01*
X124563498Y-30367806D01*
X124611117Y-30415425D01*
X124658736Y-30510663D01*
X124658736Y-30701139D01*
X124611117Y-30796377D01*
X124563498Y-30843996D01*
X124468260Y-30891615D01*
X124277784Y-30891615D01*
X124182546Y-30843996D01*
X124134927Y-30796377D01*
X124087308Y-30701139D01*
X113180598Y-80802969D02*
X112180598Y-80802969D01*
X112180598Y-81041064D01*
X112228218Y-81183921D01*
X112323456Y-81279159D01*
X112418694Y-81326778D01*
X112609170Y-81374397D01*
X112752027Y-81374397D01*
X112942503Y-81326778D01*
X113037741Y-81279159D01*
X113132979Y-81183921D01*
X113180598Y-81041064D01*
X113180598Y-80802969D01*
X112275837Y-81755350D02*
X112228218Y-81802969D01*
X112180598Y-81898207D01*
X112180598Y-82136302D01*
X112228218Y-82231540D01*
X112275837Y-82279159D01*
X112371075Y-82326778D01*
X112466313Y-82326778D01*
X112609170Y-82279159D01*
X113180598Y-81707731D01*
X113180598Y-82326778D01*
X112180598Y-82660112D02*
X112180598Y-83326778D01*
X113180598Y-82898207D01*
X122277484Y-76312343D02*
X121277484Y-76312343D01*
X121277484Y-76550438D01*
X121325104Y-76693295D01*
X121420342Y-76788533D01*
X121515580Y-76836152D01*
X121706056Y-76883771D01*
X121848913Y-76883771D01*
X122039389Y-76836152D01*
X122134627Y-76788533D01*
X122229865Y-76693295D01*
X122277484Y-76550438D01*
X122277484Y-76312343D01*
X121372723Y-77264724D02*
X121325104Y-77312343D01*
X121277484Y-77407581D01*
X121277484Y-77645676D01*
X121325104Y-77740914D01*
X121372723Y-77788533D01*
X121467961Y-77836152D01*
X121563199Y-77836152D01*
X121706056Y-77788533D01*
X122277484Y-77217105D01*
X122277484Y-77836152D01*
X121277484Y-78693295D02*
X121277484Y-78502819D01*
X121325104Y-78407581D01*
X121372723Y-78359962D01*
X121515580Y-78264724D01*
X121706056Y-78217105D01*
X122087008Y-78217105D01*
X122182246Y-78264724D01*
X122229865Y-78312343D01*
X122277484Y-78407581D01*
X122277484Y-78598057D01*
X122229865Y-78693295D01*
X122182246Y-78740914D01*
X122087008Y-78788533D01*
X121848913Y-78788533D01*
X121753675Y-78740914D01*
X121706056Y-78693295D01*
X121658437Y-78598057D01*
X121658437Y-78407581D01*
X121706056Y-78312343D01*
X121753675Y-78264724D01*
X121848913Y-78217105D01*
X117514880Y-56667014D02*
X116514880Y-56667014D01*
X116514880Y-56905109D01*
X116562500Y-57047966D01*
X116657738Y-57143204D01*
X116752976Y-57190823D01*
X116943452Y-57238442D01*
X117086309Y-57238442D01*
X117276785Y-57190823D01*
X117372023Y-57143204D01*
X117467261Y-57047966D01*
X117514880Y-56905109D01*
X117514880Y-56667014D01*
X116610119Y-57619395D02*
X116562500Y-57667014D01*
X116514880Y-57762252D01*
X116514880Y-58000347D01*
X116562500Y-58095585D01*
X116610119Y-58143204D01*
X116705357Y-58190823D01*
X116800595Y-58190823D01*
X116943452Y-58143204D01*
X117514880Y-57571776D01*
X117514880Y-58190823D01*
X116514880Y-59095585D02*
X116514880Y-58619395D01*
X116991071Y-58571776D01*
X116943452Y-58619395D01*
X116895833Y-58714633D01*
X116895833Y-58952728D01*
X116943452Y-59047966D01*
X116991071Y-59095585D01*
X117086309Y-59143204D01*
X117324404Y-59143204D01*
X117419642Y-59095585D01*
X117467261Y-59047966D01*
X117514880Y-58952728D01*
X117514880Y-58714633D01*
X117467261Y-58619395D01*
X117419642Y-58571776D01*
X109608720Y-28415425D02*
X108608720Y-28415425D01*
X108608720Y-28653520D01*
X108656340Y-28796377D01*
X108751578Y-28891615D01*
X108846816Y-28939234D01*
X109037292Y-28986853D01*
X109180149Y-28986853D01*
X109370625Y-28939234D01*
X109465863Y-28891615D01*
X109561101Y-28796377D01*
X109608720Y-28653520D01*
X109608720Y-28415425D01*
X108703959Y-29367806D02*
X108656340Y-29415425D01*
X108608720Y-29510663D01*
X108608720Y-29748758D01*
X108656340Y-29843996D01*
X108703959Y-29891615D01*
X108799197Y-29939234D01*
X108894435Y-29939234D01*
X109037292Y-29891615D01*
X109608720Y-29320187D01*
X109608720Y-29939234D01*
X108942054Y-30796377D02*
X109608720Y-30796377D01*
X108561101Y-30558282D02*
X109275387Y-30320187D01*
X109275387Y-30939234D01*
X91321208Y-80802969D02*
X90321208Y-80802969D01*
X90321208Y-81041064D01*
X90368828Y-81183921D01*
X90464066Y-81279159D01*
X90559304Y-81326778D01*
X90749780Y-81374397D01*
X90892637Y-81374397D01*
X91083113Y-81326778D01*
X91178351Y-81279159D01*
X91273589Y-81183921D01*
X91321208Y-81041064D01*
X91321208Y-80802969D01*
X90416447Y-81755350D02*
X90368828Y-81802969D01*
X90321208Y-81898207D01*
X90321208Y-82136302D01*
X90368828Y-82231540D01*
X90416447Y-82279159D01*
X90511685Y-82326778D01*
X90606923Y-82326778D01*
X90749780Y-82279159D01*
X91321208Y-81707731D01*
X91321208Y-82326778D01*
X90416447Y-82707731D02*
X90368828Y-82755350D01*
X90321208Y-82850588D01*
X90321208Y-83088683D01*
X90368828Y-83183921D01*
X90416447Y-83231540D01*
X90511685Y-83279159D01*
X90606923Y-83279159D01*
X90749780Y-83231540D01*
X91321208Y-82660112D01*
X91321208Y-83279159D01*
X107227380Y-76312343D02*
X106227380Y-76312343D01*
X106227380Y-76550438D01*
X106275000Y-76693295D01*
X106370238Y-76788533D01*
X106465476Y-76836152D01*
X106655952Y-76883771D01*
X106798809Y-76883771D01*
X106989285Y-76836152D01*
X107084523Y-76788533D01*
X107179761Y-76693295D01*
X107227380Y-76550438D01*
X107227380Y-76312343D01*
X106322619Y-77264724D02*
X106275000Y-77312343D01*
X106227380Y-77407581D01*
X106227380Y-77645676D01*
X106275000Y-77740914D01*
X106322619Y-77788533D01*
X106417857Y-77836152D01*
X106513095Y-77836152D01*
X106655952Y-77788533D01*
X107227380Y-77217105D01*
X107227380Y-77836152D01*
X107227380Y-78788533D02*
X107227380Y-78217105D01*
X107227380Y-78502819D02*
X106227380Y-78502819D01*
X106370238Y-78407581D01*
X106465476Y-78312343D01*
X106513095Y-78217105D01*
X102464880Y-56666964D02*
X101464880Y-56666964D01*
X101464880Y-56905059D01*
X101512500Y-57047916D01*
X101607738Y-57143154D01*
X101702976Y-57190773D01*
X101893452Y-57238392D01*
X102036309Y-57238392D01*
X102226785Y-57190773D01*
X102322023Y-57143154D01*
X102417261Y-57047916D01*
X102464880Y-56905059D01*
X102464880Y-56666964D01*
X101560119Y-57619345D02*
X101512500Y-57666964D01*
X101464880Y-57762202D01*
X101464880Y-58000297D01*
X101512500Y-58095535D01*
X101560119Y-58143154D01*
X101655357Y-58190773D01*
X101750595Y-58190773D01*
X101893452Y-58143154D01*
X102464880Y-57571726D01*
X102464880Y-58190773D01*
X101464880Y-58809821D02*
X101464880Y-58905059D01*
X101512500Y-59000297D01*
X101560119Y-59047916D01*
X101655357Y-59095535D01*
X101845833Y-59143154D01*
X102083928Y-59143154D01*
X102274404Y-59095535D01*
X102369642Y-59047916D01*
X102417261Y-59000297D01*
X102464880Y-58905059D01*
X102464880Y-58809821D01*
X102417261Y-58714583D01*
X102369642Y-58666964D01*
X102274404Y-58619345D01*
X102083928Y-58571726D01*
X101845833Y-58571726D01*
X101655357Y-58619345D01*
X101560119Y-58666964D01*
X101512500Y-58714583D01*
X101464880Y-58809821D01*
X74485253Y-80802969D02*
X73485253Y-80802969D01*
X73485253Y-81041064D01*
X73532873Y-81183921D01*
X73628111Y-81279159D01*
X73723349Y-81326778D01*
X73913825Y-81374397D01*
X74056682Y-81374397D01*
X74247158Y-81326778D01*
X74342396Y-81279159D01*
X74437634Y-81183921D01*
X74485253Y-81041064D01*
X74485253Y-80802969D01*
X74485253Y-82326778D02*
X74485253Y-81755350D01*
X74485253Y-82041064D02*
X73485253Y-82041064D01*
X73628111Y-81945826D01*
X73723349Y-81850588D01*
X73770968Y-81755350D01*
X73913825Y-82898207D02*
X73866206Y-82802969D01*
X73818587Y-82755350D01*
X73723349Y-82707731D01*
X73675730Y-82707731D01*
X73580492Y-82755350D01*
X73532873Y-82802969D01*
X73485253Y-82898207D01*
X73485253Y-83088683D01*
X73532873Y-83183921D01*
X73580492Y-83231540D01*
X73675730Y-83279159D01*
X73723349Y-83279159D01*
X73818587Y-83231540D01*
X73866206Y-83183921D01*
X73913825Y-83088683D01*
X73913825Y-82898207D01*
X73961444Y-82802969D01*
X74009063Y-82755350D01*
X74104301Y-82707731D01*
X74294777Y-82707731D01*
X74390015Y-82755350D01*
X74437634Y-82802969D01*
X74485253Y-82898207D01*
X74485253Y-83088683D01*
X74437634Y-83183921D01*
X74390015Y-83231540D01*
X74294777Y-83279159D01*
X74104301Y-83279159D01*
X74009063Y-83231540D01*
X73961444Y-83183921D01*
X73913825Y-83088683D01*
X84177452Y-76312343D02*
X83177452Y-76312343D01*
X83177452Y-76550438D01*
X83225072Y-76693295D01*
X83320310Y-76788533D01*
X83415548Y-76836152D01*
X83606024Y-76883771D01*
X83748881Y-76883771D01*
X83939357Y-76836152D01*
X84034595Y-76788533D01*
X84129833Y-76693295D01*
X84177452Y-76550438D01*
X84177452Y-76312343D01*
X84177452Y-77836152D02*
X84177452Y-77264724D01*
X84177452Y-77550438D02*
X83177452Y-77550438D01*
X83320310Y-77455200D01*
X83415548Y-77359962D01*
X83463167Y-77264724D01*
X83177452Y-78169486D02*
X83177452Y-78836152D01*
X84177452Y-78407581D01*
X79414948Y-56667014D02*
X78414948Y-56667014D01*
X78414948Y-56905109D01*
X78462568Y-57047966D01*
X78557806Y-57143204D01*
X78653044Y-57190823D01*
X78843520Y-57238442D01*
X78986377Y-57238442D01*
X79176853Y-57190823D01*
X79272091Y-57143204D01*
X79367329Y-57047966D01*
X79414948Y-56905109D01*
X79414948Y-56667014D01*
X79414948Y-58190823D02*
X79414948Y-57619395D01*
X79414948Y-57905109D02*
X78414948Y-57905109D01*
X78557806Y-57809871D01*
X78653044Y-57714633D01*
X78700663Y-57619395D01*
X78414948Y-59047966D02*
X78414948Y-58857490D01*
X78462568Y-58762252D01*
X78510187Y-58714633D01*
X78653044Y-58619395D01*
X78843520Y-58571776D01*
X79224472Y-58571776D01*
X79319710Y-58619395D01*
X79367329Y-58667014D01*
X79414948Y-58762252D01*
X79414948Y-58952728D01*
X79367329Y-59047966D01*
X79319710Y-59095585D01*
X79224472Y-59143204D01*
X78986377Y-59143204D01*
X78891139Y-59095585D01*
X78843520Y-59047966D01*
X78795901Y-58952728D01*
X78795901Y-58762252D01*
X78843520Y-58667014D01*
X78891139Y-58619395D01*
X78986377Y-58571776D01*
X71508688Y-28415425D02*
X70508688Y-28415425D01*
X70508688Y-28653520D01*
X70556308Y-28796377D01*
X70651546Y-28891615D01*
X70746784Y-28939234D01*
X70937260Y-28986853D01*
X71080117Y-28986853D01*
X71270593Y-28939234D01*
X71365831Y-28891615D01*
X71461069Y-28796377D01*
X71508688Y-28653520D01*
X71508688Y-28415425D01*
X71508688Y-29939234D02*
X71508688Y-29367806D01*
X71508688Y-29653520D02*
X70508688Y-29653520D01*
X70651546Y-29558282D01*
X70746784Y-29463044D01*
X70794403Y-29367806D01*
X70508688Y-30843996D02*
X70508688Y-30367806D01*
X70984879Y-30320187D01*
X70937260Y-30367806D01*
X70889641Y-30463044D01*
X70889641Y-30701139D01*
X70937260Y-30796377D01*
X70984879Y-30843996D01*
X71080117Y-30891615D01*
X71318212Y-30891615D01*
X71413450Y-30843996D01*
X71461069Y-30796377D01*
X71508688Y-30701139D01*
X71508688Y-30463044D01*
X71461069Y-30367806D01*
X71413450Y-30320187D01*
X53221176Y-80802969D02*
X52221176Y-80802969D01*
X52221176Y-81041064D01*
X52268796Y-81183921D01*
X52364034Y-81279159D01*
X52459272Y-81326778D01*
X52649748Y-81374397D01*
X52792605Y-81374397D01*
X52983081Y-81326778D01*
X53078319Y-81279159D01*
X53173557Y-81183921D01*
X53221176Y-81041064D01*
X53221176Y-80802969D01*
X53221176Y-82326778D02*
X53221176Y-81755350D01*
X53221176Y-82041064D02*
X52221176Y-82041064D01*
X52364034Y-81945826D01*
X52459272Y-81850588D01*
X52506891Y-81755350D01*
X52221176Y-82660112D02*
X52221176Y-83279159D01*
X52602129Y-82945826D01*
X52602129Y-83088683D01*
X52649748Y-83183921D01*
X52697367Y-83231540D01*
X52792605Y-83279159D01*
X53030700Y-83279159D01*
X53125938Y-83231540D01*
X53173557Y-83183921D01*
X53221176Y-83088683D01*
X53221176Y-82802969D01*
X53173557Y-82707731D01*
X53125938Y-82660112D01*
X69127436Y-76312343D02*
X68127436Y-76312343D01*
X68127436Y-76550438D01*
X68175056Y-76693295D01*
X68270294Y-76788533D01*
X68365532Y-76836152D01*
X68556008Y-76883771D01*
X68698865Y-76883771D01*
X68889341Y-76836152D01*
X68984579Y-76788533D01*
X69079817Y-76693295D01*
X69127436Y-76550438D01*
X69127436Y-76312343D01*
X69127436Y-77836152D02*
X69127436Y-77264724D01*
X69127436Y-77550438D02*
X68127436Y-77550438D01*
X68270294Y-77455200D01*
X68365532Y-77359962D01*
X68413151Y-77264724D01*
X68222675Y-78217105D02*
X68175056Y-78264724D01*
X68127436Y-78359962D01*
X68127436Y-78598057D01*
X68175056Y-78693295D01*
X68222675Y-78740914D01*
X68317913Y-78788533D01*
X68413151Y-78788533D01*
X68556008Y-78740914D01*
X69127436Y-78169486D01*
X69127436Y-78788533D01*
X64364880Y-56666964D02*
X63364880Y-56666964D01*
X63364880Y-56905059D01*
X63412500Y-57047916D01*
X63507738Y-57143154D01*
X63602976Y-57190773D01*
X63793452Y-57238392D01*
X63936309Y-57238392D01*
X64126785Y-57190773D01*
X64222023Y-57143154D01*
X64317261Y-57047916D01*
X64364880Y-56905059D01*
X64364880Y-56666964D01*
X64364880Y-58190773D02*
X64364880Y-57619345D01*
X64364880Y-57905059D02*
X63364880Y-57905059D01*
X63507738Y-57809821D01*
X63602976Y-57714583D01*
X63650595Y-57619345D01*
X64364880Y-59143154D02*
X64364880Y-58571726D01*
X64364880Y-58857440D02*
X63364880Y-58857440D01*
X63507738Y-58762202D01*
X63602976Y-58666964D01*
X63650595Y-58571726D01*
X48458672Y-28415425D02*
X47458672Y-28415425D01*
X47458672Y-28653520D01*
X47506292Y-28796377D01*
X47601530Y-28891615D01*
X47696768Y-28939234D01*
X47887244Y-28986853D01*
X48030101Y-28986853D01*
X48220577Y-28939234D01*
X48315815Y-28891615D01*
X48411053Y-28796377D01*
X48458672Y-28653520D01*
X48458672Y-28415425D01*
X48458672Y-29939234D02*
X48458672Y-29367806D01*
X48458672Y-29653520D02*
X47458672Y-29653520D01*
X47601530Y-29558282D01*
X47696768Y-29463044D01*
X47744387Y-29367806D01*
X47458672Y-30558282D02*
X47458672Y-30653520D01*
X47506292Y-30748758D01*
X47553911Y-30796377D01*
X47649149Y-30843996D01*
X47839625Y-30891615D01*
X48077720Y-30891615D01*
X48268196Y-30843996D01*
X48363434Y-30796377D01*
X48411053Y-30748758D01*
X48458672Y-30653520D01*
X48458672Y-30558282D01*
X48411053Y-30463044D01*
X48363434Y-30415425D01*
X48268196Y-30367806D01*
X48077720Y-30320187D01*
X47839625Y-30320187D01*
X47649149Y-30367806D01*
X47553911Y-30415425D01*
X47506292Y-30463044D01*
X47458672Y-30558282D01*
X38338351Y-112507313D02*
X37338351Y-112507313D01*
X37338351Y-112745409D01*
X37385971Y-112888266D01*
X37481209Y-112983504D01*
X37576447Y-113031123D01*
X37766923Y-113078742D01*
X37909780Y-113078742D01*
X38100256Y-113031123D01*
X38195494Y-112983504D01*
X38290732Y-112888266D01*
X38338351Y-112745409D01*
X38338351Y-112507313D01*
X38338351Y-113554932D02*
X38338351Y-113745409D01*
X38290732Y-113840647D01*
X38243113Y-113888266D01*
X38100256Y-113983504D01*
X37909780Y-114031123D01*
X37528828Y-114031123D01*
X37433590Y-113983504D01*
X37385971Y-113935885D01*
X37338351Y-113840647D01*
X37338351Y-113650170D01*
X37385971Y-113554932D01*
X37433590Y-113507313D01*
X37528828Y-113459694D01*
X37766923Y-113459694D01*
X37862161Y-113507313D01*
X37909780Y-113554932D01*
X37957399Y-113650170D01*
X37957399Y-113840647D01*
X37909780Y-113935885D01*
X37862161Y-113983504D01*
X37766923Y-114031123D01*
X46077420Y-76788533D02*
X45077420Y-76788533D01*
X45077420Y-77026629D01*
X45125040Y-77169486D01*
X45220278Y-77264724D01*
X45315516Y-77312343D01*
X45505992Y-77359962D01*
X45648849Y-77359962D01*
X45839325Y-77312343D01*
X45934563Y-77264724D01*
X46029801Y-77169486D01*
X46077420Y-77026629D01*
X46077420Y-76788533D01*
X45505992Y-77931390D02*
X45458373Y-77836152D01*
X45410754Y-77788533D01*
X45315516Y-77740914D01*
X45267897Y-77740914D01*
X45172659Y-77788533D01*
X45125040Y-77836152D01*
X45077420Y-77931390D01*
X45077420Y-78121867D01*
X45125040Y-78217105D01*
X45172659Y-78264724D01*
X45267897Y-78312343D01*
X45315516Y-78312343D01*
X45410754Y-78264724D01*
X45458373Y-78217105D01*
X45505992Y-78121867D01*
X45505992Y-77931390D01*
X45553611Y-77836152D01*
X45601230Y-77788533D01*
X45696468Y-77740914D01*
X45886944Y-77740914D01*
X45982182Y-77788533D01*
X46029801Y-77836152D01*
X46077420Y-77931390D01*
X46077420Y-78121867D01*
X46029801Y-78217105D01*
X45982182Y-78264724D01*
X45886944Y-78312343D01*
X45696468Y-78312343D01*
X45601230Y-78264724D01*
X45553611Y-78217105D01*
X45505992Y-78121867D01*
X38933664Y-57143204D02*
X37933664Y-57143204D01*
X37933664Y-57381300D01*
X37981284Y-57524157D01*
X38076522Y-57619395D01*
X38171760Y-57667014D01*
X38362236Y-57714633D01*
X38505093Y-57714633D01*
X38695569Y-57667014D01*
X38790807Y-57619395D01*
X38886045Y-57524157D01*
X38933664Y-57381300D01*
X38933664Y-57143204D01*
X37933664Y-58047966D02*
X37933664Y-58714633D01*
X38933664Y-58286061D01*
X31558432Y-31027404D02*
X31558432Y-30027404D01*
X31320337Y-30027404D01*
X31177479Y-30075024D01*
X31082241Y-30170262D01*
X31034622Y-30265500D01*
X30987003Y-30455976D01*
X30987003Y-30598833D01*
X31034622Y-30789309D01*
X31082241Y-30884547D01*
X31177479Y-30979785D01*
X31320337Y-31027404D01*
X31558432Y-31027404D01*
X30129860Y-30027404D02*
X30320337Y-30027404D01*
X30415575Y-30075024D01*
X30463194Y-30122643D01*
X30558432Y-30265500D01*
X30606051Y-30455976D01*
X30606051Y-30836928D01*
X30558432Y-30932166D01*
X30510813Y-30979785D01*
X30415575Y-31027404D01*
X30225098Y-31027404D01*
X30129860Y-30979785D01*
X30082241Y-30932166D01*
X30034622Y-30836928D01*
X30034622Y-30598833D01*
X30082241Y-30503595D01*
X30129860Y-30455976D01*
X30225098Y-30408357D01*
X30415575Y-30408357D01*
X30510813Y-30455976D01*
X30558432Y-30503595D01*
X30606051Y-30598833D01*
X19121130Y-112507313D02*
X18121130Y-112507313D01*
X18121130Y-112745409D01*
X18168750Y-112888266D01*
X18263988Y-112983504D01*
X18359226Y-113031123D01*
X18549702Y-113078742D01*
X18692559Y-113078742D01*
X18883035Y-113031123D01*
X18978273Y-112983504D01*
X19073511Y-112888266D01*
X19121130Y-112745409D01*
X19121130Y-112507313D01*
X18121130Y-113983504D02*
X18121130Y-113507313D01*
X18597321Y-113459694D01*
X18549702Y-113507313D01*
X18502083Y-113602551D01*
X18502083Y-113840647D01*
X18549702Y-113935885D01*
X18597321Y-113983504D01*
X18692559Y-114031123D01*
X18930654Y-114031123D01*
X19025892Y-113983504D01*
X19073511Y-113935885D01*
X19121130Y-113840647D01*
X19121130Y-113602551D01*
X19073511Y-113507313D01*
X19025892Y-113459694D01*
X24550615Y-61174306D02*
X24550615Y-60174306D01*
X24312520Y-60174306D01*
X24169662Y-60221926D01*
X24074424Y-60317164D01*
X24026805Y-60412402D01*
X23979186Y-60602878D01*
X23979186Y-60745735D01*
X24026805Y-60936211D01*
X24074424Y-61031449D01*
X24169662Y-61126687D01*
X24312520Y-61174306D01*
X24550615Y-61174306D01*
X23122043Y-60507640D02*
X23122043Y-61174306D01*
X23360139Y-60126687D02*
X23598234Y-60840973D01*
X22979186Y-60840973D01*
X24550615Y-58793054D02*
X24550615Y-57793054D01*
X24312520Y-57793054D01*
X24169662Y-57840674D01*
X24074424Y-57935912D01*
X24026805Y-58031150D01*
X23979186Y-58221626D01*
X23979186Y-58364483D01*
X24026805Y-58554959D01*
X24074424Y-58650197D01*
X24169662Y-58745435D01*
X24312520Y-58793054D01*
X24550615Y-58793054D01*
X23645853Y-57793054D02*
X23026805Y-57793054D01*
X23360139Y-58174007D01*
X23217281Y-58174007D01*
X23122043Y-58221626D01*
X23074424Y-58269245D01*
X23026805Y-58364483D01*
X23026805Y-58602578D01*
X23074424Y-58697816D01*
X23122043Y-58745435D01*
X23217281Y-58793054D01*
X23502996Y-58793054D01*
X23598234Y-58745435D01*
X23645853Y-58697816D01*
X24550615Y-56411802D02*
X24550615Y-55411802D01*
X24312520Y-55411802D01*
X24169662Y-55459422D01*
X24074424Y-55554660D01*
X24026805Y-55649898D01*
X23979186Y-55840374D01*
X23979186Y-55983231D01*
X24026805Y-56173707D01*
X24074424Y-56268945D01*
X24169662Y-56364183D01*
X24312520Y-56411802D01*
X24550615Y-56411802D01*
X23598234Y-55507041D02*
X23550615Y-55459422D01*
X23455377Y-55411802D01*
X23217281Y-55411802D01*
X23122043Y-55459422D01*
X23074424Y-55507041D01*
X23026805Y-55602279D01*
X23026805Y-55697517D01*
X23074424Y-55840374D01*
X23645853Y-56411802D01*
X23026805Y-56411802D01*
X12184981Y-33789908D02*
X12184981Y-32789908D01*
X11946886Y-32789908D01*
X11804028Y-32837528D01*
X11708790Y-32932766D01*
X11661171Y-33028004D01*
X11613552Y-33218480D01*
X11613552Y-33361337D01*
X11661171Y-33551813D01*
X11708790Y-33647051D01*
X11804028Y-33742289D01*
X11946886Y-33789908D01*
X12184981Y-33789908D01*
X10661171Y-33789908D02*
X11232600Y-33789908D01*
X10946886Y-33789908D02*
X10946886Y-32789908D01*
X11042124Y-32932766D01*
X11137362Y-33028004D01*
X11232600Y-33075623D01*
X78819635Y-112490497D02*
X77819635Y-112490497D01*
X77819635Y-112728592D01*
X77867255Y-112871449D01*
X77962493Y-112966687D01*
X78057731Y-113014306D01*
X78248207Y-113061925D01*
X78391064Y-113061925D01*
X78581540Y-113014306D01*
X78676778Y-112966687D01*
X78772016Y-112871449D01*
X78819635Y-112728592D01*
X78819635Y-112490497D01*
X77819635Y-113395259D02*
X77819635Y-114061925D01*
X78819635Y-113633354D01*
X78819635Y-114966687D02*
X78819635Y-114395259D01*
X78819635Y-114680973D02*
X77819635Y-114680973D01*
X77962493Y-114585735D01*
X78057731Y-114490497D01*
X78105350Y-114395259D01*
X168925959Y-112490497D02*
X167925959Y-112490497D01*
X167925959Y-112728592D01*
X167973579Y-112871449D01*
X168068817Y-112966687D01*
X168164055Y-113014306D01*
X168354531Y-113061925D01*
X168497388Y-113061925D01*
X168687864Y-113014306D01*
X168783102Y-112966687D01*
X168878340Y-112871449D01*
X168925959Y-112728592D01*
X168925959Y-112490497D01*
X167925959Y-113395259D02*
X167925959Y-114061925D01*
X168925959Y-113633354D01*
X168021198Y-114395259D02*
X167973579Y-114442878D01*
X167925959Y-114538116D01*
X167925959Y-114776211D01*
X167973579Y-114871449D01*
X168021198Y-114919068D01*
X168116436Y-114966687D01*
X168211674Y-114966687D01*
X168354531Y-114919068D01*
X168925959Y-114347640D01*
X168925959Y-114966687D01*
X99967495Y-38438351D02*
X99967495Y-37438351D01*
X99729400Y-37438351D01*
X99586543Y-37485971D01*
X99491305Y-37581209D01*
X99443686Y-37676447D01*
X99396067Y-37866923D01*
X99396067Y-38009780D01*
X99443686Y-38200256D01*
X99491305Y-38295494D01*
X99586543Y-38390732D01*
X99729400Y-38438351D01*
X99967495Y-38438351D01*
X99062733Y-37438351D02*
X98396067Y-37438351D01*
X98824638Y-38438351D01*
X97538924Y-37438351D02*
X98015114Y-37438351D01*
X98062733Y-37914542D01*
X98015114Y-37866923D01*
X97919876Y-37819304D01*
X97681781Y-37819304D01*
X97586543Y-37866923D01*
X97538924Y-37914542D01*
X97491305Y-38009780D01*
X97491305Y-38247875D01*
X97538924Y-38343113D01*
X97586543Y-38390732D01*
X97681781Y-38438351D01*
X97919876Y-38438351D01*
X98015114Y-38390732D01*
X98062733Y-38343113D01*
X164925360Y-38028977D02*
X164925360Y-37028977D01*
X164687265Y-37028977D01*
X164544408Y-37076597D01*
X164449170Y-37171835D01*
X164401551Y-37267073D01*
X164353932Y-37457549D01*
X164353932Y-37600406D01*
X164401551Y-37790882D01*
X164449170Y-37886120D01*
X164544408Y-37981358D01*
X164687265Y-38028977D01*
X164925360Y-38028977D01*
X164020598Y-37028977D02*
X163353932Y-37028977D01*
X163782503Y-38028977D01*
X162544408Y-37028977D02*
X162734884Y-37028977D01*
X162830122Y-37076597D01*
X162877741Y-37124216D01*
X162972979Y-37267073D01*
X163020598Y-37457549D01*
X163020598Y-37838501D01*
X162972979Y-37933739D01*
X162925360Y-37981358D01*
X162830122Y-38028977D01*
X162639646Y-38028977D01*
X162544408Y-37981358D01*
X162496789Y-37933739D01*
X162449170Y-37838501D01*
X162449170Y-37600406D01*
X162496789Y-37505168D01*
X162544408Y-37457549D01*
X162639646Y-37409930D01*
X162830122Y-37409930D01*
X162925360Y-37457549D01*
X162972979Y-37505168D01*
X163020598Y-37600406D01*
X225052725Y-37433800D02*
X225052725Y-36433800D01*
X224814630Y-36433800D01*
X224671773Y-36481420D01*
X224576535Y-36576658D01*
X224528916Y-36671896D01*
X224481297Y-36862372D01*
X224481297Y-37005229D01*
X224528916Y-37195705D01*
X224576535Y-37290943D01*
X224671773Y-37386181D01*
X224814630Y-37433800D01*
X225052725Y-37433800D01*
X224147963Y-36433800D02*
X223481297Y-36433800D01*
X223909868Y-37433800D01*
X223195582Y-36433800D02*
X222528916Y-36433800D01*
X222957487Y-37433800D01*
X281080143Y-37619603D02*
X281080143Y-36619603D01*
X280842048Y-36619603D01*
X280699191Y-36667223D01*
X280603953Y-36762461D01*
X280556334Y-36857699D01*
X280508715Y-37048175D01*
X280508715Y-37191032D01*
X280556334Y-37381508D01*
X280603953Y-37476746D01*
X280699191Y-37571984D01*
X280842048Y-37619603D01*
X281080143Y-37619603D01*
X280175381Y-36619603D02*
X279508715Y-36619603D01*
X279937286Y-37619603D01*
X278984905Y-37048175D02*
X279080143Y-37000556D01*
X279127762Y-36952937D01*
X279175381Y-36857699D01*
X279175381Y-36810080D01*
X279127762Y-36714842D01*
X279080143Y-36667223D01*
X278984905Y-36619603D01*
X278794429Y-36619603D01*
X278699191Y-36667223D01*
X278651572Y-36714842D01*
X278603953Y-36810080D01*
X278603953Y-36857699D01*
X278651572Y-36952937D01*
X278699191Y-37000556D01*
X278794429Y-37048175D01*
X278984905Y-37048175D01*
X279080143Y-37095794D01*
X279127762Y-37143413D01*
X279175381Y-37238651D01*
X279175381Y-37429127D01*
X279127762Y-37524365D01*
X279080143Y-37571984D01*
X278984905Y-37619603D01*
X278794429Y-37619603D01*
X278699191Y-37571984D01*
X278651572Y-37524365D01*
X278603953Y-37429127D01*
X278603953Y-37238651D01*
X278651572Y-37143413D01*
X278699191Y-37095794D01*
X278794429Y-37048175D01*
X281011395Y-103555590D02*
X281011395Y-102555590D01*
X280773300Y-102555590D01*
X280630443Y-102603210D01*
X280535205Y-102698448D01*
X280487586Y-102793686D01*
X280439967Y-102984162D01*
X280439967Y-103127019D01*
X280487586Y-103317495D01*
X280535205Y-103412733D01*
X280630443Y-103507971D01*
X280773300Y-103555590D01*
X281011395Y-103555590D01*
X280106633Y-102555590D02*
X279439967Y-102555590D01*
X279868538Y-103555590D01*
X279011395Y-103555590D02*
X278820919Y-103555590D01*
X278725681Y-103507971D01*
X278678062Y-103460352D01*
X278582824Y-103317495D01*
X278535205Y-103127019D01*
X278535205Y-102746067D01*
X278582824Y-102650829D01*
X278630443Y-102603210D01*
X278725681Y-102555590D01*
X278916157Y-102555590D01*
X279011395Y-102603210D01*
X279059014Y-102650829D01*
X279106633Y-102746067D01*
X279106633Y-102984162D01*
X279059014Y-103079400D01*
X279011395Y-103127019D01*
X278916157Y-103174638D01*
X278725681Y-103174638D01*
X278630443Y-103127019D01*
X278582824Y-103079400D01*
X278535205Y-102984162D01*
X180403498Y-98679025D02*
X180403498Y-97679025D01*
X180165403Y-97679025D01*
X180022546Y-97726645D01*
X179927308Y-97821883D01*
X179879689Y-97917121D01*
X179832070Y-98107597D01*
X179832070Y-98250454D01*
X179879689Y-98440930D01*
X179927308Y-98536168D01*
X180022546Y-98631406D01*
X180165403Y-98679025D01*
X180403498Y-98679025D01*
X179260641Y-98107597D02*
X179355879Y-98059978D01*
X179403498Y-98012359D01*
X179451117Y-97917121D01*
X179451117Y-97869502D01*
X179403498Y-97774264D01*
X179355879Y-97726645D01*
X179260641Y-97679025D01*
X179070165Y-97679025D01*
X178974927Y-97726645D01*
X178927308Y-97774264D01*
X178879689Y-97869502D01*
X178879689Y-97917121D01*
X178927308Y-98012359D01*
X178974927Y-98059978D01*
X179070165Y-98107597D01*
X179260641Y-98107597D01*
X179355879Y-98155216D01*
X179403498Y-98202835D01*
X179451117Y-98298073D01*
X179451117Y-98488549D01*
X179403498Y-98583787D01*
X179355879Y-98631406D01*
X179260641Y-98679025D01*
X179070165Y-98679025D01*
X178974927Y-98631406D01*
X178927308Y-98583787D01*
X178879689Y-98488549D01*
X178879689Y-98298073D01*
X178927308Y-98202835D01*
X178974927Y-98155216D01*
X179070165Y-98107597D01*
X177927308Y-98679025D02*
X178498736Y-98679025D01*
X178213022Y-98679025D02*
X178213022Y-97679025D01*
X178308260Y-97821883D01*
X178403498Y-97917121D01*
X178498736Y-97964740D01*
X67889341Y-102774338D02*
X67889341Y-101774338D01*
X67651246Y-101774338D01*
X67508389Y-101821958D01*
X67413151Y-101917196D01*
X67365532Y-102012434D01*
X67317913Y-102202910D01*
X67317913Y-102345767D01*
X67365532Y-102536243D01*
X67413151Y-102631481D01*
X67508389Y-102726719D01*
X67651246Y-102774338D01*
X67889341Y-102774338D01*
X66746484Y-102202910D02*
X66841722Y-102155291D01*
X66889341Y-102107672D01*
X66936960Y-102012434D01*
X66936960Y-101964815D01*
X66889341Y-101869577D01*
X66841722Y-101821958D01*
X66746484Y-101774338D01*
X66556008Y-101774338D01*
X66460770Y-101821958D01*
X66413151Y-101869577D01*
X66365532Y-101964815D01*
X66365532Y-102012434D01*
X66413151Y-102107672D01*
X66460770Y-102155291D01*
X66556008Y-102202910D01*
X66746484Y-102202910D01*
X66841722Y-102250529D01*
X66889341Y-102298148D01*
X66936960Y-102393386D01*
X66936960Y-102583862D01*
X66889341Y-102679100D01*
X66841722Y-102726719D01*
X66746484Y-102774338D01*
X66556008Y-102774338D01*
X66460770Y-102726719D01*
X66413151Y-102679100D01*
X66365532Y-102583862D01*
X66365532Y-102393386D01*
X66413151Y-102298148D01*
X66460770Y-102250529D01*
X66556008Y-102202910D01*
X66032198Y-101774338D02*
X65413151Y-101774338D01*
X65746484Y-102155291D01*
X65603627Y-102155291D01*
X65508389Y-102202910D01*
X65460770Y-102250529D01*
X65413151Y-102345767D01*
X65413151Y-102583862D01*
X65460770Y-102679100D01*
X65508389Y-102726719D01*
X65603627Y-102774338D01*
X65889341Y-102774338D01*
X65984579Y-102726719D01*
X66032198Y-102679100D01*
X19668988Y-104632155D02*
X19668988Y-103632155D01*
X19430893Y-103632155D01*
X19288036Y-103679775D01*
X19192798Y-103775013D01*
X19145179Y-103870251D01*
X19097560Y-104060727D01*
X19097560Y-104203584D01*
X19145179Y-104394060D01*
X19192798Y-104489298D01*
X19288036Y-104584536D01*
X19430893Y-104632155D01*
X19668988Y-104632155D01*
X18526131Y-104060727D02*
X18621369Y-104013108D01*
X18668988Y-103965489D01*
X18716607Y-103870251D01*
X18716607Y-103822632D01*
X18668988Y-103727394D01*
X18621369Y-103679775D01*
X18526131Y-103632155D01*
X18335655Y-103632155D01*
X18240417Y-103679775D01*
X18192798Y-103727394D01*
X18145179Y-103822632D01*
X18145179Y-103870251D01*
X18192798Y-103965489D01*
X18240417Y-104013108D01*
X18335655Y-104060727D01*
X18526131Y-104060727D01*
X18621369Y-104108346D01*
X18668988Y-104155965D01*
X18716607Y-104251203D01*
X18716607Y-104441679D01*
X18668988Y-104536917D01*
X18621369Y-104584536D01*
X18526131Y-104632155D01*
X18335655Y-104632155D01*
X18240417Y-104584536D01*
X18192798Y-104536917D01*
X18145179Y-104441679D01*
X18145179Y-104251203D01*
X18192798Y-104155965D01*
X18240417Y-104108346D01*
X18335655Y-104060727D01*
X17288036Y-103965489D02*
X17288036Y-104632155D01*
X17526131Y-103584536D02*
X17764226Y-104298822D01*
X17145179Y-104298822D01*
X-1452605Y-99358094D02*
X-1452605Y-100072380D01*
X-1404986Y-100215237D01*
X-1309748Y-100310475D01*
X-1166891Y-100358094D01*
X-1071653Y-100358094D01*
X-1881177Y-99453333D02*
X-1928796Y-99405714D01*
X-2024034Y-99358094D01*
X-2262129Y-99358094D01*
X-2357367Y-99405714D01*
X-2404986Y-99453333D01*
X-2452605Y-99548571D01*
X-2452605Y-99643809D01*
X-2404986Y-99786666D01*
X-1833558Y-100358094D01*
X-2452605Y-100358094D01*
X-857292Y-72354627D02*
X-857292Y-73068913D01*
X-809673Y-73211770D01*
X-714435Y-73307008D01*
X-571578Y-73354627D01*
X-476340Y-73354627D01*
X-1238245Y-72354627D02*
X-1857292Y-72354627D01*
X-1523959Y-72735580D01*
X-1666816Y-72735580D01*
X-1762054Y-72783199D01*
X-1809673Y-72830818D01*
X-1857292Y-72926056D01*
X-1857292Y-73164151D01*
X-1809673Y-73259389D01*
X-1762054Y-73307008D01*
X-1666816Y-73354627D01*
X-1381102Y-73354627D01*
X-1285864Y-73307008D01*
X-1238245Y-73259389D01*
X283256708Y-66913375D02*
X283256708Y-65913375D01*
X283018613Y-65913375D01*
X282875756Y-65960995D01*
X282780518Y-66056233D01*
X282732899Y-66151471D01*
X282685280Y-66341947D01*
X282685280Y-66484804D01*
X282732899Y-66675280D01*
X282780518Y-66770518D01*
X282875756Y-66865756D01*
X283018613Y-66913375D01*
X283256708Y-66913375D01*
X282113851Y-66341947D02*
X282209089Y-66294328D01*
X282256708Y-66246709D01*
X282304327Y-66151471D01*
X282304327Y-66103852D01*
X282256708Y-66008614D01*
X282209089Y-65960995D01*
X282113851Y-65913375D01*
X281923375Y-65913375D01*
X281828137Y-65960995D01*
X281780518Y-66008614D01*
X281732899Y-66103852D01*
X281732899Y-66151471D01*
X281780518Y-66246709D01*
X281828137Y-66294328D01*
X281923375Y-66341947D01*
X282113851Y-66341947D01*
X282209089Y-66389566D01*
X282256708Y-66437185D01*
X282304327Y-66532423D01*
X282304327Y-66722899D01*
X282256708Y-66818137D01*
X282209089Y-66865756D01*
X282113851Y-66913375D01*
X281923375Y-66913375D01*
X281828137Y-66865756D01*
X281780518Y-66818137D01*
X281732899Y-66722899D01*
X281732899Y-66532423D01*
X281780518Y-66437185D01*
X281828137Y-66389566D01*
X281923375Y-66341947D01*
X281399565Y-65913375D02*
X280732899Y-65913375D01*
X281161470Y-66913375D01*
X244149458Y-80802969D02*
X243149458Y-80802969D01*
X243149458Y-81041064D01*
X243197078Y-81183921D01*
X243292316Y-81279159D01*
X243387554Y-81326778D01*
X243578030Y-81374397D01*
X243720887Y-81374397D01*
X243911363Y-81326778D01*
X244006601Y-81279159D01*
X244101839Y-81183921D01*
X244149458Y-81041064D01*
X244149458Y-80802969D01*
X243578030Y-81945826D02*
X243530411Y-81850588D01*
X243482792Y-81802969D01*
X243387554Y-81755350D01*
X243339935Y-81755350D01*
X243244697Y-81802969D01*
X243197078Y-81850588D01*
X243149458Y-81945826D01*
X243149458Y-82136302D01*
X243197078Y-82231540D01*
X243244697Y-82279159D01*
X243339935Y-82326778D01*
X243387554Y-82326778D01*
X243482792Y-82279159D01*
X243530411Y-82231540D01*
X243578030Y-82136302D01*
X243578030Y-81945826D01*
X243625649Y-81850588D01*
X243673268Y-81802969D01*
X243768506Y-81755350D01*
X243958982Y-81755350D01*
X244054220Y-81802969D01*
X244101839Y-81850588D01*
X244149458Y-81945826D01*
X244149458Y-82136302D01*
X244101839Y-82231540D01*
X244054220Y-82279159D01*
X243958982Y-82326778D01*
X243768506Y-82326778D01*
X243673268Y-82279159D01*
X243625649Y-82231540D01*
X243578030Y-82136302D01*
X243578030Y-82898207D02*
X243530411Y-82802969D01*
X243482792Y-82755350D01*
X243387554Y-82707731D01*
X243339935Y-82707731D01*
X243244697Y-82755350D01*
X243197078Y-82802969D01*
X243149458Y-82898207D01*
X243149458Y-83088683D01*
X243197078Y-83183921D01*
X243244697Y-83231540D01*
X243339935Y-83279159D01*
X243387554Y-83279159D01*
X243482792Y-83231540D01*
X243530411Y-83183921D01*
X243578030Y-83088683D01*
X243578030Y-82898207D01*
X243625649Y-82802969D01*
X243673268Y-82755350D01*
X243768506Y-82707731D01*
X243958982Y-82707731D01*
X244054220Y-82755350D01*
X244101839Y-82802969D01*
X244149458Y-82898207D01*
X244149458Y-83088683D01*
X244101839Y-83183921D01*
X244054220Y-83231540D01*
X243958982Y-83279159D01*
X243768506Y-83279159D01*
X243673268Y-83231540D01*
X243625649Y-83183921D01*
X243578030Y-83088683D01*
X136397805Y-112626436D02*
X135397805Y-112626436D01*
X135397805Y-112864531D01*
X135445425Y-113007388D01*
X135540663Y-113102626D01*
X135635901Y-113150245D01*
X135826377Y-113197864D01*
X135969234Y-113197864D01*
X136159710Y-113150245D01*
X136254948Y-113102626D01*
X136350186Y-113007388D01*
X136397805Y-112864531D01*
X136397805Y-112626436D01*
X135397805Y-114102626D02*
X135397805Y-113626436D01*
X135873996Y-113578817D01*
X135826377Y-113626436D01*
X135778758Y-113721674D01*
X135778758Y-113959769D01*
X135826377Y-114055007D01*
X135873996Y-114102626D01*
X135969234Y-114150245D01*
X136207329Y-114150245D01*
X136302567Y-114102626D01*
X136350186Y-114055007D01*
X136397805Y-113959769D01*
X136397805Y-113721674D01*
X136350186Y-113626436D01*
X136302567Y-113578817D01*
X135397805Y-114483579D02*
X135397805Y-115150245D01*
X136397805Y-114721674D01*
X104349427Y-40203363D02*
X104397046Y-40155744D01*
X104444665Y-40012887D01*
X104444665Y-39917649D01*
X104397046Y-39774791D01*
X104301808Y-39679553D01*
X104206570Y-39631934D01*
X104016094Y-39584315D01*
X103873237Y-39584315D01*
X103682761Y-39631934D01*
X103587523Y-39679553D01*
X103492285Y-39774791D01*
X103444665Y-39917649D01*
X103444665Y-40012887D01*
X103492285Y-40155744D01*
X103539904Y-40203363D01*
X104444665Y-40679553D02*
X104444665Y-40870030D01*
X104397046Y-40965268D01*
X104349427Y-41012887D01*
X104206570Y-41108125D01*
X104016094Y-41155744D01*
X103635142Y-41155744D01*
X103539904Y-41108125D01*
X103492285Y-41060506D01*
X103444665Y-40965268D01*
X103444665Y-40774791D01*
X103492285Y-40679553D01*
X103539904Y-40631934D01*
X103635142Y-40584315D01*
X103873237Y-40584315D01*
X103968475Y-40631934D01*
X104016094Y-40679553D01*
X104063713Y-40774791D01*
X104063713Y-40965268D01*
X104016094Y-41060506D01*
X103968475Y-41108125D01*
X103873237Y-41155744D01*
X285481443Y-38647800D02*
X285529062Y-38600181D01*
X285576681Y-38457324D01*
X285576681Y-38362086D01*
X285529062Y-38219229D01*
X285433824Y-38123991D01*
X285338586Y-38076372D01*
X285148110Y-38028753D01*
X285005253Y-38028753D01*
X284814777Y-38076372D01*
X284719539Y-38123991D01*
X284624301Y-38219229D01*
X284576681Y-38362086D01*
X284576681Y-38457324D01*
X284624301Y-38600181D01*
X284671920Y-38647800D01*
X285576681Y-39600181D02*
X285576681Y-39028753D01*
X285576681Y-39314467D02*
X284576681Y-39314467D01*
X284719539Y-39219229D01*
X284814777Y-39123991D01*
X284862396Y-39028753D01*
X284576681Y-40219229D02*
X284576681Y-40314467D01*
X284624301Y-40409705D01*
X284671920Y-40457324D01*
X284767158Y-40504943D01*
X284957634Y-40552562D01*
X285195729Y-40552562D01*
X285386205Y-40504943D01*
X285481443Y-40457324D01*
X285529062Y-40409705D01*
X285576681Y-40314467D01*
X285576681Y-40219229D01*
X285529062Y-40123991D01*
X285481443Y-40076372D01*
X285386205Y-40028753D01*
X285195729Y-39981134D01*
X284957634Y-39981134D01*
X284767158Y-40028753D01*
X284671920Y-40076372D01*
X284624301Y-40123991D01*
X284576681Y-40219229D01*
X274796435Y-101155665D02*
X274844054Y-101108046D01*
X274891673Y-100965189D01*
X274891673Y-100869951D01*
X274844054Y-100727094D01*
X274748816Y-100631856D01*
X274653578Y-100584237D01*
X274463102Y-100536618D01*
X274320245Y-100536618D01*
X274129769Y-100584237D01*
X274034531Y-100631856D01*
X273939293Y-100727094D01*
X273891673Y-100869951D01*
X273891673Y-100965189D01*
X273939293Y-101108046D01*
X273986912Y-101155665D01*
X274891673Y-102108046D02*
X274891673Y-101536618D01*
X274891673Y-101822332D02*
X273891673Y-101822332D01*
X274034531Y-101727094D01*
X274129769Y-101631856D01*
X274177388Y-101536618D01*
X274891673Y-103060427D02*
X274891673Y-102488999D01*
X274891673Y-102774713D02*
X273891673Y-102774713D01*
X274034531Y-102679475D01*
X274129769Y-102584237D01*
X274177388Y-102488999D01*
X218837013Y-100445039D02*
X218884632Y-100397420D01*
X218932251Y-100254563D01*
X218932251Y-100159325D01*
X218884632Y-100016468D01*
X218789394Y-99921230D01*
X218694156Y-99873611D01*
X218503680Y-99825992D01*
X218360823Y-99825992D01*
X218170347Y-99873611D01*
X218075109Y-99921230D01*
X217979871Y-100016468D01*
X217932251Y-100159325D01*
X217932251Y-100254563D01*
X217979871Y-100397420D01*
X218027490Y-100445039D01*
X218932251Y-101397420D02*
X218932251Y-100825992D01*
X218932251Y-101111706D02*
X217932251Y-101111706D01*
X218075109Y-101016468D01*
X218170347Y-100921230D01*
X218217966Y-100825992D01*
X218027490Y-101778373D02*
X217979871Y-101825992D01*
X217932251Y-101921230D01*
X217932251Y-102159325D01*
X217979871Y-102254563D01*
X218027490Y-102302182D01*
X218122728Y-102349801D01*
X218217966Y-102349801D01*
X218360823Y-102302182D01*
X218932251Y-101730754D01*
X218932251Y-102349801D01*
X168235408Y-99849726D02*
X168283027Y-99802107D01*
X168330646Y-99659250D01*
X168330646Y-99564012D01*
X168283027Y-99421155D01*
X168187789Y-99325917D01*
X168092551Y-99278298D01*
X167902075Y-99230679D01*
X167759218Y-99230679D01*
X167568742Y-99278298D01*
X167473504Y-99325917D01*
X167378266Y-99421155D01*
X167330646Y-99564012D01*
X167330646Y-99659250D01*
X167378266Y-99802107D01*
X167425885Y-99849726D01*
X168330646Y-100802107D02*
X168330646Y-100230679D01*
X168330646Y-100516393D02*
X167330646Y-100516393D01*
X167473504Y-100421155D01*
X167568742Y-100325917D01*
X167616361Y-100230679D01*
X167330646Y-101135441D02*
X167330646Y-101754488D01*
X167711599Y-101421155D01*
X167711599Y-101564012D01*
X167759218Y-101659250D01*
X167806837Y-101706869D01*
X167902075Y-101754488D01*
X168140170Y-101754488D01*
X168235408Y-101706869D01*
X168283027Y-101659250D01*
X168330646Y-101564012D01*
X168330646Y-101278298D01*
X168283027Y-101183060D01*
X168235408Y-101135441D01*
X118824429Y-100445039D02*
X118872048Y-100397420D01*
X118919667Y-100254563D01*
X118919667Y-100159325D01*
X118872048Y-100016468D01*
X118776810Y-99921230D01*
X118681572Y-99873611D01*
X118491096Y-99825992D01*
X118348239Y-99825992D01*
X118157763Y-99873611D01*
X118062525Y-99921230D01*
X117967287Y-100016468D01*
X117919667Y-100159325D01*
X117919667Y-100254563D01*
X117967287Y-100397420D01*
X118014906Y-100445039D01*
X118919667Y-101397420D02*
X118919667Y-100825992D01*
X118919667Y-101111706D02*
X117919667Y-101111706D01*
X118062525Y-101016468D01*
X118157763Y-100921230D01*
X118205382Y-100825992D01*
X118253001Y-102254563D02*
X118919667Y-102254563D01*
X117872048Y-102016468D02*
X118586334Y-101778373D01*
X118586334Y-102397420D01*
X61674381Y-99849726D02*
X61722000Y-99802107D01*
X61769619Y-99659250D01*
X61769619Y-99564012D01*
X61722000Y-99421155D01*
X61626762Y-99325917D01*
X61531524Y-99278298D01*
X61341048Y-99230679D01*
X61198191Y-99230679D01*
X61007715Y-99278298D01*
X60912477Y-99325917D01*
X60817239Y-99421155D01*
X60769619Y-99564012D01*
X60769619Y-99659250D01*
X60817239Y-99802107D01*
X60864858Y-99849726D01*
X61769619Y-100802107D02*
X61769619Y-100230679D01*
X61769619Y-100516393D02*
X60769619Y-100516393D01*
X60912477Y-100421155D01*
X61007715Y-100325917D01*
X61055334Y-100230679D01*
X60769619Y-101706869D02*
X60769619Y-101230679D01*
X61245810Y-101183060D01*
X61198191Y-101230679D01*
X61150572Y-101325917D01*
X61150572Y-101564012D01*
X61198191Y-101659250D01*
X61245810Y-101706869D01*
X61341048Y-101754488D01*
X61579143Y-101754488D01*
X61674381Y-101706869D01*
X61722000Y-101659250D01*
X61769619Y-101564012D01*
X61769619Y-101325917D01*
X61722000Y-101230679D01*
X61674381Y-101183060D01*
X14644654Y-104727543D02*
X14692273Y-104679924D01*
X14739892Y-104537067D01*
X14739892Y-104441829D01*
X14692273Y-104298972D01*
X14597035Y-104203734D01*
X14501797Y-104156115D01*
X14311321Y-104108496D01*
X14168464Y-104108496D01*
X13977988Y-104156115D01*
X13882750Y-104203734D01*
X13787512Y-104298972D01*
X13739892Y-104441829D01*
X13739892Y-104537067D01*
X13787512Y-104679924D01*
X13835131Y-104727543D01*
X14739892Y-105679924D02*
X14739892Y-105108496D01*
X14739892Y-105394210D02*
X13739892Y-105394210D01*
X13882750Y-105298972D01*
X13977988Y-105203734D01*
X14025607Y-105108496D01*
X13739892Y-106537067D02*
X13739892Y-106346591D01*
X13787512Y-106251353D01*
X13835131Y-106203734D01*
X13977988Y-106108496D01*
X14168464Y-106060877D01*
X14549416Y-106060877D01*
X14644654Y-106108496D01*
X14692273Y-106156115D01*
X14739892Y-106251353D01*
X14739892Y-106441829D01*
X14692273Y-106537067D01*
X14644654Y-106584686D01*
X14549416Y-106632305D01*
X14311321Y-106632305D01*
X14216083Y-106584686D01*
X14168464Y-106537067D01*
X14120845Y-106441829D01*
X14120845Y-106251353D01*
X14168464Y-106156115D01*
X14216083Y-106108496D01*
X14311321Y-106060877D01*
X169264337Y-39313403D02*
X169311956Y-39265784D01*
X169359575Y-39122927D01*
X169359575Y-39027689D01*
X169311956Y-38884832D01*
X169216718Y-38789594D01*
X169121480Y-38741975D01*
X168931004Y-38694356D01*
X168788147Y-38694356D01*
X168597671Y-38741975D01*
X168502433Y-38789594D01*
X168407195Y-38884832D01*
X168359575Y-39027689D01*
X168359575Y-39122927D01*
X168407195Y-39265784D01*
X168454814Y-39313403D01*
X169359575Y-40265784D02*
X169359575Y-39694356D01*
X169359575Y-39980070D02*
X168359575Y-39980070D01*
X168502433Y-39884832D01*
X168597671Y-39789594D01*
X168645290Y-39694356D01*
X168359575Y-40599118D02*
X168359575Y-41265784D01*
X169359575Y-40837213D01*
X229522021Y-38763113D02*
X229569640Y-38715494D01*
X229617259Y-38572637D01*
X229617259Y-38477399D01*
X229569640Y-38334542D01*
X229474402Y-38239304D01*
X229379164Y-38191685D01*
X229188688Y-38144066D01*
X229045831Y-38144066D01*
X228855355Y-38191685D01*
X228760117Y-38239304D01*
X228664879Y-38334542D01*
X228617259Y-38477399D01*
X228617259Y-38572637D01*
X228664879Y-38715494D01*
X228712498Y-38763113D01*
X229617259Y-39715494D02*
X229617259Y-39144066D01*
X229617259Y-39429780D02*
X228617259Y-39429780D01*
X228760117Y-39334542D01*
X228855355Y-39239304D01*
X228902974Y-39144066D01*
X229045831Y-40286923D02*
X228998212Y-40191685D01*
X228950593Y-40144066D01*
X228855355Y-40096447D01*
X228807736Y-40096447D01*
X228712498Y-40144066D01*
X228664879Y-40191685D01*
X228617259Y-40286923D01*
X228617259Y-40477399D01*
X228664879Y-40572637D01*
X228712498Y-40620256D01*
X228807736Y-40667875D01*
X228855355Y-40667875D01*
X228950593Y-40620256D01*
X228998212Y-40572637D01*
X229045831Y-40477399D01*
X229045831Y-40286923D01*
X229093450Y-40191685D01*
X229141069Y-40144066D01*
X229236307Y-40096447D01*
X229426783Y-40096447D01*
X229522021Y-40144066D01*
X229569640Y-40191685D01*
X229617259Y-40286923D01*
X229617259Y-40477399D01*
X229569640Y-40572637D01*
X229522021Y-40620256D01*
X229426783Y-40667875D01*
X229236307Y-40667875D01*
X229141069Y-40620256D01*
X229093450Y-40572637D01*
X229045831Y-40477399D01*
D12*
X-3020107Y-35472037D02*
X-2991079Y-35559122D01*
X-2962050Y-35588151D01*
X-2903993Y-35617180D01*
X-2816907Y-35617180D01*
X-2758850Y-35588151D01*
X-2729822Y-35559122D01*
X-2700793Y-35501065D01*
X-2700793Y-35268837D01*
X-3310393Y-35268837D01*
X-3310393Y-35472037D01*
X-3281365Y-35530094D01*
X-3252336Y-35559122D01*
X-3194279Y-35588151D01*
X-3136222Y-35588151D01*
X-3078165Y-35559122D01*
X-3049136Y-35530094D01*
X-3020107Y-35472037D01*
X-3020107Y-35268837D01*
X-2700793Y-36197751D02*
X-2700793Y-35849408D01*
X-2700793Y-36023580D02*
X-3310393Y-36023580D01*
X-3223307Y-35965522D01*
X-3165250Y-35907465D01*
X-3136222Y-35849408D01*
D10*
X229433824Y-80802969D02*
X228433824Y-80802969D01*
X228433824Y-81041064D01*
X228481444Y-81183921D01*
X228576682Y-81279159D01*
X228671920Y-81326778D01*
X228862396Y-81374397D01*
X229005253Y-81374397D01*
X229195729Y-81326778D01*
X229290967Y-81279159D01*
X229386205Y-81183921D01*
X229433824Y-81041064D01*
X229433824Y-80802969D01*
X228433824Y-82231540D02*
X228433824Y-82041064D01*
X228481444Y-81945826D01*
X228529063Y-81898207D01*
X228671920Y-81802969D01*
X228862396Y-81755350D01*
X229243348Y-81755350D01*
X229338586Y-81802969D01*
X229386205Y-81850588D01*
X229433824Y-81945826D01*
X229433824Y-82136302D01*
X229386205Y-82231540D01*
X229338586Y-82279159D01*
X229243348Y-82326778D01*
X229005253Y-82326778D01*
X228910015Y-82279159D01*
X228862396Y-82231540D01*
X228814777Y-82136302D01*
X228814777Y-81945826D01*
X228862396Y-81850588D01*
X228910015Y-81802969D01*
X229005253Y-81755350D01*
X228433824Y-82945826D02*
X228433824Y-83041064D01*
X228481444Y-83136302D01*
X228529063Y-83183921D01*
X228624301Y-83231540D01*
X228814777Y-83279159D01*
X229052872Y-83279159D01*
X229243348Y-83231540D01*
X229338586Y-83183921D01*
X229386205Y-83136302D01*
X229433824Y-83041064D01*
X229433824Y-82945826D01*
X229386205Y-82850588D01*
X229338586Y-82802969D01*
X229243348Y-82755350D01*
X229052872Y-82707731D01*
X228814777Y-82707731D01*
X228624301Y-82755350D01*
X228529063Y-82802969D01*
X228481444Y-82850588D01*
X228433824Y-82945826D01*
X235601015Y-76176404D02*
X234601015Y-76176404D01*
X234601015Y-76414499D01*
X234648635Y-76557356D01*
X234743873Y-76652594D01*
X234839111Y-76700213D01*
X235029587Y-76747832D01*
X235172444Y-76747832D01*
X235362920Y-76700213D01*
X235458158Y-76652594D01*
X235553396Y-76557356D01*
X235601015Y-76414499D01*
X235601015Y-76176404D01*
X235029587Y-77319261D02*
X234981968Y-77224023D01*
X234934349Y-77176404D01*
X234839111Y-77128785D01*
X234791492Y-77128785D01*
X234696254Y-77176404D01*
X234648635Y-77224023D01*
X234601015Y-77319261D01*
X234601015Y-77509737D01*
X234648635Y-77604975D01*
X234696254Y-77652594D01*
X234791492Y-77700213D01*
X234839111Y-77700213D01*
X234934349Y-77652594D01*
X234981968Y-77604975D01*
X235029587Y-77509737D01*
X235029587Y-77319261D01*
X235077206Y-77224023D01*
X235124825Y-77176404D01*
X235220063Y-77128785D01*
X235410539Y-77128785D01*
X235505777Y-77176404D01*
X235553396Y-77224023D01*
X235601015Y-77319261D01*
X235601015Y-77509737D01*
X235553396Y-77604975D01*
X235505777Y-77652594D01*
X235410539Y-77700213D01*
X235220063Y-77700213D01*
X235124825Y-77652594D01*
X235077206Y-77604975D01*
X235029587Y-77509737D01*
X234601015Y-78604975D02*
X234601015Y-78128785D01*
X235077206Y-78081166D01*
X235029587Y-78128785D01*
X234981968Y-78224023D01*
X234981968Y-78462118D01*
X235029587Y-78557356D01*
X235077206Y-78604975D01*
X235172444Y-78652594D01*
X235410539Y-78652594D01*
X235505777Y-78604975D01*
X235553396Y-78557356D01*
X235601015Y-78462118D01*
X235601015Y-78224023D01*
X235553396Y-78128785D01*
X235505777Y-78081166D01*
%LPC*%
D13*
X159702500Y-30638750D03*
D14*
X157162500Y-35718750D03*
D13*
X153352500Y-33178750D03*
D15*
X152082500Y-35718750D03*
X162242500Y-35718750D03*
G36*
G01*
X46133029Y-38422744D02*
X46473029Y-38422744D01*
G75*
G02*
X46613029Y-38562744I0J-140000D01*
G01*
X46613029Y-38842744D01*
G75*
G02*
X46473029Y-38982744I-140000J0D01*
G01*
X46133029Y-38982744D01*
G75*
G02*
X45993029Y-38842744I0J140000D01*
G01*
X45993029Y-38562744D01*
G75*
G02*
X46133029Y-38422744I140000J0D01*
G01*
G37*
G36*
G01*
X46133029Y-39382744D02*
X46473029Y-39382744D01*
G75*
G02*
X46613029Y-39522744I0J-140000D01*
G01*
X46613029Y-39802744D01*
G75*
G02*
X46473029Y-39942744I-140000J0D01*
G01*
X46133029Y-39942744D01*
G75*
G02*
X45993029Y-39802744I0J140000D01*
G01*
X45993029Y-39522744D01*
G75*
G02*
X46133029Y-39382744I140000J0D01*
G01*
G37*
D13*
X45402500Y-30638750D03*
D14*
X42862500Y-35718750D03*
D13*
X39052500Y-33178750D03*
D15*
X37782500Y-35718750D03*
X47942500Y-35718750D03*
X133667500Y-54768750D03*
X123507500Y-54768750D03*
D13*
X124777500Y-52228750D03*
D14*
X128587500Y-54768750D03*
D13*
X131127500Y-49688750D03*
D15*
X9842500Y-35718750D03*
X-317500Y-35718750D03*
D13*
X952500Y-33178750D03*
D14*
X4762500Y-35718750D03*
D13*
X7302500Y-30638750D03*
X9683750Y-106838750D03*
D14*
X7143750Y-111918750D03*
D13*
X3333750Y-109378750D03*
D15*
X2063750Y-111918750D03*
X12223750Y-111918750D03*
D13*
X26352500Y-30638750D03*
D14*
X23812500Y-35718750D03*
D13*
X20002500Y-33178750D03*
D15*
X18732500Y-35718750D03*
X28892500Y-35718750D03*
D13*
X12065000Y-49688750D03*
D14*
X9525000Y-54768750D03*
D13*
X5715000Y-52228750D03*
D15*
X4445000Y-54768750D03*
X14605000Y-54768750D03*
X16986250Y-73818750D03*
X6826250Y-73818750D03*
D13*
X8096250Y-71278750D03*
D14*
X11906250Y-73818750D03*
D13*
X14446250Y-68738750D03*
X178752500Y-30638750D03*
D14*
X176212500Y-35718750D03*
D13*
X172402500Y-33178750D03*
D15*
X171132500Y-35718750D03*
X181292500Y-35718750D03*
D13*
X121602500Y-30638750D03*
D14*
X119062500Y-35718750D03*
D13*
X115252500Y-33178750D03*
D15*
X113982500Y-35718750D03*
X124142500Y-35718750D03*
D16*
X88106324Y-31279711D03*
X88106324Y-27979711D03*
X142875120Y-75876629D03*
X142875120Y-79176629D03*
D15*
X100330000Y-73818750D03*
X90170000Y-73818750D03*
D13*
X91440000Y-71278750D03*
D14*
X95250000Y-73818750D03*
D13*
X97790000Y-68738750D03*
X16827512Y-87788828D03*
D14*
X14287512Y-92868828D03*
D13*
X10477512Y-90328828D03*
D15*
X9207512Y-92868828D03*
X19367512Y-92868828D03*
D17*
X2381262Y-85883828D03*
X26193762Y-85883828D03*
D14*
X2381262Y-101123828D03*
X26193762Y-101123828D03*
D18*
X226287688Y-97221958D03*
X226287688Y-100421958D03*
X221387688Y-97221958D03*
X221387688Y-100421958D03*
X121375520Y-100421958D03*
X121375520Y-97221958D03*
X126275520Y-100421958D03*
X126275520Y-97221958D03*
D15*
X152717500Y-54768750D03*
X142557500Y-54768750D03*
D13*
X143827500Y-52228750D03*
D14*
X147637500Y-54768750D03*
D13*
X150177500Y-49688750D03*
D15*
X38417500Y-54768750D03*
X28257500Y-54768750D03*
D13*
X29527500Y-52228750D03*
D14*
X33337500Y-54768750D03*
D13*
X35877500Y-49688750D03*
X212090000Y-68738750D03*
D14*
X209550000Y-73818750D03*
D13*
X205740000Y-71278750D03*
D15*
X204470000Y-73818750D03*
X214630000Y-73818750D03*
D13*
X126365000Y-87788750D03*
D14*
X123825000Y-92868750D03*
D13*
X120015000Y-90328750D03*
D15*
X118745000Y-92868750D03*
X128905000Y-92868750D03*
X257492500Y-111918750D03*
X247332500Y-111918750D03*
D13*
X248602500Y-109378750D03*
D14*
X252412500Y-111918750D03*
D13*
X254952500Y-106838750D03*
D15*
X295592500Y-54768750D03*
X285432500Y-54768750D03*
D13*
X286702500Y-52228750D03*
D14*
X290512500Y-54768750D03*
D13*
X293052500Y-49688750D03*
D15*
X36036250Y-111918750D03*
X25876250Y-111918750D03*
D13*
X27146250Y-109378750D03*
D14*
X30956250Y-111918750D03*
D13*
X33496250Y-106838750D03*
D14*
X271462500Y-82073750D03*
X247650000Y-82073750D03*
D17*
X271462500Y-66833750D03*
X247650000Y-66833750D03*
D15*
X264636250Y-73818750D03*
X254476250Y-73818750D03*
D13*
X255746250Y-71278750D03*
D14*
X259556250Y-73818750D03*
D13*
X262096250Y-68738750D03*
X102552500Y-30638750D03*
D14*
X100012500Y-35718750D03*
D13*
X96202500Y-33178750D03*
D15*
X94932500Y-35718750D03*
X105092500Y-35718750D03*
D13*
X64452500Y-30638750D03*
D14*
X61912500Y-35718750D03*
D13*
X58102500Y-33178750D03*
D15*
X56832500Y-35718750D03*
X66992500Y-35718750D03*
D13*
X140652500Y-30638750D03*
D14*
X138112500Y-35718750D03*
D13*
X134302500Y-33178750D03*
D15*
X133032500Y-35718750D03*
X143192500Y-35718750D03*
D16*
X110728218Y-112190722D03*
X110728218Y-115490722D03*
X43457849Y-111595409D03*
X43457849Y-114895409D03*
X225028314Y-80367255D03*
X225028314Y-83667255D03*
D13*
X97790000Y-106838750D03*
X91440000Y-109378750D03*
D14*
X95250000Y-111918750D03*
D15*
X90170000Y-111918750D03*
X100330000Y-111918750D03*
D17*
X76200000Y-118903750D03*
X114300000Y-118903750D03*
D14*
X76200000Y-103663750D03*
X114300000Y-103663750D03*
D18*
X39885971Y-42862536D03*
X39885971Y-39662536D03*
X44785971Y-42862536D03*
X44785971Y-39662536D03*
D13*
X293052500Y-30638750D03*
D14*
X290512500Y-35718750D03*
D13*
X286702500Y-33178750D03*
D15*
X285432500Y-35718750D03*
X295592500Y-35718750D03*
X238442500Y-111918750D03*
X228282500Y-111918750D03*
D13*
X229552500Y-109378750D03*
D14*
X233362500Y-111918750D03*
D13*
X235902500Y-106838750D03*
D16*
X280987736Y-114300096D03*
X280987736Y-111000096D03*
D19*
X280392423Y-78581316D03*
X283692423Y-78581316D03*
X280392423Y-49410979D03*
X283692423Y-49410979D03*
X279201797Y-31551589D03*
X282501797Y-31551589D03*
D16*
X263128346Y-111000096D03*
X263128346Y-114300096D03*
X261937720Y-83803194D03*
X261937720Y-80503194D03*
X267890850Y-71114125D03*
X267890850Y-74414125D03*
X257175216Y-56231250D03*
X257175216Y-59531250D03*
D19*
X261665842Y-27979711D03*
X258365842Y-27979711D03*
D16*
X260746875Y-114300096D03*
X260746875Y-111000096D03*
X244078330Y-27979711D03*
X244078330Y-31279711D03*
X242887500Y-111000000D03*
X242887500Y-114300000D03*
X236934574Y-75876629D03*
X236934574Y-79176629D03*
X252412500Y-56231300D03*
X252412500Y-59531300D03*
X240506452Y-31279711D03*
X240506452Y-27979711D03*
X223837500Y-114300096D03*
X223837500Y-111000096D03*
X233362696Y-59531300D03*
X233362696Y-56231300D03*
X221456436Y-27979711D03*
X221456436Y-31279711D03*
X202406420Y-112786035D03*
X202406420Y-116086035D03*
X206573611Y-83667255D03*
X206573611Y-80367255D03*
X217884558Y-75876629D03*
X217884558Y-79176629D03*
X214312500Y-56231250D03*
X214312500Y-59531250D03*
X202406420Y-31279711D03*
X202406420Y-27979711D03*
X187523595Y-80367255D03*
X187523595Y-83667255D03*
X200025168Y-79176629D03*
X200025168Y-75876629D03*
X195262664Y-59531300D03*
X195262664Y-56231300D03*
X183356404Y-27979711D03*
X183356404Y-31279711D03*
X162520449Y-112190722D03*
X162520449Y-115490722D03*
X169068892Y-83667255D03*
X169068892Y-80367255D03*
X180975000Y-75876629D03*
X180975000Y-79176629D03*
X176212500Y-56231250D03*
X176212500Y-59531250D03*
X164306388Y-27979711D03*
X164306388Y-31279711D03*
X148828250Y-80367255D03*
X148828250Y-83667255D03*
X161925136Y-79176629D03*
X161925136Y-75876629D03*
X157162632Y-59531300D03*
X157162632Y-56231300D03*
X145256372Y-27979711D03*
X145256372Y-31279711D03*
X130968860Y-83667255D03*
X130968860Y-80367255D03*
X138112616Y-56231300D03*
X138112616Y-59531300D03*
X126206356Y-31279711D03*
X126206356Y-27979711D03*
X110728218Y-80367255D03*
X110728218Y-83667255D03*
X123825104Y-79176629D03*
X123825104Y-75876629D03*
X119062500Y-59531300D03*
X119062500Y-56231300D03*
X107156340Y-27979711D03*
X107156340Y-31279711D03*
X92868828Y-83667255D03*
X92868828Y-80367255D03*
X104775000Y-75876629D03*
X104775000Y-79176629D03*
X100012500Y-56231250D03*
X100012500Y-59531250D03*
X72032873Y-80367255D03*
X72032873Y-83667255D03*
X85725072Y-79176629D03*
X85725072Y-75876629D03*
X80962568Y-59531300D03*
X80962568Y-56231300D03*
X69056308Y-27979711D03*
X69056308Y-31279711D03*
X54768796Y-83667255D03*
X54768796Y-80367255D03*
X66675056Y-75876629D03*
X66675056Y-79176629D03*
X61912500Y-56231250D03*
X61912500Y-59531250D03*
X50006292Y-31279711D03*
X50006292Y-27979711D03*
X39885971Y-114895409D03*
X39885971Y-111595409D03*
X47625040Y-79176629D03*
X47625040Y-75876629D03*
X40481284Y-59531300D03*
X40481284Y-56231300D03*
D19*
X32470337Y-28575024D03*
X29170337Y-28575024D03*
D16*
X16668750Y-111595409D03*
X16668750Y-114895409D03*
D19*
X18726581Y-60721926D03*
X22026581Y-60721926D03*
X18726581Y-58340674D03*
X22026581Y-58340674D03*
X18726581Y-55959422D03*
X22026581Y-55959422D03*
X9796886Y-31551589D03*
X13096886Y-31551589D03*
D13*
X197802500Y-30638750D03*
D14*
X195262500Y-35718750D03*
D13*
X191452500Y-33178750D03*
D15*
X190182500Y-35718750D03*
X200342500Y-35718750D03*
D13*
X83502500Y-30638750D03*
D14*
X80962500Y-35718750D03*
D13*
X77152500Y-33178750D03*
D15*
X75882500Y-35718750D03*
X86042500Y-35718750D03*
X186055000Y-92868750D03*
X175895000Y-92868750D03*
D13*
X177165000Y-90328750D03*
D14*
X180975000Y-92868750D03*
D13*
X183515000Y-87788750D03*
X154940000Y-106838750D03*
X148590000Y-109378750D03*
D14*
X152400000Y-111918750D03*
D15*
X147320000Y-111918750D03*
X157480000Y-111918750D03*
D17*
X133350000Y-118903750D03*
X171450000Y-118903750D03*
D14*
X133350000Y-103663750D03*
X171450000Y-103663750D03*
D15*
X62230000Y-73818750D03*
X52070000Y-73818750D03*
D13*
X53340000Y-71278750D03*
D14*
X57150000Y-73818750D03*
D13*
X59690000Y-68738750D03*
D14*
X28575000Y-101123750D03*
X4762500Y-101123750D03*
D17*
X28575000Y-85883750D03*
X4762500Y-85883750D03*
D15*
X21748750Y-92868750D03*
X11588750Y-92868750D03*
D13*
X12858750Y-90328750D03*
D14*
X16668750Y-92868750D03*
D13*
X19208750Y-87788750D03*
X40640000Y-68738750D03*
D14*
X38100000Y-73818750D03*
D13*
X34290000Y-71278750D03*
D15*
X33020000Y-73818750D03*
X43180000Y-73818750D03*
X57467500Y-54768750D03*
X47307500Y-54768750D03*
D13*
X48577500Y-52228750D03*
D14*
X52387500Y-54768750D03*
D13*
X54927500Y-49688750D03*
X50165000Y-87788750D03*
D14*
X47625000Y-92868750D03*
D13*
X43815000Y-90328750D03*
D15*
X42545000Y-92868750D03*
X52705000Y-92868750D03*
X59848750Y-111918750D03*
X49688750Y-111918750D03*
D13*
X50958750Y-109378750D03*
D14*
X54768750Y-111918750D03*
D13*
X57308750Y-106838750D03*
D15*
X76517500Y-54768750D03*
X66357500Y-54768750D03*
D13*
X67627500Y-52228750D03*
D14*
X71437500Y-54768750D03*
D13*
X73977500Y-49688750D03*
D15*
X81280000Y-73818750D03*
X71120000Y-73818750D03*
D13*
X72390000Y-71278750D03*
D14*
X76200000Y-73818750D03*
D13*
X78740000Y-68738750D03*
X69215000Y-87788750D03*
D14*
X66675000Y-92868750D03*
D13*
X62865000Y-90328750D03*
D15*
X61595000Y-92868750D03*
X71755000Y-92868750D03*
X95567500Y-54768750D03*
X85407500Y-54768750D03*
D13*
X86677500Y-52228750D03*
D14*
X90487500Y-54768750D03*
D13*
X93027500Y-49688750D03*
X88265000Y-87788750D03*
D14*
X85725000Y-92868750D03*
D13*
X81915000Y-90328750D03*
D15*
X80645000Y-92868750D03*
X90805000Y-92868750D03*
X114617500Y-54768750D03*
X104457500Y-54768750D03*
D13*
X105727500Y-52228750D03*
D14*
X109537500Y-54768750D03*
D13*
X112077500Y-49688750D03*
D15*
X119380000Y-73818750D03*
X109220000Y-73818750D03*
D13*
X110490000Y-71278750D03*
D14*
X114300000Y-73818750D03*
D13*
X116840000Y-68738750D03*
X107315000Y-87788750D03*
D14*
X104775000Y-92868750D03*
D13*
X100965000Y-90328750D03*
D15*
X99695000Y-92868750D03*
X109855000Y-92868750D03*
X138430000Y-73818750D03*
X128270000Y-73818750D03*
D13*
X129540000Y-71278750D03*
D14*
X133350000Y-73818750D03*
D13*
X135890000Y-68738750D03*
D15*
X157480000Y-73818750D03*
X147320000Y-73818750D03*
D13*
X148590000Y-71278750D03*
D14*
X152400000Y-73818750D03*
D13*
X154940000Y-68738750D03*
X145415000Y-87788750D03*
D14*
X142875000Y-92868750D03*
D13*
X139065000Y-90328750D03*
D15*
X137795000Y-92868750D03*
X147955000Y-92868750D03*
X171767500Y-54768750D03*
X161607500Y-54768750D03*
D13*
X162877500Y-52228750D03*
D14*
X166687500Y-54768750D03*
D13*
X169227500Y-49688750D03*
D15*
X176530000Y-73818750D03*
X166370000Y-73818750D03*
D13*
X167640000Y-71278750D03*
D14*
X171450000Y-73818750D03*
D13*
X173990000Y-68738750D03*
X164465000Y-87788750D03*
D14*
X161925000Y-92868750D03*
D13*
X158115000Y-90328750D03*
D15*
X156845000Y-92868750D03*
X167005000Y-92868750D03*
X190817500Y-54768750D03*
X180657500Y-54768750D03*
D13*
X181927500Y-52228750D03*
D14*
X185737500Y-54768750D03*
D13*
X188277500Y-49688750D03*
X193040000Y-68738750D03*
D14*
X190500000Y-73818750D03*
D13*
X186690000Y-71278750D03*
D15*
X185420000Y-73818750D03*
X195580000Y-73818750D03*
X209867500Y-54768750D03*
X199707500Y-54768750D03*
D13*
X200977500Y-52228750D03*
D14*
X204787500Y-54768750D03*
D13*
X207327500Y-49688750D03*
D15*
X205105000Y-92868750D03*
X194945000Y-92868750D03*
D13*
X196215000Y-90328750D03*
D14*
X200025000Y-92868750D03*
D13*
X202565000Y-87788750D03*
X195421250Y-106838750D03*
D14*
X192881250Y-111918750D03*
D13*
X189071250Y-109378750D03*
D15*
X187801250Y-111918750D03*
X197961250Y-111918750D03*
D13*
X216852500Y-30638750D03*
D14*
X214312500Y-35718750D03*
D13*
X210502500Y-33178750D03*
D15*
X209232500Y-35718750D03*
X219392500Y-35718750D03*
X228917500Y-54768750D03*
X218757500Y-54768750D03*
D13*
X220027500Y-52228750D03*
D14*
X223837500Y-54768750D03*
D13*
X226377500Y-49688750D03*
X221615000Y-87788750D03*
D14*
X219075000Y-92868750D03*
D13*
X215265000Y-90328750D03*
D15*
X213995000Y-92868750D03*
X224155000Y-92868750D03*
X219392500Y-111918750D03*
X209232500Y-111918750D03*
D13*
X210502500Y-109378750D03*
D14*
X214312500Y-111918750D03*
D13*
X216852500Y-106838750D03*
X235902500Y-30638750D03*
D14*
X233362500Y-35718750D03*
D13*
X229552500Y-33178750D03*
D15*
X228282500Y-35718750D03*
X238442500Y-35718750D03*
X247877501Y-54768750D03*
X237717501Y-54768750D03*
D13*
X238987501Y-52228750D03*
D14*
X242797501Y-54768750D03*
D13*
X245337501Y-49688750D03*
X231140000Y-68738750D03*
D14*
X228600000Y-73818750D03*
D13*
X224790000Y-71278750D03*
D15*
X223520000Y-73818750D03*
X233680000Y-73818750D03*
D13*
X254952500Y-30638750D03*
D14*
X252412500Y-35718750D03*
D13*
X248602500Y-33178750D03*
D15*
X247332500Y-35718750D03*
X257492500Y-35718750D03*
D14*
X273843750Y-43973750D03*
X250031250Y-43973750D03*
D17*
X273843750Y-28733750D03*
X250031250Y-28733750D03*
D15*
X267017500Y-35718750D03*
X256857500Y-35718750D03*
D13*
X258127500Y-33178750D03*
D14*
X261937500Y-35718750D03*
D13*
X264477500Y-30638750D03*
X274002500Y-30638750D03*
D14*
X271462500Y-35718750D03*
D13*
X267652500Y-33178750D03*
D15*
X266382500Y-35718750D03*
X276542500Y-35718750D03*
X271780000Y-54768750D03*
X261620000Y-54768750D03*
D13*
X262890000Y-52228750D03*
D14*
X266700000Y-54768750D03*
D13*
X269240000Y-49688750D03*
D15*
X276542500Y-92868750D03*
X266382500Y-92868750D03*
D13*
X267652500Y-90328750D03*
D14*
X271462500Y-92868750D03*
D13*
X274002500Y-87788750D03*
D15*
X276542500Y-111918750D03*
X266382500Y-111918750D03*
D13*
X267652500Y-109378750D03*
D14*
X271462500Y-111918750D03*
D13*
X274002500Y-106838750D03*
X293052500Y-87788750D03*
D14*
X290512500Y-92868750D03*
D13*
X286702500Y-90328750D03*
D15*
X285432500Y-92868750D03*
X295592500Y-92868750D03*
X295592500Y-111918750D03*
X285432500Y-111918750D03*
D13*
X286702500Y-109378750D03*
D14*
X290512500Y-111918750D03*
D13*
X293052500Y-106838750D03*
D16*
X80367255Y-115354783D03*
X80367255Y-112054783D03*
X166092327Y-112190722D03*
X166092327Y-115490722D03*
D18*
X101203210Y-39885971D03*
X101203210Y-43085971D03*
X96303210Y-39885971D03*
X96303210Y-43085971D03*
X161261075Y-42676597D03*
X161261075Y-39476597D03*
X166161075Y-42676597D03*
X166161075Y-39476597D03*
X226288440Y-38881420D03*
X226288440Y-42081420D03*
X221388440Y-38881420D03*
X221388440Y-42081420D03*
X277415858Y-42267223D03*
X277415858Y-39067223D03*
X282315858Y-42267223D03*
X282315858Y-39067223D03*
X277347110Y-101203210D03*
X277347110Y-98003210D03*
X282247110Y-101203210D03*
X282247110Y-98003210D03*
X171381396Y-99826645D03*
X171381396Y-96626645D03*
X176281396Y-99826645D03*
X176281396Y-96626645D03*
X69125056Y-97221958D03*
X69125056Y-100421958D03*
X64225056Y-97221958D03*
X64225056Y-100421958D03*
X15340710Y-102207897D03*
X15340710Y-99007897D03*
X20240710Y-102207897D03*
X20240710Y-99007897D03*
D20*
X-1785939Y-101965714D03*
D21*
X-1785939Y-103965714D03*
X-1785939Y-105965714D03*
D20*
X-1190626Y-70842247D03*
D21*
X-1190626Y-68842247D03*
X-1190626Y-66842247D03*
X-1190626Y-64842247D03*
X-1190626Y-62842247D03*
X-1190626Y-60842247D03*
D15*
X76517500Y-111918750D03*
X66357500Y-111918750D03*
D13*
X67627500Y-109378750D03*
D14*
X71437500Y-111918750D03*
D13*
X73977500Y-106838750D03*
X178752500Y-106838750D03*
D14*
X176212500Y-111918750D03*
D13*
X172402500Y-109378750D03*
D15*
X171132500Y-111918750D03*
X181292500Y-111918750D03*
D19*
X283692423Y-68460995D03*
X280392423Y-68460995D03*
D15*
X295592500Y-73818750D03*
X285432500Y-73818750D03*
D13*
X286702500Y-71278750D03*
D14*
X290512500Y-73818750D03*
D13*
X293052500Y-68738750D03*
D16*
X241697078Y-83667255D03*
X241697078Y-80367255D03*
D15*
X250349780Y-92869140D03*
X240189780Y-92869140D03*
D13*
X241459780Y-90329140D03*
D14*
X245269780Y-92869140D03*
D13*
X247809780Y-87789140D03*
X147796860Y-106839220D03*
D14*
X145256860Y-111919220D03*
D13*
X141446860Y-109379220D03*
D15*
X140176860Y-111919220D03*
X150336860Y-111919220D03*
D17*
X133350610Y-118904220D03*
X157163110Y-118904220D03*
D14*
X133350610Y-103664220D03*
X157163110Y-103664220D03*
D13*
X152559380Y-106839220D03*
D14*
X150019380Y-111919220D03*
D13*
X146209380Y-109379220D03*
D15*
X144939380Y-111919220D03*
X155099380Y-111919220D03*
D17*
X138113130Y-118904220D03*
X161925630Y-118904220D03*
D14*
X138113130Y-103664220D03*
X161925630Y-103664220D03*
X114300430Y-103664220D03*
X90487930Y-103664220D03*
D17*
X114300430Y-118904220D03*
X90487930Y-118904220D03*
D15*
X107474180Y-111919220D03*
X97314180Y-111919220D03*
D13*
X98584180Y-109379220D03*
D14*
X102394180Y-111919220D03*
D13*
X104934180Y-106839220D03*
D14*
X109537910Y-103664220D03*
X85725410Y-103664220D03*
D17*
X109537910Y-118904220D03*
X85725410Y-118904220D03*
D15*
X102711660Y-111919220D03*
X92551660Y-111919220D03*
D13*
X93821660Y-109379220D03*
D14*
X97631660Y-111919220D03*
D13*
X100171660Y-106839220D03*
D15*
X62230048Y-111918844D03*
X52070048Y-111918844D03*
D13*
X53340048Y-109378844D03*
D14*
X57150048Y-111918844D03*
D13*
X59690048Y-106838844D03*
D15*
X200342664Y-111918844D03*
X190182664Y-111918844D03*
D13*
X191452664Y-109378844D03*
D14*
X195262664Y-111918844D03*
D13*
X197802664Y-106838844D03*
X190658908Y-106838844D03*
D14*
X188118908Y-111918844D03*
D13*
X184308908Y-109378844D03*
D15*
X183038908Y-111918844D03*
X193198908Y-111918844D03*
X217011428Y-111918844D03*
X206851428Y-111918844D03*
D13*
X208121428Y-109378844D03*
D14*
X211931428Y-111918844D03*
D13*
X214471428Y-106838844D03*
D15*
X57467544Y-111918844D03*
X47307544Y-111918844D03*
D13*
X48577544Y-109378844D03*
D14*
X52387544Y-111918844D03*
D13*
X54927544Y-106838844D03*
D16*
X133945425Y-115490722D03*
X133945425Y-112190722D03*
D14*
X176206256Y-103663844D03*
X76206456Y-103663844D03*
D17*
X176206256Y-118903844D03*
X76206456Y-118903844D03*
D15*
X131286356Y-111918844D03*
X121126356Y-111918844D03*
D13*
X122396356Y-109378844D03*
D14*
X126206356Y-111918844D03*
D13*
X128746356Y-106838844D03*
G36*
G01*
X103002285Y-41130030D02*
X102662285Y-41130030D01*
G75*
G02*
X102522285Y-40990030I0J140000D01*
G01*
X102522285Y-40710030D01*
G75*
G02*
X102662285Y-40570030I140000J0D01*
G01*
X103002285Y-40570030D01*
G75*
G02*
X103142285Y-40710030I0J-140000D01*
G01*
X103142285Y-40990030D01*
G75*
G02*
X103002285Y-41130030I-140000J0D01*
G01*
G37*
G36*
G01*
X103002285Y-40170030D02*
X102662285Y-40170030D01*
G75*
G02*
X102522285Y-40030030I0J140000D01*
G01*
X102522285Y-39750030D01*
G75*
G02*
X102662285Y-39610030I140000J0D01*
G01*
X103002285Y-39610030D01*
G75*
G02*
X103142285Y-39750030I0J-140000D01*
G01*
X103142285Y-40030030D01*
G75*
G02*
X103002285Y-40170030I-140000J0D01*
G01*
G37*
G36*
G01*
X284134301Y-40050658D02*
X283794301Y-40050658D01*
G75*
G02*
X283654301Y-39910658I0J140000D01*
G01*
X283654301Y-39630658D01*
G75*
G02*
X283794301Y-39490658I140000J0D01*
G01*
X284134301Y-39490658D01*
G75*
G02*
X284274301Y-39630658I0J-140000D01*
G01*
X284274301Y-39910658D01*
G75*
G02*
X284134301Y-40050658I-140000J0D01*
G01*
G37*
G36*
G01*
X284134301Y-39090658D02*
X283794301Y-39090658D01*
G75*
G02*
X283654301Y-38950658I0J140000D01*
G01*
X283654301Y-38670658D01*
G75*
G02*
X283794301Y-38530658I140000J0D01*
G01*
X284134301Y-38530658D01*
G75*
G02*
X284274301Y-38670658I0J-140000D01*
G01*
X284274301Y-38950658D01*
G75*
G02*
X284134301Y-39090658I-140000J0D01*
G01*
G37*
G36*
G01*
X275799919Y-102443210D02*
X275459919Y-102443210D01*
G75*
G02*
X275319919Y-102303210I0J140000D01*
G01*
X275319919Y-102023210D01*
G75*
G02*
X275459919Y-101883210I140000J0D01*
G01*
X275799919Y-101883210D01*
G75*
G02*
X275939919Y-102023210I0J-140000D01*
G01*
X275939919Y-102303210D01*
G75*
G02*
X275799919Y-102443210I-140000J0D01*
G01*
G37*
G36*
G01*
X275799919Y-101483210D02*
X275459919Y-101483210D01*
G75*
G02*
X275319919Y-101343210I0J140000D01*
G01*
X275319919Y-101063210D01*
G75*
G02*
X275459919Y-100923210I140000J0D01*
G01*
X275799919Y-100923210D01*
G75*
G02*
X275939919Y-101063210I0J-140000D01*
G01*
X275939919Y-101343210D01*
G75*
G02*
X275799919Y-101483210I-140000J0D01*
G01*
G37*
G36*
G01*
X219840497Y-101847897D02*
X219500497Y-101847897D01*
G75*
G02*
X219360497Y-101707897I0J140000D01*
G01*
X219360497Y-101427897D01*
G75*
G02*
X219500497Y-101287897I140000J0D01*
G01*
X219840497Y-101287897D01*
G75*
G02*
X219980497Y-101427897I0J-140000D01*
G01*
X219980497Y-101707897D01*
G75*
G02*
X219840497Y-101847897I-140000J0D01*
G01*
G37*
G36*
G01*
X219840497Y-100887897D02*
X219500497Y-100887897D01*
G75*
G02*
X219360497Y-100747897I0J140000D01*
G01*
X219360497Y-100467897D01*
G75*
G02*
X219500497Y-100327897I140000J0D01*
G01*
X219840497Y-100327897D01*
G75*
G02*
X219980497Y-100467897I0J-140000D01*
G01*
X219980497Y-100747897D01*
G75*
G02*
X219840497Y-100887897I-140000J0D01*
G01*
G37*
G36*
G01*
X169238892Y-100292584D02*
X168898892Y-100292584D01*
G75*
G02*
X168758892Y-100152584I0J140000D01*
G01*
X168758892Y-99872584D01*
G75*
G02*
X168898892Y-99732584I140000J0D01*
G01*
X169238892Y-99732584D01*
G75*
G02*
X169378892Y-99872584I0J-140000D01*
G01*
X169378892Y-100152584D01*
G75*
G02*
X169238892Y-100292584I-140000J0D01*
G01*
G37*
G36*
G01*
X169238892Y-101252584D02*
X168898892Y-101252584D01*
G75*
G02*
X168758892Y-101112584I0J140000D01*
G01*
X168758892Y-100832584D01*
G75*
G02*
X168898892Y-100692584I140000J0D01*
G01*
X169238892Y-100692584D01*
G75*
G02*
X169378892Y-100832584I0J-140000D01*
G01*
X169378892Y-101112584D01*
G75*
G02*
X169238892Y-101252584I-140000J0D01*
G01*
G37*
G36*
G01*
X119827913Y-100887897D02*
X119487913Y-100887897D01*
G75*
G02*
X119347913Y-100747897I0J140000D01*
G01*
X119347913Y-100467897D01*
G75*
G02*
X119487913Y-100327897I140000J0D01*
G01*
X119827913Y-100327897D01*
G75*
G02*
X119967913Y-100467897I0J-140000D01*
G01*
X119967913Y-100747897D01*
G75*
G02*
X119827913Y-100887897I-140000J0D01*
G01*
G37*
G36*
G01*
X119827913Y-101847897D02*
X119487913Y-101847897D01*
G75*
G02*
X119347913Y-101707897I0J140000D01*
G01*
X119347913Y-101427897D01*
G75*
G02*
X119487913Y-101287897I140000J0D01*
G01*
X119827913Y-101287897D01*
G75*
G02*
X119967913Y-101427897I0J-140000D01*
G01*
X119967913Y-101707897D01*
G75*
G02*
X119827913Y-101847897I-140000J0D01*
G01*
G37*
G36*
G01*
X62677865Y-101252584D02*
X62337865Y-101252584D01*
G75*
G02*
X62197865Y-101112584I0J140000D01*
G01*
X62197865Y-100832584D01*
G75*
G02*
X62337865Y-100692584I140000J0D01*
G01*
X62677865Y-100692584D01*
G75*
G02*
X62817865Y-100832584I0J-140000D01*
G01*
X62817865Y-101112584D01*
G75*
G02*
X62677865Y-101252584I-140000J0D01*
G01*
G37*
G36*
G01*
X62677865Y-100292584D02*
X62337865Y-100292584D01*
G75*
G02*
X62197865Y-100152584I0J140000D01*
G01*
X62197865Y-99872584D01*
G75*
G02*
X62337865Y-99732584I140000J0D01*
G01*
X62677865Y-99732584D01*
G75*
G02*
X62817865Y-99872584I0J-140000D01*
G01*
X62817865Y-100152584D01*
G75*
G02*
X62677865Y-100292584I-140000J0D01*
G01*
G37*
G36*
G01*
X15648138Y-104575088D02*
X15308138Y-104575088D01*
G75*
G02*
X15168138Y-104435088I0J140000D01*
G01*
X15168138Y-104155088D01*
G75*
G02*
X15308138Y-104015088I140000J0D01*
G01*
X15648138Y-104015088D01*
G75*
G02*
X15788138Y-104155088I0J-140000D01*
G01*
X15788138Y-104435088D01*
G75*
G02*
X15648138Y-104575088I-140000J0D01*
G01*
G37*
G36*
G01*
X15648138Y-105535088D02*
X15308138Y-105535088D01*
G75*
G02*
X15168138Y-105395088I0J140000D01*
G01*
X15168138Y-105115088D01*
G75*
G02*
X15308138Y-104975088I140000J0D01*
G01*
X15648138Y-104975088D01*
G75*
G02*
X15788138Y-105115088I0J-140000D01*
G01*
X15788138Y-105395088D01*
G75*
G02*
X15648138Y-105535088I-140000J0D01*
G01*
G37*
G36*
G01*
X167917195Y-39756261D02*
X167577195Y-39756261D01*
G75*
G02*
X167437195Y-39616261I0J140000D01*
G01*
X167437195Y-39336261D01*
G75*
G02*
X167577195Y-39196261I140000J0D01*
G01*
X167917195Y-39196261D01*
G75*
G02*
X168057195Y-39336261I0J-140000D01*
G01*
X168057195Y-39616261D01*
G75*
G02*
X167917195Y-39756261I-140000J0D01*
G01*
G37*
G36*
G01*
X167917195Y-40716261D02*
X167577195Y-40716261D01*
G75*
G02*
X167437195Y-40576261I0J140000D01*
G01*
X167437195Y-40296261D01*
G75*
G02*
X167577195Y-40156261I140000J0D01*
G01*
X167917195Y-40156261D01*
G75*
G02*
X168057195Y-40296261I0J-140000D01*
G01*
X168057195Y-40576261D01*
G75*
G02*
X167917195Y-40716261I-140000J0D01*
G01*
G37*
G36*
G01*
X228174879Y-39205971D02*
X227834879Y-39205971D01*
G75*
G02*
X227694879Y-39065971I0J140000D01*
G01*
X227694879Y-38785971D01*
G75*
G02*
X227834879Y-38645971I140000J0D01*
G01*
X228174879Y-38645971D01*
G75*
G02*
X228314879Y-38785971I0J-140000D01*
G01*
X228314879Y-39065971D01*
G75*
G02*
X228174879Y-39205971I-140000J0D01*
G01*
G37*
G36*
G01*
X228174879Y-40165971D02*
X227834879Y-40165971D01*
G75*
G02*
X227694879Y-40025971I0J140000D01*
G01*
X227694879Y-39745971D01*
G75*
G02*
X227834879Y-39605971I140000J0D01*
G01*
X228174879Y-39605971D01*
G75*
G02*
X228314879Y-39745971I0J-140000D01*
G01*
X228314879Y-40025971D01*
G75*
G02*
X228174879Y-40165971I-140000J0D01*
G01*
G37*
D22*
X-2381252Y-28098780D03*
X158748Y-28098780D03*
X2698748Y-28098780D03*
X5238748Y-28098780D03*
X7778748Y-28098780D03*
X10318748Y-28098780D03*
X12858748Y-28098780D03*
X15398748Y-28098780D03*
X17938748Y-28098780D03*
X20478748Y-28098780D03*
X23018748Y-28098780D03*
X25558748Y-28098780D03*
X25558748Y-43338780D03*
X23018748Y-43338780D03*
X20478748Y-43338780D03*
X17938748Y-43338780D03*
X15398748Y-43338780D03*
X12858748Y-43338780D03*
X10318748Y-43338780D03*
X7778748Y-43338780D03*
X5238748Y-43338780D03*
X2698748Y-43338780D03*
X158748Y-43338780D03*
X-2381252Y-43338780D03*
D16*
X230981444Y-80367255D03*
X230981444Y-83667255D03*
X239315826Y-79176629D03*
X239315826Y-75876629D03*
D15*
X47942536Y-92868828D03*
X37782536Y-92868828D03*
D13*
X39052536Y-90328828D03*
D14*
X42862536Y-92868828D03*
D13*
X45402536Y-87788828D03*
X64452552Y-87788828D03*
D14*
X61912552Y-92868828D03*
D13*
X58102552Y-90328828D03*
D15*
X56832552Y-92868828D03*
X66992552Y-92868828D03*
X86042568Y-92868828D03*
X75882568Y-92868828D03*
D13*
X77152568Y-90328828D03*
D14*
X80962568Y-92868828D03*
D13*
X83502568Y-87788828D03*
X102552584Y-87788828D03*
D14*
X100012584Y-92868828D03*
D13*
X96202584Y-90328828D03*
D15*
X94932584Y-92868828D03*
X105092584Y-92868828D03*
X124142600Y-92868828D03*
X113982600Y-92868828D03*
D13*
X115252600Y-90328828D03*
D14*
X119062600Y-92868828D03*
D13*
X121602600Y-87788828D03*
X140652616Y-87788828D03*
D14*
X138112616Y-92868828D03*
D13*
X134302616Y-90328828D03*
D15*
X133032616Y-92868828D03*
X143192616Y-92868828D03*
X162242632Y-92868828D03*
X152082632Y-92868828D03*
D13*
X153352632Y-90328828D03*
D14*
X157162632Y-92868828D03*
D13*
X159702632Y-87788828D03*
X178752648Y-87788828D03*
D14*
X176212648Y-92868828D03*
D13*
X172402648Y-90328828D03*
D15*
X171132648Y-92868828D03*
X181292648Y-92868828D03*
X200342664Y-92868828D03*
X190182664Y-92868828D03*
D13*
X191452664Y-90328828D03*
D14*
X195262664Y-92868828D03*
D13*
X197802664Y-87788828D03*
X216852680Y-87788828D03*
D14*
X214312680Y-92868828D03*
D13*
X210502680Y-90328828D03*
D15*
X209232680Y-92868828D03*
X219392680Y-92868828D03*
D13*
X235902696Y-87788828D03*
D14*
X233362696Y-92868828D03*
D13*
X229552696Y-90328828D03*
D15*
X228282696Y-92868828D03*
X238442696Y-92868828D03*
X252730208Y-73818812D03*
X242570208Y-73818812D03*
D13*
X243840208Y-71278812D03*
D14*
X247650208Y-73818812D03*
D13*
X250190208Y-68738812D03*
D15*
X257492712Y-92868828D03*
X247332712Y-92868828D03*
D13*
X248602712Y-90328828D03*
D14*
X252412712Y-92868828D03*
D13*
X254952712Y-87788828D03*
D17*
X276066476Y-76231804D03*
D15*
X264001476Y-64293804D03*
D17*
X276066476Y-52355804D03*
D14*
X260826476Y-52355804D03*
D13*
X265271476Y-61753804D03*
D14*
X260826476Y-76231804D03*
X269081476Y-64293804D03*
D15*
X274161476Y-64293804D03*
D13*
X271621476Y-59213804D03*
M02*
